# Mesh 13
o Mesh13

v -2.5884 9.6262 0.0008
v -2.5884 9.661 0.1304
v -2.5884 9.661 -0.1289
v -2.5884 9.7559 -0.2238
v -2.5884 9.8855 -0.2585
v -2.5884 10.0151 -0.2238
v -2.5884 10.11 -0.1289
v -2.5884 10.1447 0.0008
v -2.5884 10.11 0.1304
v -2.5884 10.0151 0.2253
v -2.5884 9.8855 0.26
v -2.5884 9.7559 0.2253
v -0.4126 9.2715 0.0008
v -0.4126 9.3234 0.1945
v -0.4126 9.3234 -0.193
v -0.4126 9.4653 -0.3349
v -0.4126 9.6591 -0.3868
v -0.4126 9.8529 -0.3349
v -0.4126 9.9947 -0.193
v -0.4126 10.0467 0.0008
v -0.4126 9.9947 0.1945
v -0.4126 9.8529 0.3364
v -0.4126 9.6591 0.3883
v -0.4126 9.4653 0.3364
v -0.9784 9.6262 0.0008
v -0.9784 9.661 0.1304
v -0.9784 9.661 -0.1289
v -0.9784 9.7559 -0.2238
v -0.9784 9.8855 -0.2585
v -0.9784 10.0151 -0.2238
v -0.9784 10.11 -0.1289
v -0.9784 10.1447 0.0008
v -0.9784 10.11 0.1304
v -0.9784 10.0151 0.2253
v -0.9784 9.8855 0.26
v -0.9784 9.7559 0.2253
v -0.5277 9.5755 -0.2238
v -0.5277 9.7051 -0.2585
v -0.5277 9.4806 -0.1289
v -0.5277 9.4459 0.0008
v -0.5277 9.4806 0.1304
v -0.5277 9.5755 0.2253
v -0.5277 9.7051 0.26
v -0.5277 9.8348 0.2253
v -0.5277 9.9296 0.1304
v -0.5277 9.9644 0.0008
v -0.5277 9.9296 -0.1289
v -0.5277 9.8348 -0.2238
v -0.4198 9.4962 -0.2863
v -0.4414 9.5249 -0.2515
v -0.4773 9.5514 -0.2307
v -0.4198 9.3749 -0.165
v -0.4414 9.4183 -0.1449
v -0.4773 9.4535 -0.1329
v -0.4198 9.3305 0.0008
v -0.4414 9.3793 0.0008
v -0.4773 9.4177 0.0008
v -0.4198 9.3749 0.1665
v -0.4414 9.4183 0.1464
v -0.4773 9.4535 0.1344
v -0.4198 9.4962 0.2878
v -0.4414 9.5249 0.2531
v -0.4773 9.5514 0.2322
v -0.4198 9.662 0.3322
v -0.4414 9.6706 0.2921
v -0.4773 9.685 0.268
v -0.4198 9.8277 0.2878
v -0.4414 9.8163 0.2531
v -0.4773 9.8186 0.2322
v -0.4198 9.949 0.1665
v -0.4414 9.9229 0.1464
v -0.4773 9.9164 0.1344
v -0.4198 9.9934 0.0008
v -0.4414 9.9619 0.0008
v -0.4773 9.9522 0.0008
v -0.4198 9.949 -0.165
v -0.4414 9.9229 -0.1449
v -0.4773 9.9164 -0.1329
v -0.4198 9.662 -0.3307
v -0.4414 9.6706 -0.2906
v -0.4773 9.685 -0.2665
v -0.4198 9.8277 -0.2863
v -0.4414 9.8163 -0.2515
v -0.4773 9.8186 -0.2307
v -2.6847 9.9652 -0.1374
v -2.6847 10.0236 -0.079
v -2.6847 10.045 0.0008
v -2.6847 10.0236 0.0805
v -2.6847 9.9652 0.1389
v -2.6847 9.8855 0.1603
v -2.6847 9.8058 0.1389
v -2.6847 9.7473 0.0805
v -2.6847 9.7259 0.0008
v -2.6847 9.7474 -0.079
v -2.6847 9.8058 -0.1374
v -2.6847 9.8855 -0.1588
v -2.6419 10.1004 -0.1234
v -2.674 10.0716 -0.1067
v -2.6419 10.1336 0.0008
v -2.674 10.1004 0.0008
v -2.6419 10.1004 0.1249
v -2.674 10.0716 0.1082
v -2.6419 10.0096 0.2157
v -2.674 9.9929 0.1869
v -2.6419 9.8855 0.2489
v -2.674 9.8855 0.2157
v -2.6419 9.7614 0.2157
v -2.674 9.7781 0.1869
v -2.6419 9.6706 0.1249
v -2.674 9.6994 0.1082
v -2.6419 9.6373 0.0008
v -2.674 9.6705 0.0008
v -2.6419 9.6706 -0.1234
v -2.674 9.6994 -0.1067
v -2.6419 9.7614 -0.2142
v -2.674 9.7781 -0.1854
v -2.6419 9.8855 -0.2474
v -2.674 9.8855 -0.2142
v -2.6419 10.0096 -0.2142
v -2.674 9.9929 -0.1854
vt 0.5 0.5806
vt 0.5 0.643
vt 0.518 0.5806
vt 0.5 0.643
vt 0.518 0.643
vt 0.518 0.5806
vt 0.482 0.5806
vt 0.482 0.643
vt 0.5 0.5806
vt 0.482 0.643
vt 0.5 0.643
vt 0.5 0.5806
vt 0.4689 0.5806
vt 0.4689 0.643
vt 0.482 0.5806
vt 0.4689 0.643
vt 0.482 0.643
vt 0.482 0.5806
vt 0.2435 0.8473
vt 0.3049 0.8227
vt 0.2435 0.8296
vt 0.3049 0.8227
vt 0.3049 0.805
vt 0.2435 0.8296
vt 0.2435 0.8649
vt 0.3049 0.8404
vt 0.2435 0.8473
vt 0.3049 0.8404
vt 0.3049 0.8227
vt 0.2435 0.8473
vt 0.149 0.4232
vt 0.149 0.3618
vt 0.136 0.4232
vt 0.149 0.3618
vt 0.136 0.3618
vt 0.136 0.4232
vt 0.1667 0.4232
vt 0.1667 0.3618
vt 0.149 0.4232
vt 0.1667 0.3618
vt 0.149 0.3618
vt 0.149 0.4232
vt 0.1843 0.4232
vt 0.1843 0.3618
vt 0.1667 0.4232
vt 0.1843 0.3618
vt 0.1667 0.3618
vt 0.1667 0.4232
vt 0.1973 0.4232
vt 0.1973 0.3618
vt 0.1843 0.4232
vt 0.1973 0.3618
vt 0.1843 0.3618
vt 0.1843 0.4232
vt 0.4232 0.1806
vt 0.3618 0.156
vt 0.4232 0.1983
vt 0.3618 0.156
vt 0.3618 0.1737
vt 0.4232 0.1983
vt 0.4232 0.1629
vt 0.3618 0.1383
vt 0.4232 0.1806
vt 0.3618 0.1383
vt 0.3618 0.156
vt 0.4232 0.1806
vt 0.518 0.5806
vt 0.518 0.643
vt 0.5311 0.5806
vt 0.518 0.643
vt 0.5311 0.643
vt 0.5311 0.5806
vt 0.5 0.3574
vt 0.5 0.5806
vt 0.518 0.3574
vt 0.5 0.5806
vt 0.518 0.5806
vt 0.518 0.3574
vt 0.482 0.3574
vt 0.482 0.5806
vt 0.5 0.3574
vt 0.482 0.5806
vt 0.5 0.5806
vt 0.5 0.3574
vt 0.4689 0.3574
vt 0.4689 0.5806
vt 0.482 0.3574
vt 0.4689 0.5806
vt 0.482 0.5806
vt 0.482 0.3574
vt 0.024 0.8473
vt 0.2435 0.8473
vt 0.024 0.8296
vt 0.2435 0.8473
vt 0.2435 0.8296
vt 0.024 0.8296
vt 0.024 0.8649
vt 0.2435 0.8649
vt 0.024 0.8473
vt 0.2435 0.8649
vt 0.2435 0.8473
vt 0.024 0.8473
vt 0.149 0.6427
vt 0.149 0.4232
vt 0.136 0.6427
vt 0.149 0.4232
vt 0.136 0.4232
vt 0.136 0.6427
vt 0.1667 0.6427
vt 0.1667 0.4232
vt 0.149 0.6427
vt 0.1667 0.4232
vt 0.149 0.4232
vt 0.149 0.6427
vt 0.1843 0.6427
vt 0.1843 0.4232
vt 0.1667 0.6427
vt 0.1843 0.4232
vt 0.1667 0.4232
vt 0.1667 0.6427
vt 0.1973 0.6427
vt 0.1973 0.4232
vt 0.1843 0.6427
vt 0.1973 0.4232
vt 0.1843 0.4232
vt 0.1843 0.6427
vt 0.6427 0.1806
vt 0.4232 0.1806
vt 0.6427 0.1983
vt 0.4232 0.1806
vt 0.4232 0.1983
vt 0.6427 0.1983
vt 0.6427 0.1629
vt 0.4232 0.1629
vt 0.6427 0.1806
vt 0.4232 0.1629
vt 0.4232 0.1806
vt 0.6427 0.1806
vt 0.518 0.3574
vt 0.518 0.5806
vt 0.5311 0.3574
vt 0.518 0.5806
vt 0.5311 0.5806
vt 0.5311 0.3574
vt 0.3015 0.1515
vt 0.2835 0.0841
vt 0.282 0.1526
vt 0.282 0.1526
vt 0.2835 0.0841
vt 0.2666 0.0949
vt 0.2666 0.0949
vt 0.2544 0.1048
vt 0.282 0.1526
vt 0.282 0.1526
vt 0.2544 0.1048
vt 0.2681 0.1555
vt 0.2544 0.1048
vt 0.2472 0.1141
vt 0.2681 0.1555
vt 0.2472 0.1141
vt 0.2597 0.1606
vt 0.2681 0.1555
vt 0.3118 0.8017
vt 0.3049 0.805
vt 0.3118 0.8199
vt 0.3049 0.8227
vt 0.3118 0.8199
vt 0.3049 0.805
vt 0.2835 0.0841
vt 0.2341 0.0347
vt 0.2666 0.0949
vt 0.2243 0.0526
vt 0.2666 0.0949
vt 0.2341 0.0347
vt 0.2243 0.0526
vt 0.2173 0.0678
vt 0.2666 0.0949
vt 0.2544 0.1048
vt 0.2666 0.0949
vt 0.2173 0.0678
vt 0.2173 0.0678
vt 0.2132 0.08
vt 0.2544 0.1048
vt 0.2472 0.1141
vt 0.2544 0.1048
vt 0.2132 0.08
vt 0.4815 0.65
vt 0.482 0.643
vt 0.4679 0.65
vt 0.4689 0.643
vt 0.4679 0.65
vt 0.482 0.643
vt 0.2341 0.0347
vt 0.1666 0.0167
vt 0.2243 0.0526
vt 0.1666 0.0167
vt 0.1666 0.0372
vt 0.2243 0.0526
vt 0.1666 0.0372
vt 0.1666 0.0542
vt 0.2243 0.0526
vt 0.2243 0.0526
vt 0.1666 0.0542
vt 0.2173 0.0678
vt 0.1666 0.0542
vt 0.1666 0.0675
vt 0.2173 0.0678
vt 0.2173 0.0678
vt 0.1666 0.0675
vt 0.2132 0.08
vt 0.5 0.65
vt 0.5 0.643
vt 0.4815 0.65
vt 0.4815 0.65
vt 0.5 0.643
vt 0.482 0.643
vt 0.1666 0.0167
vt 0.0992 0.0347
vt 0.1666 0.0372
vt 0.0992 0.0347
vt 0.109 0.0526
vt 0.1666 0.0372
vt 0.1666 0.0372
vt 0.109 0.0526
vt 0.1666 0.0542
vt 0.116 0.0678
vt 0.1666 0.0542
vt 0.109 0.0526
vt 0.1666 0.0542
vt 0.116 0.0678
vt 0.1666 0.0675
vt 0.1202 0.08
vt 0.1666 0.0675
vt 0.116 0.0678
vt 0.5 0.643
vt 0.5 0.65
vt 0.518 0.643
vt 0.5 0.65
vt 0.5185 0.65
vt 0.518 0.643
vt 0.0992 0.0347
vt 0.0499 0.0841
vt 0.109 0.0526
vt 0.0499 0.0841
vt 0.0668 0.0949
vt 0.109 0.0526
vt 0.109 0.0526
vt 0.0668 0.0949
vt 0.116 0.0678
vt 0.116 0.0678
vt 0.0668 0.0949
vt 0.0789 0.1048
vt 0.116 0.0678
vt 0.0789 0.1048
vt 0.1202 0.08
vt 0.0789 0.1048
vt 0.0861 0.1141
vt 0.1202 0.08
vt 0.5311 0.643
vt 0.518 0.643
vt 0.5321 0.65
vt 0.518 0.643
vt 0.5185 0.65
vt 0.5321 0.65
vt 0.0499 0.0841
vt 0.0318 0.1515
vt 0.0668 0.0949
vt 0.0668 0.0949
vt 0.0318 0.1515
vt 0.0513 0.1526
vt 0.0668 0.0949
vt 0.0513 0.1526
vt 0.0789 0.1048
vt 0.0653 0.1555
vt 0.0789 0.1048
vt 0.0513 0.1526
vt 0.0789 0.1048
vt 0.0653 0.1555
vt 0.0861 0.1141
vt 0.0861 0.1141
vt 0.0653 0.1555
vt 0.0737 0.1606
vt 0.3618 0.156
vt 0.3618 0.1383
vt 0.3549 0.1533
vt 0.3618 0.1383
vt 0.3549 0.1351
vt 0.3549 0.1533
vt 0.0318 0.1515
vt 0.0499 0.219
vt 0.0513 0.1526
vt 0.0499 0.219
vt 0.0668 0.2102
vt 0.0513 0.1526
vt 0.0513 0.1526
vt 0.0668 0.2102
vt 0.0653 0.1555
vt 0.0789 0.2062
vt 0.0653 0.1555
vt 0.0668 0.2102
vt 0.35 0.1513
vt 0.35 0.1712
vt 0.3549 0.1533
vt 0.3549 0.1715
vt 0.3549 0.1533
vt 0.35 0.1712
vt 0.3618 0.1737
vt 0.3618 0.156
vt 0.3549 0.1715
vt 0.3618 0.156
vt 0.3549 0.1533
vt 0.3549 0.1715
vt 0.0499 0.219
vt 0.0992 0.2683
vt 0.0668 0.2102
vt 0.0992 0.2683
vt 0.109 0.2524
vt 0.0668 0.2102
vt 0.0668 0.2102
vt 0.109 0.2524
vt 0.0789 0.2062
vt 0.116 0.2433
vt 0.0789 0.2062
vt 0.109 0.2524
vt 0.2011 0.35
vt 0.1865 0.35
vt 0.1982 0.3549
vt 0.1865 0.35
vt 0.1849 0.3549
vt 0.1982 0.3549
vt 0.1982 0.3549
vt 0.1849 0.3549
vt 0.1973 0.3618
vt 0.1973 0.3618
vt 0.1849 0.3549
vt 0.1843 0.3618
vt 0.0992 0.2683
vt 0.1666 0.2864
vt 0.109 0.2524
vt 0.1666 0.2679
vt 0.109 0.2524
vt 0.1666 0.2864
vt 0.109 0.2524
vt 0.1666 0.2679
vt 0.116 0.2433
vt 0.1666 0.2569
vt 0.116 0.2433
vt 0.1666 0.2679
vt 0.1865 0.35
vt 0.1667 0.35
vt 0.1849 0.3549
vt 0.1667 0.35
vt 0.1667 0.3549
vt 0.1849 0.3549
vt 0.1849 0.3549
vt 0.1667 0.3549
vt 0.1843 0.3618
vt 0.1843 0.3618
vt 0.1667 0.3549
vt 0.1667 0.3618
vt 0.2341 0.2683
vt 0.2243 0.2524
vt 0.1666 0.2864
vt 0.1666 0.2864
vt 0.2243 0.2524
vt 0.1666 0.2679
vt 0.2243 0.2524
vt 0.2173 0.2433
vt 0.1666 0.2679
vt 0.1666 0.2679
vt 0.2173 0.2433
vt 0.1666 0.2569
vt 0.1468 0.35
vt 0.1484 0.3549
vt 0.1667 0.35
vt 0.1667 0.35
vt 0.1484 0.3549
vt 0.1667 0.3549
vt 0.1484 0.3549
vt 0.149 0.3618
vt 0.1667 0.3549
vt 0.149 0.3618
vt 0.1667 0.3618
vt 0.1667 0.3549
vt 0.2835 0.219
vt 0.2666 0.2102
vt 0.2341 0.2683
vt 0.2243 0.2524
vt 0.2341 0.2683
vt 0.2666 0.2102
vt 0.2666 0.2102
vt 0.2544 0.2062
vt 0.2243 0.2524
vt 0.2243 0.2524
vt 0.2544 0.2062
vt 0.2173 0.2433
vt 0.1323 0.35
vt 0.1351 0.3549
vt 0.1468 0.35
vt 0.1484 0.3549
vt 0.1468 0.35
vt 0.1351 0.3549
vt 0.1351 0.3549
vt 0.136 0.3618
vt 0.1484 0.3549
vt 0.136 0.3618
vt 0.149 0.3618
vt 0.1484 0.3549
vt 0.3015 0.1515
vt 0.282 0.1526
vt 0.2835 0.219
vt 0.2666 0.2102
vt 0.2835 0.219
vt 0.282 0.1526
vt 0.282 0.1526
vt 0.2681 0.1555
vt 0.2666 0.2102
vt 0.2666 0.2102
vt 0.2681 0.1555
vt 0.2544 0.2062
vt 0.3167 0.818
vt 0.3118 0.8199
vt 0.3167 0.8378
vt 0.3167 0.8378
vt 0.3118 0.8199
vt 0.3118 0.8382
vt 0.3118 0.8199
vt 0.3049 0.8227
vt 0.3118 0.8382
vt 0.3049 0.8227
vt 0.3049 0.8404
vt 0.3118 0.8382
vt 0.5835 0.8816
vt 0.5964 0.8334
vt 0.5482 0.9168
vt 0.5964 0.8334
vt 0.5835 0.7852
vt 0.5482 0.9168
vt 0.5835 0.7852
vt 0.5482 0.7499
vt 0.5482 0.9168
vt 0.5482 0.7499
vt 0.5 0.7369
vt 0.5482 0.9168
vt 0.5 0.7369
vt 0.4518 0.7499
vt 0.5482 0.9168
vt 0.4518 0.7499
vt 0.4165 0.7852
vt 0.5482 0.9168
vt 0.4165 0.7852
vt 0.4036 0.8334
vt 0.5482 0.9168
vt 0.4036 0.8334
vt 0.4165 0.8816
vt 0.5482 0.9168
vt 0.4165 0.8816
vt 0.4518 0.9168
vt 0.5482 0.9168
vt 0.5 0.9298
vt 0.5482 0.9168
vt 0.4518 0.9168
vt 0.149 0.6427
vt 0.136 0.6427
vt 0.1497 0.65
vt 0.1374 0.65
vt 0.1497 0.65
vt 0.136 0.6427
vt 0.6125 0.8983
vt 0.565 0.9459
vt 0.6299 0.9083
vt 0.575 0.9633
vt 0.6299 0.9083
vt 0.565 0.9459
vt 0.5835 0.8816
vt 0.5482 0.9168
vt 0.6125 0.8983
vt 0.6125 0.8983
vt 0.5482 0.9168
vt 0.565 0.9459
vt 0.1667 0.6427
vt 0.149 0.6427
vt 0.1667 0.65
vt 0.149 0.6427
vt 0.1497 0.65
vt 0.1667 0.65
vt 0.565 0.9459
vt 0.5 0.9632
vt 0.575 0.9633
vt 0.5 0.9833
vt 0.575 0.9633
vt 0.5 0.9632
vt 0.5482 0.9168
vt 0.5 0.9298
vt 0.565 0.9459
vt 0.565 0.9459
vt 0.5 0.9298
vt 0.5 0.9632
vt 0.1843 0.6427
vt 0.1667 0.6427
vt 0.1836 0.65
vt 0.1667 0.65
vt 0.1836 0.65
vt 0.1667 0.6427
vt 0.5 0.9632
vt 0.435 0.9459
vt 0.5 0.9833
vt 0.425 0.9633
vt 0.5 0.9833
vt 0.435 0.9459
vt 0.5 0.9298
vt 0.4518 0.9168
vt 0.5 0.9632
vt 0.5 0.9632
vt 0.4518 0.9168
vt 0.435 0.9459
vt 0.1973 0.6427
vt 0.1843 0.6427
vt 0.196 0.65
vt 0.1836 0.65
vt 0.196 0.65
vt 0.1843 0.6427
vt 0.435 0.9459
vt 0.3875 0.8983
vt 0.425 0.9633
vt 0.3701 0.9083
vt 0.425 0.9633
vt 0.3875 0.8983
vt 0.4518 0.9168
vt 0.4165 0.8816
vt 0.435 0.9459
vt 0.435 0.9459
vt 0.4165 0.8816
vt 0.3875 0.8983
vt 0.6427 0.1806
vt 0.6427 0.1983
vt 0.65 0.1806
vt 0.65 0.1975
vt 0.65 0.1806
vt 0.6427 0.1983
vt 0.3875 0.8983
vt 0.3701 0.8334
vt 0.3701 0.9083
vt 0.35 0.8334
vt 0.3701 0.9083
vt 0.3701 0.8334
vt 0.4165 0.8816
vt 0.4036 0.8334
vt 0.3875 0.8983
vt 0.3875 0.8983
vt 0.4036 0.8334
vt 0.3701 0.8334
vt 0.6427 0.1629
vt 0.6427 0.1806
vt 0.65 0.1637
vt 0.65 0.1806
vt 0.65 0.1637
vt 0.6427 0.1806
vt 0.3701 0.8334
vt 0.3875 0.7684
vt 0.35 0.8334
vt 0.3701 0.7584
vt 0.35 0.8334
vt 0.3875 0.7684
vt 0.4036 0.8334
vt 0.4165 0.7852
vt 0.3701 0.8334
vt 0.3701 0.8334
vt 0.4165 0.7852
vt 0.3875 0.7684
vt 0.518 0.3574
vt 0.5311 0.3574
vt 0.5172 0.35
vt 0.5298 0.35
vt 0.5172 0.35
vt 0.5311 0.3574
vt 0.3875 0.7684
vt 0.435 0.7209
vt 0.3701 0.7584
vt 0.425 0.7035
vt 0.3701 0.7584
vt 0.435 0.7209
vt 0.4165 0.7852
vt 0.4518 0.7499
vt 0.3875 0.7684
vt 0.3875 0.7684
vt 0.4518 0.7499
vt 0.435 0.7209
vt 0.5 0.3574
vt 0.518 0.3574
vt 0.5 0.35
vt 0.5172 0.35
vt 0.5 0.35
vt 0.518 0.3574
vt 0.435 0.7209
vt 0.5 0.7034
vt 0.425 0.7035
vt 0.5 0.6833
vt 0.425 0.7035
vt 0.5 0.7034
vt 0.4518 0.7499
vt 0.5 0.7369
vt 0.435 0.7209
vt 0.435 0.7209
vt 0.5 0.7369
vt 0.5 0.7034
vt 0.482 0.3574
vt 0.5 0.3574
vt 0.4828 0.35
vt 0.5 0.35
vt 0.4828 0.35
vt 0.5 0.3574
vt 0.5 0.7034
vt 0.565 0.7209
vt 0.5 0.6833
vt 0.575 0.7035
vt 0.5 0.6833
vt 0.565 0.7209
vt 0.5 0.7369
vt 0.5482 0.7499
vt 0.5 0.7034
vt 0.5 0.7034
vt 0.5482 0.7499
vt 0.565 0.7209
vt 0.4689 0.3574
vt 0.482 0.3574
vt 0.4702 0.35
vt 0.4828 0.35
vt 0.4702 0.35
vt 0.482 0.3574
vt 0.565 0.7209
vt 0.6125 0.7684
vt 0.575 0.7035
vt 0.6299 0.7584
vt 0.575 0.7035
vt 0.6125 0.7684
vt 0.5482 0.7499
vt 0.5835 0.7852
vt 0.565 0.7209
vt 0.565 0.7209
vt 0.5835 0.7852
vt 0.6125 0.7684
vt 0.024 0.8473
vt 0.024 0.8296
vt 0.0167 0.8473
vt 0.0167 0.8304
vt 0.0167 0.8473
vt 0.024 0.8296
vt 0.6125 0.7684
vt 0.6299 0.8334
vt 0.6299 0.7584
vt 0.65 0.8334
vt 0.6299 0.7584
vt 0.6299 0.8334
vt 0.5835 0.7852
vt 0.5964 0.8334
vt 0.6125 0.7684
vt 0.6125 0.7684
vt 0.5964 0.8334
vt 0.6299 0.8334
vt 0.024 0.8649
vt 0.024 0.8473
vt 0.0167 0.8642
vt 0.0167 0.8473
vt 0.0167 0.8642
vt 0.024 0.8473
vt 0.6299 0.8334
vt 0.6125 0.8983
vt 0.65 0.8334
vt 0.6299 0.9083
vt 0.65 0.8334
vt 0.6125 0.8983
vt 0.5964 0.8334
vt 0.5835 0.8816
vt 0.6299 0.8334
vt 0.6299 0.8334
vt 0.5835 0.8816
vt 0.6125 0.8983
vn -0.3604 -0.9009 0.2419
vn -0.3604 -0.9009 0.2419
vn -0.3604 -0.9009 0.2419
vn -0.3606 -0.901 0.2412
vn -0.3606 -0.901 0.2412
vn -0.3606 -0.901 0.2412
vn -0.3606 -0.9009 -0.2417
vn -0.3606 -0.9009 -0.2417
vn -0.3606 -0.9009 -0.2417
vn -0.3605 -0.9011 -0.2411
vn -0.3605 -0.9011 -0.2411
vn -0.3605 -0.9011 -0.2411
vn -0.2723 -0.6804 -0.6804
vn -0.2723 -0.6804 -0.6804
vn -0.2723 -0.6804 -0.6804
vn -0.2723 -0.6804 -0.6804
vn -0.2723 -0.6804 -0.6804
vn -0.2723 -0.6804 -0.6804
vn -0.103 -0.2573 -0.9608
vn -0.103 -0.2573 -0.9608
vn -0.103 -0.2573 -0.9608
vn -0.103 -0.2573 -0.9608
vn -0.103 -0.2573 -0.9608
vn -0.103 -0.2573 -0.9608
vn 0.1029 0.2573 -0.9608
vn 0.1029 0.2573 -0.9608
vn 0.1029 0.2573 -0.9608
vn 0.1029 0.2571 -0.9609
vn 0.1029 0.2571 -0.9609
vn 0.1029 0.2571 -0.9609
vn 0.2723 0.6804 -0.6804
vn 0.2723 0.6804 -0.6804
vn 0.2723 0.6804 -0.6804
vn 0.2723 0.6807 -0.68
vn 0.2723 0.6807 -0.68
vn 0.2723 0.6807 -0.68
vn 0.3605 0.9011 -0.2411
vn 0.3605 0.9011 -0.2411
vn 0.3605 0.9011 -0.2411
vn 0.3606 0.9009 -0.2417
vn 0.3606 0.9009 -0.2417
vn 0.3606 0.9009 -0.2417
vn 0.3606 0.901 0.2412
vn 0.3606 0.901 0.2412
vn 0.3606 0.901 0.2412
vn 0.3604 0.9009 0.2419
vn 0.3604 0.9009 0.2419
vn 0.3604 0.9009 0.2419
vn 0.2722 0.6804 0.6804
vn 0.2722 0.6804 0.6804
vn 0.2722 0.6804 0.6804
vn 0.2725 0.6807 0.68
vn 0.2725 0.6807 0.68
vn 0.2725 0.6807 0.68
vn 0.103 0.2573 0.9608
vn 0.103 0.2573 0.9608
vn 0.103 0.2573 0.9608
vn 0.1028 0.2571 0.9609
vn 0.1028 0.2571 0.9609
vn 0.1028 0.2571 0.9609
vn -0.103 -0.2573 0.9608
vn -0.103 -0.2573 0.9608
vn -0.103 -0.2573 0.9608
vn -0.103 -0.2573 0.9608
vn -0.103 -0.2573 0.9608
vn -0.103 -0.2573 0.9608
vn -0.2723 -0.6804 0.6804
vn -0.2723 -0.6804 0.6804
vn -0.2723 -0.6804 0.6804
vn -0.2723 -0.6804 0.6804
vn -0.2723 -0.6804 0.6804
vn -0.2723 -0.6804 0.6804
vn 0.0 -0.9658 0.2593
vn 0.0 -0.9658 0.2593
vn 0.0 -0.9658 0.2593
vn 0.0 -0.9658 0.2593
vn 0.0 -0.9658 0.2593
vn 0.0 -0.9658 0.2593
vn 0.0 -0.9658 -0.2591
vn 0.0 -0.9658 -0.2591
vn 0.0 -0.9658 -0.2591
vn 0.0 -0.9658 -0.2591
vn 0.0 -0.9658 -0.2591
vn 0.0 -0.9658 -0.2591
vn 0.0 -0.7071 -0.7071
vn 0.0 -0.7071 -0.7071
vn 0.0 -0.7071 -0.7071
vn 0.0 -0.7071 -0.7071
vn 0.0 -0.7071 -0.7071
vn 0.0 -0.7071 -0.7071
vn 0.0 -0.2586 -0.966
vn 0.0 -0.2586 -0.966
vn 0.0 -0.2586 -0.966
vn 0.0 -0.2586 -0.966
vn 0.0 -0.2586 -0.966
vn 0.0 -0.2586 -0.966
vn 0.0 0.2586 -0.966
vn 0.0 0.2586 -0.966
vn 0.0 0.2586 -0.966
vn 0.0 0.2586 -0.966
vn 0.0 0.2586 -0.966
vn 0.0 0.2586 -0.966
vn 0.0 0.7071 -0.7071
vn 0.0 0.7071 -0.7071
vn 0.0 0.7071 -0.7071
vn 0.0 0.7071 -0.7071
vn 0.0 0.7071 -0.7071
vn 0.0 0.7071 -0.7071
vn 0.0 0.966 -0.2585
vn 0.0 0.966 -0.2585
vn 0.0 0.966 -0.2585
vn 0.0 0.966 -0.2585
vn 0.0 0.966 -0.2585
vn 0.0 0.966 -0.2585
vn 0.0 0.966 0.2586
vn 0.0 0.966 0.2586
vn 0.0 0.966 0.2586
vn 0.0 0.966 0.2586
vn 0.0 0.966 0.2586
vn 0.0 0.966 0.2586
vn 0.0 0.7071 0.7071
vn 0.0 0.7071 0.7071
vn 0.0 0.7071 0.7071
vn 0.0 0.7071 0.7071
vn 0.0 0.7071 0.7071
vn 0.0 0.7071 0.7071
vn 0.0 0.2586 0.966
vn 0.0 0.2586 0.966
vn 0.0 0.2586 0.966
vn 0.0 0.2586 0.966
vn 0.0 0.2586 0.966
vn 0.0 0.2586 0.966
vn 0.0 -0.2586 0.966
vn 0.0 -0.2586 0.966
vn 0.0 -0.2586 0.966
vn 0.0 -0.2586 0.966
vn 0.0 -0.2586 0.966
vn 0.0 -0.2586 0.966
vn 0.0 -0.7071 0.7071
vn 0.0 -0.7071 0.7071
vn 0.0 -0.7071 0.7071
vn 0.0 -0.7071 0.7071
vn 0.0 -0.7071 0.7071
vn 0.0 -0.7071 0.7071
vn -0.9915 -0.0336 -0.1255
vn -0.9915 -0.0336 -0.1255
vn -0.9915 -0.0336 -0.1255
vn -0.9915 -0.0336 -0.1255
vn -0.9915 -0.0336 -0.1255
vn -0.9915 -0.0336 -0.1255
vn -0.8849 -0.1205 -0.4499
vn -0.8849 -0.1205 -0.4499
vn -0.8849 -0.1205 -0.4499
vn -0.8845 -0.1209 -0.4505
vn -0.8845 -0.1209 -0.4505
vn -0.8845 -0.1209 -0.4505
vn -0.6005 -0.2073 -0.7723
vn -0.6005 -0.2073 -0.7723
vn -0.6005 -0.2073 -0.7723
vn -0.6012 -0.2068 -0.7719
vn -0.6012 -0.2068 -0.7719
vn -0.6012 -0.2068 -0.7719
vn -0.248 -0.2507 -0.9357
vn -0.248 -0.2507 -0.9357
vn -0.248 -0.2507 -0.9357
vn -0.2484 -0.2505 -0.9357
vn -0.2484 -0.2505 -0.9357
vn -0.2484 -0.2505 -0.9357
vn -0.9919 -0.0898 -0.0898
vn -0.9919 -0.0898 -0.0898
vn -0.9919 -0.0898 -0.0898
vn -0.9919 -0.0898 -0.0898
vn -0.9919 -0.0898 -0.0898
vn -0.9919 -0.0898 -0.0898
vn -0.9012 -0.3065 -0.3065
vn -0.9012 -0.3065 -0.3065
vn -0.9012 -0.3065 -0.3065
vn -0.9012 -0.3065 -0.3065
vn -0.9012 -0.3065 -0.3065
vn -0.9012 -0.3065 -0.3065
vn -0.6809 -0.5179 -0.5179
vn -0.6809 -0.5179 -0.5179
vn -0.6809 -0.5179 -0.5179
vn -0.6816 -0.5171 -0.5176
vn -0.6816 -0.5171 -0.5176
vn -0.6816 -0.5171 -0.5176
vn -0.3998 -0.6478 -0.6485
vn -0.3998 -0.6478 -0.6485
vn -0.3998 -0.6478 -0.6485
vn -0.3988 -0.6484 -0.6484
vn -0.3988 -0.6484 -0.6484
vn -0.3988 -0.6484 -0.6484
vn -0.9921 -0.1211 -0.0324
vn -0.9921 -0.1211 -0.0324
vn -0.9921 -0.1211 -0.0324
vn -0.9921 -0.1211 -0.0324
vn -0.9921 -0.1211 -0.0324
vn -0.9921 -0.1211 -0.0324
vn -0.9091 -0.4024 -0.1078
vn -0.9091 -0.4024 -0.1078
vn -0.9091 -0.4024 -0.1078
vn -0.909 -0.4025 -0.1077
vn -0.909 -0.4025 -0.1077
vn -0.909 -0.4025 -0.1077
vn -0.7186 -0.6718 -0.1798
vn -0.7186 -0.6718 -0.1798
vn -0.7186 -0.6718 -0.1798
vn -0.7187 -0.6717 -0.1798
vn -0.7187 -0.6717 -0.1798
vn -0.7187 -0.6717 -0.1798
vn -0.4755 -0.8498 -0.2275
vn -0.4755 -0.8498 -0.2275
vn -0.4755 -0.8498 -0.2275
vn -0.4751 -0.85 -0.2274
vn -0.4751 -0.85 -0.2274
vn -0.4751 -0.85 -0.2274
vn -0.9921 -0.1211 0.0324
vn -0.9921 -0.1211 0.0324
vn -0.9921 -0.1211 0.0324
vn -0.9921 -0.1211 0.0324
vn -0.9921 -0.1211 0.0324
vn -0.9921 -0.1211 0.0324
vn -0.9091 -0.4024 0.1078
vn -0.9091 -0.4024 0.1078
vn -0.9091 -0.4024 0.1078
vn -0.909 -0.4025 0.1078
vn -0.909 -0.4025 0.1078
vn -0.909 -0.4025 0.1078
vn -0.7186 -0.6718 0.1799
vn -0.7186 -0.6718 0.1799
vn -0.7186 -0.6718 0.1799
vn -0.7187 -0.6716 0.18
vn -0.7187 -0.6716 0.18
vn -0.7187 -0.6716 0.18
vn -0.4755 -0.8498 0.2275
vn -0.4755 -0.8498 0.2275
vn -0.4755 -0.8498 0.2275
vn -0.4751 -0.85 0.2278
vn -0.4751 -0.85 0.2278
vn -0.4751 -0.85 0.2278
vn -0.9919 -0.0898 0.0898
vn -0.9919 -0.0898 0.0898
vn -0.9919 -0.0898 0.0898
vn -0.9919 -0.0898 0.0898
vn -0.9919 -0.0898 0.0898
vn -0.9919 -0.0898 0.0898
vn -0.9012 -0.3065 0.3065
vn -0.9012 -0.3065 0.3065
vn -0.9012 -0.3065 0.3065
vn -0.9009 -0.3071 0.3068
vn -0.9009 -0.3071 0.3068
vn -0.9009 -0.3071 0.3068
vn -0.681 -0.5181 0.5176
vn -0.681 -0.5181 0.5176
vn -0.681 -0.5181 0.5176
vn -0.6824 -0.5166 0.5171
vn -0.6824 -0.5166 0.5171
vn -0.6824 -0.5166 0.5171
vn -0.3988 -0.6484 0.6484
vn -0.3988 -0.6484 0.6484
vn -0.3988 -0.6484 0.6484
vn -0.3998 -0.6478 0.6485
vn -0.3998 -0.6478 0.6485
vn -0.3998 -0.6478 0.6485
vn -0.9915 -0.0336 0.1255
vn -0.9915 -0.0336 0.1255
vn -0.9915 -0.0336 0.1255
vn -0.9915 -0.0336 0.1255
vn -0.9915 -0.0336 0.1255
vn -0.9915 -0.0336 0.1255
vn -0.8845 -0.1207 0.4507
vn -0.8845 -0.1207 0.4507
vn -0.8845 -0.1207 0.4507
vn -0.8845 -0.1206 0.4506
vn -0.8845 -0.1206 0.4506
vn -0.8845 -0.1206 0.4506
vn -0.6017 -0.2065 0.7716
vn -0.6017 -0.2065 0.7716
vn -0.6017 -0.2065 0.7716
vn -0.6012 -0.2068 0.7719
vn -0.6012 -0.2068 0.7719
vn -0.6012 -0.2068 0.7719
vn -0.2484 -0.2505 0.9357
vn -0.2484 -0.2505 0.9357
vn -0.2484 -0.2505 0.9357
vn -0.248 -0.2507 0.9357
vn -0.248 -0.2507 0.9357
vn -0.248 -0.2507 0.9357
vn -0.991 0.0345 0.129
vn -0.991 0.0345 0.129
vn -0.991 0.0345 0.129
vn -0.9911 0.0345 0.1289
vn -0.9911 0.0345 0.1289
vn -0.9911 0.0345 0.1289
vn -0.8606 0.1318 0.4919
vn -0.8606 0.1318 0.4919
vn -0.8606 0.1318 0.4919
vn -0.8604 0.1318 0.4923
vn -0.8604 0.1318 0.4923
vn -0.8604 0.1318 0.4923
vn -0.4784 0.2271 0.8483
vn -0.4784 0.2271 0.8483
vn -0.4784 0.2271 0.8483
vn -0.4791 0.2272 0.8479
vn -0.4791 0.2272 0.8479
vn -0.4791 0.2272 0.8479
vn -0.0491 0.2581 0.9649
vn -0.0491 0.2581 0.9649
vn -0.0491 0.2581 0.9649
vn -0.05 0.2585 0.9647
vn -0.05 0.2585 0.9647
vn -0.05 0.2585 0.9647
vn -0.9906 0.0967 0.0966
vn -0.9906 0.0967 0.0966
vn -0.9906 0.0967 0.0966
vn -0.9906 0.0968 0.0968
vn -0.9906 0.0968 0.0968
vn -0.9906 0.0968 0.0968
vn -0.8336 0.3906 0.3906
vn -0.8336 0.3906 0.3906
vn -0.8336 0.3906 0.3906
vn -0.8342 0.3902 0.3898
vn -0.8342 0.3902 0.3898
vn -0.8342 0.3902 0.3898
vn -0.3438 0.6643 0.6637
vn -0.3438 0.6643 0.6637
vn -0.3438 0.6643 0.6637
vn -0.3424 0.6644 0.6644
vn -0.3424 0.6644 0.6644
vn -0.3424 0.6644 0.6644
vn 0.1294 0.7012 0.7012
vn 0.1294 0.7012 0.7012
vn 0.1294 0.7012 0.7012
vn 0.1281 0.7016 0.7009
vn 0.1281 0.7016 0.7009
vn 0.1281 0.7016 0.7009
vn -0.9903 0.134 0.036
vn -0.9903 0.134 0.036
vn -0.9903 0.134 0.036
vn -0.9904 0.1338 0.0358
vn -0.9904 0.1338 0.0358
vn -0.9904 0.1338 0.0358
vn -0.8153 0.5593 0.1499
vn -0.8153 0.5593 0.1499
vn -0.8153 0.5593 0.1499
vn -0.8154 0.5592 0.1498
vn -0.8154 0.5592 0.1498
vn -0.8154 0.5592 0.1498
vn -0.2529 0.9346 0.2503
vn -0.2529 0.9346 0.2503
vn -0.2529 0.9346 0.2503
vn -0.2525 0.9346 0.2504
vn -0.2525 0.9346 0.2504
vn -0.2525 0.9346 0.2504
vn 0.2264 0.9408 0.2521
vn 0.2264 0.9408 0.2521
vn 0.2264 0.9408 0.2521
vn 0.2276 0.9404 0.2525
vn 0.2276 0.9404 0.2525
vn 0.2276 0.9404 0.2525
vn -0.9903 0.134 -0.036
vn -0.9903 0.134 -0.036
vn -0.9903 0.134 -0.036
vn -0.9904 0.1338 -0.0358
vn -0.9904 0.1338 -0.0358
vn -0.9904 0.1338 -0.0358
vn -0.8153 0.5594 -0.1498
vn -0.8153 0.5594 -0.1498
vn -0.8153 0.5594 -0.1498
vn -0.8154 0.5592 -0.1497
vn -0.8154 0.5592 -0.1497
vn -0.8154 0.5592 -0.1497
vn -0.2528 0.9346 -0.2502
vn -0.2528 0.9346 -0.2502
vn -0.2528 0.9346 -0.2502
vn -0.2525 0.9347 -0.2503
vn -0.2525 0.9347 -0.2503
vn -0.2525 0.9347 -0.2503
vn 0.2264 0.9409 -0.2519
vn 0.2264 0.9409 -0.2519
vn 0.2264 0.9409 -0.2519
vn 0.2276 0.9405 -0.2523
vn 0.2276 0.9405 -0.2523
vn 0.2276 0.9405 -0.2523
vn -0.9906 0.0967 -0.0966
vn -0.9906 0.0967 -0.0966
vn -0.9906 0.0967 -0.0966
vn -0.9906 0.0968 -0.0968
vn -0.9906 0.0968 -0.0968
vn -0.9906 0.0968 -0.0968
vn -0.8342 0.39 -0.39
vn -0.8342 0.39 -0.39
vn -0.8342 0.39 -0.39
vn -0.8341 0.39 -0.39
vn -0.8341 0.39 -0.39
vn -0.8341 0.39 -0.39
vn -0.3424 0.6644 -0.6644
vn -0.3424 0.6644 -0.6644
vn -0.3424 0.6644 -0.6644
vn -0.3424 0.6644 -0.6644
vn -0.3424 0.6644 -0.6644
vn -0.3424 0.6644 -0.6644
vn 0.1294 0.7012 -0.7012
vn 0.1294 0.7012 -0.7012
vn 0.1294 0.7012 -0.7012
vn 0.1281 0.7016 -0.7009
vn 0.1281 0.7016 -0.7009
vn 0.1281 0.7016 -0.7009
vn -0.991 0.0345 -0.129
vn -0.991 0.0345 -0.129
vn -0.991 0.0345 -0.129
vn -0.9911 0.0345 -0.1289
vn -0.9911 0.0345 -0.1289
vn -0.9911 0.0345 -0.1289
vn -0.8606 0.1318 -0.4919
vn -0.8606 0.1318 -0.4919
vn -0.8606 0.1318 -0.4919
vn -0.861 0.1318 -0.4912
vn -0.861 0.1318 -0.4912
vn -0.861 0.1318 -0.4912
vn -0.4781 0.2276 -0.8483
vn -0.4781 0.2276 -0.8483
vn -0.4781 0.2276 -0.8483
vn -0.4772 0.2275 -0.8488
vn -0.4772 0.2275 -0.8488
vn -0.4772 0.2275 -0.8488
vn -0.05 0.2585 -0.9647
vn -0.05 0.2585 -0.9647
vn -0.05 0.2585 -0.9647
vn -0.0491 0.2581 -0.9649
vn -0.0491 0.2581 -0.9649
vn -0.0491 0.2581 -0.9649
vn -1.0 0.0 0.0
vn -1.0 0.0 0.0
vn -1.0 0.0 0.0
vn -1.0 0.0 0.0
vn -1.0 0.0 0.0
vn -1.0 0.0 0.0
vn -1.0 0.0 0.0
vn -1.0 0.0 0.0
vn -1.0 0.0 0.0
vn -1.0 0.0 0.0
vn -1.0 0.0 0.0
vn -1.0 0.0 0.0
vn -1.0 0.0 0.0
vn -1.0 0.0 0.0
vn -1.0 0.0 0.0
vn -1.0 0.0 0.0
vn -1.0 0.0 0.0
vn -1.0 0.0 0.0
vn -1.0 0.0 0.0
vn -1.0 0.0 0.0
vn -1.0 0.0 0.0
vn -1.0 0.0 0.0
vn -1.0 0.0 0.0
vn -1.0 0.0 0.0
vn -1.0 0.0 0.0
vn -1.0 0.0 0.0
vn -1.0 0.0 0.0
vn -1.0 0.0 0.0
vn -1.0 0.0 0.0
vn -1.0 0.0 0.0
vn -0.1961 0.6934 -0.6934
vn -0.1961 0.6934 -0.6934
vn -0.1961 0.6934 -0.6934
vn -0.1961 0.6934 -0.6934
vn -0.1961 0.6934 -0.6934
vn -0.1961 0.6934 -0.6934
vn -0.7071 0.5 -0.5
vn -0.7071 0.5 -0.5
vn -0.7071 0.5 -0.5
vn -0.7071 0.5 -0.5
vn -0.7071 0.5 -0.5
vn -0.7071 0.5 -0.5
vn -0.9806 0.1387 -0.1387
vn -0.9806 0.1387 -0.1387
vn -0.9806 0.1387 -0.1387
vn -0.9806 0.1387 -0.1387
vn -0.9806 0.1387 -0.1387
vn -0.9806 0.1387 -0.1387
vn -0.1961 0.9473 -0.2534
vn -0.1961 0.9473 -0.2534
vn -0.1961 0.9473 -0.2534
vn -0.1961 0.9473 -0.2534
vn -0.1961 0.9473 -0.2534
vn -0.1961 0.9473 -0.2534
vn -0.7071 0.6831 -0.1828
vn -0.7071 0.6831 -0.1828
vn -0.7071 0.6831 -0.1828
vn -0.7071 0.6831 -0.1828
vn -0.7071 0.6831 -0.1828
vn -0.7071 0.6831 -0.1828
vn -0.9806 0.1895 -0.0507
vn -0.9806 0.1895 -0.0507
vn -0.9806 0.1895 -0.0507
vn -0.9806 0.1895 -0.0507
vn -0.9806 0.1895 -0.0507
vn -0.9806 0.1895 -0.0507
vn -0.1961 0.9472 0.2536
vn -0.1961 0.9472 0.2536
vn -0.1961 0.9472 0.2536
vn -0.1961 0.9472 0.2536
vn -0.1961 0.9472 0.2536
vn -0.1961 0.9472 0.2536
vn -0.7071 0.683 0.1829
vn -0.7071 0.683 0.1829
vn -0.7071 0.683 0.1829
vn -0.7071 0.683 0.1829
vn -0.7071 0.683 0.1829
vn -0.7071 0.683 0.1829
vn -0.9806 0.1894 0.0507
vn -0.9806 0.1894 0.0507
vn -0.9806 0.1894 0.0507
vn -0.9806 0.1894 0.0507
vn -0.9806 0.1894 0.0507
vn -0.9806 0.1894 0.0507
vn -0.1961 0.6934 0.6934
vn -0.1961 0.6934 0.6934
vn -0.1961 0.6934 0.6934
vn -0.1961 0.6934 0.6934
vn -0.1961 0.6934 0.6934
vn -0.1961 0.6934 0.6934
vn -0.7071 0.5 0.5
vn -0.7071 0.5 0.5
vn -0.7071 0.5 0.5
vn -0.7071 0.5 0.5
vn -0.7071 0.5 0.5
vn -0.7071 0.5 0.5
vn -0.9806 0.1387 0.1387
vn -0.9806 0.1387 0.1387
vn -0.9806 0.1387 0.1387
vn -0.9806 0.1387 0.1387
vn -0.9806 0.1387 0.1387
vn -0.9806 0.1387 0.1387
vn -0.1961 0.2536 0.9472
vn -0.1961 0.2536 0.9472
vn -0.1961 0.2536 0.9472
vn -0.1961 0.2536 0.9472
vn -0.1961 0.2536 0.9472
vn -0.1961 0.2536 0.9472
vn -0.7071 0.1829 0.683
vn -0.7071 0.1829 0.683
vn -0.7071 0.1829 0.683
vn -0.7071 0.1829 0.683
vn -0.7071 0.1829 0.683
vn -0.7071 0.1829 0.683
vn -0.9806 0.0507 0.1894
vn -0.9806 0.0507 0.1894
vn -0.9806 0.0507 0.1894
vn -0.9806 0.0507 0.1894
vn -0.9806 0.0507 0.1894
vn -0.9806 0.0507 0.1894
vn -0.1961 -0.2536 0.9472
vn -0.1961 -0.2536 0.9472
vn -0.1961 -0.2536 0.9472
vn -0.1961 -0.2536 0.9472
vn -0.1961 -0.2536 0.9472
vn -0.1961 -0.2536 0.9472
vn -0.7071 -0.1829 0.683
vn -0.7071 -0.1829 0.683
vn -0.7071 -0.1829 0.683
vn -0.7071 -0.1829 0.683
vn -0.7071 -0.1829 0.683
vn -0.7071 -0.1829 0.683
vn -0.9806 -0.0507 0.1894
vn -0.9806 -0.0507 0.1894
vn -0.9806 -0.0507 0.1894
vn -0.9806 -0.0507 0.1894
vn -0.9806 -0.0507 0.1894
vn -0.9806 -0.0507 0.1894
vn -0.1961 -0.6934 0.6934
vn -0.1961 -0.6934 0.6934
vn -0.1961 -0.6934 0.6934
vn -0.1961 -0.6934 0.6934
vn -0.1961 -0.6934 0.6934
vn -0.1961 -0.6934 0.6934
vn -0.7071 -0.5 0.5
vn -0.7071 -0.5 0.5
vn -0.7071 -0.5 0.5
vn -0.7071 -0.5 0.5
vn -0.7071 -0.5 0.5
vn -0.7071 -0.5 0.5
vn -0.9806 -0.1387 0.1387
vn -0.9806 -0.1387 0.1387
vn -0.9806 -0.1387 0.1387
vn -0.9806 -0.1387 0.1387
vn -0.9806 -0.1387 0.1387
vn -0.9806 -0.1387 0.1387
vn -0.1961 -0.947 0.2543
vn -0.1961 -0.947 0.2543
vn -0.1961 -0.947 0.2543
vn -0.1961 -0.947 0.2543
vn -0.1961 -0.947 0.2543
vn -0.1961 -0.947 0.2543
vn -0.7071 -0.6829 0.1834
vn -0.7071 -0.6829 0.1834
vn -0.7071 -0.6829 0.1834
vn -0.7071 -0.6829 0.1834
vn -0.7071 -0.6829 0.1834
vn -0.7071 -0.6829 0.1834
vn -0.9806 -0.1894 0.0509
vn -0.9806 -0.1894 0.0509
vn -0.9806 -0.1894 0.0509
vn -0.9806 -0.1894 0.0509
vn -0.9806 -0.1894 0.0509
vn -0.9806 -0.1894 0.0509
vn -0.1961 -0.9471 -0.2541
vn -0.1961 -0.9471 -0.2541
vn -0.1961 -0.9471 -0.2541
vn -0.1961 -0.9471 -0.2541
vn -0.1961 -0.9471 -0.2541
vn -0.1961 -0.9471 -0.2541
vn -0.7071 -0.683 -0.1832
vn -0.7071 -0.683 -0.1832
vn -0.7071 -0.683 -0.1832
vn -0.7071 -0.683 -0.1832
vn -0.7071 -0.683 -0.1832
vn -0.7071 -0.683 -0.1832
vn -0.9806 -0.1894 -0.0508
vn -0.9806 -0.1894 -0.0508
vn -0.9806 -0.1894 -0.0508
vn -0.9806 -0.1894 -0.0508
vn -0.9806 -0.1894 -0.0508
vn -0.9806 -0.1894 -0.0508
vn -0.1961 -0.6934 -0.6934
vn -0.1961 -0.6934 -0.6934
vn -0.1961 -0.6934 -0.6934
vn -0.1961 -0.6934 -0.6934
vn -0.1961 -0.6934 -0.6934
vn -0.1961 -0.6934 -0.6934
vn -0.7071 -0.5 -0.5
vn -0.7071 -0.5 -0.5
vn -0.7071 -0.5 -0.5
vn -0.7071 -0.5 -0.5
vn -0.7071 -0.5 -0.5
vn -0.7071 -0.5 -0.5
vn -0.9806 -0.1387 -0.1387
vn -0.9806 -0.1387 -0.1387
vn -0.9806 -0.1387 -0.1387
vn -0.9806 -0.1387 -0.1387
vn -0.9806 -0.1387 -0.1387
vn -0.9806 -0.1387 -0.1387
vn -0.1961 -0.2536 -0.9472
vn -0.1961 -0.2536 -0.9472
vn -0.1961 -0.2536 -0.9472
vn -0.1961 -0.2536 -0.9472
vn -0.1961 -0.2536 -0.9472
vn -0.1961 -0.2536 -0.9472
vn -0.7071 -0.1829 -0.683
vn -0.7071 -0.1829 -0.683
vn -0.7071 -0.1829 -0.683
vn -0.7071 -0.1829 -0.683
vn -0.7071 -0.1829 -0.683
vn -0.7071 -0.1829 -0.683
vn -0.9806 -0.0507 -0.1894
vn -0.9806 -0.0507 -0.1894
vn -0.9806 -0.0507 -0.1894
vn -0.9806 -0.0507 -0.1894
vn -0.9806 -0.0507 -0.1894
vn -0.9806 -0.0507 -0.1894
vn -0.1961 0.2536 -0.9472
vn -0.1961 0.2536 -0.9472
vn -0.1961 0.2536 -0.9472
vn -0.1961 0.2536 -0.9472
vn -0.1961 0.2536 -0.9472
vn -0.1961 0.2536 -0.9472
vn -0.7071 0.1829 -0.683
vn -0.7071 0.1829 -0.683
vn -0.7071 0.1829 -0.683
vn -0.7071 0.1829 -0.683
vn -0.7071 0.1829 -0.683
vn -0.7071 0.1829 -0.683
vn -0.9806 0.0507 -0.1894
vn -0.9806 0.0507 -0.1894
vn -0.9806 0.0507 -0.1894
vn -0.9806 0.0507 -0.1894
vn -0.9806 0.0507 -0.1894
vn -0.9806 0.0507 -0.1894
f 25/1/1 40/2/2 26/3/3
f 40/4/4 41/5/5 26/6/6
f 27/7/7 39/8/8 25/9/9
f 39/10/10 40/11/11 25/12/12
f 28/13/13 37/14/14 27/15/15
f 37/16/16 39/17/17 27/18/18
f 29/19/19 38/20/20 28/21/21
f 38/22/22 37/23/23 28/24/24
f 30/25/25 48/26/26 29/27/27
f 48/28/28 38/29/29 29/30/30
f 31/31/31 47/32/32 30/33/33
f 47/34/34 48/35/35 30/36/36
f 32/37/37 46/38/38 31/39/39
f 46/40/40 47/41/41 31/42/42
f 33/43/43 45/44/44 32/45/45
f 45/46/46 46/47/47 32/48/48
f 34/49/49 44/50/50 33/51/51
f 44/52/52 45/53/53 33/54/54
f 35/55/55 43/56/56 34/57/57
f 43/58/58 44/59/59 34/60/60
f 36/61/61 42/62/62 35/63/63
f 42/64/64 43/65/65 35/66/66
f 26/67/67 41/68/68 36/69/69
f 41/70/70 42/71/71 36/72/72
f 1/73/73 25/74/74 2/75/75
f 25/76/76 26/77/77 2/78/78
f 3/79/79 27/80/80 1/81/81
f 27/82/82 25/83/83 1/84/84
f 4/85/85 28/86/86 3/87/87
f 28/88/88 27/89/89 3/90/90
f 5/91/91 29/92/92 4/93/93
f 29/94/94 28/95/95 4/96/96
f 6/97/97 30/98/98 5/99/99
f 30/100/100 29/101/101 5/102/102
f 7/103/103 31/104/104 6/105/105
f 31/106/106 30/107/107 6/108/108
f 8/109/109 32/110/110 7/111/111
f 32/112/112 31/113/113 7/114/114
f 9/115/115 33/116/116 8/117/117
f 33/118/118 32/119/119 8/120/120
f 10/121/121 34/122/122 9/123/123
f 34/124/124 33/125/125 9/126/126
f 11/127/127 35/128/128 10/129/129
f 35/130/130 34/131/131 10/132/132
f 12/133/133 36/134/134 11/135/135
f 36/136/136 35/137/137 11/138/138
f 2/139/139 26/140/140 12/141/141
f 26/142/142 36/143/143 12/144/144
f 17/145/145 16/146/146 79/147/147
f 79/148/148 16/149/149 49/150/150
f 49/151/151 50/152/152 79/153/153
f 79/154/154 50/155/155 80/156/156
f 50/157/157 51/158/158 80/159/159
f 51/160/160 81/161/161 80/162/162
f 51/163/163 37/164/164 81/165/165
f 38/166/166 81/167/167 37/168/168
f 16/169/169 15/170/170 49/171/171
f 52/172/172 49/173/173 15/174/174
f 52/175/175 53/176/176 49/177/177
f 50/178/178 49/179/179 53/180/180
f 53/181/181 54/182/182 50/183/183
f 51/184/184 50/185/185 54/186/186
f 54/187/187 39/188/188 51/189/189
f 37/190/190 51/191/191 39/192/192
f 15/193/193 13/194/194 52/195/195
f 13/196/196 55/197/197 52/198/198
f 55/199/199 56/200/200 52/201/201
f 52/202/202 56/203/203 53/204/204
f 56/205/205 57/206/206 53/207/207
f 53/208/208 57/209/209 54/210/210
f 57/211/211 40/212/212 54/213/213
f 54/214/214 40/215/215 39/216/216
f 13/217/217 14/218/218 55/219/219
f 14/220/220 58/221/221 55/222/222
f 55/223/223 58/224/224 56/225/225
f 59/226/226 56/227/227 58/228/228
f 56/229/229 59/230/230 57/231/231
f 60/232/232 57/233/233 59/234/234
f 40/235/235 57/236/236 41/237/237
f 57/238/238 60/239/239 41/240/240
f 14/241/241 24/242/242 58/243/243
f 24/244/244 61/245/245 58/246/246
f 58/247/247 61/248/248 59/249/249
f 59/250/250 61/251/251 62/252/252
f 59/253/253 62/254/254 60/255/255
f 62/256/256 63/257/257 60/258/258
f 42/259/259 41/260/260 63/261/261
f 41/262/262 60/263/263 63/264/264
f 24/265/265 23/266/266 61/267/267
f 61/268/268 23/269/269 64/270/270
f 61/271/271 64/272/272 62/273/273
f 65/274/274 62/275/275 64/276/276
f 62/277/277 65/278/278 63/279/279
f 63/280/280 65/281/281 66/282/282
f 43/283/283 42/284/284 66/285/285
f 42/286/286 63/287/287 66/288/288
f 23/289/289 22/290/290 64/291/291
f 22/292/292 67/293/293 64/294/294
f 64/295/295 67/296/296 65/297/297
f 68/298/298 65/299/299 67/300/300
f 65/301/301 68/302/302 66/303/303
f 69/304/304 66/305/305 68/306/306
f 44/307/307 43/308/308 69/309/309
f 43/310/310 66/311/311 69/312/312
f 22/313/313 21/314/314 67/315/315
f 21/316/316 70/317/317 67/318/318
f 67/319/319 70/320/320 68/321/321
f 71/322/322 68/323/323 70/324/324
f 68/325/325 71/326/326 69/327/327
f 71/328/328 72/329/329 69/330/330
f 69/331/331 72/332/332 44/333/333
f 44/334/334 72/335/335 45/336/336
f 21/337/337 20/338/338 70/339/339
f 73/340/340 70/341/341 20/342/342
f 70/343/343 73/344/344 71/345/345
f 74/346/346 71/347/347 73/348/348
f 71/349/349 74/350/350 72/351/351
f 74/352/352 75/353/353 72/354/354
f 72/355/355 75/356/356 45/357/357
f 45/358/358 75/359/359 46/360/360
f 19/361/361 76/362/362 20/363/363
f 20/364/364 76/365/365 73/366/366
f 76/367/367 77/368/368 73/369/369
f 73/370/370 77/371/371 74/372/372
f 77/373/373 78/374/374 74/375/375
f 74/376/376 78/377/377 75/378/378
f 78/379/379 47/380/380 75/381/381
f 47/382/382 46/383/383 75/384/384
f 18/385/385 82/386/386 19/387/387
f 76/388/388 19/389/389 82/390/390
f 82/391/391 83/392/392 76/393/393
f 76/394/394 83/395/395 77/396/396
f 83/397/397 84/398/398 77/399/399
f 78/400/400 77/401/401 84/402/402
f 84/403/403 48/404/404 78/405/405
f 48/406/406 47/407/407 78/408/408
f 17/409/409 79/410/410 18/411/411
f 82/412/412 18/413/413 79/414/414
f 79/415/415 80/416/416 82/417/417
f 82/418/418 80/419/419 83/420/420
f 80/421/421 81/422/422 83/423/423
f 83/424/424 81/425/425 84/426/426
f 81/427/427 38/428/428 84/429/429
f 38/430/430 48/431/431 84/432/432
f 85/433/433 96/434/434 86/435/435
f 96/436/436 95/437/437 86/438/438
f 95/439/439 94/440/440 86/441/441
f 94/442/442 93/443/443 86/444/444
f 93/445/445 92/446/446 86/447/447
f 92/448/448 91/449/449 86/450/450
f 91/451/451 90/452/452 86/453/453
f 90/454/454 89/455/455 86/456/456
f 89/457/457 88/458/458 86/459/459
f 87/460/460 86/461/461 88/462/462
f 7/463/463 6/464/464 97/465/465
f 119/466/466 97/467/467 6/468/468
f 120/469/469 98/470/470 119/471/471
f 97/472/472 119/473/473 98/474/474
f 85/475/475 86/476/476 120/477/477
f 120/478/478 86/479/479 98/480/480
f 8/481/481 7/482/482 99/483/483
f 7/484/484 97/485/485 99/486/486
f 98/487/487 100/488/488 97/489/489
f 99/490/490 97/491/491 100/492/492
f 86/493/493 87/494/494 98/495/495
f 98/496/496 87/497/497 100/498/498
f 9/499/499 8/500/500 101/501/501
f 99/502/502 101/503/503 8/504/504
f 100/505/505 102/506/506 99/507/507
f 101/508/508 99/509/509 102/510/510
f 87/511/511 88/512/512 100/513/513
f 100/514/514 88/515/515 102/516/516
f 10/517/517 9/518/518 103/519/519
f 101/520/520 103/521/521 9/522/522
f 102/523/523 104/524/524 101/525/525
f 103/526/526 101/527/527 104/528/528
f 88/529/529 89/530/530 102/531/531
f 102/532/532 89/533/533 104/534/534
f 11/535/535 10/536/536 105/537/537
f 103/538/538 105/539/539 10/540/540
f 104/541/541 106/542/542 103/543/543
f 105/544/544 103/545/545 106/546/546
f 89/547/547 90/548/548 104/549/549
f 104/550/550 90/551/551 106/552/552
f 12/553/553 11/554/554 107/555/555
f 105/556/556 107/557/557 11/558/558
f 106/559/559 108/560/560 105/561/561
f 107/562/562 105/563/563 108/564/564
f 90/565/565 91/566/566 106/567/567
f 106/568/568 91/569/569 108/570/570
f 2/571/571 12/572/572 109/573/573
f 107/574/574 109/575/575 12/576/576
f 108/577/577 110/578/578 107/579/579
f 109/580/580 107/581/581 110/582/582
f 91/583/583 92/584/584 108/585/585
f 108/586/586 92/587/587 110/588/588
f 1/589/589 2/590/590 111/591/591
f 109/592/592 111/593/593 2/594/594
f 110/595/595 112/596/596 109/597/597
f 111/598/598 109/599/599 112/600/600
f 92/601/601 93/602/602 110/603/603
f 110/604/604 93/605/605 112/606/606
f 3/607/607 1/608/608 113/609/609
f 111/610/610 113/611/611 1/612/612
f 112/613/613 114/614/614 111/615/615
f 113/616/616 111/617/617 114/618/618
f 93/619/619 94/620/620 112/621/621
f 112/622/622 94/623/623 114/624/624
f 4/625/625 3/626/626 115/627/627
f 113/628/628 115/629/629 3/630/630
f 114/631/631 116/632/632 113/633/633
f 115/634/634 113/635/635 116/636/636
f 94/637/637 95/638/638 114/639/639
f 114/640/640 95/641/641 116/642/642
f 5/643/643 4/644/644 117/645/645
f 115/646/646 117/647/647 4/648/648
f 116/649/649 118/650/650 115/651/651
f 117/652/652 115/653/653 118/654/654
f 95/655/655 96/656/656 116/657/657
f 116/658/658 96/659/659 118/660/660
f 6/661/661 5/662/662 119/663/663
f 117/664/664 119/665/665 5/666/666
f 118/667/667 120/668/668 117/669/669
f 119/670/670 117/671/671 120/672/672
f 96/673/673 85/674/674 118/675/675
f 118/676/676 85/677/677 120/678/678
