# Mesh 9
o Mesh9

v -0.3988 2.0815 0.0094
v -0.1975 2.2539 0.0094
v -0.4204 1.8956 0.0094
v -0.1975 1.8956 0.0094
v -0.3988 2.0815 -0.0112
v -0.1975 2.2539 -0.0112
v -0.4204 1.8956 -0.0112
v -0.1975 1.8956 -0.0112
vt 0.4067 0.0167
vt 0.4067 0.3167
vt 0.5752 0.1723
vt 0.5933 0.0167
vt 0.4067 0.0167
vt 0.5752 0.1723
vt 0.26 0.9833
vt 0.26 0.6833
vt 0.0914 0.839
vt 0.26 0.6833
vt 0.0734 0.6833
vt 0.0914 0.839
vt 0.158 0.65
vt 0.1753 0.65
vt 0.1753 0.5057
vt 0.158 0.5057
vt 0.158 0.65
vt 0.1753 0.5057
vt 0.1753 0.0167
vt 0.158 0.0167
vt 0.158 0.3167
vt 0.1753 0.3167
vt 0.1753 0.0167
vt 0.158 0.3167
vt 0.5139 0.35
vt 0.4861 0.35
vt 0.4861 0.65
vt 0.5139 0.65
vt 0.5139 0.35
vt 0.4861 0.65
vt 0.158 0.5057
vt 0.1753 0.5057
vt 0.1753 0.35
vt 0.158 0.35
vt 0.158 0.5057
vt 0.1753 0.35
vn 0.0 0.0 1.0
vn 0.0 0.0 1.0
vn 0.0 0.0 1.0
vn 0.0 0.0 1.0
vn 0.0 0.0 1.0
vn 0.0 0.0 1.0
vn 0.0 0.0 -1.0
vn 0.0 0.0 -1.0
vn 0.0 0.0 -1.0
vn 0.0 0.0 -1.0
vn 0.0 0.0 -1.0
vn 0.0 0.0 -1.0
vn -0.6505 0.7595 0.0
vn -0.6505 0.7595 0.0
vn -0.6505 0.7595 0.0
vn -0.6505 0.7595 0.0
vn -0.6505 0.7595 0.0
vn -0.6505 0.7595 0.0
vn 1.0 0.0 0.0
vn 1.0 0.0 0.0
vn 1.0 0.0 0.0
vn 1.0 0.0 0.0
vn 1.0 0.0 0.0
vn 1.0 0.0 0.0
vn 0.0 -1.0 0.0
vn 0.0 -1.0 0.0
vn 0.0 -1.0 0.0
vn 0.0 -1.0 0.0
vn 0.0 -1.0 0.0
vn 0.0 -1.0 0.0
vn -0.9933 0.1154 0.0
vn -0.9933 0.1154 0.0
vn -0.9933 0.1154 0.0
vn -0.9933 0.1154 0.0
vn -0.9933 0.1154 0.0
vn -0.9933 0.1154 0.0
f 4/1/1 2/2/2 1/3/3
f 3/4/4 4/5/5 1/6/6
f 6/7/7 8/8/8 5/9/9
f 8/10/10 7/11/11 5/12/12
f 2/13/13 6/14/14 5/15/15
f 1/16/16 2/17/17 5/18/18
f 4/19/19 8/20/20 6/21/21
f 2/22/22 4/23/23 6/24/24
f 3/25/25 7/26/26 8/27/27
f 4/28/28 3/29/29 8/30/30
f 1/31/31 5/32/32 7/33/33
f 3/34/34 1/35/35 7/36/36
