# Mesh 2
o Mesh2

v 0.9265 5.6572 0.0375
v 0.4934 5.5711 0.0374
v 0.1273 5.3265 0.0374
v -0.1172 4.9605 0.0375
v 0.9238 5.6176 0.1318
v 0.5083 5.5349 0.1319
v 0.155 5.2988 0.1319
v -0.0368 4.9271 0.1795
v 0.9218 5.4758 0.2182
v 0.5626 5.4038 0.2184
v 0.2554 5.1985 0.2184
v 0.1124 4.8653 0.2182
v 0.9218 5.3143 0.1795
v 0.6245 5.2546 0.1793
v 0.3696 5.0843 0.1793
v 0.243 4.8112 0.1318
v 0.9238 5.2276 0.0375
v 0.6576 5.1746 0.0374
v 0.4307 5.0231 0.0374
v 0.2792 4.7963 -0.0297
v 0.9265 5.2672 -0.1241
v 0.6426 5.2108 -0.1241
v 0.4031 5.0508 -0.1241
v 0.1987 4.8296 -0.1717
v 0.9284 5.409 -0.2104
v 0.5883 5.3419 -0.2107
v 0.3027 5.1511 -0.2107
v 0.0495 4.8914 -0.2104
v 0.9284 5.5705 -0.1717
v 0.5265 5.4911 -0.1715
v 0.1885 5.2653 -0.1715
v -0.0811 4.9455 -0.1241
v 1.6382 5.4062 -0.0912
v 1.6382 5.3496 -0.0378
v 1.6382 5.3473 0.0401
v 1.6382 5.4007 0.0967
v 1.6382 5.4786 0.099
v 1.6382 5.5353 0.0456
v 1.6382 5.5375 -0.0323
v 1.6382 5.4841 -0.089
v 1.5279 5.5705 0.1794
v 1.5279 5.6571 0.0374
v 1.5279 5.4089 0.2186
v 1.5279 5.2669 0.132
v 1.5279 5.2277 -0.0297
v 1.5279 5.3143 -0.1716
v 1.5279 5.4089 -0.2108
v 1.5279 5.6179 -0.1242
v 1.6314 5.5707 0.0849
v 1.6109 5.5969 0.111
v 1.5767 5.6126 0.1267
v 1.6314 5.4759 0.1519
v 1.6109 5.4759 0.1889
v 1.5767 5.4759 0.211
v 1.6314 5.3614 0.1322
v 1.6109 5.3353 0.1584
v 1.5767 5.3196 0.174
v 1.6314 5.2944 0.0374
v 1.6109 5.2574 0.0374
v 1.5767 5.2352 0.0374
v 1.6314 5.3141 -0.0771
v 1.6109 5.2879 -0.1032
v 1.5767 5.2722 -0.1189
v 1.6314 5.4089 -0.1441
v 1.6109 5.4089 -0.1811
v 1.5767 5.4089 -0.2033
v 1.6314 5.5904 0.0374
v 1.6109 5.6274 0.0374
v 1.5767 5.6496 0.0374
v 1.6314 5.5234 -0.1245
v 1.6109 5.5495 -0.1506
v 1.5767 5.5652 -0.1663
v 0.9238 5.2276 -0.0297
v 1.5279 5.2277 0.0374
v 0.6576 5.1746 -0.0296
v 0.4307 5.0231 -0.0296
v 0.2792 4.7963 0.0375
v 1.5767 5.2352 -0.0296
v 1.6109 5.2574 -0.0296
v 1.6314 5.2944 -0.0296
v 1.6382 5.3473 -0.0323
v 0.9265 5.2672 0.1318
v 1.5279 5.3143 0.1794
v 0.6426 5.2108 0.1319
v 0.4031 5.0508 0.1319
v 0.1987 4.8296 0.1795
v 1.5767 5.2722 0.1267
v 1.6109 5.2879 0.111
v 1.6314 5.3141 0.0849
v 1.6382 5.3496 0.0455
v 0.9284 5.409 0.2182
v 1.5279 5.476 0.2186
v 0.5883 5.3419 0.2184
v 0.3027 5.1511 0.2184
v 0.0495 4.8914 0.2182
v 1.5767 5.4089 0.211
v 1.6109 5.4089 0.1889
v 1.6314 5.4089 0.1519
v 1.6382 5.4062 0.099
v 0.9284 5.5705 0.1795
v 1.5279 5.6179 0.132
v 0.5265 5.4911 0.1793
v 0.1885 5.2653 0.1793
v -0.0811 4.9455 0.1318
v 1.5767 5.5652 0.174
v 1.6109 5.5495 0.1584
v 1.6314 5.5234 0.1322
v 1.6382 5.4841 0.0967
v 0.9265 5.6572 -0.0297
v 1.5279 5.6571 -0.0297
v 0.4934 5.5711 -0.0296
v 0.1273 5.3265 -0.0296
v -0.1172 4.9605 -0.0297
v 1.5767 5.6496 -0.0296
v 1.6109 5.6274 -0.0296
v 1.6314 5.5904 -0.0296
v 1.6382 5.5375 0.0401
v 0.9238 5.6176 -0.1241
v 1.5279 5.5705 -0.1716
v 0.5083 5.5349 -0.1241
v 0.155 5.2988 -0.1242
v -0.0368 4.9271 -0.1717
v 1.5767 5.6126 -0.1189
v 1.6109 5.5969 -0.1032
v 1.6314 5.5707 -0.0771
v 1.6382 5.5353 -0.0378
v 0.9218 5.4758 -0.2104
v 1.5279 5.476 -0.2108
v 0.5626 5.4038 -0.2107
v 0.2554 5.1985 -0.2107
v 0.1124 4.8653 -0.2104
v 1.5767 5.4759 -0.2033
v 1.6109 5.4759 -0.1811
v 1.6314 5.4759 -0.1441
v 1.6382 5.4786 -0.0912
v 0.9218 5.3143 -0.1717
v 1.5279 5.2669 -0.1242
v 0.6245 5.2546 -0.1715
v 0.3696 5.0843 -0.1715
v 0.243 4.8112 -0.1241
v 1.5767 5.3196 -0.1663
v 1.6109 5.3353 -0.1506
v 1.6314 5.3614 -0.1245
v 1.6382 5.4007 -0.089
vt 0.527 0.4878
vt 0.5071 0.4872
vt 0.5071 0.5786
vt 0.527 0.5754
vt 0.527 0.4878
vt 0.5071 0.5786
vt 0.1372 0.9022
vt 0.2119 0.8874
vt 0.2052 0.8712
vt 0.1372 0.9022
vt 0.2052 0.8712
vt 0.1384 0.8846
vt 0.1384 0.8546
vt 0.1372 0.8722
vt 0.2004 0.8597
vt 0.1384 0.8546
vt 0.2004 0.8597
vt 0.1937 0.8435
vt 0.5227 0.2015
vt 0.5227 0.1512
vt 0.5059 0.1539
vt 0.5227 0.2015
vt 0.5059 0.1539
vt 0.506 0.201
vt 0.4773 0.1512
vt 0.4773 0.2015
vt 0.494 0.201
vt 0.4773 0.1512
vt 0.494 0.201
vt 0.4941 0.1539
vt 0.4662 0.8597
vt 0.5295 0.8722
vt 0.5282 0.8546
vt 0.4662 0.8597
vt 0.5282 0.8546
vt 0.473 0.8435
vt 0.4547 0.8874
vt 0.5295 0.9022
vt 0.5282 0.8846
vt 0.5282 0.8846
vt 0.4614 0.8712
vt 0.4547 0.8874
vt 0.4929 0.4872
vt 0.473 0.4878
vt 0.473 0.5754
vt 0.4929 0.5786
vt 0.4929 0.4872
vt 0.473 0.5754
vt 0.107 0.6331
vt 0.1511 0.65
vt 0.1511 0.5361
vt 0.107 0.5232
vt 0.107 0.6331
vt 0.1511 0.5361
vt 0.2119 0.8874
vt 0.2748 0.8455
vt 0.2623 0.833
vt 0.2119 0.8874
vt 0.2623 0.833
vt 0.2052 0.8712
vt 0.1937 0.8435
vt 0.2004 0.8597
vt 0.2535 0.8242
vt 0.1937 0.8435
vt 0.2535 0.8242
vt 0.2411 0.8118
vt 0.2117 0.1624
vt 0.2117 0.1061
vt 0.1785 0.0964
vt 0.2117 0.1624
vt 0.1785 0.0964
vt 0.1785 0.1497
vt 0.1217 0.1061
vt 0.1217 0.1624
vt 0.1549 0.1497
vt 0.1217 0.1061
vt 0.1549 0.1497
vt 0.1549 0.0964
vt 0.4131 0.8242
vt 0.4662 0.8597
vt 0.473 0.8435
vt 0.4131 0.8242
vt 0.473 0.8435
vt 0.4256 0.8118
vt 0.3919 0.8455
vt 0.4547 0.8874
vt 0.4614 0.8712
vt 0.4614 0.8712
vt 0.4043 0.833
vt 0.3919 0.8455
vt 0.1823 0.65
vt 0.2263 0.6331
vt 0.2263 0.5232
vt 0.1823 0.5361
vt 0.1823 0.65
vt 0.2263 0.5232
vt 0.5295 0.8722
vt 0.6409 0.8722
vt 0.6409 0.8546
vt 0.5282 0.8546
vt 0.5295 0.8722
vt 0.6409 0.8546
vt 0.4773 0.2015
vt 0.4773 0.308
vt 0.494 0.308
vt 0.494 0.201
vt 0.4773 0.2015
vt 0.494 0.308
vt 0.506 0.201
vt 0.5059 0.308
vt 0.5227 0.308
vt 0.5227 0.2015
vt 0.506 0.201
vt 0.5227 0.308
vt 0.1384 0.8546
vt 0.0257 0.8546
vt 0.0257 0.8722
vt 0.1372 0.8722
vt 0.1384 0.8546
vt 0.0257 0.8722
vt 0.1384 0.8846
vt 0.0257 0.8846
vt 0.0257 0.9022
vt 0.1372 0.9022
vt 0.1384 0.8846
vt 0.0257 0.9022
vt 0.527 0.4878
vt 0.527 0.3603
vt 0.5071 0.3603
vt 0.5071 0.4872
vt 0.527 0.4878
vt 0.5071 0.3603
vt 0.4929 0.4872
vt 0.4929 0.3603
vt 0.473 0.3603
vt 0.473 0.4878
vt 0.4929 0.4872
vt 0.473 0.3603
vt 0.5295 0.9022
vt 0.6409 0.9022
vt 0.6409 0.8846
vt 0.5282 0.8846
vt 0.5295 0.9022
vt 0.6409 0.8846
vt 0.2043 0.2981
vt 0.1952 0.2889
vt 0.1785 0.2959
vt 0.1785 0.2959
vt 0.1785 0.3089
vt 0.2043 0.2981
vt 0.2099 0.3037
vt 0.2043 0.2981
vt 0.1785 0.3089
vt 0.2099 0.3037
vt 0.1785 0.3089
vt 0.1785 0.3167
vt 0.5071 0.35
vt 0.5071 0.3603
vt 0.527 0.3603
vt 0.527 0.3603
vt 0.5259 0.35
vt 0.5071 0.35
vt 0.2317 0.2556
vt 0.2187 0.2556
vt 0.2118 0.2723
vt 0.2118 0.2723
vt 0.221 0.2815
vt 0.2317 0.2556
vt 0.2395 0.2556
vt 0.2317 0.2556
vt 0.221 0.2815
vt 0.2395 0.2556
vt 0.221 0.2815
vt 0.2265 0.287
vt 0.0167 0.9012
vt 0.0257 0.9022
vt 0.0257 0.8846
vt 0.0257 0.8846
vt 0.0167 0.8846
vt 0.0167 0.9012
vt 0.221 0.2062
vt 0.2118 0.2153
vt 0.2187 0.232
vt 0.2187 0.232
vt 0.2317 0.232
vt 0.221 0.2062
vt 0.2265 0.2006
vt 0.221 0.2062
vt 0.2317 0.232
vt 0.2265 0.2006
vt 0.2317 0.232
vt 0.2395 0.232
vt 0.0167 0.8722
vt 0.0257 0.8722
vt 0.0257 0.8546
vt 0.0257 0.8546
vt 0.0167 0.8556
vt 0.0167 0.8722
vt 0.1785 0.1788
vt 0.1785 0.1918
vt 0.1952 0.1987
vt 0.1952 0.1987
vt 0.2043 0.1895
vt 0.1785 0.1788
vt 0.1785 0.171
vt 0.1785 0.1788
vt 0.2043 0.1895
vt 0.1785 0.171
vt 0.2043 0.1895
vt 0.2099 0.184
vt 0.5217 0.3167
vt 0.5227 0.308
vt 0.5059 0.308
vt 0.5059 0.308
vt 0.5059 0.3167
vt 0.5217 0.3167
vt 0.129 0.1895
vt 0.1382 0.1987
vt 0.1549 0.1918
vt 0.1549 0.1918
vt 0.1549 0.1788
vt 0.129 0.1895
vt 0.1235 0.184
vt 0.129 0.1895
vt 0.1549 0.1788
vt 0.1235 0.184
vt 0.1549 0.1788
vt 0.1549 0.171
vt 0.4941 0.3167
vt 0.494 0.308
vt 0.4773 0.308
vt 0.4773 0.308
vt 0.4783 0.3167
vt 0.4941 0.3167
vt 0.1016 0.232
vt 0.1147 0.232
vt 0.1215 0.2153
vt 0.1215 0.2153
vt 0.1124 0.2062
vt 0.1016 0.232
vt 0.0938 0.232
vt 0.1016 0.232
vt 0.1124 0.2062
vt 0.0938 0.232
vt 0.1124 0.2062
vt 0.1068 0.2006
vt 0.65 0.8556
vt 0.6409 0.8546
vt 0.6409 0.8722
vt 0.6409 0.8722
vt 0.65 0.8722
vt 0.65 0.8556
vt 0.1124 0.2815
vt 0.1215 0.2723
vt 0.1147 0.2556
vt 0.1147 0.2556
vt 0.1016 0.2556
vt 0.1124 0.2815
vt 0.1068 0.287
vt 0.1124 0.2815
vt 0.1016 0.2556
vt 0.1068 0.287
vt 0.1016 0.2556
vt 0.0938 0.2556
vt 0.65 0.8846
vt 0.6409 0.8846
vt 0.6409 0.9022
vt 0.6409 0.9022
vt 0.65 0.9012
vt 0.65 0.8846
vt 0.1549 0.3089
vt 0.1549 0.2959
vt 0.1382 0.2889
vt 0.1382 0.2889
vt 0.129 0.2981
vt 0.1549 0.3089
vt 0.1549 0.3167
vt 0.1549 0.3089
vt 0.129 0.2981
vt 0.1549 0.3167
vt 0.129 0.2981
vt 0.1235 0.3037
vt 0.4741 0.35
vt 0.473 0.3603
vt 0.4929 0.3603
vt 0.4929 0.3603
vt 0.4929 0.35
vt 0.4741 0.35
vt 0.506 0.201
vt 0.494 0.201
vt 0.494 0.308
vt 0.5059 0.308
vt 0.506 0.201
vt 0.494 0.308
vt 0.4941 0.1539
vt 0.494 0.201
vt 0.506 0.201
vt 0.5059 0.1539
vt 0.4941 0.1539
vt 0.506 0.201
vt 0.1549 0.1497
vt 0.1785 0.1497
vt 0.1785 0.0964
vt 0.1549 0.0964
vt 0.1549 0.1497
vt 0.1785 0.0964
vt 0.1549 0.0964
vt 0.1785 0.0964
vt 0.1785 0.0167
vt 0.1549 0.0167
vt 0.1549 0.0964
vt 0.1785 0.0167
vt 0.5059 0.3167
vt 0.5059 0.308
vt 0.494 0.308
vt 0.494 0.308
vt 0.4941 0.3167
vt 0.5059 0.3167
vt 0.1549 0.1788
vt 0.1785 0.1788
vt 0.1785 0.171
vt 0.1549 0.171
vt 0.1549 0.1788
vt 0.1785 0.171
vt 0.1549 0.1918
vt 0.1785 0.1918
vt 0.1785 0.1788
vt 0.1549 0.1788
vt 0.1549 0.1918
vt 0.1785 0.1788
vt 0.154 0.2104
vt 0.1794 0.2104
vt 0.1785 0.1918
vt 0.1549 0.1918
vt 0.154 0.2104
vt 0.1785 0.1918
vt 0.5311 0.308
vt 0.5311 0.2007
vt 0.5227 0.2015
vt 0.5227 0.2015
vt 0.5227 0.308
vt 0.5311 0.308
vt 0.5311 0.2007
vt 0.5311 0.148
vt 0.5227 0.1512
vt 0.5227 0.1512
vt 0.5227 0.2015
vt 0.5311 0.2007
vt 0.5311 0.148
vt 0.5311 0.1029
vt 0.5227 0.1088
vt 0.5227 0.1512
vt 0.5311 0.148
vt 0.5227 0.1088
vt 0.2284 0.1179
vt 0.2284 0.0284
vt 0.2117 0.0219
vt 0.2117 0.1061
vt 0.2284 0.1179
vt 0.2117 0.0219
vt 0.5301 0.3167
vt 0.5311 0.308
vt 0.5227 0.308
vt 0.5227 0.308
vt 0.5217 0.3167
vt 0.5301 0.3167
vt 0.2043 0.1895
vt 0.221 0.2062
vt 0.2265 0.2006
vt 0.2099 0.184
vt 0.2043 0.1895
vt 0.2265 0.2006
vt 0.1952 0.1987
vt 0.2118 0.2153
vt 0.221 0.2062
vt 0.2043 0.1895
vt 0.1952 0.1987
vt 0.221 0.2062
vt 0.1813 0.2112
vt 0.1993 0.2292
vt 0.2118 0.2153
vt 0.1952 0.1987
vt 0.1813 0.2112
vt 0.2118 0.2153
vt 0.0257 0.8846
vt 0.1384 0.8846
vt 0.1372 0.8722
vt 0.0257 0.8846
vt 0.1372 0.8722
vt 0.0257 0.8722
vt 0.1384 0.8846
vt 0.2052 0.8712
vt 0.2004 0.8597
vt 0.2004 0.8597
vt 0.1372 0.8722
vt 0.1384 0.8846
vt 0.2052 0.8712
vt 0.2623 0.833
vt 0.2535 0.8242
vt 0.2535 0.8242
vt 0.2004 0.8597
vt 0.2052 0.8712
vt 0.2535 0.8242
vt 0.2623 0.833
vt 0.3006 0.7759
vt 0.3006 0.7759
vt 0.2889 0.7711
vt 0.2535 0.8242
vt 0.0167 0.8846
vt 0.0257 0.8846
vt 0.0257 0.8722
vt 0.0257 0.8722
vt 0.0167 0.8722
vt 0.0167 0.8846
vt 0.2317 0.232
vt 0.2317 0.2556
vt 0.2395 0.2556
vt 0.2395 0.232
vt 0.2317 0.232
vt 0.2395 0.2556
vt 0.2187 0.232
vt 0.2187 0.2556
vt 0.2317 0.2556
vt 0.2317 0.232
vt 0.2187 0.232
vt 0.2317 0.2556
vt 0.2001 0.2311
vt 0.2001 0.2565
vt 0.2187 0.2556
vt 0.2187 0.232
vt 0.2001 0.2311
vt 0.2187 0.2556
vt 0.527 0.3603
vt 0.527 0.4878
vt 0.5371 0.4868
vt 0.527 0.3603
vt 0.5371 0.4868
vt 0.537 0.3603
vt 0.527 0.4878
vt 0.527 0.5754
vt 0.537 0.5716
vt 0.537 0.5716
vt 0.5371 0.4868
vt 0.527 0.4878
vt 0.527 0.5754
vt 0.527 0.65
vt 0.537 0.6429
vt 0.537 0.5716
vt 0.527 0.5754
vt 0.537 0.6429
vt 0.107 0.5232
vt 0.1071 0.3586
vt 0.0849 0.35
vt 0.085 0.5075
vt 0.107 0.5232
vt 0.0849 0.35
vt 0.5259 0.35
vt 0.527 0.3603
vt 0.537 0.3603
vt 0.537 0.3603
vt 0.5359 0.35
vt 0.5259 0.35
vt 0.221 0.2815
vt 0.2043 0.2981
vt 0.2099 0.3037
vt 0.2265 0.287
vt 0.221 0.2815
vt 0.2099 0.3037
vt 0.2118 0.2723
vt 0.1952 0.2889
vt 0.2043 0.2981
vt 0.221 0.2815
vt 0.2118 0.2723
vt 0.2043 0.2981
vt 0.1993 0.2585
vt 0.1813 0.2765
vt 0.1952 0.2889
vt 0.2118 0.2723
vt 0.1993 0.2585
vt 0.1952 0.2889
vt 0.5071 0.3603
vt 0.4929 0.3603
vt 0.4929 0.4872
vt 0.5071 0.4872
vt 0.5071 0.3603
vt 0.4929 0.4872
vt 0.5071 0.4872
vt 0.4929 0.4872
vt 0.4929 0.5786
vt 0.5071 0.5786
vt 0.5071 0.4872
vt 0.4929 0.5786
vt 0.1511 0.65
vt 0.1823 0.65
vt 0.1823 0.5361
vt 0.1511 0.5361
vt 0.1511 0.65
vt 0.1823 0.5361
vt 0.1511 0.5361
vt 0.1823 0.5361
vt 0.1823 0.3656
vt 0.151 0.3656
vt 0.1511 0.5361
vt 0.1823 0.3656
vt 0.5071 0.3603
vt 0.5071 0.35
vt 0.4929 0.35
vt 0.4929 0.35
vt 0.4929 0.3603
vt 0.5071 0.3603
vt 0.1549 0.3167
vt 0.1785 0.3167
vt 0.1785 0.3089
vt 0.1549 0.3089
vt 0.1549 0.3167
vt 0.1785 0.3089
vt 0.1549 0.3089
vt 0.1785 0.3089
vt 0.1785 0.2959
vt 0.1549 0.2959
vt 0.1549 0.3089
vt 0.1785 0.2959
vt 0.1785 0.2959
vt 0.1794 0.2773
vt 0.154 0.2773
vt 0.1785 0.2959
vt 0.154 0.2773
vt 0.1549 0.2959
vt 0.4629 0.4868
vt 0.473 0.4878
vt 0.473 0.3603
vt 0.463 0.3603
vt 0.4629 0.4868
vt 0.473 0.3603
vt 0.463 0.5716
vt 0.473 0.5754
vt 0.473 0.4878
vt 0.473 0.4878
vt 0.4629 0.4868
vt 0.463 0.5716
vt 0.473 0.65
vt 0.473 0.5754
vt 0.463 0.5716
vt 0.463 0.5716
vt 0.463 0.6429
vt 0.473 0.65
vt 0.2263 0.3586
vt 0.2263 0.5232
vt 0.2484 0.5075
vt 0.2484 0.5075
vt 0.2485 0.35
vt 0.2263 0.3586
vt 0.4641 0.35
vt 0.463 0.3603
vt 0.473 0.3603
vt 0.473 0.3603
vt 0.4741 0.35
vt 0.4641 0.35
vt 0.129 0.2981
vt 0.1124 0.2815
vt 0.1068 0.287
vt 0.1235 0.3037
vt 0.129 0.2981
vt 0.1068 0.287
vt 0.1382 0.2889
vt 0.1215 0.2723
vt 0.1124 0.2815
vt 0.129 0.2981
vt 0.1382 0.2889
vt 0.1124 0.2815
vt 0.152 0.2765
vt 0.134 0.2585
vt 0.1215 0.2723
vt 0.1382 0.2889
vt 0.152 0.2765
vt 0.1215 0.2723
vt 0.5282 0.8846
vt 0.6409 0.8846
vt 0.6409 0.8722
vt 0.5282 0.8846
vt 0.6409 0.8722
vt 0.5295 0.8722
vt 0.4614 0.8712
vt 0.5282 0.8846
vt 0.5295 0.8722
vt 0.5295 0.8722
vt 0.4662 0.8597
vt 0.4614 0.8712
vt 0.4131 0.8242
vt 0.4043 0.833
vt 0.4614 0.8712
vt 0.4614 0.8712
vt 0.4662 0.8597
vt 0.4131 0.8242
vt 0.366 0.7759
vt 0.4043 0.833
vt 0.4131 0.8242
vt 0.3777 0.7711
vt 0.366 0.7759
vt 0.4131 0.8242
vt 0.65 0.8722
vt 0.6409 0.8722
vt 0.6409 0.8846
vt 0.6409 0.8846
vt 0.65 0.8846
vt 0.65 0.8722
vt 0.1016 0.2556
vt 0.1016 0.232
vt 0.0938 0.232
vt 0.0938 0.2556
vt 0.1016 0.2556
vt 0.0938 0.232
vt 0.1147 0.2556
vt 0.1147 0.232
vt 0.1016 0.232
vt 0.1016 0.2556
vt 0.1147 0.2556
vt 0.1016 0.232
vt 0.1332 0.2565
vt 0.1332 0.2311
vt 0.1147 0.232
vt 0.1147 0.2556
vt 0.1332 0.2565
vt 0.1147 0.232
vt 0.4689 0.2007
vt 0.4689 0.308
vt 0.4773 0.308
vt 0.4773 0.308
vt 0.4773 0.2015
vt 0.4689 0.2007
vt 0.4689 0.148
vt 0.4689 0.2007
vt 0.4773 0.2015
vt 0.4689 0.148
vt 0.4773 0.2015
vt 0.4773 0.1512
vt 0.4689 0.1029
vt 0.4689 0.148
vt 0.4773 0.1512
vt 0.4773 0.1088
vt 0.4689 0.1029
vt 0.4773 0.1512
vt 0.1049 0.0284
vt 0.105 0.1179
vt 0.1217 0.1061
vt 0.1217 0.0219
vt 0.1049 0.0284
vt 0.1217 0.1061
vt 0.4783 0.3167
vt 0.4773 0.308
vt 0.4689 0.308
vt 0.4689 0.308
vt 0.4699 0.3167
vt 0.4783 0.3167
vt 0.1124 0.2062
vt 0.129 0.1895
vt 0.1235 0.184
vt 0.1068 0.2006
vt 0.1124 0.2062
vt 0.1235 0.184
vt 0.1215 0.2153
vt 0.1382 0.1987
vt 0.129 0.1895
vt 0.1124 0.2062
vt 0.1215 0.2153
vt 0.129 0.1895
vt 0.134 0.2292
vt 0.152 0.2112
vt 0.1382 0.1987
vt 0.1215 0.2153
vt 0.134 0.2292
vt 0.1382 0.1987
vt 0.2117 0.0219
vt 0.1785 0.0167
vt 0.1785 0.0964
vt 0.2117 0.1061
vt 0.2117 0.0219
vt 0.1785 0.0964
vt 0.506 0.0869
vt 0.5227 0.0805
vt 0.5311 0.0726
vt 0.4773 0.0805
vt 0.494 0.0869
vt 0.506 0.0869
vt 0.462 0.0573
vt 0.4689 0.0726
vt 0.4773 0.0805
vt 0.4689 0.0309
vt 0.462 0.0462
vt 0.462 0.0573
vt 0.494 0.0167
vt 0.4773 0.0231
vt 0.4689 0.0309
vt 0.5227 0.0231
vt 0.506 0.0167
vt 0.494 0.0167
vt 0.538 0.0462
vt 0.5311 0.0309
vt 0.5227 0.0231
vt 0.5311 0.0726
vt 0.538 0.0573
vt 0.538 0.0462
vt 0.494 0.0167
vt 0.4689 0.0309
vt 0.462 0.0573
vt 0.5227 0.0231
vt 0.494 0.0167
vt 0.462 0.0573
vt 0.538 0.0462
vt 0.5227 0.0231
vt 0.462 0.0573
vt 0.5311 0.0726
vt 0.538 0.0462
vt 0.462 0.0573
vt 0.506 0.0869
vt 0.5311 0.0726
vt 0.462 0.0573
vt 0.4773 0.0805
vt 0.506 0.0869
vt 0.462 0.0573
vt 0.152 0.2112
vt 0.154 0.2104
vt 0.1549 0.1918
vt 0.1549 0.1918
vt 0.1382 0.1987
vt 0.152 0.2112
vt 0.1794 0.2773
vt 0.1813 0.2765
vt 0.1993 0.2585
vt 0.152 0.2765
vt 0.154 0.2773
vt 0.1794 0.2773
vt 0.1332 0.2565
vt 0.134 0.2585
vt 0.152 0.2765
vt 0.134 0.2292
vt 0.1332 0.2311
vt 0.1332 0.2565
vt 0.154 0.2104
vt 0.152 0.2112
vt 0.134 0.2292
vt 0.1813 0.2112
vt 0.1794 0.2104
vt 0.154 0.2104
vt 0.2001 0.2311
vt 0.1993 0.2292
vt 0.1813 0.2112
vt 0.1993 0.2585
vt 0.2001 0.2565
vt 0.2001 0.2311
vt 0.154 0.2104
vt 0.134 0.2292
vt 0.1332 0.2565
vt 0.1813 0.2112
vt 0.154 0.2104
vt 0.1332 0.2565
vt 0.2001 0.2311
vt 0.1813 0.2112
vt 0.1332 0.2565
vt 0.1993 0.2585
vt 0.2001 0.2311
vt 0.1332 0.2565
vt 0.1794 0.2773
vt 0.1993 0.2585
vt 0.1332 0.2565
vt 0.152 0.2765
vt 0.1794 0.2773
vt 0.1332 0.2565
vt 0.2729 0.7645
vt 0.2411 0.8118
vt 0.2535 0.8242
vt 0.2535 0.8242
vt 0.2889 0.7711
vt 0.2729 0.7645
vt 0.1794 0.2104
vt 0.1813 0.2112
vt 0.1952 0.1987
vt 0.1952 0.1987
vt 0.1785 0.1918
vt 0.1794 0.2104
vt 0.3006 0.7759
vt 0.2623 0.833
vt 0.2748 0.8455
vt 0.2748 0.8455
vt 0.3167 0.7826
vt 0.3006 0.7759
vt 0.1993 0.2292
vt 0.2001 0.2311
vt 0.2187 0.232
vt 0.2187 0.232
vt 0.2118 0.2153
vt 0.1993 0.2292
vt 0.1071 0.3586
vt 0.107 0.5232
vt 0.1511 0.5361
vt 0.1511 0.5361
vt 0.151 0.3656
vt 0.1071 0.3586
vt 0.2001 0.2565
vt 0.1993 0.2585
vt 0.2118 0.2723
vt 0.2118 0.2723
vt 0.2187 0.2556
vt 0.2001 0.2565
vt 0.2263 0.5232
vt 0.2263 0.3586
vt 0.1823 0.3656
vt 0.2263 0.5232
vt 0.1823 0.3656
vt 0.1823 0.5361
vt 0.1813 0.2765
vt 0.1794 0.2773
vt 0.1785 0.2959
vt 0.1785 0.2959
vt 0.1952 0.2889
vt 0.1813 0.2765
vt 0.3919 0.8455
vt 0.4043 0.833
vt 0.366 0.7759
vt 0.366 0.7759
vt 0.35 0.7826
vt 0.3919 0.8455
vt 0.154 0.2773
vt 0.152 0.2765
vt 0.1382 0.2889
vt 0.1382 0.2889
vt 0.1549 0.2959
vt 0.154 0.2773
vt 0.4256 0.8118
vt 0.3938 0.7645
vt 0.3777 0.7711
vt 0.3777 0.7711
vt 0.4131 0.8242
vt 0.4256 0.8118
vt 0.134 0.2585
vt 0.1332 0.2565
vt 0.1147 0.2556
vt 0.1147 0.2556
vt 0.1215 0.2723
vt 0.134 0.2585
vt 0.1549 0.0964
vt 0.1549 0.0167
vt 0.1217 0.0219
vt 0.1549 0.0964
vt 0.1217 0.0219
vt 0.1217 0.1061
vt 0.1332 0.2311
vt 0.134 0.2292
vt 0.1215 0.2153
vt 0.1215 0.2153
vt 0.1147 0.232
vt 0.1332 0.2311
vn -0.1807 0.9087 0.3764
vn -0.1807 0.9087 0.3764
vn -0.1807 0.9087 0.3764
vn -0.1808 0.9086 0.3766
vn -0.1808 0.9086 0.3766
vn -0.1808 0.9086 0.3766
vn -0.0758 0.3813 0.9213
vn -0.0758 0.3813 0.9213
vn -0.0758 0.3813 0.9213
vn -0.076 0.3817 0.9211
vn -0.076 0.3817 0.9211
vn -0.076 0.3817 0.9211
vn 0.0759 -0.3817 0.9212
vn 0.0759 -0.3817 0.9212
vn 0.0759 -0.3817 0.9212
vn 0.0759 -0.3812 0.9214
vn 0.0759 -0.3812 0.9214
vn 0.0759 -0.3812 0.9214
vn 0.1806 -0.9086 0.3767
vn 0.1806 -0.9086 0.3767
vn 0.1806 -0.9086 0.3767
vn 0.1808 -0.9087 0.3764
vn 0.1808 -0.9087 0.3764
vn 0.1808 -0.9087 0.3764
vn 0.1805 -0.9088 -0.3761
vn 0.1805 -0.9088 -0.3761
vn 0.1805 -0.9088 -0.3761
vn 0.1807 -0.9085 -0.3767
vn 0.1807 -0.9085 -0.3767
vn 0.1807 -0.9085 -0.3767
vn 0.0761 -0.3817 -0.9211
vn 0.0761 -0.3817 -0.9211
vn 0.0761 -0.3817 -0.9211
vn 0.0761 -0.382 -0.921
vn 0.0761 -0.382 -0.921
vn 0.0761 -0.382 -0.921
vn -0.0759 0.3817 -0.9212
vn -0.0759 0.3817 -0.9212
vn -0.0759 0.3817 -0.9212
vn -0.0758 0.3822 -0.921
vn -0.0758 0.3822 -0.921
vn -0.0758 0.3822 -0.921
vn -0.1809 0.9088 -0.376
vn -0.1809 0.9088 -0.376
vn -0.1809 0.9088 -0.376
vn -0.1807 0.9086 -0.3766
vn -0.1807 0.9086 -0.3766
vn -0.1807 0.9086 -0.3766
vn -0.5147 0.7704 0.3763
vn -0.5147 0.7704 0.3763
vn -0.5147 0.7704 0.3763
vn -0.5147 0.7702 0.3766
vn -0.5147 0.7702 0.3766
vn -0.5147 0.7702 0.3766
vn -0.2159 0.3231 0.9214
vn -0.2159 0.3231 0.9214
vn -0.2159 0.3231 0.9214
vn -0.2161 0.3233 0.9213
vn -0.2161 0.3233 0.9213
vn -0.2161 0.3233 0.9213
vn 0.2159 -0.3232 0.9214
vn 0.2159 -0.3232 0.9214
vn 0.2159 -0.3232 0.9214
vn 0.2159 -0.3231 0.9214
vn 0.2159 -0.3231 0.9214
vn 0.2159 -0.3231 0.9214
vn 0.5147 -0.7704 0.3762
vn 0.5147 -0.7704 0.3762
vn 0.5147 -0.7704 0.3762
vn 0.5144 -0.7704 0.3768
vn 0.5144 -0.7704 0.3768
vn 0.5144 -0.7704 0.3768
vn 0.5146 -0.7703 -0.3767
vn 0.5146 -0.7703 -0.3767
vn 0.5146 -0.7703 -0.3767
vn 0.5145 -0.7706 -0.3761
vn 0.5145 -0.7706 -0.3761
vn 0.5145 -0.7706 -0.3761
vn 0.2164 -0.3239 -0.921
vn 0.2164 -0.3239 -0.921
vn 0.2164 -0.3239 -0.921
vn 0.2163 -0.3238 -0.921
vn 0.2163 -0.3238 -0.921
vn 0.2163 -0.3238 -0.921
vn -0.2165 0.324 -0.921
vn -0.2165 0.324 -0.921
vn -0.2165 0.324 -0.921
vn -0.2164 0.3238 -0.9211
vn -0.2164 0.3238 -0.9211
vn -0.2164 0.3238 -0.9211
vn -0.5147 0.7704 -0.3763
vn -0.5147 0.7704 -0.3763
vn -0.5147 0.7704 -0.3763
vn -0.5147 0.7704 -0.3763
vn -0.5147 0.7704 -0.3763
vn -0.5147 0.7704 -0.3763
vn -0.0007 -0.3828 -0.9238
vn -0.0007 -0.3828 -0.9238
vn -0.0007 -0.3828 -0.9238
vn 0.0002 -0.3783 -0.9257
vn 0.0002 -0.3783 -0.9257
vn 0.0002 -0.3783 -0.9257
vn -0.0005 -0.9237 -0.3832
vn -0.0005 -0.9237 -0.3832
vn -0.0005 -0.9237 -0.3832
vn 0.0002 -0.9222 -0.3868
vn 0.0002 -0.9222 -0.3868
vn 0.0002 -0.9222 -0.3868
vn 0.0002 -0.9238 0.3828
vn 0.0002 -0.9238 0.3828
vn 0.0002 -0.9238 0.3828
vn -0.0006 -0.922 0.3872
vn -0.0006 -0.922 0.3872
vn -0.0006 -0.922 0.3872
vn 0.0002 -0.3828 0.9238
vn 0.0002 -0.3828 0.9238
vn 0.0002 -0.3828 0.9238
vn -0.0007 -0.3783 0.9257
vn -0.0007 -0.3783 0.9257
vn -0.0007 -0.3783 0.9257
vn -0.0007 0.3832 0.9237
vn -0.0007 0.3832 0.9237
vn -0.0007 0.3832 0.9237
vn 0.0002 0.3783 0.9257
vn 0.0002 0.3783 0.9257
vn 0.0002 0.3783 0.9257
vn -0.0006 0.9238 0.3828
vn -0.0006 0.9238 0.3828
vn -0.0006 0.9238 0.3828
vn 0.0002 0.922 0.3872
vn 0.0002 0.922 0.3872
vn 0.0002 0.922 0.3872
vn 0.0002 0.9237 -0.3832
vn 0.0002 0.9237 -0.3832
vn 0.0002 0.9237 -0.3832
vn -0.0005 0.9222 -0.3868
vn -0.0005 0.9222 -0.3868
vn -0.0005 0.9222 -0.3868
vn 0.0002 0.3832 -0.9237
vn 0.0002 0.3832 -0.9237
vn 0.0002 0.3832 -0.9237
vn -0.0007 0.3783 -0.9257
vn -0.0007 0.3783 -0.9257
vn -0.0007 0.3783 -0.9257
vn 0.8577 0.4749 0.197
vn 0.8577 0.4749 0.197
vn 0.8577 0.4749 0.197
vn 0.8576 0.4752 0.1969
vn 0.8576 0.4752 0.1969
vn 0.8576 0.4752 0.1969
vn 0.5144 0.7922 0.3283
vn 0.5144 0.7922 0.3283
vn 0.5144 0.7922 0.3283
vn 0.5143 0.7923 0.3283
vn 0.5143 0.7923 0.3283
vn 0.5143 0.7923 0.3283
vn 0.1406 0.9147 0.379
vn 0.1406 0.9147 0.379
vn 0.1406 0.9147 0.379
vn 0.1405 0.9147 0.379
vn 0.1405 0.9147 0.379
vn 0.1405 0.9147 0.379
vn 0.8576 0.1971 0.4751
vn 0.8576 0.1971 0.4751
vn 0.8576 0.1971 0.4751
vn 0.8577 0.1968 0.475
vn 0.8577 0.1968 0.475
vn 0.8577 0.1968 0.475
vn 0.5126 0.3287 0.7932
vn 0.5126 0.3287 0.7932
vn 0.5126 0.3287 0.7932
vn 0.5127 0.3286 0.7932
vn 0.5127 0.3286 0.7932
vn 0.5127 0.3286 0.7932
vn 0.1424 0.3793 0.9143
vn 0.1424 0.3793 0.9143
vn 0.1424 0.3793 0.9143
vn 0.1432 0.3788 0.9143
vn 0.1432 0.3788 0.9143
vn 0.1432 0.3788 0.9143
vn 0.8577 -0.197 0.4749
vn 0.8577 -0.197 0.4749
vn 0.8577 -0.197 0.4749
vn 0.8576 -0.1969 0.4752
vn 0.8576 -0.1969 0.4752
vn 0.8576 -0.1969 0.4752
vn 0.5127 -0.3287 0.7932
vn 0.5127 -0.3287 0.7932
vn 0.5127 -0.3287 0.7932
vn 0.5126 -0.3287 0.7932
vn 0.5126 -0.3287 0.7932
vn 0.5126 -0.3287 0.7932
vn 0.1424 -0.3789 0.9144
vn 0.1424 -0.3789 0.9144
vn 0.1424 -0.3789 0.9144
vn 0.1423 -0.3789 0.9144
vn 0.1423 -0.3789 0.9144
vn 0.1423 -0.3789 0.9144
vn 0.8576 -0.4751 0.1971
vn 0.8576 -0.4751 0.1971
vn 0.8576 -0.4751 0.1971
vn 0.8577 -0.475 0.1968
vn 0.8577 -0.475 0.1968
vn 0.8577 -0.475 0.1968
vn 0.5143 -0.7923 0.3283
vn 0.5143 -0.7923 0.3283
vn 0.5143 -0.7923 0.3283
vn 0.5144 -0.7922 0.3283
vn 0.5144 -0.7922 0.3283
vn 0.5144 -0.7922 0.3283
vn 0.1405 -0.9147 0.379
vn 0.1405 -0.9147 0.379
vn 0.1405 -0.9147 0.379
vn 0.1406 -0.9147 0.379
vn 0.1406 -0.9147 0.379
vn 0.1406 -0.9147 0.379
vn 0.8577 -0.4749 -0.197
vn 0.8577 -0.4749 -0.197
vn 0.8577 -0.4749 -0.197
vn 0.8576 -0.4752 -0.1969
vn 0.8576 -0.4752 -0.1969
vn 0.8576 -0.4752 -0.1969
vn 0.5144 -0.7922 -0.3283
vn 0.5144 -0.7922 -0.3283
vn 0.5144 -0.7922 -0.3283
vn 0.5143 -0.7923 -0.3283
vn 0.5143 -0.7923 -0.3283
vn 0.5143 -0.7923 -0.3283
vn 0.1413 -0.9144 -0.3793
vn 0.1413 -0.9144 -0.3793
vn 0.1413 -0.9144 -0.3793
vn 0.1405 -0.9147 -0.379
vn 0.1405 -0.9147 -0.379
vn 0.1405 -0.9147 -0.379
vn 0.8577 -0.1961 -0.4752
vn 0.8577 -0.1961 -0.4752
vn 0.8577 -0.1961 -0.4752
vn 0.8571 -0.1972 -0.4759
vn 0.8571 -0.1972 -0.4759
vn 0.8571 -0.1972 -0.4759
vn 0.5143 -0.3283 -0.7923
vn 0.5143 -0.3283 -0.7923
vn 0.5143 -0.3283 -0.7923
vn 0.5144 -0.3283 -0.7922
vn 0.5144 -0.3283 -0.7922
vn 0.5144 -0.3283 -0.7922
vn 0.1405 -0.379 -0.9147
vn 0.1405 -0.379 -0.9147
vn 0.1405 -0.379 -0.9147
vn 0.1406 -0.379 -0.9147
vn 0.1406 -0.379 -0.9147
vn 0.1406 -0.379 -0.9147
vn 0.8569 0.1966 -0.4765
vn 0.8569 0.1966 -0.4765
vn 0.8569 0.1966 -0.4765
vn 0.8576 0.1969 -0.4752
vn 0.8576 0.1969 -0.4752
vn 0.8576 0.1969 -0.4752
vn 0.5144 0.3283 -0.7922
vn 0.5144 0.3283 -0.7922
vn 0.5144 0.3283 -0.7922
vn 0.5143 0.3283 -0.7923
vn 0.5143 0.3283 -0.7923
vn 0.5143 0.3283 -0.7923
vn 0.1413 0.3793 -0.9144
vn 0.1413 0.3793 -0.9144
vn 0.1413 0.3793 -0.9144
vn 0.1405 0.379 -0.9147
vn 0.1405 0.379 -0.9147
vn 0.1405 0.379 -0.9147
vn 0.8576 0.4751 -0.1971
vn 0.8576 0.4751 -0.1971
vn 0.8576 0.4751 -0.1971
vn 0.8577 0.475 -0.1968
vn 0.8577 0.475 -0.1968
vn 0.8577 0.475 -0.1968
vn 0.5143 0.7923 -0.3283
vn 0.5143 0.7923 -0.3283
vn 0.5143 0.7923 -0.3283
vn 0.5144 0.7922 -0.3283
vn 0.5144 0.7922 -0.3283
vn 0.5144 0.7922 -0.3283
vn 0.1405 0.9145 -0.3794
vn 0.1405 0.9145 -0.3794
vn 0.1405 0.9145 -0.3794
vn 0.1413 0.9146 -0.3789
vn 0.1413 0.9146 -0.3789
vn 0.1413 0.9146 -0.3789
vn 0.0002 -1.0 0.0
vn 0.0002 -1.0 0.0
vn 0.0002 -1.0 0.0
vn 0.0002 -1.0 0.0
vn 0.0002 -1.0 0.0
vn 0.0002 -1.0 0.0
vn 0.1953 -0.9808 0.0
vn 0.1953 -0.9808 0.0
vn 0.1953 -0.9808 0.0
vn 0.1953 -0.9808 0.0
vn 0.1953 -0.9808 0.0
vn 0.1953 -0.9808 0.0
vn 0.5553 -0.8317 0.0
vn 0.5553 -0.8317 0.0
vn 0.5553 -0.8317 0.0
vn 0.5553 -0.8317 0.0
vn 0.5553 -0.8317 0.0
vn 0.5553 -0.8317 0.0
vn 0.8315 -0.5555 0.0
vn 0.8315 -0.5555 0.0
vn 0.8315 -0.5555 0.0
vn 0.8315 -0.5555 0.0
vn 0.8315 -0.5555 0.0
vn 0.8315 -0.5555 0.0
vn 0.1519 -0.9884 0.0
vn 0.1519 -0.9884 0.0
vn 0.1519 -0.9884 0.0
vn 0.1519 -0.9884 0.0
vn 0.1519 -0.9884 0.0
vn 0.1519 -0.9884 0.0
vn 0.5445 -0.8388 0.0
vn 0.5445 -0.8388 0.0
vn 0.5445 -0.8388 0.0
vn 0.5445 -0.8388 0.0
vn 0.5445 -0.8388 0.0
vn 0.5445 -0.8388 0.0
vn 0.8747 -0.4846 0.0
vn 0.8747 -0.4846 0.0
vn 0.8747 -0.4846 0.0
vn 0.8747 -0.4846 0.0
vn 0.8747 -0.4846 0.0
vn 0.8747 -0.4846 0.0
vn 0.9918 -0.1275 0.0
vn 0.9918 -0.1275 0.0
vn 0.9918 -0.1275 0.0
vn 0.9918 -0.1275 0.0
vn 0.9918 -0.1275 0.0
vn 0.9918 -0.1275 0.0
vn 0.0001 -0.7116 0.7026
vn 0.0001 -0.7116 0.7026
vn 0.0001 -0.7116 0.7026
vn -0.0006 -0.7071 0.7071
vn -0.0006 -0.7071 0.7071
vn -0.0006 -0.7071 0.7071
vn 0.1401 -0.7 0.7003
vn 0.1401 -0.7 0.7003
vn 0.1401 -0.7 0.7003
vn 0.1389 -0.6978 0.7027
vn 0.1389 -0.6978 0.7027
vn 0.1389 -0.6978 0.7027
vn 0.3967 -0.5938 0.7
vn 0.3967 -0.5938 0.7
vn 0.3967 -0.5938 0.7
vn 0.3966 -0.5937 0.7001
vn 0.3966 -0.5937 0.7001
vn 0.3966 -0.5937 0.7001
vn 0.5915 -0.3963 0.7022
vn 0.5915 -0.3963 0.7022
vn 0.5915 -0.3963 0.7022
vn 0.5936 -0.3969 0.7001
vn 0.5936 -0.3969 0.7001
vn 0.5936 -0.3969 0.7001
vn 0.1532 -0.6988 0.6988
vn 0.1532 -0.6988 0.6988
vn 0.1532 -0.6988 0.6988
vn 0.1518 -0.6982 0.6996
vn 0.1518 -0.6982 0.6996
vn 0.1518 -0.6982 0.6996
vn 0.5433 -0.5936 0.5936
vn 0.5433 -0.5936 0.5936
vn 0.5433 -0.5936 0.5936
vn 0.5445 -0.5925 0.5937
vn 0.5445 -0.5925 0.5937
vn 0.5445 -0.5925 0.5937
vn 0.8746 -0.3428 0.3428
vn 0.8746 -0.3428 0.3428
vn 0.8746 -0.3428 0.3428
vn 0.8746 -0.3428 0.3428
vn 0.8746 -0.3428 0.3428
vn 0.8746 -0.3428 0.3428
vn 0.9918 -0.0902 0.0901
vn 0.9918 -0.0902 0.0901
vn 0.9918 -0.0902 0.0901
vn 0.9919 -0.09 0.09
vn 0.9919 -0.09 0.09
vn 0.9919 -0.09 0.09
vn -0.0007 -0.0001 1.0
vn -0.0007 -0.0001 1.0
vn -0.0007 -0.0001 1.0
vn -0.0007 0.0 1.0
vn -0.0007 0.0 1.0
vn -0.0007 0.0 1.0
vn 0.0005 0.0002 1.0
vn 0.0005 0.0002 1.0
vn 0.0005 0.0002 1.0
vn 0.0006 0.0001 1.0
vn 0.0006 0.0001 1.0
vn 0.0006 0.0001 1.0
vn 0.0 0.0 1.0
vn 0.0 0.0 1.0
vn 0.0 0.0 1.0
vn 0.0 0.0 1.0
vn 0.0 0.0 1.0
vn 0.0 0.0 1.0
vn -0.0004 -0.0004 1.0
vn -0.0004 -0.0004 1.0
vn -0.0004 -0.0004 1.0
vn -0.0002 -0.0005 1.0
vn -0.0002 -0.0005 1.0
vn -0.0002 -0.0005 1.0
vn 0.1539 0.0 0.9881
vn 0.1539 0.0 0.9881
vn 0.1539 0.0 0.9881
vn 0.1539 0.0 0.9881
vn 0.1539 0.0 0.9881
vn 0.1539 0.0 0.9881
vn 0.5427 0.0 0.8399
vn 0.5427 0.0 0.8399
vn 0.5427 0.0 0.8399
vn 0.5427 0.0 0.8399
vn 0.5427 0.0 0.8399
vn 0.5427 0.0 0.8399
vn 0.8747 0.0 0.4846
vn 0.8747 0.0 0.4846
vn 0.8747 0.0 0.4846
vn 0.8747 0.0 0.4846
vn 0.8747 0.0 0.4846
vn 0.8747 0.0 0.4846
vn 0.9918 0.0 0.1275
vn 0.9918 0.0 0.1275
vn 0.9918 0.0 0.1275
vn 0.9918 0.0 0.1275
vn 0.9918 0.0 0.1275
vn 0.9918 0.0 0.1275
vn -0.0006 0.7115 0.7026
vn -0.0006 0.7115 0.7026
vn -0.0006 0.7115 0.7026
vn 0.0001 0.7071 0.7071
vn 0.0001 0.7071 0.7071
vn 0.0001 0.7071 0.7071
vn -0.1392 0.7001 0.7004
vn -0.1392 0.7001 0.7004
vn -0.1392 0.7001 0.7004
vn -0.1383 0.698 0.7026
vn -0.1383 0.698 0.7026
vn -0.1383 0.698 0.7026
vn -0.3968 0.5937 0.7
vn -0.3968 0.5937 0.7
vn -0.3968 0.5937 0.7
vn -0.3964 0.5934 0.7005
vn -0.3964 0.5934 0.7005
vn -0.3964 0.5934 0.7005
vn -0.592 0.3954 0.7023
vn -0.592 0.3954 0.7023
vn -0.592 0.3954 0.7023
vn -0.5942 0.3962 0.7
vn -0.5942 0.3962 0.7
vn -0.5942 0.3962 0.7
vn 0.1518 0.6989 0.6989
vn 0.1518 0.6989 0.6989
vn 0.1518 0.6989 0.6989
vn 0.1532 0.698 0.6995
vn 0.1532 0.698 0.6995
vn 0.1532 0.698 0.6995
vn 0.5445 0.5931 0.5931
vn 0.5445 0.5931 0.5931
vn 0.5445 0.5931 0.5931
vn 0.5433 0.593 0.5943
vn 0.5433 0.593 0.5943
vn 0.5433 0.593 0.5943
vn 0.8746 0.3428 0.3428
vn 0.8746 0.3428 0.3428
vn 0.8746 0.3428 0.3428
vn 0.8746 0.3428 0.3428
vn 0.8746 0.3428 0.3428
vn 0.8746 0.3428 0.3428
vn 0.9918 0.0902 0.0904
vn 0.9918 0.0902 0.0904
vn 0.9918 0.0902 0.0904
vn 0.9918 0.0902 0.0902
vn 0.9918 0.0902 0.0902
vn 0.9918 0.0902 0.0902
vn 0.0002 1.0 0.0
vn 0.0002 1.0 0.0
vn 0.0002 1.0 0.0
vn 0.0002 1.0 0.0
vn 0.0002 1.0 0.0
vn 0.0002 1.0 0.0
vn -0.195 0.9808 0.0
vn -0.195 0.9808 0.0
vn -0.195 0.9808 0.0
vn -0.195 0.9808 0.0
vn -0.195 0.9808 0.0
vn -0.195 0.9808 0.0
vn -0.5555 0.8315 0.0
vn -0.5555 0.8315 0.0
vn -0.5555 0.8315 0.0
vn -0.5555 0.8315 0.0
vn -0.5555 0.8315 0.0
vn -0.5555 0.8315 0.0
vn -0.8315 0.5555 0.0
vn -0.8315 0.5555 0.0
vn -0.8315 0.5555 0.0
vn -0.8315 0.5555 0.0
vn -0.8315 0.5555 0.0
vn -0.8315 0.5555 0.0
vn 0.1519 0.9884 0.0
vn 0.1519 0.9884 0.0
vn 0.1519 0.9884 0.0
vn 0.1519 0.9884 0.0
vn 0.1519 0.9884 0.0
vn 0.1519 0.9884 0.0
vn 0.5445 0.8388 0.0
vn 0.5445 0.8388 0.0
vn 0.5445 0.8388 0.0
vn 0.5445 0.8388 0.0
vn 0.5445 0.8388 0.0
vn 0.5445 0.8388 0.0
vn 0.8747 0.4846 0.0
vn 0.8747 0.4846 0.0
vn 0.8747 0.4846 0.0
vn 0.8747 0.4846 0.0
vn 0.8747 0.4846 0.0
vn 0.8747 0.4846 0.0
vn 0.9918 0.1275 0.0
vn 0.9918 0.1275 0.0
vn 0.9918 0.1275 0.0
vn 0.9918 0.1275 0.0
vn 0.9918 0.1275 0.0
vn 0.9918 0.1275 0.0
vn -0.0005 0.7108 -0.7034
vn -0.0005 0.7108 -0.7034
vn -0.0005 0.7108 -0.7034
vn 0.0001 0.7071 -0.7071
vn 0.0001 0.7071 -0.7071
vn 0.0001 0.7071 -0.7071
vn -0.1393 0.7 -0.7004
vn -0.1393 0.7 -0.7004
vn -0.1393 0.7 -0.7004
vn -0.1381 0.6973 -0.7033
vn -0.1381 0.6973 -0.7033
vn -0.1381 0.6973 -0.7033
vn -0.3964 0.5934 -0.7005
vn -0.3964 0.5934 -0.7005
vn -0.3964 0.5934 -0.7005
vn -0.3963 0.5932 -0.7008
vn -0.3963 0.5932 -0.7008
vn -0.3963 0.5932 -0.7008
vn -0.5932 0.3962 -0.7008
vn -0.5932 0.3962 -0.7008
vn -0.5932 0.3962 -0.7008
vn -0.5916 0.3945 -0.7031
vn -0.5916 0.3945 -0.7031
vn -0.5916 0.3945 -0.7031
vn 0.1518 0.6989 -0.6989
vn 0.1518 0.6989 -0.6989
vn 0.1518 0.6989 -0.6989
vn 0.1518 0.6989 -0.6989
vn 0.1518 0.6989 -0.6989
vn 0.1518 0.6989 -0.6989
vn 0.5445 0.5931 -0.5931
vn 0.5445 0.5931 -0.5931
vn 0.5445 0.5931 -0.5931
vn 0.5445 0.5931 -0.5931
vn 0.5445 0.5931 -0.5931
vn 0.5445 0.5931 -0.5931
vn 0.8742 0.3437 -0.343
vn 0.8742 0.3437 -0.343
vn 0.8742 0.3437 -0.343
vn 0.8746 0.3428 -0.3428
vn 0.8746 0.3428 -0.3428
vn 0.8746 0.3428 -0.3428
vn 0.9918 0.0902 -0.0902
vn 0.9918 0.0902 -0.0902
vn 0.9918 0.0902 -0.0902
vn 0.9918 0.0904 -0.0902
vn 0.9918 0.0904 -0.0902
vn 0.9918 0.0904 -0.0902
vn -0.0007 0.0 -1.0
vn -0.0007 0.0 -1.0
vn -0.0007 0.0 -1.0
vn -0.0007 -0.0001 -1.0
vn -0.0007 -0.0001 -1.0
vn -0.0007 -0.0001 -1.0
vn 0.0008 0.0001 -1.0
vn 0.0008 0.0001 -1.0
vn 0.0008 0.0001 -1.0
vn 0.0008 0.0003 -1.0
vn 0.0008 0.0003 -1.0
vn 0.0008 0.0003 -1.0
vn 0.0 0.0 -1.0
vn 0.0 0.0 -1.0
vn 0.0 0.0 -1.0
vn 0.0 0.0 -1.0
vn 0.0 0.0 -1.0
vn 0.0 0.0 -1.0
vn -0.0006 -0.0006 -1.0
vn -0.0006 -0.0006 -1.0
vn -0.0006 -0.0006 -1.0
vn -0.0003 -0.0008 -1.0
vn -0.0003 -0.0008 -1.0
vn -0.0003 -0.0008 -1.0
vn 0.1519 0.0 -0.9884
vn 0.1519 0.0 -0.9884
vn 0.1519 0.0 -0.9884
vn 0.1519 0.0 -0.9884
vn 0.1519 0.0 -0.9884
vn 0.1519 0.0 -0.9884
vn 0.5445 0.0 -0.8388
vn 0.5445 0.0 -0.8388
vn 0.5445 0.0 -0.8388
vn 0.5445 0.0 -0.8388
vn 0.5445 0.0 -0.8388
vn 0.5445 0.0 -0.8388
vn 0.8747 0.0 -0.4846
vn 0.8747 0.0 -0.4846
vn 0.8747 0.0 -0.4846
vn 0.8747 0.0 -0.4846
vn 0.8747 0.0 -0.4846
vn 0.8747 0.0 -0.4846
vn 0.9918 0.0 -0.1275
vn 0.9918 0.0 -0.1275
vn 0.9918 0.0 -0.1275
vn 0.9918 0.0 -0.1275
vn 0.9918 0.0 -0.1275
vn 0.9918 0.0 -0.1275
vn 0.0001 -0.7071 -0.7071
vn 0.0001 -0.7071 -0.7071
vn 0.0001 -0.7071 -0.7071
vn -0.0005 -0.7109 -0.7033
vn -0.0005 -0.7109 -0.7033
vn -0.0005 -0.7109 -0.7033
vn 0.1395 -0.697 -0.7034
vn 0.1395 -0.697 -0.7034
vn 0.1395 -0.697 -0.7034
vn 0.1391 -0.7003 -0.7002
vn 0.1391 -0.7003 -0.7002
vn 0.1391 -0.7003 -0.7002
vn 0.3967 -0.5937 -0.7001
vn 0.3967 -0.5937 -0.7001
vn 0.3967 -0.5937 -0.7001
vn 0.3967 -0.5938 -0.7
vn 0.3967 -0.5938 -0.7
vn 0.3967 -0.5938 -0.7
vn 0.5932 -0.3975 -0.7001
vn 0.5932 -0.3975 -0.7001
vn 0.5932 -0.3975 -0.7001
vn 0.5913 -0.3951 -0.703
vn 0.5913 -0.3951 -0.703
vn 0.5913 -0.3951 -0.703
vn 0.1518 -0.6989 -0.6989
vn 0.1518 -0.6989 -0.6989
vn 0.1518 -0.6989 -0.6989
vn 0.1518 -0.6989 -0.6989
vn 0.1518 -0.6989 -0.6989
vn 0.1518 -0.6989 -0.6989
vn 0.5445 -0.5931 -0.5931
vn 0.5445 -0.5931 -0.5931
vn 0.5445 -0.5931 -0.5931
vn 0.5445 -0.5931 -0.5931
vn 0.5445 -0.5931 -0.5931
vn 0.5445 -0.5931 -0.5931
vn 0.8746 -0.3432 -0.3425
vn 0.8746 -0.3432 -0.3425
vn 0.8746 -0.3432 -0.3425
vn 0.8742 -0.3433 -0.3433
vn 0.8742 -0.3433 -0.3433
vn 0.8742 -0.3433 -0.3433
vn 0.9918 -0.0903 -0.0901
vn 0.9918 -0.0903 -0.0901
vn 0.9918 -0.0903 -0.0901
vn 0.9918 -0.0903 -0.0901
vn 0.9918 -0.0903 -0.0901
vn 0.9918 -0.0903 -0.0901
vn 0.7703 -0.5144 0.377
vn 0.7703 -0.5144 0.377
vn 0.7703 -0.5144 0.377
vn 0.7704 -0.5149 0.3759
vn 0.7704 -0.5149 0.3759
vn 0.7704 -0.5149 0.3759
vn -0.3857 -0.9226 -0.0023
vn -0.3857 -0.9226 -0.0023
vn -0.3857 -0.9226 -0.0023
vn -0.3806 -0.9247 0.0
vn -0.3806 -0.9247 0.0
vn -0.3806 -0.9247 0.0
vn -0.3813 -0.9244 -0.0025
vn -0.3813 -0.9244 -0.0025
vn -0.3813 -0.9244 -0.0025
vn -0.3833 -0.9236 -0.0026
vn -0.3833 -0.9236 -0.0026
vn -0.3833 -0.9236 -0.0026
vn -0.3835 -0.9235 0.0001
vn -0.3835 -0.9235 0.0001
vn -0.3835 -0.9235 0.0001
vn -0.3837 -0.9235 0.0
vn -0.3837 -0.9235 0.0
vn -0.3837 -0.9235 0.0
vn -0.3813 -0.9244 -0.0025
vn -0.3813 -0.9244 -0.0025
vn -0.3813 -0.9244 -0.0025
vn -0.3833 -0.9236 -0.0026
vn -0.3833 -0.9236 -0.0026
vn -0.3833 -0.9236 -0.0026
vn -0.3825 -0.9239 0.0007
vn -0.3825 -0.9239 0.0007
vn -0.3825 -0.9239 0.0007
vn -0.3831 -0.9237 -0.0002
vn -0.3831 -0.9237 -0.0002
vn -0.3831 -0.9237 -0.0002
vn -0.3828 -0.9238 0.0001
vn -0.3828 -0.9238 0.0001
vn -0.3828 -0.9238 0.0001
vn -0.3827 -0.9239 0.0001
vn -0.3827 -0.9239 0.0001
vn -0.3827 -0.9239 0.0001
vn -0.3823 -0.9241 0.0
vn -0.3823 -0.9241 0.0
vn -0.3823 -0.9241 0.0
vn -0.3831 -0.9237 0.0006
vn -0.3831 -0.9237 0.0006
vn -0.3831 -0.9237 0.0006
vn 0.99 -0.13 -0.0544
vn 0.99 -0.13 -0.0544
vn 0.99 -0.13 -0.0544
vn 0.9901 -0.13 -0.0539
vn 0.9901 -0.13 -0.0539
vn 0.9901 -0.13 -0.0539
vn 1.0 0.0 0.0
vn 1.0 0.0 0.0
vn 1.0 0.0 0.0
vn 1.0 0.0 0.0
vn 1.0 0.0 0.0
vn 1.0 0.0 0.0
vn 1.0 0.0 0.0
vn 1.0 0.0 0.0
vn 1.0 0.0 0.0
vn 1.0 0.0 0.0
vn 1.0 0.0 0.0
vn 1.0 0.0 0.0
vn 1.0 0.0 0.0
vn 1.0 0.0 0.0
vn 1.0 0.0 0.0
vn 1.0 0.0 0.0
vn 1.0 0.0 0.0
vn 1.0 0.0 0.0
vn 1.0 0.0 0.0
vn 1.0 0.0 0.0
vn 1.0 0.0 0.0
vn 1.0 0.0 0.0
vn 1.0 0.0 0.0
vn 1.0 0.0 0.0
vn 1.0 0.0 0.0
vn 1.0 0.0 0.0
vn 1.0 0.0 0.0
vn 1.0 0.0 0.0
vn 1.0 0.0 0.0
vn 1.0 0.0 0.0
vn 1.0 0.0 0.0
vn 1.0 0.0 0.0
vn 1.0 0.0 0.0
vn 1.0 0.0 0.0
vn 1.0 0.0 0.0
vn 1.0 0.0 0.0
vn 1.0 0.0 0.0
vn 1.0 0.0 0.0
vn 1.0 0.0 0.0
vn 1.0 0.0 0.0
vn 1.0 0.0 0.0
vn 1.0 0.0 0.0
vn 0.3229 -0.216 0.9215
vn 0.3229 -0.216 0.9215
vn 0.3229 -0.216 0.9215
vn 0.3237 -0.2162 0.9212
vn 0.3237 -0.2162 0.9212
vn 0.3237 -0.2162 0.9212
vn 0.9902 -0.1288 0.0548
vn 0.9902 -0.1288 0.0548
vn 0.9902 -0.1288 0.0548
vn 0.99 -0.13 0.0539
vn 0.99 -0.13 0.0539
vn 0.99 -0.13 0.0539
vn -0.3229 0.2159 0.9215
vn -0.3229 0.2159 0.9215
vn -0.3229 0.2159 0.9215
vn -0.3237 0.2162 0.9212
vn -0.3237 0.2162 0.9212
vn -0.3237 0.2162 0.9212
vn 0.99 -0.0544 0.13
vn 0.99 -0.0544 0.13
vn 0.99 -0.0544 0.13
vn 0.9901 -0.0539 0.13
vn 0.9901 -0.0539 0.13
vn 0.9901 -0.0539 0.13
vn -0.7703 0.5146 0.3766
vn -0.7703 0.5146 0.3766
vn -0.7703 0.5146 0.3766
vn -0.7702 0.5146 0.3767
vn -0.7702 0.5146 0.3767
vn -0.7702 0.5146 0.3767
vn 0.9901 0.0542 0.1296
vn 0.9901 0.0542 0.1296
vn 0.9901 0.0542 0.1296
vn 0.99 0.0539 0.13
vn 0.99 0.0539 0.13
vn 0.99 0.0539 0.13
vn -0.7703 0.5147 -0.3764
vn -0.7703 0.5147 -0.3764
vn -0.7703 0.5147 -0.3764
vn -0.7704 0.5147 -0.3763
vn -0.7704 0.5147 -0.3763
vn -0.7704 0.5147 -0.3763
vn 0.9902 0.1299 0.052
vn 0.9902 0.1299 0.052
vn 0.9902 0.1299 0.052
vn 0.99 0.1302 0.054
vn 0.99 0.1302 0.054
vn 0.99 0.1302 0.054
vn -0.3238 0.2162 -0.9211
vn -0.3238 0.2162 -0.9211
vn -0.3238 0.2162 -0.9211
vn -0.3237 0.2162 -0.9212
vn -0.3237 0.2162 -0.9212
vn -0.3237 0.2162 -0.9212
vn 0.9899 0.1317 -0.0527
vn 0.9899 0.1317 -0.0527
vn 0.9899 0.1317 -0.0527
vn 0.99 0.13 -0.0539
vn 0.99 0.13 -0.0539
vn 0.99 0.13 -0.0539
vn 0.3236 -0.2164 -0.9211
vn 0.3236 -0.2164 -0.9211
vn 0.3236 -0.2164 -0.9211
vn 0.3236 -0.2164 -0.9211
vn 0.3236 -0.2164 -0.9211
vn 0.3236 -0.2164 -0.9211
vn 0.9902 0.052 -0.1299
vn 0.9902 0.052 -0.1299
vn 0.9902 0.052 -0.1299
vn 0.99 0.0537 -0.1302
vn 0.99 0.0537 -0.1302
vn 0.99 0.0537 -0.1302
vn 0.7704 -0.5144 -0.3766
vn 0.7704 -0.5144 -0.3766
vn 0.7704 -0.5144 -0.3766
vn 0.7705 -0.5148 -0.3759
vn 0.7705 -0.5148 -0.3759
vn 0.7705 -0.5148 -0.3759
vn 0.9899 -0.0526 -0.1314
vn 0.9899 -0.0526 -0.1314
vn 0.9899 -0.0526 -0.1314
vn 0.9901 -0.0536 -0.13
vn 0.9901 -0.0536 -0.13
vn 0.9901 -0.0536 -0.13
f 5/1/1 1/2/2 2/3/3
f 6/4/4 5/5/5 2/6/6
f 100/7/7 102/8/8 10/9/9
f 100/10/10 10/11/11 9/12/12
f 13/13/13 91/14/14 93/15/15
f 13/16/16 93/17/17 14/18/18
f 82/19/19 84/20/20 18/21/21
f 82/22/22 18/23/23 17/24/24
f 22/25/25 21/26/26 73/27/27
f 22/28/28 73/29/29 75/30/30
f 26/31/31 25/32/32 136/33/33
f 26/34/34 136/35/35 138/36/36
f 30/37/37 29/38/38 127/39/39
f 127/40/40 129/41/41 30/42/42
f 109/43/43 118/44/44 120/45/45
f 111/46/46 109/47/47 120/48/48
f 6/49/49 2/50/50 3/51/51
f 7/52/52 6/53/53 3/54/54
f 102/55/55 103/56/56 11/57/57
f 102/58/58 11/59/59 10/60/60
f 14/61/61 93/62/62 94/63/63
f 14/64/64 94/65/65 15/66/66
f 84/67/67 85/68/68 19/69/69
f 84/70/70 19/71/71 18/72/72
f 23/73/73 22/74/74 75/75/75
f 23/76/76 75/77/77 76/78/78
f 27/79/79 26/80/80 138/81/81
f 27/82/82 138/83/83 139/84/84
f 31/85/85 30/86/86 129/87/87
f 129/88/88 130/89/89 31/90/90
f 111/91/91 120/92/92 121/93/93
f 112/94/94 111/95/95 121/96/96
f 25/97/97 47/98/98 46/99/99
f 136/100/100 25/101/101 46/102/102
f 21/103/103 137/104/104 45/105/105
f 73/106/106 21/107/107 45/108/108
f 17/109/109 74/110/110 44/111/111
f 82/112/112 17/113/113 44/114/114
f 13/115/115 83/116/116 43/117/117
f 91/118/118 13/119/119 43/120/120
f 9/121/121 92/122/122 41/123/123
f 100/124/124 9/125/125 41/126/126
f 5/127/127 101/128/128 42/129/129
f 1/130/130 5/131/131 42/132/132
f 109/133/133 110/134/134 48/135/135
f 118/136/136 109/137/137 48/138/138
f 29/139/139 119/140/140 128/141/141
f 127/142/142 29/143/143 128/144/144
f 50/145/145 49/146/146 67/147/147
f 67/148/148 68/149/149 50/150/150
f 51/151/151 50/152/152 68/153/153
f 51/154/154 68/155/155 69/156/156
f 69/157/157 42/158/158 101/159/159
f 101/160/160 51/161/161 69/162/162
f 53/163/163 52/164/164 107/165/165
f 107/166/166 106/167/167 53/168/168
f 54/169/169 53/170/170 106/171/171
f 54/172/172 106/173/173 105/174/174
f 105/175/175 41/176/176 92/177/177
f 92/178/178 54/179/179 105/180/180
f 56/181/181 55/182/182 98/183/183
f 98/184/184 97/185/185 56/186/186
f 57/187/187 56/188/188 97/189/189
f 57/190/190 97/191/191 96/192/192
f 96/193/193 43/194/194 83/195/195
f 83/196/196 57/197/197 96/198/198
f 59/199/199 58/200/200 89/201/201
f 89/202/202 88/203/203 59/204/204
f 60/205/205 59/206/206 88/207/207
f 60/208/208 88/209/209 87/210/210
f 87/211/211 44/212/212 74/213/213
f 74/214/214 60/215/215 87/216/216
f 62/217/217 61/218/218 80/219/219
f 80/220/220 79/221/221 62/222/222
f 63/223/223 62/224/224 79/225/225
f 63/226/226 79/227/227 78/228/228
f 78/229/229 45/230/230 137/231/231
f 137/232/232 63/233/233 78/234/234
f 65/235/235 64/236/236 143/237/237
f 143/238/238 142/239/239 65/240/240
f 66/241/241 65/242/242 142/243/243
f 66/244/244 142/245/245 141/246/246
f 141/247/247 46/248/248 47/249/249
f 47/250/250 66/251/251 141/252/252
f 71/253/253 70/254/254 134/255/255
f 134/256/256 133/257/257 71/258/258
f 72/259/259 71/260/260 133/261/261
f 72/262/262 133/263/263 132/264/264
f 132/265/265 128/266/266 119/267/267
f 119/268/268 72/269/269 132/270/270
f 115/271/271 116/272/272 125/273/273
f 125/274/274 124/275/275 115/276/276
f 114/277/277 115/278/278 124/279/279
f 114/280/280 124/281/281 123/282/282
f 123/283/283 48/284/284 110/285/285
f 110/286/286 114/287/287 123/288/288
f 17/289/289 73/290/290 45/291/291
f 74/292/292 17/293/293 45/294/294
f 75/295/295 73/296/296 17/297/297
f 18/298/298 75/299/299 17/300/300
f 75/301/301 18/302/302 19/303/303
f 76/304/304 75/305/305 19/306/306
f 76/307/307 19/308/308 77/309/309
f 20/310/310 76/311/311 77/312/312
f 60/313/313 74/314/314 45/315/315
f 45/316/316 78/317/317 60/318/318
f 79/319/319 59/320/320 60/321/321
f 78/322/322 79/323/323 60/324/324
f 80/325/325 58/326/326 59/327/327
f 79/328/328 80/329/329 59/330/330
f 81/331/331 35/332/332 58/333/333
f 80/334/334 81/335/335 58/336/336
f 83/337/337 13/338/338 82/339/339
f 82/340/340 44/341/341 83/342/342
f 13/343/343 14/344/344 84/345/345
f 84/346/346 82/347/347 13/348/348
f 14/349/349 15/350/350 85/351/351
f 84/352/352 14/353/353 85/354/354
f 15/355/355 86/356/356 16/357/357
f 85/358/358 15/359/359 16/360/360
f 57/361/361 83/362/362 44/363/363
f 44/364/364 87/365/365 57/366/366
f 88/367/367 56/368/368 57/369/369
f 87/370/370 88/371/371 57/372/372
f 89/373/373 55/374/374 56/375/375
f 88/376/376 89/377/377 56/378/378
f 90/379/379 36/380/380 55/381/381
f 89/382/382 90/383/383 55/384/384
f 92/385/385 9/386/386 91/387/387
f 92/388/388 91/389/389 43/390/390
f 9/391/391 10/392/392 93/393/393
f 93/394/394 91/395/395 9/396/396
f 10/397/397 11/398/398 94/399/399
f 94/400/400 93/401/401 10/402/402
f 94/403/403 11/404/404 95/405/405
f 95/406/406 12/407/407 94/408/408
f 54/409/409 92/410/410 43/411/411
f 43/412/412 96/413/413 54/414/414
f 97/415/415 53/416/416 54/417/417
f 96/418/418 97/419/419 54/420/420
f 98/421/421 52/422/422 53/423/423
f 97/424/424 98/425/425 53/426/426
f 99/427/427 37/428/428 52/429/429
f 98/430/430 99/431/431 52/432/432
f 101/433/433 5/434/434 100/435/435
f 101/436/436 100/437/437 41/438/438
f 5/439/439 6/440/440 102/441/441
f 102/442/442 100/443/443 5/444/444
f 6/445/445 7/446/446 103/447/447
f 102/448/448 6/449/449 103/450/450
f 7/451/451 104/452/452 8/453/453
f 103/454/454 7/455/455 8/456/456
f 51/457/457 101/458/458 41/459/459
f 41/460/460 105/461/461 51/462/462
f 106/463/463 50/464/464 51/465/465
f 105/466/466 106/467/467 51/468/468
f 107/469/469 49/470/470 50/471/471
f 106/472/472 107/473/473 50/474/474
f 108/475/475 38/476/476 49/477/477
f 107/478/478 108/479/479 49/480/480
f 42/481/481 110/482/482 109/483/483
f 1/484/484 42/485/485 109/486/486
f 1/487/487 109/488/488 111/489/489
f 2/490/490 1/491/491 111/492/492
f 2/493/493 111/494/494 112/495/495
f 3/496/496 2/497/497 112/498/498
f 3/499/499 112/500/500 113/501/501
f 4/502/502 3/503/503 113/504/504
f 42/505/505 69/506/506 114/507/507
f 114/508/508 110/509/509 42/510/510
f 114/511/511 69/512/512 68/513/513
f 115/514/514 114/515/515 68/516/516
f 115/517/517 68/518/518 67/519/519
f 116/520/520 115/521/521 67/522/522
f 67/523/523 117/524/524 39/525/525
f 67/526/526 39/527/527 116/528/528
f 29/529/529 118/530/530 48/531/531
f 119/532/532 29/533/533 48/534/534
f 30/535/535 120/536/536 118/537/537
f 118/538/538 29/539/539 30/540/540
f 121/541/541 120/542/542 30/543/543
f 30/544/544 31/545/545 121/546/546
f 32/547/547 121/548/548 31/549/549
f 31/550/550 122/551/551 32/552/552
f 72/553/553 119/554/554 48/555/555
f 48/556/556 123/557/557 72/558/558
f 124/559/559 71/560/560 72/561/561
f 123/562/562 124/563/563 72/564/564
f 125/565/565 70/566/566 71/567/567
f 124/568/568 125/569/569 71/570/570
f 126/571/571 40/572/572 70/573/573
f 125/574/574 126/575/575 70/576/576
f 127/577/577 128/578/578 47/579/579
f 127/580/580 47/581/581 25/582/582
f 129/583/583 127/584/584 25/585/585
f 25/586/586 26/587/587 129/588/588
f 27/589/589 130/590/590 129/591/591
f 129/592/592 26/593/593 27/594/594
f 28/595/595 130/596/596 27/597/597
f 131/598/598 28/599/599 27/600/600
f 66/601/601 47/602/602 128/603/603
f 128/604/604 132/605/605 66/606/606
f 133/607/607 65/608/608 66/609/609
f 132/610/610 133/611/611 66/612/612
f 134/613/613 64/614/614 65/615/615
f 133/616/616 134/617/617 65/618/618
f 135/619/619 33/620/620 64/621/621
f 134/622/622 135/623/623 64/624/624
f 136/625/625 46/626/626 137/627/627
f 137/628/628 21/629/629 136/630/630
f 138/631/631 136/632/632 21/633/633
f 138/634/634 21/635/635 22/636/636
f 139/637/637 138/638/638 22/639/639
f 23/640/640 139/641/641 22/642/642
f 24/643/643 139/644/644 23/645/645
f 140/646/646 24/647/647 23/648/648
f 63/649/649 137/650/650 46/651/651
f 46/652/652 141/653/653 63/654/654
f 142/655/655 62/656/656 63/657/657
f 141/658/658 142/659/659 63/660/660
f 143/661/661 61/662/662 62/663/663
f 142/664/664 143/665/665 62/666/666
f 144/667/667 34/668/668 61/669/669
f 143/670/670 144/671/671 61/672/672
f 16/673/673 77/674/674 19/675/675
f 85/676/676 16/677/677 19/678/678
f 77/679/679 16/680/680 86/681/681
f 140/682/682 20/683/683 77/684/684
f 131/685/685 24/686/686 140/687/687
f 122/688/688 28/689/689 131/690/690
f 113/691/691 32/692/692 122/693/693
f 104/694/694 4/695/695 113/696/696
f 95/697/697 8/698/698 104/699/699
f 86/700/700 12/701/701 95/702/702
f 113/703/703 122/704/704 131/705/705
f 104/706/706 113/707/707 131/708/708
f 95/709/709 104/710/710 131/711/711
f 86/712/712 95/713/713 131/714/714
f 77/715/715 86/716/716 131/717/717
f 140/718/718 77/719/719 131/720/720
f 34/721/721 81/722/722 80/723/723
f 80/724/724 61/725/725 34/726/726
f 117/727/727 38/728/728 108/729/729
f 126/730/730 39/731/731 117/732/732
f 135/733/733 40/734/734 126/735/735
f 144/736/736 33/737/737 135/738/738
f 81/739/739 34/740/740 144/741/741
f 90/742/742 35/743/743 81/744/744
f 99/745/745 36/746/746 90/747/747
f 108/748/748 37/749/749 99/750/750
f 81/751/751 144/752/752 135/753/753
f 90/754/754 81/755/755 135/756/756
f 99/757/757 90/758/758 135/759/759
f 108/760/760 99/761/761 135/762/762
f 117/763/763 108/764/764 135/765/765
f 126/766/766 117/767/767 135/768/768
f 86/769/769 15/770/770 94/771/771
f 94/772/772 12/773/773 86/774/774
f 35/775/775 90/776/776 89/777/777
f 89/778/778 58/779/779 35/780/780
f 95/781/781 11/782/782 103/783/783
f 103/784/784 8/785/785 95/786/786
f 36/787/787 99/788/788 98/789/789
f 98/790/790 55/791/791 36/792/792
f 104/793/793 7/794/794 3/795/795
f 3/796/796 4/797/797 104/798/798
f 37/799/799 108/800/800 107/801/801
f 107/802/802 52/803/803 37/804/804
f 121/805/805 32/806/806 113/807/807
f 121/808/808 113/809/809 112/810/810
f 38/811/811 117/812/812 67/813/813
f 67/814/814 49/815/815 38/816/816
f 31/817/817 130/818/818 28/819/819
f 28/820/820 122/821/821 31/822/822
f 39/823/823 126/824/824 125/825/825
f 125/826/826 116/827/827 39/828/828
f 139/829/829 24/830/830 131/831/831
f 131/832/832 27/833/833 139/834/834
f 40/835/835 135/836/836 134/837/837
f 134/838/838 70/839/839 40/840/840
f 76/841/841 20/842/842 140/843/843
f 76/844/844 140/845/845 23/846/846
f 33/847/847 144/848/848 143/849/849
f 143/850/850 64/851/851 33/852/852
