# Mesh 5
o Mesh5

v 0.0 5.2934 -0.4535
v -0.1736 5.3173 -0.419
v -0.3207 5.3411 -0.3207
v -0.419 5.3649 -0.1736
v -0.4535 5.3888 0.0
v -0.419 5.4126 0.1736
v -0.3207 5.4364 0.3207
v -0.1736 5.4603 0.419
v 0.0 5.3575 -0.427
v -0.1634 5.3814 -0.3945
v -0.3019 5.4052 -0.3019
v -0.3945 5.4291 -0.1634
v -0.427 5.4529 0.0
v -0.3945 5.4767 0.1634
v -0.3019 5.5006 0.3019
v -0.1634 5.5244 0.3945
v 0.0 5.3841 -0.3628
v -0.1388 5.408 -0.3352
v -0.2566 5.4318 -0.2566
v -0.3352 5.4556 -0.1388
v -0.3628 5.4795 0.0
v -0.3352 5.5033 0.1388
v -0.2566 5.5272 0.2566
v -0.1388 5.551 0.3352
v 0.0 5.3575 -0.2987
v -0.1143 5.3814 -0.2759
v -0.2112 5.4052 -0.2112
v -0.2759 5.4291 -0.1143
v -0.2987 5.4529 0.0
v -0.2759 5.4767 0.1143
v -0.2112 5.5006 0.2112
v -0.1143 5.5244 0.2759
v 0.0 5.2934 -0.2721
v -0.1041 5.3173 -0.2514
v -0.1924 5.3411 -0.1924
v -0.2514 5.3649 -0.1041
v -0.2721 5.3888 0.0
v -0.2514 5.4126 0.1041
v -0.1924 5.4364 0.1924
v -0.1041 5.4603 0.2514
v 0.0 5.2293 -0.2987
v -0.1143 5.2531 -0.2759
v -0.2112 5.2769 -0.2112
v -0.2759 5.3008 -0.1143
v -0.2987 5.3246 0.0
v -0.2759 5.3485 0.1143
v -0.2112 5.3723 0.2112
v -0.1143 5.3961 0.2759
v 0.0 5.2027 -0.3628
v -0.1388 5.2265 -0.3352
v -0.2566 5.2504 -0.2566
v -0.3352 5.2742 -0.1388
v -0.3628 5.2981 0.0
v -0.3352 5.3219 0.1388
v -0.2566 5.3457 0.2566
v -0.1388 5.3696 0.3352
v 0.0 5.2293 -0.427
v -0.1634 5.2531 -0.3945
v -0.3019 5.2769 -0.3019
v -0.3945 5.3008 -0.1634
v -0.427 5.3246 0.0
v -0.3945 5.3485 0.1634
v -0.3019 5.3723 0.3019
v -0.1634 5.3961 0.3945
v 0.4535 5.1978 0.0
v 0.419 5.2217 -0.1736
v 0.3207 5.2455 -0.3207
v 0.1736 5.2693 -0.419
v 0.0 4.9117 -0.4535
v -0.1736 4.9356 -0.419
v -0.3207 4.9594 -0.3207
v -0.419 4.9833 -0.1736
v -0.4535 5.0071 0.0
v -0.419 5.0309 0.1736
v -0.3207 5.0548 0.3207
v -0.1736 5.0786 0.419
v 0.0 5.1025 0.4535
v 0.1736 5.1263 0.419
v 0.3207 5.1599 0.3207
v 0.419 5.174 0.1736
v 0.427 5.262 0.0
v 0.3945 5.2858 -0.1634
v 0.3019 5.3096 -0.3019
v 0.1634 5.3335 -0.3945
v 0.0 4.9759 -0.427
v -0.1634 4.9997 -0.3945
v -0.3019 5.0236 -0.3019
v -0.3945 5.0474 -0.1634
v -0.427 5.0712 0.0
v -0.3945 5.0951 0.1634
v -0.3019 5.1189 0.3019
v -0.1634 5.1428 0.3945
v 0.0 5.1666 0.427
v 0.1634 5.1904 0.3945
v 0.3019 5.224 0.3019
v 0.3945 5.2381 0.1634
v 0.3628 5.2885 0.0
v 0.3352 5.3124 -0.1388
v 0.2566 5.3362 -0.2566
v 0.1388 5.36 -0.3352
v 0.0 5.0024 -0.3628
v -0.1388 5.0263 -0.3352
v -0.2566 5.0501 -0.2566
v -0.3352 5.074 -0.1388
v -0.3628 5.0978 0.0
v -0.3352 5.1216 0.1388
v -0.2566 5.1455 0.2566
v -0.1388 5.1693 0.3352
v 0.0 5.1932 0.3628
v 0.1388 5.217 0.3352
v 0.2566 5.2506 0.2566
v 0.3352 5.2647 0.1388
v 0.2987 5.262 0.0
v 0.2759 5.2858 -0.1143
v 0.2112 5.3096 -0.2112
v 0.1143 5.3335 -0.2759
v 0.0 4.9759 -0.2987
v -0.1143 4.9997 -0.2759
v -0.2112 5.0236 -0.2112
v -0.2759 5.0474 -0.1143
v -0.2987 5.0712 0.0
v -0.2759 5.0951 0.1143
v -0.2112 5.1189 0.2112
v -0.1143 5.1428 0.2759
v 0.0 5.1666 0.2987
v 0.1143 5.1904 0.2759
v 0.2112 5.224 0.2112
v 0.2759 5.2381 0.1143
v 0.2721 5.1978 0.0
v 0.2514 5.2217 -0.1041
v 0.1924 5.2455 -0.1924
v 0.1041 5.2693 -0.2514
v 0.0 4.9117 -0.2721
v -0.1041 4.9356 -0.2514
v -0.1924 4.9594 -0.1924
v -0.2514 4.9833 -0.1041
v -0.2721 5.0071 0.0
v -0.2514 5.0309 0.1041
v -0.1924 5.0548 0.1924
v -0.1041 5.0786 0.2514
v 0.0 5.1025 0.2721
v 0.1041 5.1263 0.2514
v 0.1924 5.1599 0.1924
v 0.2514 5.174 0.1041
v 0.2987 5.1337 0.0
v 0.2759 5.1575 -0.1143
v 0.2112 5.1814 -0.2112
v 0.1143 5.2052 -0.2759
v 0.0 4.8476 -0.2987
v -0.1143 4.8714 -0.2759
v -0.2112 4.8953 -0.2112
v -0.2759 4.9191 -0.1143
v -0.2987 4.943 0.0
v -0.2759 4.9668 0.1143
v -0.2112 4.9906 0.2112
v -0.1143 5.0145 0.2759
v 0.0 5.0383 0.2987
v 0.1143 5.0622 0.2759
v 0.2112 5.0958 0.2112
v 0.2759 5.1098 0.1143
v 0.3628 5.1071 0.0
v 0.3352 5.1309 -0.1388
v 0.2566 5.1548 -0.2566
v 0.1388 5.1786 -0.3352
v 0.0 4.821 -0.3628
v -0.1388 4.8449 -0.3352
v -0.2566 4.8687 -0.2566
v -0.3352 4.8926 -0.1388
v -0.3628 4.9164 0.0
v -0.3352 4.9402 0.1388
v -0.2566 4.9641 0.2566
v -0.1388 4.9879 0.3352
v 0.0 5.0118 0.3628
v 0.1388 5.0356 0.3352
v 0.2566 5.0692 0.2566
v 0.3352 5.0833 0.1388
v 0.427 5.1337 0.0
v 0.3945 5.1575 -0.1634
v 0.3019 5.1814 -0.3019
v 0.1634 5.2052 -0.3945
v 0.0 4.8476 -0.427
v -0.1634 4.8714 -0.3945
v -0.3019 4.8953 -0.3019
v -0.3945 4.9191 -0.1634
v -0.427 4.943 0.0
v -0.3945 4.9668 0.1634
v -0.3019 4.9906 0.3019
v -0.1634 5.0145 0.3945
v 0.0 5.0383 0.427
v 0.1634 5.0622 0.3945
v 0.3019 5.0958 0.3019
v 0.3945 5.1098 0.1634
v 0.0016 5.3573 -0.2984
v 0.0015 5.2932 -0.2718
v 0.0016 5.229 -0.2984
v 0.002 5.2025 -0.3624
v 0.0023 5.229 -0.4265
v 0.0025 5.2932 -0.453
v 0.0023 5.3573 -0.4265
v 0.002 5.3839 -0.3624
vt 0.5 0.9094
vt 0.5 0.8809
vt 0.423 0.8915
vt 0.4276 0.9199
vt 0.5 0.9094
vt 0.423 0.8915
vt 0.35 0.5
vt 0.3614 0.5574
vt 0.3822 0.5488
vt 0.35 0.5
vt 0.3822 0.5488
vt 0.3726 0.5
vt 0.3951 0.5
vt 0.3726 0.5
vt 0.3822 0.5488
vt 0.3951 0.5
vt 0.3822 0.5488
vt 0.4031 0.5402
vt 0.1667 0.9285
vt 0.2201 0.9397
vt 0.2154 0.9097
vt 0.1667 0.9285
vt 0.2154 0.9097
vt 0.1667 0.8986
vt 0.2201 0.8797
vt 0.1667 0.8686
vt 0.1667 0.8986
vt 0.2201 0.8797
vt 0.1667 0.8986
vt 0.2154 0.9097
vt 0.3822 0.1179
vt 0.3726 0.1667
vt 0.3951 0.1667
vt 0.3822 0.1179
vt 0.3951 0.1667
vt 0.4031 0.1265
vt 0.3614 0.1093
vt 0.35 0.1667
vt 0.3726 0.1667
vt 0.3726 0.1667
vt 0.3822 0.1179
vt 0.3614 0.1093
vt 0.5 0.8809
vt 0.5 0.8525
vt 0.4276 0.8631
vt 0.423 0.8915
vt 0.5 0.8809
vt 0.4276 0.8631
vt 0.4276 0.9199
vt 0.423 0.8915
vt 0.3578 0.9021
vt 0.3662 0.9305
vt 0.4276 0.9199
vt 0.3578 0.9021
vt 0.3614 0.5574
vt 0.3939 0.6061
vt 0.4099 0.5901
vt 0.3614 0.5574
vt 0.4099 0.5901
vt 0.3822 0.5488
vt 0.4031 0.5402
vt 0.3822 0.5488
vt 0.4099 0.5901
vt 0.4031 0.5402
vt 0.4099 0.5901
vt 0.4258 0.5742
vt 0.0777 0.2339
vt 0.1 0.242
vt 0.1064 0.22
vt 0.0777 0.2339
vt 0.1064 0.22
vt 0.0862 0.2118
vt 0.2655 0.8908
vt 0.2201 0.8797
vt 0.2154 0.9097
vt 0.2655 0.8908
vt 0.2154 0.9097
vt 0.2567 0.9209
vt 0.4099 0.0765
vt 0.3822 0.1179
vt 0.4031 0.1265
vt 0.4099 0.0765
vt 0.4031 0.1265
vt 0.4258 0.0925
vt 0.3939 0.0606
vt 0.3614 0.1093
vt 0.3822 0.1179
vt 0.3822 0.1179
vt 0.4099 0.0765
vt 0.3939 0.0606
vt 0.305 0.5411
vt 0.2965 0.519
vt 0.2647 0.5272
vt 0.2712 0.5493
vt 0.305 0.5411
vt 0.2647 0.5272
vt 0.2647 0.5713
vt 0.2712 0.5493
vt 0.2205 0.5575
vt 0.217 0.5795
vt 0.2647 0.5713
vt 0.2205 0.5575
vt 0.3939 0.6061
vt 0.4426 0.6386
vt 0.4512 0.6178
vt 0.3939 0.6061
vt 0.4512 0.6178
vt 0.4099 0.5901
vt 0.4258 0.5742
vt 0.4099 0.5901
vt 0.4512 0.6178
vt 0.4258 0.5742
vt 0.4512 0.6178
vt 0.4598 0.5969
vt 0.1 0.242
vt 0.1333 0.2503
vt 0.1368 0.2282
vt 0.1 0.242
vt 0.1368 0.2282
vt 0.1064 0.22
vt 0.1333 0.2061
vt 0.1 0.1979
vt 0.1064 0.22
vt 0.1333 0.2061
vt 0.1064 0.22
vt 0.1368 0.2282
vt 0.4512 0.0489
vt 0.4099 0.0765
vt 0.4258 0.0925
vt 0.4512 0.0489
vt 0.4258 0.0925
vt 0.4598 0.0697
vt 0.4426 0.0281
vt 0.3939 0.0606
vt 0.4099 0.0765
vt 0.4099 0.0765
vt 0.4512 0.0489
vt 0.4426 0.0281
vt 0.2712 0.5493
vt 0.2647 0.5272
vt 0.217 0.5354
vt 0.2205 0.5575
vt 0.2712 0.5493
vt 0.217 0.5354
vt 0.217 0.5795
vt 0.2205 0.5575
vt 0.1608 0.5657
vt 0.1608 0.5877
vt 0.217 0.5795
vt 0.1608 0.5657
vt 0.4426 0.6386
vt 0.5 0.65
vt 0.5 0.6274
vt 0.4426 0.6386
vt 0.5 0.6274
vt 0.4512 0.6178
vt 0.4598 0.5969
vt 0.4512 0.6178
vt 0.5 0.6274
vt 0.4598 0.5969
vt 0.5 0.6274
vt 0.5 0.6049
vt 0.1333 0.2503
vt 0.1726 0.2584
vt 0.1726 0.2364
vt 0.1333 0.2503
vt 0.1726 0.2364
vt 0.1368 0.2282
vt 0.1726 0.2143
vt 0.1333 0.2061
vt 0.1368 0.2282
vt 0.1726 0.2143
vt 0.1368 0.2282
vt 0.1726 0.2364
vt 0.5 0.0392
vt 0.4512 0.0489
vt 0.4598 0.0697
vt 0.5 0.0392
vt 0.4598 0.0697
vt 0.5 0.0617
vt 0.5 0.0167
vt 0.4426 0.0281
vt 0.4512 0.0489
vt 0.4512 0.0489
vt 0.5 0.0392
vt 0.5 0.0167
vt 0.2205 0.5575
vt 0.217 0.5354
vt 0.1608 0.5436
vt 0.1608 0.5657
vt 0.2205 0.5575
vt 0.1608 0.5436
vt 0.1608 0.5877
vt 0.1608 0.5657
vt 0.1011 0.5739
vt 0.1046 0.5959
vt 0.1608 0.5877
vt 0.1011 0.5739
vt 0.5 0.65
vt 0.5574 0.6386
vt 0.5488 0.6178
vt 0.5 0.65
vt 0.5488 0.6178
vt 0.5 0.6274
vt 0.5 0.6049
vt 0.5 0.6274
vt 0.5488 0.6178
vt 0.5 0.6049
vt 0.5488 0.6178
vt 0.5402 0.5969
vt 0.1726 0.2584
vt 0.2119 0.2666
vt 0.2084 0.2446
vt 0.1726 0.2584
vt 0.2084 0.2446
vt 0.1726 0.2364
vt 0.2119 0.2225
vt 0.1726 0.2143
vt 0.1726 0.2364
vt 0.2119 0.2225
vt 0.1726 0.2364
vt 0.2084 0.2446
vt 0.5488 0.0489
vt 0.5 0.0392
vt 0.5 0.0617
vt 0.5488 0.0489
vt 0.5 0.0617
vt 0.5402 0.0697
vt 0.5574 0.0281
vt 0.5 0.0167
vt 0.5 0.0392
vt 0.5 0.0392
vt 0.5488 0.0489
vt 0.5574 0.0281
vt 0.1608 0.5657
vt 0.1608 0.5436
vt 0.1046 0.5518
vt 0.1011 0.5739
vt 0.1608 0.5657
vt 0.1046 0.5518
vt 0.1046 0.5959
vt 0.1011 0.5739
vt 0.0505 0.5821
vt 0.057 0.6041
vt 0.1046 0.5959
vt 0.0505 0.5821
vt 0.5574 0.6386
vt 0.6061 0.6061
vt 0.5901 0.5901
vt 0.5574 0.6386
vt 0.5901 0.5901
vt 0.5488 0.6178
vt 0.5402 0.5969
vt 0.5488 0.6178
vt 0.5901 0.5901
vt 0.5402 0.5969
vt 0.5901 0.5901
vt 0.5742 0.5742
vt 0.2119 0.2666
vt 0.2452 0.2748
vt 0.2388 0.2528
vt 0.2119 0.2666
vt 0.2388 0.2528
vt 0.2084 0.2446
vt 0.2452 0.2307
vt 0.2119 0.2225
vt 0.2084 0.2446
vt 0.2452 0.2307
vt 0.2084 0.2446
vt 0.2388 0.2528
vt 0.5901 0.0765
vt 0.5488 0.0489
vt 0.5402 0.0697
vt 0.5901 0.0765
vt 0.5402 0.0697
vt 0.5742 0.0925
vt 0.6061 0.0606
vt 0.5574 0.0281
vt 0.5488 0.0489
vt 0.5488 0.0489
vt 0.5901 0.0765
vt 0.6061 0.0606
vt 0.1011 0.5739
vt 0.1046 0.5518
vt 0.057 0.56
vt 0.0505 0.5821
vt 0.1011 0.5739
vt 0.057 0.56
vt 0.057 0.6041
vt 0.0505 0.5821
vt 0.0167 0.5903
vt 0.0251 0.6123
vt 0.057 0.6041
vt 0.0167 0.5903
vt 0.6061 0.6061
vt 0.6386 0.5574
vt 0.6178 0.5488
vt 0.6061 0.6061
vt 0.6178 0.5488
vt 0.5901 0.5901
vt 0.5742 0.5742
vt 0.5901 0.5901
vt 0.6178 0.5488
vt 0.5742 0.5742
vt 0.6178 0.5488
vt 0.5969 0.5402
vt 0.4064 0.9728
vt 0.4493 0.9833
vt 0.4539 0.9549
vt 0.4064 0.9728
vt 0.4539 0.9549
vt 0.4147 0.9443
vt 0.2675 0.2389
vt 0.2452 0.2307
vt 0.2388 0.2528
vt 0.2675 0.2389
vt 0.2388 0.2528
vt 0.259 0.261
vt 0.6178 0.1179
vt 0.5901 0.0765
vt 0.5742 0.0925
vt 0.6178 0.1179
vt 0.5742 0.0925
vt 0.5969 0.1265
vt 0.6386 0.1093
vt 0.6061 0.0606
vt 0.5901 0.0765
vt 0.5901 0.0765
vt 0.6178 0.1179
vt 0.6386 0.1093
vt 0.3167 0.9654
vt 0.3079 0.9355
vt 0.2431 0.9466
vt 0.2479 0.9766
vt 0.3167 0.9654
vt 0.2431 0.9466
vt 0.0699 0.1816
vt 0.0479 0.1724
vt 0.0258 0.1816
vt 0.079 0.2036
vt 0.0699 0.1816
vt 0.0258 0.1816
vt 0.0699 0.2256
vt 0.079 0.2036
vt 0.0258 0.1816
vt 0.0479 0.2348
vt 0.0699 0.2256
vt 0.0258 0.1816
vt 0.0258 0.2256
vt 0.0479 0.2348
vt 0.0258 0.1816
vt 0.0258 0.1816
vt 0.0167 0.2036
vt 0.0258 0.2256
vt 0.1726 0.1928
vt 0.1726 0.1707
vt 0.1129 0.1789
vt 0.1164 0.201
vt 0.1726 0.1928
vt 0.1129 0.1789
vt 0.5 0.35
vt 0.4426 0.3614
vt 0.4512 0.3822
vt 0.5 0.35
vt 0.4512 0.3822
vt 0.5 0.3726
vt 0.5 0.3951
vt 0.5 0.3726
vt 0.4512 0.3822
vt 0.5 0.3951
vt 0.4512 0.3822
vt 0.4598 0.4031
vt 0.1608 0.5221
vt 0.2001 0.5302
vt 0.1966 0.5082
vt 0.1608 0.5221
vt 0.1966 0.5082
vt 0.1608 0.5
vt 0.2001 0.4861
vt 0.1608 0.4779
vt 0.1608 0.5
vt 0.2001 0.4861
vt 0.1608 0.5
vt 0.1966 0.5082
vt 0.4512 0.2844
vt 0.5 0.2941
vt 0.5 0.2716
vt 0.4512 0.2844
vt 0.5 0.2716
vt 0.4598 0.2636
vt 0.4426 0.3052
vt 0.5 0.3167
vt 0.5 0.2941
vt 0.5 0.2941
vt 0.4512 0.2844
vt 0.4426 0.3052
vt 0.1726 0.1707
vt 0.1726 0.1487
vt 0.1164 0.1569
vt 0.1129 0.1789
vt 0.1726 0.1707
vt 0.1164 0.1569
vt 0.1164 0.201
vt 0.1129 0.1789
vt 0.0623 0.1871
vt 0.0688 0.2092
vt 0.1164 0.201
vt 0.0623 0.1871
vt 0.4426 0.3614
vt 0.3939 0.3939
vt 0.4099 0.4099
vt 0.4426 0.3614
vt 0.4099 0.4099
vt 0.4512 0.3822
vt 0.4598 0.4031
vt 0.4512 0.3822
vt 0.4099 0.4099
vt 0.4598 0.4031
vt 0.4099 0.4099
vt 0.4258 0.4258
vt 0.2001 0.5302
vt 0.2335 0.5384
vt 0.227 0.5164
vt 0.2001 0.5302
vt 0.227 0.5164
vt 0.1966 0.5082
vt 0.2335 0.4943
vt 0.2001 0.4861
vt 0.1966 0.5082
vt 0.2335 0.4943
vt 0.1966 0.5082
vt 0.227 0.5164
vt 0.4099 0.2568
vt 0.4512 0.2844
vt 0.4598 0.2636
vt 0.4099 0.2568
vt 0.4598 0.2636
vt 0.4258 0.2409
vt 0.3939 0.2727
vt 0.4426 0.3052
vt 0.4512 0.2844
vt 0.4512 0.2844
vt 0.4099 0.2568
vt 0.3939 0.2727
vt 0.1129 0.1789
vt 0.1164 0.1569
vt 0.0688 0.1651
vt 0.0623 0.1871
vt 0.1129 0.1789
vt 0.0688 0.1651
vt 0.0688 0.2092
vt 0.0623 0.1871
vt 0.0285 0.1953
vt 0.037 0.2174
vt 0.0688 0.2092
vt 0.0285 0.1953
vt 0.3939 0.3939
vt 0.3614 0.4426
vt 0.3822 0.4512
vt 0.3939 0.3939
vt 0.3822 0.4512
vt 0.4099 0.4099
vt 0.4258 0.4258
vt 0.4099 0.4099
vt 0.3822 0.4512
vt 0.4258 0.4258
vt 0.3822 0.4512
vt 0.4031 0.4598
vt 0.0679 0.9061
vt 0.1132 0.9173
vt 0.118 0.8873
vt 0.0679 0.9061
vt 0.118 0.8873
vt 0.0767 0.8762
vt 0.2557 0.5025
vt 0.2335 0.4943
vt 0.227 0.5164
vt 0.2557 0.5025
vt 0.227 0.5164
vt 0.2473 0.5246
vt 0.3822 0.2154
vt 0.4099 0.2568
vt 0.4258 0.2409
vt 0.3822 0.2154
vt 0.4258 0.2409
vt 0.4031 0.2068
vt 0.3614 0.2241
vt 0.3939 0.2727
vt 0.4099 0.2568
vt 0.4099 0.2568
vt 0.3822 0.2154
vt 0.3614 0.2241
vt 0.6422 0.8597
vt 0.6338 0.8313
vt 0.5724 0.8418
vt 0.577 0.8703
vt 0.6422 0.8597
vt 0.5724 0.8418
vt 0.5 0.7402
vt 0.5 0.7117
vt 0.423 0.7223
vt 0.4276 0.7508
vt 0.5 0.7402
vt 0.423 0.7223
vt 0.35 0.5
vt 0.3614 0.5574
vt 0.3822 0.5488
vt 0.35 0.5
vt 0.3822 0.5488
vt 0.3726 0.5
vt 0.3951 0.5
vt 0.3726 0.5
vt 0.3822 0.5488
vt 0.3951 0.5
vt 0.3822 0.5488
vt 0.4031 0.5402
vt 0.1667 0.7501
vt 0.2201 0.7612
vt 0.2154 0.7312
vt 0.1667 0.7501
vt 0.2154 0.7312
vt 0.1667 0.72
vt 0.2201 0.7012
vt 0.1667 0.69
vt 0.1667 0.72
vt 0.2201 0.7012
vt 0.1667 0.72
vt 0.2154 0.7312
vt 0.3822 0.1179
vt 0.3726 0.1667
vt 0.3951 0.1667
vt 0.3822 0.1179
vt 0.3951 0.1667
vt 0.4031 0.1265
vt 0.3614 0.1093
vt 0.35 0.1667
vt 0.3726 0.1667
vt 0.3726 0.1667
vt 0.3822 0.1179
vt 0.3614 0.1093
vt 0.5 0.7117
vt 0.5 0.6833
vt 0.4276 0.6939
vt 0.423 0.7223
vt 0.5 0.7117
vt 0.4276 0.6939
vt 0.4276 0.7508
vt 0.423 0.7223
vt 0.3578 0.7329
vt 0.3662 0.7613
vt 0.4276 0.7508
vt 0.3578 0.7329
vt 0.3614 0.5574
vt 0.3939 0.6061
vt 0.4099 0.5901
vt 0.3614 0.5574
vt 0.4099 0.5901
vt 0.3822 0.5488
vt 0.4031 0.5402
vt 0.3822 0.5488
vt 0.4099 0.5901
vt 0.4031 0.5402
vt 0.4099 0.5901
vt 0.4258 0.5742
vt 0.0777 0.1026
vt 0.1 0.1108
vt 0.1064 0.0888
vt 0.0777 0.1026
vt 0.1064 0.0888
vt 0.0862 0.0806
vt 0.2655 0.7124
vt 0.2201 0.7012
vt 0.2154 0.7312
vt 0.2655 0.7124
vt 0.2154 0.7312
vt 0.2567 0.7423
vt 0.4099 0.0765
vt 0.3822 0.1179
vt 0.4031 0.1265
vt 0.4099 0.0765
vt 0.4031 0.1265
vt 0.4258 0.0925
vt 0.3939 0.0606
vt 0.3614 0.1093
vt 0.3822 0.1179
vt 0.3822 0.1179
vt 0.4099 0.0765
vt 0.3939 0.0606
vt 0.305 0.4098
vt 0.2965 0.3877
vt 0.2647 0.3959
vt 0.2712 0.4179
vt 0.305 0.4098
vt 0.2647 0.3959
vt 0.2647 0.44
vt 0.2712 0.4179
vt 0.2205 0.4262
vt 0.217 0.4482
vt 0.2647 0.44
vt 0.2205 0.4262
vt 0.3939 0.6061
vt 0.4426 0.6386
vt 0.4512 0.6178
vt 0.3939 0.6061
vt 0.4512 0.6178
vt 0.4099 0.5901
vt 0.4258 0.5742
vt 0.4099 0.5901
vt 0.4512 0.6178
vt 0.4258 0.5742
vt 0.4512 0.6178
vt 0.4598 0.5969
vt 0.1 0.1108
vt 0.1333 0.119
vt 0.1368 0.097
vt 0.1 0.1108
vt 0.1368 0.097
vt 0.1064 0.0888
vt 0.1333 0.0749
vt 0.1 0.0667
vt 0.1064 0.0888
vt 0.1333 0.0749
vt 0.1064 0.0888
vt 0.1368 0.097
vt 0.4512 0.0489
vt 0.4099 0.0765
vt 0.4258 0.0925
vt 0.4512 0.0489
vt 0.4258 0.0925
vt 0.4598 0.0697
vt 0.4426 0.0281
vt 0.3939 0.0606
vt 0.4099 0.0765
vt 0.4099 0.0765
vt 0.4512 0.0489
vt 0.4426 0.0281
vt 0.2712 0.4179
vt 0.2647 0.3959
vt 0.217 0.4041
vt 0.2205 0.4262
vt 0.2712 0.4179
vt 0.217 0.4041
vt 0.217 0.4482
vt 0.2205 0.4262
vt 0.1608 0.4344
vt 0.1608 0.4564
vt 0.217 0.4482
vt 0.1608 0.4344
vt 0.4426 0.6386
vt 0.5 0.65
vt 0.5 0.6274
vt 0.4426 0.6386
vt 0.5 0.6274
vt 0.4512 0.6178
vt 0.4598 0.5969
vt 0.4512 0.6178
vt 0.5 0.6274
vt 0.4598 0.5969
vt 0.5 0.6274
vt 0.5 0.6049
vt 0.1333 0.119
vt 0.1726 0.1272
vt 0.1726 0.1052
vt 0.1333 0.119
vt 0.1726 0.1052
vt 0.1368 0.097
vt 0.1726 0.0831
vt 0.1333 0.0749
vt 0.1368 0.097
vt 0.1726 0.0831
vt 0.1368 0.097
vt 0.1726 0.1052
vt 0.5 0.0392
vt 0.4512 0.0489
vt 0.4598 0.0697
vt 0.5 0.0392
vt 0.4598 0.0697
vt 0.5 0.0617
vt 0.5 0.0167
vt 0.4426 0.0281
vt 0.4512 0.0489
vt 0.4512 0.0489
vt 0.5 0.0392
vt 0.5 0.0167
vt 0.2205 0.4262
vt 0.217 0.4041
vt 0.1608 0.4123
vt 0.1608 0.4344
vt 0.2205 0.4262
vt 0.1608 0.4123
vt 0.1608 0.4564
vt 0.1608 0.4344
vt 0.1011 0.4425
vt 0.1046 0.4646
vt 0.1608 0.4564
vt 0.1011 0.4425
vt 0.5 0.65
vt 0.5574 0.6386
vt 0.5488 0.6178
vt 0.5 0.65
vt 0.5488 0.6178
vt 0.5 0.6274
vt 0.5 0.6049
vt 0.5 0.6274
vt 0.5488 0.6178
vt 0.5 0.6049
vt 0.5488 0.6178
vt 0.5402 0.5969
vt 0.1726 0.1272
vt 0.2119 0.1354
vt 0.2084 0.1133
vt 0.1726 0.1272
vt 0.2084 0.1133
vt 0.1726 0.1052
vt 0.2119 0.0913
vt 0.1726 0.0831
vt 0.1726 0.1052
vt 0.2119 0.0913
vt 0.1726 0.1052
vt 0.2084 0.1133
vt 0.5488 0.0489
vt 0.5 0.0392
vt 0.5 0.0617
vt 0.5488 0.0489
vt 0.5 0.0617
vt 0.5402 0.0697
vt 0.5574 0.0281
vt 0.5 0.0167
vt 0.5 0.0392
vt 0.5 0.0392
vt 0.5488 0.0489
vt 0.5574 0.0281
vt 0.1608 0.4344
vt 0.1608 0.4123
vt 0.1046 0.4205
vt 0.1011 0.4425
vt 0.1608 0.4344
vt 0.1046 0.4205
vt 0.1046 0.4646
vt 0.1011 0.4425
vt 0.0505 0.4508
vt 0.057 0.4728
vt 0.1046 0.4646
vt 0.0505 0.4508
vt 0.5574 0.6386
vt 0.6061 0.6061
vt 0.5901 0.5901
vt 0.5574 0.6386
vt 0.5901 0.5901
vt 0.5488 0.6178
vt 0.5402 0.5969
vt 0.5488 0.6178
vt 0.5901 0.5901
vt 0.5402 0.5969
vt 0.5901 0.5901
vt 0.5742 0.5742
vt 0.2119 0.1354
vt 0.2452 0.1436
vt 0.2388 0.1216
vt 0.2119 0.1354
vt 0.2388 0.1216
vt 0.2084 0.1133
vt 0.2452 0.0995
vt 0.2119 0.0913
vt 0.2084 0.1133
vt 0.2452 0.0995
vt 0.2084 0.1133
vt 0.2388 0.1216
vt 0.5901 0.0765
vt 0.5488 0.0489
vt 0.5402 0.0697
vt 0.5901 0.0765
vt 0.5402 0.0697
vt 0.5742 0.0925
vt 0.6061 0.0606
vt 0.5574 0.0281
vt 0.5488 0.0489
vt 0.5488 0.0489
vt 0.5901 0.0765
vt 0.6061 0.0606
vt 0.1011 0.4425
vt 0.1046 0.4205
vt 0.057 0.4287
vt 0.0505 0.4508
vt 0.1011 0.4425
vt 0.057 0.4287
vt 0.057 0.4728
vt 0.0505 0.4508
vt 0.0167 0.459
vt 0.0251 0.481
vt 0.057 0.4728
vt 0.0167 0.459
vt 0.6061 0.6061
vt 0.6386 0.5574
vt 0.6178 0.5488
vt 0.6061 0.6061
vt 0.6178 0.5488
vt 0.5901 0.5901
vt 0.5742 0.5742
vt 0.5901 0.5901
vt 0.6178 0.5488
vt 0.5742 0.5742
vt 0.6178 0.5488
vt 0.5969 0.5402
vt 0.4064 0.8036
vt 0.4493 0.8142
vt 0.4539 0.7857
vt 0.4064 0.8036
vt 0.4539 0.7857
vt 0.4147 0.7752
vt 0.2675 0.1077
vt 0.2452 0.0995
vt 0.2388 0.1216
vt 0.2675 0.1077
vt 0.2388 0.1216
vt 0.259 0.1297
vt 0.6178 0.1179
vt 0.5901 0.0765
vt 0.5742 0.0925
vt 0.6178 0.1179
vt 0.5742 0.0925
vt 0.5969 0.1265
vt 0.6386 0.1093
vt 0.6061 0.0606
vt 0.5901 0.0765
vt 0.5901 0.0765
vt 0.6178 0.1179
vt 0.6386 0.1093
vt 0.3167 0.787
vt 0.3079 0.7569
vt 0.2431 0.7681
vt 0.2479 0.7981
vt 0.3167 0.787
vt 0.2431 0.7681
vt 0.2431 0.8281
vt 0.2479 0.7981
vt 0.1667 0.8093
vt 0.1667 0.8392
vt 0.2431 0.8281
vt 0.1667 0.8093
vt 0.6386 0.5574
vt 0.65 0.5
vt 0.6274 0.5
vt 0.6386 0.5574
vt 0.6274 0.5
vt 0.6178 0.5488
vt 0.5969 0.5402
vt 0.6178 0.5488
vt 0.6274 0.5
vt 0.5969 0.5402
vt 0.6274 0.5
vt 0.6049 0.5
vt 0.4493 0.8142
vt 0.5 0.8247
vt 0.5 0.7963
vt 0.4493 0.8142
vt 0.5 0.7963
vt 0.4539 0.7857
vt 0.5 0.7679
vt 0.4493 0.7573
vt 0.4539 0.7857
vt 0.5 0.7679
vt 0.4539 0.7857
vt 0.5 0.7963
vt 0.6274 0.1667
vt 0.6178 0.1179
vt 0.5969 0.1265
vt 0.6274 0.1667
vt 0.5969 0.1265
vt 0.6049 0.1667
vt 0.65 0.1667
vt 0.6386 0.1093
vt 0.6178 0.1179
vt 0.6178 0.1179
vt 0.6274 0.1667
vt 0.65 0.1667
vt 0.2479 0.7981
vt 0.2431 0.7681
vt 0.1667 0.7792
vt 0.1667 0.8093
vt 0.2479 0.7981
vt 0.1667 0.7792
vt 0.1667 0.8392
vt 0.1667 0.8093
vt 0.0855 0.8204
vt 0.0902 0.8504
vt 0.1667 0.8392
vt 0.0855 0.8204
vt 0.65 0.5
vt 0.6386 0.4426
vt 0.6178 0.4512
vt 0.65 0.5
vt 0.6178 0.4512
vt 0.6274 0.5
vt 0.6049 0.5
vt 0.6274 0.5
vt 0.6178 0.4512
vt 0.6049 0.5
vt 0.6178 0.4512
vt 0.5969 0.4598
vt 0.5 0.8247
vt 0.5507 0.8353
vt 0.5461 0.8069
vt 0.5 0.8247
vt 0.5461 0.8069
vt 0.5 0.7963
vt 0.5507 0.7785
vt 0.5 0.7679
vt 0.5 0.7963
vt 0.5507 0.7785
vt 0.5 0.7963
vt 0.5461 0.8069
vt 0.6178 0.2154
vt 0.6274 0.1667
vt 0.6049 0.1667
vt 0.6178 0.2154
vt 0.6049 0.1667
vt 0.5969 0.2068
vt 0.6386 0.2241
vt 0.65 0.1667
vt 0.6274 0.1667
vt 0.6274 0.1667
vt 0.6178 0.2154
vt 0.6386 0.2241
vt 0.1667 0.8093
vt 0.1667 0.7792
vt 0.0902 0.7904
vt 0.0855 0.8204
vt 0.1667 0.8093
vt 0.0902 0.7904
vt 0.0902 0.8504
vt 0.0855 0.8204
vt 0.0167 0.8361
vt 0.0255 0.8661
vt 0.0902 0.8504
vt 0.0167 0.8361
vt 0.6386 0.4426
vt 0.6061 0.3939
vt 0.5901 0.4099
vt 0.6386 0.4426
vt 0.5901 0.4099
vt 0.6178 0.4512
vt 0.5969 0.4598
vt 0.6178 0.4512
vt 0.5901 0.4099
vt 0.5969 0.4598
vt 0.5901 0.4099
vt 0.5742 0.4258
vt 0.0659 0.4974
vt 0.0882 0.509
vt 0.0946 0.4869
vt 0.0659 0.4974
vt 0.0946 0.4869
vt 0.0743 0.4754
vt 0.5936 0.7934
vt 0.5507 0.7785
vt 0.5461 0.8069
vt 0.5936 0.7934
vt 0.5461 0.8069
vt 0.5853 0.8218
vt 0.5901 0.2568
vt 0.6178 0.2154
vt 0.5969 0.2068
vt 0.5901 0.2568
vt 0.5969 0.2068
vt 0.5742 0.2409
vt 0.6061 0.2727
vt 0.6386 0.2241
vt 0.6178 0.2154
vt 0.6178 0.2154
vt 0.5901 0.2568
vt 0.6061 0.2727
vt 0.3167 0.1461
vt 0.3082 0.1241
vt 0.2764 0.1357
vt 0.2829 0.1577
vt 0.3167 0.1461
vt 0.2764 0.1357
vt 0.2764 0.1797
vt 0.2829 0.1577
vt 0.2323 0.1625
vt 0.2288 0.1846
vt 0.2764 0.1797
vt 0.2323 0.1625
vt 0.6061 0.3939
vt 0.5574 0.3614
vt 0.5488 0.3822
vt 0.6061 0.3939
vt 0.5488 0.3822
vt 0.5901 0.4099
vt 0.5742 0.4258
vt 0.5901 0.4099
vt 0.5488 0.3822
vt 0.5742 0.4258
vt 0.5488 0.3822
vt 0.5402 0.4031
vt 0.0882 0.509
vt 0.1215 0.5138
vt 0.125 0.4918
vt 0.0882 0.509
vt 0.125 0.4918
vt 0.0946 0.4869
vt 0.1215 0.4697
vt 0.0882 0.4649
vt 0.0946 0.4869
vt 0.1215 0.4697
vt 0.0946 0.4869
vt 0.125 0.4918
vt 0.5488 0.2844
vt 0.5901 0.2568
vt 0.5742 0.2409
vt 0.5488 0.2844
vt 0.5742 0.2409
vt 0.5402 0.2636
vt 0.5574 0.3052
vt 0.6061 0.2727
vt 0.5901 0.2568
vt 0.5901 0.2568
vt 0.5488 0.2844
vt 0.5574 0.3052
vt 0.2829 0.1577
vt 0.2764 0.1357
vt 0.2288 0.1405
vt 0.2323 0.1625
vt 0.2829 0.1577
vt 0.2288 0.1405
vt 0.2288 0.1846
vt 0.2323 0.1625
vt 0.1726 0.1707
vt 0.1726 0.1928
vt 0.2288 0.1846
vt 0.1726 0.1707
vt 0.5574 0.3614
vt 0.5 0.35
vt 0.5 0.3726
vt 0.5574 0.3614
vt 0.5 0.3726
vt 0.5488 0.3822
vt 0.5402 0.4031
vt 0.5488 0.3822
vt 0.5 0.3726
vt 0.5402 0.4031
vt 0.5 0.3726
vt 0.5 0.3951
vt 0.1215 0.5138
vt 0.1608 0.5221
vt 0.1608 0.5
vt 0.1215 0.5138
vt 0.1608 0.5
vt 0.125 0.4918
vt 0.1608 0.4779
vt 0.1215 0.4697
vt 0.125 0.4918
vt 0.1608 0.4779
vt 0.125 0.4918
vt 0.1608 0.5
vt 0.5 0.2941
vt 0.5488 0.2844
vt 0.5402 0.2636
vt 0.5 0.2941
vt 0.5402 0.2636
vt 0.5 0.2716
vt 0.5 0.3167
vt 0.5574 0.3052
vt 0.5488 0.2844
vt 0.5488 0.2844
vt 0.5 0.2941
vt 0.5 0.3167
vt 0.2323 0.1625
vt 0.2288 0.1405
vt 0.1726 0.1487
vt 0.1726 0.1707
vt 0.2323 0.1625
vt 0.1726 0.1487
vt 0.1132 0.9173
vt 0.1659 0.9284
vt 0.166 0.8985
vt 0.1132 0.9173
vt 0.166 0.8985
vt 0.118 0.8873
vt 0.1659 0.8684
vt 0.1132 0.8573
vt 0.118 0.8873
vt 0.1659 0.8684
vt 0.118 0.8873
vt 0.166 0.8985
vt 0.3952 0.1672
vt 0.3727 0.1674
vt 0.3822 0.2154
vt 0.3952 0.1672
vt 0.3822 0.2154
vt 0.4031 0.2068
vt 0.3502 0.1675
vt 0.3614 0.2241
vt 0.3822 0.2154
vt 0.3502 0.1675
vt 0.3822 0.2154
vt 0.3727 0.1674
vt 0.501 0.8524
vt 0.5011 0.8809
vt 0.577 0.8703
vt 0.5724 0.8418
vt 0.501 0.8524
vt 0.577 0.8703
vt 0.5011 0.8809
vt 0.501 0.9093
vt 0.5724 0.8987
vt 0.577 0.8703
vt 0.5011 0.8809
vt 0.5724 0.8987
vt 0.3822 0.4512
vt 0.3614 0.4426
vt 0.3502 0.4992
vt 0.3727 0.4993
vt 0.3822 0.4512
vt 0.3502 0.4992
vt 0.3822 0.4512
vt 0.3727 0.4993
vt 0.3952 0.4994
vt 0.3822 0.4512
vt 0.3952 0.4994
vt 0.4031 0.4598
vt 0.3075 0.5548
vt 0.3167 0.5328
vt 0.3075 0.5107
vt 0.2855 0.564
vt 0.3075 0.5548
vt 0.3075 0.5107
vt 0.2635 0.5548
vt 0.2855 0.564
vt 0.3075 0.5107
vt 0.2543 0.5328
vt 0.2635 0.5548
vt 0.3075 0.5107
vt 0.2635 0.5107
vt 0.2543 0.5328
vt 0.3075 0.5107
vt 0.3075 0.5107
vt 0.2855 0.5016
vt 0.2635 0.5107
vt 0.0699 0.0503
vt 0.0479 0.0412
vt 0.0258 0.0503
vt 0.079 0.0724
vt 0.0699 0.0503
vt 0.0258 0.0503
vt 0.0699 0.0944
vt 0.079 0.0724
vt 0.0258 0.0503
vt 0.0479 0.1035
vt 0.0699 0.0944
vt 0.0258 0.0503
vt 0.0258 0.0944
vt 0.0479 0.1035
vt 0.0258 0.0503
vt 0.0258 0.0503
vt 0.0167 0.0724
vt 0.0258 0.0944
vt 0.2879 0.2298
vt 0.2675 0.2389
vt 0.259 0.261
vt 0.3082 0.2389
vt 0.2879 0.2298
vt 0.259 0.261
vt 0.3167 0.261
vt 0.3082 0.2389
vt 0.259 0.261
vt 0.3082 0.283
vt 0.3167 0.261
vt 0.259 0.261
vt 0.2879 0.2922
vt 0.3082 0.283
vt 0.259 0.261
vt 0.259 0.261
vt 0.2675 0.283
vt 0.2879 0.2922
vn -0.1299 0.3788 -0.9163
vn -0.1299 0.3788 -0.9163
vn -0.1299 0.3788 -0.9163
vn -0.1285 0.3718 -0.9194
vn -0.1285 0.3718 -0.9194
vn -0.1285 0.3718 -0.9194
vn 0.0476 0.9038 -0.4252
vn 0.0476 0.9038 -0.4252
vn 0.0476 0.9038 -0.4252
vn 0.0827 0.9207 -0.3815
vn 0.0827 0.9207 -0.3815
vn 0.0827 0.9207 -0.3815
vn 0.229 0.8991 0.3731
vn 0.229 0.8991 0.3731
vn 0.229 0.8991 0.3731
vn 0.2531 0.9175 0.307
vn 0.2531 0.9175 0.307
vn 0.2531 0.9175 0.307
vn 0.2568 0.3804 0.8884
vn 0.2568 0.3804 0.8884
vn 0.2568 0.3804 0.8884
vn 0.2622 0.3699 0.8913
vn 0.2622 0.3699 0.8913
vn 0.2622 0.3699 0.8913
vn 0.1039 -0.3812 0.9186
vn 0.1039 -0.3812 0.9186
vn 0.1039 -0.3812 0.9186
vn 0.0992 -0.3685 0.9243
vn 0.0992 -0.3685 0.9243
vn 0.0992 -0.3685 0.9243
vn -0.0819 -0.9205 0.382
vn -0.0819 -0.9205 0.382
vn -0.0819 -0.9205 0.382
vn -0.0979 -0.8923 0.4407
vn -0.0979 -0.8923 0.4407
vn -0.0979 -0.8923 0.4407
vn -0.2062 -0.904 -0.3746
vn -0.2062 -0.904 -0.3746
vn -0.2062 -0.904 -0.3746
vn -0.2217 -0.9207 -0.321
vn -0.2217 -0.9207 -0.321
vn -0.2217 -0.9207 -0.321
vn -0.2329 -0.3716 -0.8987
vn -0.2329 -0.3716 -0.8987
vn -0.2329 -0.3716 -0.8987
vn -0.2303 -0.3787 -0.8964
vn -0.2303 -0.3787 -0.8964
vn -0.2303 -0.3787 -0.8964
vn -0.4709 0.3794 -0.7965
vn -0.4709 0.3794 -0.7965
vn -0.4709 0.3794 -0.7965
vn -0.4707 0.3726 -0.7998
vn -0.4707 0.3726 -0.7998
vn -0.4707 0.3726 -0.7998
vn -0.1196 0.9037 -0.4111
vn -0.1196 0.9037 -0.4111
vn -0.1196 0.9037 -0.4111
vn -0.0701 0.9207 -0.3839
vn -0.0701 0.9207 -0.3839
vn -0.0701 0.9207 -0.3839
vn 0.3534 0.8993 0.2574
vn 0.3534 0.8993 0.2574
vn 0.3534 0.8993 0.2574
vn 0.3504 0.9177 0.1872
vn 0.3504 0.9177 0.1872
vn 0.3504 0.9177 0.1872
vn 0.5763 0.3811 0.723
vn 0.5763 0.3811 0.723
vn 0.5763 0.3811 0.723
vn 0.5831 0.3694 0.7236
vn 0.5831 0.3694 0.7236
vn 0.5831 0.3694 0.7236
vn 0.4473 -0.38 0.8096
vn 0.4473 -0.38 0.8096
vn 0.4473 -0.38 0.8096
vn 0.4454 -0.3693 0.8156
vn 0.4454 -0.3693 0.8156
vn 0.4454 -0.3693 0.8156
vn 0.0696 -0.9206 0.3842
vn 0.0696 -0.9206 0.3842
vn 0.0696 -0.9206 0.3842
vn 0.0771 -0.8927 0.4439
vn 0.0771 -0.8927 0.4439
vn 0.0771 -0.8927 0.4439
vn -0.3339 -0.904 -0.267
vn -0.3339 -0.904 -0.267
vn -0.3339 -0.904 -0.267
vn -0.3277 -0.9209 -0.2111
vn -0.3277 -0.9209 -0.2111
vn -0.3277 -0.9209 -0.2111
vn -0.5593 -0.3716 -0.741
vn -0.5593 -0.3716 -0.741
vn -0.5593 -0.3716 -0.741
vn -0.5557 -0.3794 -0.7398
vn -0.5557 -0.3794 -0.7398
vn -0.5557 -0.3794 -0.7398
vn -0.7395 0.3799 -0.5557
vn -0.7395 0.3799 -0.5557
vn -0.7395 0.3799 -0.5557
vn -0.7409 0.3716 -0.5595
vn -0.7409 0.3716 -0.5595
vn -0.7409 0.3716 -0.5595
vn -0.2657 0.9044 -0.3337
vn -0.2657 0.9044 -0.3337
vn -0.2657 0.9044 -0.3337
vn -0.2126 0.9205 -0.3279
vn -0.2126 0.9205 -0.3279
vn -0.2126 0.9205 -0.3279
vn 0.4251 0.8994 0.1019
vn 0.4251 0.8994 0.1019
vn 0.4251 0.8994 0.1019
vn 0.3949 0.918 0.0372
vn 0.3949 0.918 0.0372
vn 0.3949 0.918 0.0372
vn 0.8098 0.38 0.447
vn 0.8098 0.38 0.447
vn 0.8098 0.38 0.447
vn 0.8155 0.3698 0.4452
vn 0.8155 0.3698 0.4452
vn 0.8155 0.3698 0.4452
vn 0.723 -0.3806 0.5766
vn 0.723 -0.3806 0.5766
vn 0.723 -0.3806 0.5766
vn 0.7236 -0.3694 0.5831
vn 0.7236 -0.3694 0.5831
vn 0.7236 -0.3694 0.5831
vn 0.2109 -0.9212 0.3268
vn 0.2109 -0.9212 0.3268
vn 0.2109 -0.9212 0.3268
vn 0.2423 -0.8919 0.3818
vn 0.2423 -0.8919 0.3818
vn 0.2423 -0.8919 0.3818
vn -0.4105 -0.9041 -0.1184
vn -0.4105 -0.9041 -0.1184
vn -0.4105 -0.9041 -0.1184
vn -0.3839 -0.9207 -0.0701
vn -0.3839 -0.9207 -0.0701
vn -0.3839 -0.9207 -0.0701
vn -0.8 -0.3721 -0.4707
vn -0.8 -0.3721 -0.4707
vn -0.8 -0.3721 -0.4707
vn -0.7965 -0.3794 -0.4709
vn -0.7965 -0.3794 -0.4709
vn -0.7965 -0.3794 -0.4709
vn -0.8964 0.3787 -0.2303
vn -0.8964 0.3787 -0.2303
vn -0.8964 0.3787 -0.2303
vn -0.8987 0.3715 -0.2329
vn -0.8987 0.3715 -0.2329
vn -0.8987 0.3715 -0.2329
vn -0.3746 0.904 -0.2062
vn -0.3746 0.904 -0.2062
vn -0.3746 0.904 -0.2062
vn -0.3195 0.9212 -0.2221
vn -0.3195 0.9212 -0.2221
vn -0.3195 0.9212 -0.2221
vn 0.4307 0.8998 -0.0693
vn 0.4307 0.8998 -0.0693
vn 0.4307 0.8998 -0.0693
vn 0.3807 0.9175 -0.1151
vn 0.3807 0.9175 -0.1151
vn 0.3807 0.9175 -0.1151
vn 0.9186 0.3812 0.1039
vn 0.9186 0.3812 0.1039
vn 0.9186 0.3812 0.1039
vn 0.9243 0.3685 0.0992
vn 0.9243 0.3685 0.0992
vn 0.9243 0.3685 0.0992
vn 0.8885 -0.3804 0.2565
vn 0.8885 -0.3804 0.2565
vn 0.8885 -0.3804 0.2565
vn 0.8915 -0.3694 0.2621
vn 0.8915 -0.3694 0.2621
vn 0.8915 -0.3694 0.2621
vn 0.3211 -0.9206 0.2224
vn 0.3211 -0.9206 0.2224
vn 0.3211 -0.9206 0.2224
vn 0.369 -0.8925 0.2594
vn 0.369 -0.8925 0.2594
vn 0.369 -0.8925 0.2594
vn -0.425 -0.904 0.0471
vn -0.425 -0.904 0.0471
vn -0.425 -0.904 0.0471
vn -0.3802 -0.9212 0.083
vn -0.3802 -0.9212 0.083
vn -0.3802 -0.9212 0.083
vn -0.9193 -0.3719 -0.1287
vn -0.9193 -0.3719 -0.1287
vn -0.9193 -0.3719 -0.1287
vn -0.9165 -0.3783 -0.1301
vn -0.9165 -0.3783 -0.1301
vn -0.9165 -0.3783 -0.1301
vn -0.9163 0.3788 0.1302
vn -0.9163 0.3788 0.1302
vn -0.9163 0.3788 0.1302
vn -0.9193 0.3719 0.1287
vn -0.9193 0.3719 0.1287
vn -0.9193 0.3719 0.1287
vn -0.425 0.904 -0.0471
vn -0.425 0.904 -0.0471
vn -0.425 0.904 -0.0471
vn -0.3815 0.9207 -0.082
vn -0.3815 0.9207 -0.082
vn -0.3815 0.9207 -0.082
vn 0.3732 0.8992 -0.2284
vn 0.3732 0.8992 -0.2284
vn 0.3732 0.8992 -0.2284
vn 0.3073 0.9175 -0.2524
vn 0.3073 0.9175 -0.2524
vn 0.3073 0.9175 -0.2524
vn 0.8885 0.3804 -0.2565
vn 0.8885 0.3804 -0.2565
vn 0.8885 0.3804 -0.2565
vn 0.8914 0.3699 -0.2618
vn 0.8914 0.3699 -0.2618
vn 0.8914 0.3699 -0.2618
vn 0.9189 -0.3807 -0.1037
vn 0.9189 -0.3807 -0.1037
vn 0.9189 -0.3807 -0.1037
vn 0.9241 -0.369 -0.0994
vn 0.9241 -0.369 -0.0994
vn 0.9241 -0.369 -0.0994
vn 0.3808 -0.921 0.0822
vn 0.3808 -0.921 0.0822
vn 0.3808 -0.921 0.0822
vn 0.4409 -0.8921 0.0986
vn 0.4409 -0.8921 0.0986
vn 0.4409 -0.8921 0.0986
vn -0.3733 -0.9044 0.2065
vn -0.3733 -0.9044 0.2065
vn -0.3733 -0.9044 0.2065
vn -0.321 -0.9207 0.2217
vn -0.321 -0.9207 0.2217
vn -0.321 -0.9207 0.2217
vn -0.8989 -0.371 0.2331
vn -0.8989 -0.371 0.2331
vn -0.8989 -0.371 0.2331
vn -0.8963 -0.3792 0.2301
vn -0.8963 -0.3792 0.2301
vn -0.8963 -0.3792 0.2301
vn -0.7965 0.3794 0.4709
vn -0.7965 0.3794 0.4709
vn -0.7965 0.3794 0.4709
vn -0.8 0.3721 0.4707
vn -0.8 0.3721 0.4707
vn -0.8 0.3721 0.4707
vn -0.4114 0.9036 0.1192
vn -0.4114 0.9036 0.1192
vn -0.4114 0.9036 0.1192
vn -0.3841 0.9207 0.0695
vn -0.3841 0.9207 0.0695
vn -0.3841 0.9207 0.0695
vn 0.2571 0.8992 -0.354
vn 0.2571 0.8992 -0.354
vn 0.2571 0.8992 -0.354
vn 0.1867 0.9176 -0.351
vn 0.1867 0.9176 -0.351
vn 0.1867 0.9176 -0.351
vn 0.723 0.3806 -0.5766
vn 0.723 0.3806 -0.5766
vn 0.723 0.3806 -0.5766
vn 0.7236 0.3694 -0.5831
vn 0.7236 0.3694 -0.5831
vn 0.7236 0.3694 -0.5831
vn 0.8095 -0.3805 -0.4471
vn 0.8095 -0.3805 -0.4471
vn 0.8095 -0.3805 -0.4471
vn 0.8155 -0.3698 -0.4452
vn 0.8155 -0.3698 -0.4452
vn 0.8155 -0.3698 -0.4452
vn 0.384 -0.9207 -0.0702
vn 0.384 -0.9207 -0.0702
vn 0.384 -0.9207 -0.0702
vn 0.4449 -0.8922 -0.0779
vn 0.4449 -0.8922 -0.0779
vn 0.4449 -0.8922 -0.0779
vn -0.267 -0.904 0.3339
vn -0.267 -0.904 0.3339
vn -0.267 -0.904 0.3339
vn -0.2126 -0.9205 0.3279
vn -0.2126 -0.9205 0.3279
vn -0.2126 -0.9205 0.3279
vn -0.7408 -0.3721 0.5592
vn -0.7408 -0.3721 0.5592
vn -0.7408 -0.3721 0.5592
vn -0.7395 -0.3799 0.5557
vn -0.7395 -0.3799 0.5557
vn -0.7395 -0.3799 0.5557
vn -0.5559 0.3794 0.7396
vn -0.5559 0.3794 0.7396
vn -0.5559 0.3794 0.7396
vn -0.5592 0.3721 0.7408
vn -0.5592 0.3721 0.7408
vn -0.5592 0.3721 0.7408
vn -0.3339 0.904 0.267
vn -0.3339 0.904 0.267
vn -0.3339 0.904 0.267
vn -0.3279 0.9205 0.2126
vn -0.3279 0.9205 0.2126
vn -0.3279 0.9205 0.2126
vn 0.1019 0.8994 -0.4251
vn 0.1019 0.8994 -0.4251
vn 0.1019 0.8994 -0.4251
vn 0.0388 0.9176 -0.3956
vn 0.0388 0.9176 -0.3956
vn 0.0388 0.9176 -0.3956
vn 0.447 0.3806 -0.8095
vn 0.447 0.3806 -0.8095
vn 0.447 0.3806 -0.8095
vn 0.4451 0.3692 -0.8158
vn 0.4451 0.3692 -0.8158
vn 0.4451 0.3692 -0.8158
vn 0.5763 -0.3811 -0.723
vn 0.5763 -0.3811 -0.723
vn 0.5763 -0.3811 -0.723
vn 0.5834 -0.3688 -0.7236
vn 0.5834 -0.3688 -0.7236
vn 0.5834 -0.3688 -0.7236
vn 0.3279 -0.9207 -0.2115
vn 0.3279 -0.9207 -0.2115
vn 0.3279 -0.9207 -0.2115
vn 0.3806 -0.8926 -0.2417
vn 0.3806 -0.8926 -0.2417
vn 0.3806 -0.8926 -0.2417
vn -0.1196 -0.9037 0.4111
vn -0.1196 -0.9037 0.4111
vn -0.1196 -0.9037 0.4111
vn -0.0687 -0.9211 0.3831
vn -0.0687 -0.9211 0.3831
vn -0.0687 -0.9211 0.3831
vn -0.4707 -0.3726 0.7998
vn -0.4707 -0.3726 0.7998
vn -0.4707 -0.3726 0.7998
vn -0.4709 -0.3789 0.7967
vn -0.4709 -0.3789 0.7967
vn -0.4709 -0.3789 0.7967
vn 1.0 0.0 0.0
vn 1.0 0.0 0.0
vn 1.0 0.0 0.0
vn 1.0 0.0 0.0
vn 1.0 0.0 0.0
vn 1.0 0.0 0.0
vn 1.0 0.0 0.0
vn 1.0 0.0 0.0
vn 1.0 0.0 0.0
vn 1.0 0.0 0.0
vn 1.0 0.0 0.0
vn 1.0 0.0 0.0
vn 1.0 0.0 0.0
vn 1.0 0.0 0.0
vn 1.0 0.0 0.0
vn 1.0 0.0 0.0
vn 1.0 0.0 0.0
vn 1.0 0.0 0.0
vn 0.9165 0.3783 -0.1301
vn 0.9165 0.3783 -0.1301
vn 0.9165 0.3783 -0.1301
vn 0.9193 0.3719 -0.1287
vn 0.9193 0.3719 -0.1287
vn 0.9193 0.3719 -0.1287
vn 0.425 0.904 0.0471
vn 0.425 0.904 0.0471
vn 0.425 0.904 0.0471
vn 0.3802 0.9212 0.083
vn 0.3802 0.9212 0.083
vn 0.3802 0.9212 0.083
vn -0.3719 0.8996 0.2289
vn -0.3719 0.8996 0.2289
vn -0.3719 0.8996 0.2289
vn -0.3073 0.9175 0.2524
vn -0.3073 0.9175 0.2524
vn -0.3073 0.9175 0.2524
vn -0.8885 0.3804 0.2565
vn -0.8885 0.3804 0.2565
vn -0.8885 0.3804 0.2565
vn -0.8915 0.3694 0.2621
vn -0.8915 0.3694 0.2621
vn -0.8915 0.3694 0.2621
vn -0.9186 -0.3812 0.1039
vn -0.9186 -0.3812 0.1039
vn -0.9186 -0.3812 0.1039
vn -0.9243 -0.3685 0.0992
vn -0.9243 -0.3685 0.0992
vn -0.9243 -0.3685 0.0992
vn -0.382 -0.9205 -0.0819
vn -0.382 -0.9205 -0.0819
vn -0.382 -0.9205 -0.0819
vn -0.4407 -0.8923 -0.0979
vn -0.4407 -0.8923 -0.0979
vn -0.4407 -0.8923 -0.0979
vn 0.3746 -0.904 -0.2062
vn 0.3746 -0.904 -0.2062
vn 0.3746 -0.904 -0.2062
vn 0.321 -0.9207 -0.2217
vn 0.321 -0.9207 -0.2217
vn 0.321 -0.9207 -0.2217
vn 0.8987 -0.3716 -0.2329
vn 0.8987 -0.3716 -0.2329
vn 0.8987 -0.3716 -0.2329
vn 0.8964 -0.3787 -0.2303
vn 0.8964 -0.3787 -0.2303
vn 0.8964 -0.3787 -0.2303
vn 0.7965 0.3794 -0.4709
vn 0.7965 0.3794 -0.4709
vn 0.7965 0.3794 -0.4709
vn 0.7998 0.3726 -0.4707
vn 0.7998 0.3726 -0.4707
vn 0.7998 0.3726 -0.4707
vn 0.4111 0.9037 -0.1196
vn 0.4111 0.9037 -0.1196
vn 0.4111 0.9037 -0.1196
vn 0.3839 0.9207 -0.0701
vn 0.3839 0.9207 -0.0701
vn 0.3839 0.9207 -0.0701
vn -0.2574 0.8993 0.3534
vn -0.2574 0.8993 0.3534
vn -0.2574 0.8993 0.3534
vn -0.1872 0.9177 0.3504
vn -0.1872 0.9177 0.3504
vn -0.1872 0.9177 0.3504
vn -0.723 0.3811 0.5763
vn -0.723 0.3811 0.5763
vn -0.723 0.3811 0.5763
vn -0.7236 0.3694 0.5831
vn -0.7236 0.3694 0.5831
vn -0.7236 0.3694 0.5831
vn -0.8098 -0.3801 0.447
vn -0.8098 -0.3801 0.447
vn -0.8098 -0.3801 0.447
vn -0.8155 -0.3698 0.4452
vn -0.8155 -0.3698 0.4452
vn -0.8155 -0.3698 0.4452
vn -0.3842 -0.9206 0.0696
vn -0.3842 -0.9206 0.0696
vn -0.3842 -0.9206 0.0696
vn -0.4453 -0.892 0.0773
vn -0.4453 -0.892 0.0773
vn -0.4453 -0.892 0.0773
vn 0.2668 -0.9039 -0.3343
vn 0.2668 -0.9039 -0.3343
vn 0.2668 -0.9039 -0.3343
vn 0.2122 -0.9204 -0.3283
vn 0.2122 -0.9204 -0.3283
vn 0.2122 -0.9204 -0.3283
vn 0.7409 -0.3716 -0.5595
vn 0.7409 -0.3716 -0.5595
vn 0.7409 -0.3716 -0.5595
vn 0.7395 -0.3799 -0.5557
vn 0.7395 -0.3799 -0.5557
vn 0.7395 -0.3799 -0.5557
vn 0.5557 0.3799 -0.7395
vn 0.5557 0.3799 -0.7395
vn 0.5557 0.3799 -0.7395
vn 0.5595 0.3716 -0.7409
vn 0.5595 0.3716 -0.7409
vn 0.5595 0.3716 -0.7409
vn 0.3337 0.9044 -0.2657
vn 0.3337 0.9044 -0.2657
vn 0.3337 0.9044 -0.2657
vn 0.3279 0.9205 -0.2126
vn 0.3279 0.9205 -0.2126
vn 0.3279 0.9205 -0.2126
vn -0.1019 0.8994 0.4251
vn -0.1019 0.8994 0.4251
vn -0.1019 0.8994 0.4251
vn -0.0372 0.918 0.3949
vn -0.0372 0.918 0.3949
vn -0.0372 0.918 0.3949
vn -0.447 0.3801 0.8098
vn -0.447 0.3801 0.8098
vn -0.447 0.3801 0.8098
vn -0.4452 0.3698 0.8155
vn -0.4452 0.3698 0.8155
vn -0.4452 0.3698 0.8155
vn -0.5763 -0.3811 0.723
vn -0.5763 -0.3811 0.723
vn -0.5763 -0.3811 0.723
vn -0.5831 -0.3694 0.7236
vn -0.5831 -0.3694 0.7236
vn -0.5831 -0.3694 0.7236
vn -0.3275 -0.9208 0.212
vn -0.3275 -0.9208 0.212
vn -0.3275 -0.9208 0.212
vn -0.3812 -0.8921 0.2427
vn -0.3812 -0.8921 0.2427
vn -0.3812 -0.8921 0.2427
vn 0.1196 -0.9037 -0.4111
vn 0.1196 -0.9037 -0.4111
vn 0.1196 -0.9037 -0.4111
vn 0.0701 -0.9207 -0.3839
vn 0.0701 -0.9207 -0.3839
vn 0.0701 -0.9207 -0.3839
vn 0.4707 -0.3726 -0.7998
vn 0.4707 -0.3726 -0.7998
vn 0.4707 -0.3726 -0.7998
vn 0.4709 -0.3794 -0.7965
vn 0.4709 -0.3794 -0.7965
vn 0.4709 -0.3794 -0.7965
vn -0.1301 0.3783 -0.9165
vn -0.1301 0.3783 -0.9165
vn -0.1301 0.3783 -0.9165
vn -0.1287 0.3719 -0.9193
vn -0.1287 0.3719 -0.9193
vn -0.1287 0.3719 -0.9193
vn 0.0471 0.904 -0.425
vn 0.0471 0.904 -0.425
vn 0.0471 0.904 -0.425
vn 0.083 0.9212 -0.3802
vn 0.083 0.9212 -0.3802
vn 0.083 0.9212 -0.3802
vn 0.2289 0.8996 0.3719
vn 0.2289 0.8996 0.3719
vn 0.2289 0.8996 0.3719
vn 0.2524 0.9175 0.3073
vn 0.2524 0.9175 0.3073
vn 0.2524 0.9175 0.3073
vn 0.2565 0.3804 0.8885
vn 0.2565 0.3804 0.8885
vn 0.2565 0.3804 0.8885
vn 0.2621 0.3694 0.8915
vn 0.2621 0.3694 0.8915
vn 0.2621 0.3694 0.8915
vn 0.1039 -0.3812 0.9186
vn 0.1039 -0.3812 0.9186
vn 0.1039 -0.3812 0.9186
vn 0.0992 -0.3685 0.9243
vn 0.0992 -0.3685 0.9243
vn 0.0992 -0.3685 0.9243
vn -0.0825 -0.9205 0.382
vn -0.0825 -0.9205 0.382
vn -0.0825 -0.9205 0.382
vn -0.0982 -0.8928 0.4396
vn -0.0982 -0.8928 0.4396
vn -0.0982 -0.8928 0.4396
vn -0.2062 -0.904 -0.3746
vn -0.2062 -0.904 -0.3746
vn -0.2062 -0.904 -0.3746
vn -0.2221 -0.9212 -0.3195
vn -0.2221 -0.9212 -0.3195
vn -0.2221 -0.9212 -0.3195
vn -0.2329 -0.3716 -0.8987
vn -0.2329 -0.3716 -0.8987
vn -0.2329 -0.3716 -0.8987
vn -0.2303 -0.3787 -0.8964
vn -0.2303 -0.3787 -0.8964
vn -0.2303 -0.3787 -0.8964
vn -0.4709 0.3794 -0.7965
vn -0.4709 0.3794 -0.7965
vn -0.4709 0.3794 -0.7965
vn -0.4707 0.3721 -0.8
vn -0.4707 0.3721 -0.8
vn -0.4707 0.3721 -0.8
vn -0.1184 0.9041 -0.4105
vn -0.1184 0.9041 -0.4105
vn -0.1184 0.9041 -0.4105
vn -0.0701 0.9207 -0.3839
vn -0.0701 0.9207 -0.3839
vn -0.0701 0.9207 -0.3839
vn 0.3534 0.8993 0.2574
vn 0.3534 0.8993 0.2574
vn 0.3534 0.8993 0.2574
vn 0.3503 0.9181 0.1855
vn 0.3503 0.9181 0.1855
vn 0.3503 0.9181 0.1855
vn 0.5766 0.3806 0.723
vn 0.5766 0.3806 0.723
vn 0.5766 0.3806 0.723
vn 0.5831 0.3694 0.7236
vn 0.5831 0.3694 0.7236
vn 0.5831 0.3694 0.7236
vn 0.447 -0.3801 0.8098
vn 0.447 -0.3801 0.8098
vn 0.447 -0.3801 0.8098
vn 0.4452 -0.3698 0.8155
vn 0.4452 -0.3698 0.8155
vn 0.4452 -0.3698 0.8155
vn 0.0694 -0.9212 0.383
vn 0.0694 -0.9212 0.383
vn 0.0694 -0.9212 0.383
vn 0.0773 -0.892 0.4453
vn 0.0773 -0.892 0.4453
vn 0.0773 -0.892 0.4453
vn -0.3337 -0.9044 -0.2657
vn -0.3337 -0.9044 -0.2657
vn -0.3337 -0.9044 -0.2657
vn -0.3279 -0.9205 -0.2126
vn -0.3279 -0.9205 -0.2126
vn -0.3279 -0.9205 -0.2126
vn -0.5595 -0.3716 -0.7409
vn -0.5595 -0.3716 -0.7409
vn -0.5595 -0.3716 -0.7409
vn -0.5557 -0.3799 -0.7395
vn -0.5557 -0.3799 -0.7395
vn -0.5557 -0.3799 -0.7395
vn -0.7396 0.3794 -0.5559
vn -0.7396 0.3794 -0.5559
vn -0.7396 0.3794 -0.5559
vn -0.7408 0.3721 -0.5592
vn -0.7408 0.3721 -0.5592
vn -0.7408 0.3721 -0.5592
vn -0.267 0.904 -0.3339
vn -0.267 0.904 -0.3339
vn -0.267 0.904 -0.3339
vn -0.2111 0.9209 -0.3277
vn -0.2111 0.9209 -0.3277
vn -0.2111 0.9209 -0.3277
vn 0.4245 0.8998 0.1007
vn 0.4245 0.8998 0.1007
vn 0.4245 0.8998 0.1007
vn 0.3956 0.9176 0.0388
vn 0.3956 0.9176 0.0388
vn 0.3956 0.9176 0.0388
vn 0.8095 0.3805 0.4471
vn 0.8095 0.3805 0.4471
vn 0.8095 0.3805 0.4471
vn 0.8158 0.3692 0.4451
vn 0.8158 0.3692 0.4451
vn 0.8158 0.3692 0.4451
vn 0.723 -0.3811 0.5763
vn 0.723 -0.3811 0.5763
vn 0.723 -0.3811 0.5763
vn 0.7236 -0.3688 0.5834
vn 0.7236 -0.3688 0.5834
vn 0.7236 -0.3688 0.5834
vn 0.2115 -0.9207 0.3279
vn 0.2115 -0.9207 0.3279
vn 0.2115 -0.9207 0.3279
vn 0.2416 -0.8926 0.3806
vn 0.2416 -0.8926 0.3806
vn 0.2416 -0.8926 0.3806
vn -0.4111 -0.9037 -0.1196
vn -0.4111 -0.9037 -0.1196
vn -0.4111 -0.9037 -0.1196
vn -0.3831 -0.9211 -0.0687
vn -0.3831 -0.9211 -0.0687
vn -0.3831 -0.9211 -0.0687
vn -0.7998 -0.3726 -0.4707
vn -0.7998 -0.3726 -0.4707
vn -0.7998 -0.3726 -0.4707
vn -0.7967 -0.3789 -0.4709
vn -0.7967 -0.3789 -0.4709
vn -0.7967 -0.3789 -0.4709
vn -0.8963 0.3792 -0.2301
vn -0.8963 0.3792 -0.2301
vn -0.8963 0.3792 -0.2301
vn -0.8987 0.3716 -0.2329
vn -0.8987 0.3716 -0.2329
vn -0.8987 0.3716 -0.2329
vn -0.3746 0.904 -0.2062
vn -0.3746 0.904 -0.2062
vn -0.3746 0.904 -0.2062
vn -0.321 0.9207 -0.2217
vn -0.321 0.9207 -0.2217
vn -0.321 0.9207 -0.2217
vn 0.4317 0.8994 -0.0684
vn 0.4317 0.8994 -0.0684
vn 0.4317 0.8994 -0.0684
vn 0.3807 0.9175 -0.1151
vn 0.3807 0.9175 -0.1151
vn 0.3807 0.9175 -0.1151
vn 0.9186 0.3812 0.1039
vn 0.9186 0.3812 0.1039
vn 0.9186 0.3812 0.1039
vn 0.9241 0.369 0.0994
vn 0.9241 0.369 0.0994
vn 0.9241 0.369 0.0994
vn 0.8887 -0.3799 0.2567
vn 0.8887 -0.3799 0.2567
vn 0.8887 -0.3799 0.2567
vn 0.8914 -0.3699 0.2618
vn 0.8914 -0.3699 0.2618
vn 0.8914 -0.3699 0.2618
vn 0.3201 -0.9211 0.2216
vn 0.3201 -0.9211 0.2216
vn 0.3201 -0.9211 0.2216
vn 0.3701 -0.8918 0.2603
vn 0.3701 -0.8918 0.2603
vn 0.3701 -0.8918 0.2603
vn -0.424 -0.9044 0.0479
vn -0.424 -0.9044 0.0479
vn -0.424 -0.9044 0.0479
vn -0.3815 -0.9207 0.082
vn -0.3815 -0.9207 0.082
vn -0.3815 -0.9207 0.082
vn -0.9195 -0.3713 -0.1286
vn -0.9195 -0.3713 -0.1286
vn -0.9195 -0.3713 -0.1286
vn -0.9163 -0.3788 -0.1302
vn -0.9163 -0.3788 -0.1302
vn -0.9163 -0.3788 -0.1302
vn -0.9163 0.3788 0.1302
vn -0.9163 0.3788 0.1302
vn -0.9163 0.3788 0.1302
vn -0.9195 0.3713 0.1286
vn -0.9195 0.3713 0.1286
vn -0.9195 0.3713 0.1286
vn -0.424 0.9044 -0.0479
vn -0.424 0.9044 -0.0479
vn -0.424 0.9044 -0.0479
vn -0.3815 0.9207 -0.082
vn -0.3815 0.9207 -0.082
vn -0.3815 0.9207 -0.082
vn 0.3732 0.8992 -0.2284
vn 0.3732 0.8992 -0.2284
vn 0.3732 0.8992 -0.2284
vn 0.3057 0.9179 -0.2529
vn 0.3057 0.9179 -0.2529
vn 0.3057 0.9179 -0.2529
vn 0.8887 0.3799 -0.2567
vn 0.8887 0.3799 -0.2567
vn 0.8887 0.3799 -0.2567
vn 0.8914 0.3699 -0.2618
vn 0.8914 0.3699 -0.2618
vn 0.8914 0.3699 -0.2618
vn 0.9186 -0.3812 -0.1039
vn 0.9186 -0.3812 -0.1039
vn 0.9186 -0.3812 -0.1039
vn 0.9241 -0.369 -0.0994
vn 0.9241 -0.369 -0.0994
vn 0.9241 -0.369 -0.0994
vn 0.382 -0.9205 0.0819
vn 0.382 -0.9205 0.0819
vn 0.382 -0.9205 0.0819
vn 0.4407 -0.8923 0.0979
vn 0.4407 -0.8923 0.0979
vn 0.4407 -0.8923 0.0979
vn -0.3746 -0.904 0.2062
vn -0.3746 -0.904 0.2062
vn -0.3746 -0.904 0.2062
vn -0.321 -0.9207 0.2217
vn -0.321 -0.9207 0.2217
vn -0.321 -0.9207 0.2217
vn -0.8987 -0.3715 0.2329
vn -0.8987 -0.3715 0.2329
vn -0.8987 -0.3715 0.2329
vn -0.8963 -0.3792 0.2301
vn -0.8963 -0.3792 0.2301
vn -0.8963 -0.3792 0.2301
vn -0.7967 0.3789 0.4709
vn -0.7967 0.3789 0.4709
vn -0.7967 0.3789 0.4709
vn -0.7998 0.3726 0.4707
vn -0.7998 0.3726 0.4707
vn -0.7998 0.3726 0.4707
vn -0.4111 0.9037 0.1196
vn -0.4111 0.9037 0.1196
vn -0.4111 0.9037 0.1196
vn -0.3831 0.9211 0.0687
vn -0.3831 0.9211 0.0687
vn -0.3831 0.9211 0.0687
vn 0.2561 0.8997 -0.3534
vn 0.2561 0.8997 -0.3534
vn 0.2561 0.8997 -0.3534
vn 0.1872 0.9177 -0.3504
vn 0.1872 0.9177 -0.3504
vn 0.1872 0.9177 -0.3504
vn 0.723 0.3811 -0.5763
vn 0.723 0.3811 -0.5763
vn 0.723 0.3811 -0.5763
vn 0.7236 0.3688 -0.5834
vn 0.7236 0.3688 -0.5834
vn 0.7236 0.3688 -0.5834
vn 0.8095 -0.3805 -0.447
vn 0.8095 -0.3805 -0.447
vn 0.8095 -0.3805 -0.447
vn 0.8158 -0.3692 -0.4451
vn 0.8158 -0.3692 -0.4451
vn 0.8158 -0.3692 -0.4451
vn 0.3842 -0.9206 -0.0696
vn 0.3842 -0.9206 -0.0696
vn 0.3842 -0.9206 -0.0696
vn 0.4439 -0.8927 -0.0771
vn 0.4439 -0.8927 -0.0771
vn 0.4439 -0.8927 -0.0771
vn -0.267 -0.904 0.3339
vn -0.267 -0.904 0.3339
vn -0.267 -0.904 0.3339
vn -0.2111 -0.9209 0.3277
vn -0.2111 -0.9209 0.3277
vn -0.2111 -0.9209 0.3277
vn -0.7408 -0.3721 0.5592
vn -0.7408 -0.3721 0.5592
vn -0.7408 -0.3721 0.5592
vn -0.7396 -0.3794 0.5559
vn -0.7396 -0.3794 0.5559
vn -0.7396 -0.3794 0.5559
vn -0.5557 0.3799 0.7395
vn -0.5557 0.3799 0.7395
vn -0.5557 0.3799 0.7395
vn -0.5595 0.3716 0.7409
vn -0.5595 0.3716 0.7409
vn -0.5595 0.3716 0.7409
vn -0.3337 0.9044 0.2657
vn -0.3337 0.9044 0.2657
vn -0.3337 0.9044 0.2657
vn -0.3279 0.9205 0.2126
vn -0.3279 0.9205 0.2126
vn -0.3279 0.9205 0.2126
vn 0.1019 0.8994 -0.4251
vn 0.1019 0.8994 -0.4251
vn 0.1019 0.8994 -0.4251
vn 0.0372 0.918 -0.3949
vn 0.0372 0.918 -0.3949
vn 0.0372 0.918 -0.3949
vn 0.447 0.3801 -0.8098
vn 0.447 0.3801 -0.8098
vn 0.447 0.3801 -0.8098
vn 0.4452 0.3698 -0.8155
vn 0.4452 0.3698 -0.8155
vn 0.4452 0.3698 -0.8155
vn 0.5766 -0.3806 -0.723
vn 0.5766 -0.3806 -0.723
vn 0.5766 -0.3806 -0.723
vn 0.5831 -0.3694 -0.7236
vn 0.5831 -0.3694 -0.7236
vn 0.5831 -0.3694 -0.7236
vn 0.3268 -0.9212 -0.2109
vn 0.3268 -0.9212 -0.2109
vn 0.3268 -0.9212 -0.2109
vn 0.3818 -0.8919 -0.2423
vn 0.3818 -0.8919 -0.2423
vn 0.3818 -0.8919 -0.2423
vn -0.1184 -0.9041 0.4105
vn -0.1184 -0.9041 0.4105
vn -0.1184 -0.9041 0.4105
vn -0.0701 -0.9207 0.3839
vn -0.0701 -0.9207 0.3839
vn -0.0701 -0.9207 0.3839
vn -0.4707 -0.3721 0.8
vn -0.4707 -0.3721 0.8
vn -0.4707 -0.3721 0.8
vn -0.4709 -0.3794 0.7965
vn -0.4709 -0.3794 0.7965
vn -0.4709 -0.3794 0.7965
vn -0.2303 0.3787 0.8964
vn -0.2303 0.3787 0.8964
vn -0.2303 0.3787 0.8964
vn -0.2329 0.3716 0.8987
vn -0.2329 0.3716 0.8987
vn -0.2329 0.3716 0.8987
vn -0.2062 0.904 0.3746
vn -0.2062 0.904 0.3746
vn -0.2062 0.904 0.3746
vn -0.2221 0.9212 0.3195
vn -0.2221 0.9212 0.3195
vn -0.2221 0.9212 0.3195
vn -0.0693 0.8998 -0.4307
vn -0.0693 0.8998 -0.4307
vn -0.0693 0.8998 -0.4307
vn -0.1151 0.9175 -0.3807
vn -0.1151 0.9175 -0.3807
vn -0.1151 0.9175 -0.3807
vn 0.1039 0.3812 -0.9186
vn 0.1039 0.3812 -0.9186
vn 0.1039 0.3812 -0.9186
vn 0.0992 0.3685 -0.9243
vn 0.0992 0.3685 -0.9243
vn 0.0992 0.3685 -0.9243
vn 0.2565 -0.3804 -0.8885
vn 0.2565 -0.3804 -0.8885
vn 0.2565 -0.3804 -0.8885
vn 0.2621 -0.3694 -0.8915
vn 0.2621 -0.3694 -0.8915
vn 0.2621 -0.3694 -0.8915
vn 0.2224 -0.9206 -0.3211
vn 0.2224 -0.9206 -0.3211
vn 0.2224 -0.9206 -0.3211
vn 0.2594 -0.8925 -0.369
vn 0.2594 -0.8925 -0.369
vn 0.2594 -0.8925 -0.369
vn 0.0471 -0.904 0.425
vn 0.0471 -0.904 0.425
vn 0.0471 -0.904 0.425
vn 0.083 -0.9212 0.3802
vn 0.083 -0.9212 0.3802
vn 0.083 -0.9212 0.3802
vn -0.1287 -0.3719 0.9193
vn -0.1287 -0.3719 0.9193
vn -0.1287 -0.3719 0.9193
vn -0.1301 -0.3783 0.9165
vn -0.1301 -0.3783 0.9165
vn -0.1301 -0.3783 0.9165
vn 0.1302 0.3788 0.9163
vn 0.1302 0.3788 0.9163
vn 0.1302 0.3788 0.9163
vn 0.1287 0.3719 0.9193
vn 0.1287 0.3719 0.9193
vn 0.1287 0.3719 0.9193
vn -0.0471 0.9039 0.425
vn -0.0471 0.9039 0.425
vn -0.0471 0.9039 0.425
vn -0.082 0.9207 0.3815
vn -0.082 0.9207 0.3815
vn -0.082 0.9207 0.3815
vn -0.2284 0.8992 -0.3732
vn -0.2284 0.8992 -0.3732
vn -0.2284 0.8992 -0.3732
vn -0.2524 0.9175 -0.3073
vn -0.2524 0.9175 -0.3073
vn -0.2524 0.9175 -0.3073
vn -0.2565 0.3804 -0.8885
vn -0.2565 0.3804 -0.8885
vn -0.2565 0.3804 -0.8885
vn -0.2618 0.3699 -0.8914
vn -0.2618 0.3699 -0.8914
vn -0.2618 0.3699 -0.8914
vn -0.1037 -0.3807 -0.9189
vn -0.1037 -0.3807 -0.9189
vn -0.1037 -0.3807 -0.9189
vn -0.0994 -0.369 -0.9241
vn -0.0994 -0.369 -0.9241
vn -0.0994 -0.369 -0.9241
vn 0.0822 -0.921 -0.3808
vn 0.0822 -0.921 -0.3808
vn 0.0822 -0.921 -0.3808
vn 0.0986 -0.8921 -0.4409
vn 0.0986 -0.8921 -0.4409
vn 0.0986 -0.8921 -0.4409
vn 0.2065 -0.9044 0.3733
vn 0.2065 -0.9044 0.3733
vn 0.2065 -0.9044 0.3733
vn 0.2217 -0.9207 0.321
vn 0.2217 -0.9207 0.321
vn 0.2217 -0.9207 0.321
vn 0.2331 -0.371 0.8989
vn 0.2331 -0.371 0.8989
vn 0.2331 -0.371 0.8989
vn 0.2301 -0.3792 0.8963
vn 0.2301 -0.3792 0.8963
vn 0.2301 -0.3792 0.8963
vn 0.4522 0.3803 0.8067
vn 0.4522 0.3803 0.8067
vn 0.4522 0.3803 0.8067
vn 0.4524 0.3706 0.8112
vn 0.4524 0.3706 0.8112
vn 0.4524 0.3706 0.8112
vn 0.0802 0.8925 0.4438
vn 0.0802 0.8925 0.4438
vn 0.0802 0.8925 0.4438
vn 0.0101 0.9139 0.4058
vn 0.0101 0.9139 0.4058
vn 0.0101 0.9139 0.4058
vn -0.4055 0.8849 -0.2294
vn -0.4055 0.8849 -0.2294
vn -0.4055 0.8849 -0.2294
vn -0.4012 0.9067 -0.13
vn -0.4012 0.9067 -0.13
vn -0.4012 0.9067 -0.13
vn -0.6011 0.3822 -0.7018
vn -0.6011 0.3822 -0.7018
vn -0.6011 0.3822 -0.7018
vn -0.6093 0.3658 -0.7035
vn -0.6093 0.3658 -0.7035
vn -0.6093 0.3658 -0.7035
vn -0.4181 -0.3816 -0.8244
vn -0.4181 -0.3816 -0.8244
vn -0.4181 -0.3816 -0.8244
vn -0.4166 -0.3662 -0.8321
vn -0.4166 -0.3662 -0.8321
vn -0.4166 -0.3662 -0.8321
vn -0.0101 -0.9139 -0.4058
vn -0.0101 -0.9139 -0.4058
vn -0.0101 -0.9139 -0.4058
vn -0.0233 -0.8726 -0.488
vn -0.0233 -0.8726 -0.488
vn -0.0233 -0.8726 -0.488
vn 0.3792 -0.8928 0.2432
vn 0.3792 -0.8928 0.2432
vn 0.3792 -0.8928 0.2432
vn 0.3711 -0.9137 0.1655
vn 0.3711 -0.9137 0.1655
vn 0.3711 -0.9137 0.1655
vn 0.5767 -0.3701 0.7283
vn 0.5767 -0.3701 0.7283
vn 0.5767 -0.3701 0.7283
vn 0.5723 -0.3809 0.7262
vn 0.5723 -0.3809 0.7262
vn 0.5723 -0.3809 0.7262
vn 0.7523 0.3787 0.539
vn 0.7523 0.3787 0.539
vn 0.7523 0.3787 0.539
vn 0.753 0.374 0.5415
vn 0.753 0.374 0.5415
vn 0.753 0.374 0.5415
vn 0.2904 0.9128 0.2871
vn 0.2904 0.9128 0.2871
vn 0.2904 0.9128 0.2871
vn 0.2589 0.9234 0.2833
vn 0.2589 0.9234 0.2833
vn 0.2589 0.9234 0.2833
vn -0.3854 0.9108 -0.1482
vn -0.3854 0.9108 -0.1482
vn -0.3854 0.9108 -0.1482
vn -0.368 0.9231 -0.1114
vn -0.368 0.9231 -0.1114
vn -0.368 0.9231 -0.1114
vn -0.7941 0.3791 -0.4751
vn -0.7941 0.3791 -0.4751
vn -0.7941 0.3791 -0.4751
vn -0.7979 0.3729 -0.4736
vn -0.7979 0.3729 -0.4736
vn -0.7979 0.3729 -0.4736
vn -0.7432 -0.3796 -0.551
vn -0.7432 -0.3796 -0.551
vn -0.7432 -0.3796 -0.551
vn -0.7433 -0.372 -0.556
vn -0.7433 -0.372 -0.556
vn -0.7433 -0.372 -0.556
vn -0.2583 -0.9237 -0.2829
vn -0.2583 -0.9237 -0.2829
vn -0.2583 -0.9237 -0.2829
vn -0.2756 -0.9081 -0.3152
vn -0.2756 -0.9081 -0.3152
vn -0.2756 -0.9081 -0.3152
vn 0.3764 -0.9126 0.1594
vn 0.3764 -0.9126 0.1594
vn 0.3764 -0.9126 0.1594
vn 0.3594 -0.9242 0.1292
vn 0.3594 -0.9242 0.1292
vn 0.3594 -0.9242 0.1292
vn 0.7879 -0.3745 0.4889
vn 0.7879 -0.3745 0.4889
vn 0.7879 -0.3745 0.4889
vn 0.7862 -0.3777 0.4891
vn 0.7862 -0.3777 0.4891
vn 0.7862 -0.3777 0.4891
vn 0.8963 0.3792 0.2301
vn 0.8963 0.3792 0.2301
vn 0.8963 0.3792 0.2301
vn 0.8989 0.371 0.2331
vn 0.8989 0.371 0.2331
vn 0.8989 0.371 0.2331
vn 0.3733 0.9044 0.2065
vn 0.3733 0.9044 0.2065
vn 0.3733 0.9044 0.2065
vn 0.321 0.9207 0.2217
vn 0.321 0.9207 0.2217
vn 0.321 0.9207 0.2217
vn -0.4317 0.8994 0.0684
vn -0.4317 0.8994 0.0684
vn -0.4317 0.8994 0.0684
vn -0.3795 0.9179 0.1162
vn -0.3795 0.9179 0.1162
vn -0.3795 0.9179 0.1162
vn -0.9189 0.3807 -0.1037
vn -0.9189 0.3807 -0.1037
vn -0.9189 0.3807 -0.1037
vn -0.9241 0.369 -0.0994
vn -0.9241 0.369 -0.0994
vn -0.9241 0.369 -0.0994
vn -0.8887 -0.3799 -0.2567
vn -0.8887 -0.3799 -0.2567
vn -0.8887 -0.3799 -0.2567
vn -0.8914 -0.3699 -0.2618
vn -0.8914 -0.3699 -0.2618
vn -0.8914 -0.3699 -0.2618
vn -0.3201 -0.9211 -0.2216
vn -0.3201 -0.9211 -0.2216
vn -0.3201 -0.9211 -0.2216
vn -0.3701 -0.8918 -0.2603
vn -0.3701 -0.8918 -0.2603
vn -0.3701 -0.8918 -0.2603
vn 0.424 -0.9044 -0.0479
vn 0.424 -0.9044 -0.0479
vn 0.424 -0.9044 -0.0479
vn 0.3815 -0.9207 -0.082
vn 0.3815 -0.9207 -0.082
vn 0.3815 -0.9207 -0.082
vn 0.9195 -0.3713 0.1286
vn 0.9195 -0.3713 0.1286
vn 0.9195 -0.3713 0.1286
vn 0.9163 -0.3788 0.1302
vn 0.9163 -0.3788 0.1302
vn 0.9163 -0.3788 0.1302
vn -0.1029 0.3814 0.9187
vn -0.1029 0.3814 0.9187
vn -0.1029 0.3814 0.9187
vn -0.098 0.3684 0.9245
vn -0.098 0.3684 0.9245
vn -0.098 0.3684 0.9245
vn -0.2577 -0.3805 0.8882
vn -0.2577 -0.3805 0.8882
vn -0.2577 -0.3805 0.8882
vn -0.2633 -0.3696 0.8911
vn -0.2633 -0.3696 0.8911
vn -0.2633 -0.3696 0.8911
vn -0.2309 -0.8995 0.371
vn -0.2309 -0.8995 0.371
vn -0.2309 -0.8995 0.371
vn -0.2548 -0.9172 0.3062
vn -0.2548 -0.9172 0.3062
vn -0.2548 -0.9172 0.3062
vn -0.0489 -0.9036 -0.4256
vn -0.0489 -0.9036 -0.4256
vn -0.0489 -0.9036 -0.4256
vn -0.0851 -0.9206 -0.381
vn -0.0851 -0.9206 -0.381
vn -0.0851 -0.9206 -0.381
vn 0.1292 -0.3787 -0.9165
vn 0.1292 -0.3787 -0.9165
vn 0.1292 -0.3787 -0.9165
vn 0.1277 -0.3718 -0.9195
vn 0.1277 -0.3718 -0.9195
vn 0.1277 -0.3718 -0.9195
vn 0.2334 0.3721 -0.8984
vn 0.2334 0.3721 -0.8984
vn 0.2334 0.3721 -0.8984
vn 0.231 0.3787 -0.8962
vn 0.231 0.3787 -0.8962
vn 0.231 0.3787 -0.8962
vn 0.2016 0.9227 -0.3287
vn 0.2016 0.9227 -0.3287
vn 0.2016 0.9227 -0.3287
vn 0.231 0.899 -0.372
vn 0.231 0.899 -0.372
vn 0.231 0.899 -0.372
vn 0.0846 0.9199 0.3829
vn 0.0846 0.9199 0.3829
vn 0.0846 0.9199 0.3829
vn 0.1005 0.8922 0.4402
vn 0.1005 0.8922 0.4402
vn 0.1005 0.8922 0.4402
vn -1.0 0.0 -0.0075
vn -1.0 0.0 -0.0075
vn -1.0 0.0 -0.0075
vn -1.0 0.0 -0.0047
vn -1.0 0.0 -0.0047
vn -1.0 0.0 -0.0047
vn -1.0 0.0006 -0.006
vn -1.0 0.0006 -0.006
vn -1.0 0.0006 -0.006
vn -1.0 -0.0005 -0.005
vn -1.0 -0.0005 -0.005
vn -1.0 -0.0005 -0.005
vn -1.0 0.0007 -0.0055
vn -1.0 0.0007 -0.0055
vn -1.0 0.0007 -0.0055
vn -1.0 -0.0019 -0.0055
vn -1.0 -0.0019 -0.0055
vn -1.0 -0.0019 -0.0055
vn 1.0 0.0 0.0
vn 1.0 0.0 0.0
vn 1.0 0.0 0.0
vn 1.0 0.0 0.0
vn 1.0 0.0 0.0
vn 1.0 0.0 0.0
vn 1.0 0.0 0.0
vn 1.0 0.0 0.0
vn 1.0 0.0 0.0
vn 1.0 0.0 0.0
vn 1.0 0.0 0.0
vn 1.0 0.0 0.0
vn 1.0 0.0 0.0
vn 1.0 0.0 0.0
vn 1.0 0.0 0.0
vn 1.0 0.0 0.0
vn 1.0 0.0 0.0
vn 1.0 0.0 0.0
vn 0.9244 -0.0013 0.3813
vn 0.9244 -0.0013 0.3813
vn 0.9244 -0.0013 0.3813
vn 0.9237 0.0005 0.383
vn 0.9237 0.0005 0.383
vn 0.9237 0.0005 0.383
vn 0.9237 0.0006 0.383
vn 0.9237 0.0006 0.383
vn 0.9237 0.0006 0.383
vn 0.9237 -0.0006 0.383
vn 0.9237 -0.0006 0.383
vn 0.9237 -0.0006 0.383
vn 0.9237 -0.0005 0.383
vn 0.9237 -0.0005 0.383
vn 0.9237 -0.0005 0.383
vn 0.9244 0.0014 0.3813
vn 0.9244 0.0014 0.3813
vn 0.9244 0.0014 0.3813
f 9/1/1 1/2/2 2/3/3
f 10/4/4 9/5/5 2/6/6
f 9/7/7 10/8/8 18/9/9
f 9/10/10 18/11/11 17/12/12
f 25/13/13 17/14/14 18/15/15
f 25/16/16 18/17/17 26/18/18
f 25/19/19 26/20/20 34/21/21
f 25/22/22 34/23/23 33/24/24
f 42/25/25 41/26/26 33/27/27
f 42/28/28 33/29/29 34/30/30
f 50/31/31 49/32/32 41/33/33
f 50/34/34 41/35/35 42/36/36
f 58/37/37 57/38/38 49/39/39
f 49/40/40 50/41/41 58/42/42
f 1/43/43 57/44/44 58/45/45
f 2/46/46 1/47/47 58/48/48
f 10/49/49 2/50/50 3/51/51
f 11/52/52 10/53/53 3/54/54
f 10/55/55 11/56/56 19/57/57
f 10/58/58 19/59/59 18/60/60
f 26/61/61 18/62/62 19/63/63
f 26/64/64 19/65/65 27/66/66
f 26/67/67 27/68/68 35/69/69
f 26/70/70 35/71/71 34/72/72
f 43/73/73 42/74/74 34/75/75
f 43/76/76 34/77/77 35/78/78
f 51/79/79 50/80/80 42/81/81
f 51/82/82 42/83/83 43/84/84
f 59/85/85 58/86/86 50/87/87
f 50/88/88 51/89/89 59/90/90
f 2/91/91 58/92/92 59/93/93
f 3/94/94 2/95/95 59/96/96
f 11/97/97 3/98/98 4/99/99
f 12/100/100 11/101/101 4/102/102
f 11/103/103 12/104/104 20/105/105
f 11/106/106 20/107/107 19/108/108
f 27/109/109 19/110/110 20/111/111
f 27/112/112 20/113/113 28/114/114
f 27/115/115 28/116/116 36/117/117
f 27/118/118 36/119/119 35/120/120
f 44/121/121 43/122/122 35/123/123
f 44/124/124 35/125/125 36/126/126
f 52/127/127 51/128/128 43/129/129
f 52/130/130 43/131/131 44/132/132
f 60/133/133 59/134/134 51/135/135
f 51/136/136 52/137/137 60/138/138
f 3/139/139 59/140/140 60/141/141
f 4/142/142 3/143/143 60/144/144
f 12/145/145 4/146/146 5/147/147
f 13/148/148 12/149/149 5/150/150
f 12/151/151 13/152/152 21/153/153
f 12/154/154 21/155/155 20/156/156
f 28/157/157 20/158/158 21/159/159
f 28/160/160 21/161/161 29/162/162
f 28/163/163 29/164/164 37/165/165
f 28/166/166 37/167/167 36/168/168
f 45/169/169 44/170/170 36/171/171
f 45/172/172 36/173/173 37/174/174
f 53/175/175 52/176/176 44/177/177
f 53/178/178 44/179/179 45/180/180
f 61/181/181 60/182/182 52/183/183
f 52/184/184 53/185/185 61/186/186
f 4/187/187 60/188/188 61/189/189
f 5/190/190 4/191/191 61/192/192
f 13/193/193 5/194/194 6/195/195
f 14/196/196 13/197/197 6/198/198
f 13/199/199 14/200/200 22/201/201
f 13/202/202 22/203/203 21/204/204
f 29/205/205 21/206/206 22/207/207
f 29/208/208 22/209/209 30/210/210
f 29/211/211 30/212/212 38/213/213
f 29/214/214 38/215/215 37/216/216
f 46/217/217 45/218/218 37/219/219
f 46/220/220 37/221/221 38/222/222
f 54/223/223 53/224/224 45/225/225
f 54/226/226 45/227/227 46/228/228
f 62/229/229 61/230/230 53/231/231
f 53/232/232 54/233/233 62/234/234
f 5/235/235 61/236/236 62/237/237
f 6/238/238 5/239/239 62/240/240
f 14/241/241 6/242/242 7/243/243
f 15/244/244 14/245/245 7/246/246
f 14/247/247 15/248/248 23/249/249
f 14/250/250 23/251/251 22/252/252
f 30/253/253 22/254/254 23/255/255
f 30/256/256 23/257/257 31/258/258
f 30/259/259 31/260/260 39/261/261
f 30/262/262 39/263/263 38/264/264
f 47/265/265 46/266/266 38/267/267
f 47/268/268 38/269/269 39/270/270
f 55/271/271 54/272/272 46/273/273
f 55/274/274 46/275/275 47/276/276
f 63/277/277 62/278/278 54/279/279
f 54/280/280 55/281/281 63/282/282
f 6/283/283 62/284/284 63/285/285
f 7/286/286 6/287/287 63/288/288
f 15/289/289 7/290/290 8/291/291
f 16/292/292 15/293/293 8/294/294
f 15/295/295 16/296/296 24/297/297
f 15/298/298 24/299/299 23/300/300
f 31/301/301 23/302/302 24/303/303
f 31/304/304 24/305/305 32/306/306
f 31/307/307 32/308/308 40/309/309
f 31/310/310 40/311/311 39/312/312
f 48/313/313 47/314/314 39/315/315
f 48/316/316 39/317/317 40/318/318
f 56/319/319 55/320/320 47/321/321
f 56/322/322 47/323/323 48/324/324
f 64/325/325 63/326/326 55/327/327
f 55/328/328 56/329/329 64/330/330
f 7/331/331 63/332/332 64/333/333
f 8/334/334 7/335/335 64/336/336
f 41/337/337 49/338/338 57/339/339
f 33/340/340 41/341/341 57/342/342
f 25/343/343 33/344/344 57/345/345
f 17/346/346 25/347/347 57/348/348
f 9/349/349 17/350/350 57/351/351
f 57/352/352 1/353/353 9/354/354
f 81/355/355 65/356/356 66/357/357
f 82/358/358 81/359/359 66/360/360
f 81/361/361 82/362/362 98/363/363
f 81/364/364 98/365/365 97/366/366
f 113/367/367 97/368/368 98/369/369
f 113/370/370 98/371/371 114/372/372
f 113/373/373 114/374/374 130/375/375
f 113/376/376 130/377/377 129/378/378
f 146/379/379 145/380/380 129/381/381
f 146/382/382 129/383/383 130/384/384
f 162/385/385 161/386/386 145/387/387
f 162/388/388 145/389/389 146/390/390
f 178/391/391 177/392/392 161/393/393
f 161/394/394 162/395/395 178/396/396
f 65/397/397 177/398/398 178/399/399
f 66/400/400 65/401/401 178/402/402
f 82/403/403 66/404/404 67/405/405
f 83/406/406 82/407/407 67/408/408
f 82/409/409 83/410/410 99/411/411
f 82/412/412 99/413/413 98/414/414
f 114/415/415 98/416/416 99/417/417
f 114/418/418 99/419/419 115/420/420
f 114/421/421 115/422/422 131/423/423
f 114/424/424 131/425/425 130/426/426
f 147/427/427 146/428/428 130/429/429
f 147/430/430 130/431/431 131/432/432
f 163/433/433 162/434/434 146/435/435
f 163/436/436 146/437/437 147/438/438
f 179/439/439 178/440/440 162/441/441
f 162/442/442 163/443/443 179/444/444
f 66/445/445 178/446/446 179/447/447
f 67/448/448 66/449/449 179/450/450
f 83/451/451 67/452/452 68/453/453
f 84/454/454 83/455/455 68/456/456
f 83/457/457 84/458/458 100/459/459
f 83/460/460 100/461/461 99/462/462
f 115/463/463 99/464/464 100/465/465
f 115/466/466 100/467/467 116/468/468
f 115/469/469 116/470/470 132/471/471
f 115/472/472 132/473/473 131/474/474
f 148/475/475 147/476/476 131/477/477
f 148/478/478 131/479/479 132/480/480
f 164/481/481 163/482/482 147/483/483
f 164/484/484 147/485/485 148/486/486
f 180/487/487 179/488/488 163/489/489
f 163/490/490 164/491/491 180/492/492
f 67/493/493 179/494/494 180/495/495
f 68/496/496 67/497/497 180/498/498
f 85/499/499 69/500/500 70/501/501
f 86/502/502 85/503/503 70/504/504
f 85/505/505 86/506/506 102/507/507
f 85/508/508 102/509/509 101/510/510
f 117/511/511 101/512/512 102/513/513
f 117/514/514 102/515/515 118/516/516
f 117/517/517 118/518/518 134/519/519
f 117/520/520 134/521/521 133/522/522
f 150/523/523 149/524/524 133/525/525
f 150/526/526 133/527/527 134/528/528
f 166/529/529 165/530/530 149/531/531
f 166/532/532 149/533/533 150/534/534
f 182/535/535 181/536/536 165/537/537
f 165/538/538 166/539/539 182/540/540
f 69/541/541 181/542/542 182/543/543
f 70/544/544 69/545/545 182/546/546
f 86/547/547 70/548/548 71/549/549
f 87/550/550 86/551/551 71/552/552
f 86/553/553 87/554/554 103/555/555
f 86/556/556 103/557/557 102/558/558
f 118/559/559 102/560/560 103/561/561
f 118/562/562 103/563/563 119/564/564
f 118/565/565 119/566/566 135/567/567
f 118/568/568 135/569/569 134/570/570
f 151/571/571 150/572/572 134/573/573
f 151/574/574 134/575/575 135/576/576
f 167/577/577 166/578/578 150/579/579
f 167/580/580 150/581/581 151/582/582
f 183/583/583 182/584/584 166/585/585
f 166/586/586 167/587/587 183/588/588
f 70/589/589 182/590/590 183/591/591
f 71/592/592 70/593/593 183/594/594
f 87/595/595 71/596/596 72/597/597
f 88/598/598 87/599/599 72/600/600
f 87/601/601 88/602/602 104/603/603
f 87/604/604 104/605/605 103/606/606
f 119/607/607 103/608/608 104/609/609
f 119/610/610 104/611/611 120/612/612
f 119/613/613 120/614/614 136/615/615
f 119/616/616 136/617/617 135/618/618
f 152/619/619 151/620/620 135/621/621
f 152/622/622 135/623/623 136/624/624
f 168/625/625 167/626/626 151/627/627
f 168/628/628 151/629/629 152/630/630
f 184/631/631 183/632/632 167/633/633
f 167/634/634 168/635/635 184/636/636
f 71/637/637 183/638/638 184/639/639
f 72/640/640 71/641/641 184/642/642
f 88/643/643 72/644/644 73/645/645
f 89/646/646 88/647/647 73/648/648
f 88/649/649 89/650/650 105/651/651
f 88/652/652 105/653/653 104/654/654
f 120/655/655 104/656/656 105/657/657
f 120/658/658 105/659/659 121/660/660
f 120/661/661 121/662/662 137/663/663
f 120/664/664 137/665/665 136/666/666
f 153/667/667 152/668/668 136/669/669
f 153/670/670 136/671/671 137/672/672
f 169/673/673 168/674/674 152/675/675
f 169/676/676 152/677/677 153/678/678
f 185/679/679 184/680/680 168/681/681
f 168/682/682 169/683/683 185/684/684
f 72/685/685 184/686/686 185/687/687
f 73/688/688 72/689/689 185/690/690
f 89/691/691 73/692/692 74/693/693
f 90/694/694 89/695/695 74/696/696
f 89/697/697 90/698/698 106/699/699
f 89/700/700 106/701/701 105/702/702
f 121/703/703 105/704/704 106/705/705
f 121/706/706 106/707/707 122/708/708
f 121/709/709 122/710/710 138/711/711
f 121/712/712 138/713/713 137/714/714
f 154/715/715 153/716/716 137/717/717
f 154/718/718 137/719/719 138/720/720
f 170/721/721 169/722/722 153/723/723
f 170/724/724 153/725/725 154/726/726
f 186/727/727 185/728/728 169/729/729
f 169/730/730 170/731/731 186/732/732
f 73/733/733 185/734/734 186/735/735
f 74/736/736 73/737/737 186/738/738
f 90/739/739 74/740/740 75/741/741
f 91/742/742 90/743/743 75/744/744
f 90/745/745 91/746/746 107/747/747
f 90/748/748 107/749/749 106/750/750
f 122/751/751 106/752/752 107/753/753
f 122/754/754 107/755/755 123/756/756
f 122/757/757 123/758/758 139/759/759
f 122/760/760 139/761/761 138/762/762
f 155/763/763 154/764/764 138/765/765
f 155/766/766 138/767/767 139/768/768
f 171/769/769 170/770/770 154/771/771
f 171/772/772 154/773/773 155/774/774
f 187/775/775 186/776/776 170/777/777
f 170/778/778 171/779/779 187/780/780
f 74/781/781 186/782/782 187/783/783
f 75/784/784 74/785/785 187/786/786
f 91/787/787 75/788/788 76/789/789
f 92/790/790 91/791/791 76/792/792
f 91/793/793 92/794/794 108/795/795
f 91/796/796 108/797/797 107/798/798
f 123/799/799 107/800/800 108/801/801
f 123/802/802 108/803/803 124/804/804
f 123/805/805 124/806/806 140/807/807
f 123/808/808 140/809/809 139/810/810
f 156/811/811 155/812/812 139/813/813
f 156/814/814 139/815/815 140/816/816
f 172/817/817 171/818/818 155/819/819
f 172/820/820 155/821/821 156/822/822
f 188/823/823 187/824/824 171/825/825
f 171/826/826 172/827/827 188/828/828
f 75/829/829 187/830/830 188/831/831
f 76/832/832 75/833/833 188/834/834
f 92/835/835 76/836/836 77/837/837
f 93/838/838 92/839/839 77/840/840
f 92/841/841 93/842/842 109/843/843
f 92/844/844 109/845/845 108/846/846
f 124/847/847 108/848/848 109/849/849
f 124/850/850 109/851/851 125/852/852
f 124/853/853 125/854/854 141/855/855
f 124/856/856 141/857/857 140/858/858
f 157/859/859 156/860/860 140/861/861
f 157/862/862 140/863/863 141/864/864
f 173/865/865 172/866/866 156/867/867
f 173/868/868 156/869/869 157/870/870
f 189/871/871 188/872/872 172/873/873
f 172/874/874 173/875/875 189/876/876
f 76/877/877 188/878/878 189/879/879
f 77/880/880 76/881/881 189/882/882
f 93/883/883 77/884/884 78/885/885
f 94/886/886 93/887/887 78/888/888
f 93/889/889 94/890/890 110/891/891
f 93/892/892 110/893/893 109/894/894
f 125/895/895 109/896/896 110/897/897
f 125/898/898 110/899/899 126/900/900
f 125/901/901 126/902/902 142/903/903
f 125/904/904 142/905/905 141/906/906
f 158/907/907 157/908/908 141/909/909
f 158/910/910 141/911/911 142/912/912
f 174/913/913 173/914/914 157/915/915
f 174/916/916 157/917/917 158/918/918
f 190/919/919 189/920/920 173/921/921
f 173/922/922 174/923/923 190/924/924
f 77/925/925 189/926/926 190/927/927
f 78/928/928 77/929/929 190/930/930
f 94/931/931 78/932/932 79/933/933
f 95/934/934 94/935/935 79/936/936
f 94/937/937 95/938/938 111/939/939
f 94/940/940 111/941/941 110/942/942
f 126/943/943 110/944/944 111/945/945
f 126/946/946 111/947/947 127/948/948
f 126/949/949 127/950/950 143/951/951
f 126/952/952 143/953/953 142/954/954
f 159/955/955 158/956/956 142/957/957
f 159/958/958 142/959/959 143/960/960
f 175/961/961 174/962/962 158/963/963
f 175/964/964 158/965/965 159/966/966
f 191/967/967 190/968/968 174/969/969
f 174/970/970 175/971/971 191/972/972
f 78/973/973 190/974/974 191/975/975
f 79/976/976 78/977/977 191/978/978
f 95/979/979 79/980/980 80/981/981
f 96/982/982 95/983/983 80/984/984
f 95/985/985 96/986/986 112/987/987
f 95/988/988 112/989/989 111/990/990
f 127/991/991 111/992/992 112/993/993
f 127/994/994 112/995/995 128/996/996
f 127/997/997 128/998/998 144/999/999
f 127/1000/1000 144/1001/1001 143/1002/1002
f 160/1003/1003 159/1004/1004 143/1005/1005
f 160/1006/1006 143/1007/1007 144/1008/1008
f 176/1009/1009 175/1010/1010 159/1011/1011
f 176/1012/1012 159/1013/1013 160/1014/1014
f 192/1015/1015 191/1016/1016 175/1017/1017
f 175/1018/1018 176/1019/1019 192/1020/1020
f 79/1021/1021 191/1022/1022 192/1023/1023
f 80/1024/1024 79/1025/1025 192/1026/1026
f 96/1027/1027 80/1028/1028 65/1029/1029
f 81/1030/1030 96/1031/1031 65/1032/1032
f 96/1033/1033 81/1034/1034 97/1035/1035
f 96/1036/1036 97/1037/1037 112/1038/1038
f 128/1039/1039 112/1040/1040 97/1041/1041
f 128/1042/1042 97/1043/1043 113/1044/1044
f 128/1045/1045 113/1046/1046 129/1047/1047
f 128/1048/1048 129/1049/1049 144/1050/1050
f 145/1051/1051 160/1052/1052 144/1053/1053
f 145/1054/1054 144/1055/1055 129/1056/1056
f 161/1057/1057 176/1058/1058 160/1059/1059
f 161/1060/1060 160/1061/1061 145/1062/1062
f 177/1063/1063 192/1064/1064 176/1065/1065
f 176/1066/1066 161/1067/1067 177/1068/1068
f 80/1069/1069 192/1070/1070 177/1071/1071
f 65/1072/1072 80/1073/1073 177/1074/1074
f 116/1075/1075 193/1076/1076 194/1077/1077
f 116/1078/1078 194/1079/1079 132/1080/1080
f 195/1081/1081 148/1082/1082 132/1083/1083
f 195/1084/1084 132/1085/1085 194/1086/1086
f 195/1087/1087 196/1088/1088 164/1089/1089
f 195/1090/1090 164/1091/1091 148/1092/1092
f 197/1093/1093 180/1094/1094 164/1095/1095
f 197/1096/1096 164/1097/1097 196/1098/1098
f 197/1099/1099 198/1100/1100 68/1101/1101
f 180/1102/1102 197/1103/1103 68/1104/1104
f 198/1105/1105 199/1106/1106 84/1107/1107
f 68/1108/1108 198/1109/1109 84/1110/1110
f 100/1111/1111 84/1112/1112 199/1113/1113
f 200/1114/1114 100/1115/1115 199/1116/1116
f 100/1117/1117 200/1118/1118 193/1119/1119
f 100/1120/1120 193/1121/1121 116/1122/1122
f 199/1123/1123 198/1124/1124 197/1125/1125
f 200/1126/1126 199/1127/1127 197/1128/1128
f 193/1129/1129 200/1130/1130 197/1131/1131
f 194/1132/1132 193/1133/1133 197/1134/1134
f 195/1135/1135 194/1136/1136 197/1137/1137
f 197/1138/1138 196/1139/1139 195/1140/1140
f 149/1141/1141 165/1142/1142 181/1143/1143
f 133/1144/1144 149/1145/1145 181/1146/1146
f 117/1147/1147 133/1148/1148 181/1149/1149
f 101/1150/1150 117/1151/1151 181/1152/1152
f 85/1153/1153 101/1154/1154 181/1155/1155
f 181/1156/1156 69/1157/1157 85/1158/1158
f 56/1159/1159 48/1160/1160 40/1161/1161
f 64/1162/1162 56/1163/1163 40/1164/1164
f 8/1165/1165 64/1166/1166 40/1167/1167
f 16/1168/1168 8/1169/1169 40/1170/1170
f 24/1171/1171 16/1172/1172 40/1173/1173
f 40/1174/1174 32/1175/1175 24/1176/1176
