# Mesh 14
o Mesh14

v -1.161 9.8854 0.0008
v -1.161 9.5737 -0.0528
v -1.161 9.5887 0.1103
v -1.161 9.6422 -0.2015
v -1.161 9.776 -0.296
v -1.161 9.939 -0.311
v -1.161 10.0877 -0.2425
v -1.161 10.1822 -0.1088
v -1.161 10.1972 0.0543
v -1.161 10.1287 0.203
v -1.161 9.995 0.2975
v -1.161 9.832 0.3125
v -1.161 9.6832 0.244
v -2.4363 9.5737 0.0543
v -2.4363 9.6422 0.203
v -2.4363 9.5887 -0.1088
v -2.4363 9.6832 -0.2425
v -2.4363 9.832 -0.311
v -2.4363 9.995 -0.296
v -2.4363 10.1287 -0.2015
v -2.4363 10.1972 -0.0528
v -2.4363 10.1822 0.1103
v -2.4363 10.0877 0.244
v -2.4363 9.939 0.3125
v -2.4363 9.776 0.2975
v -2.4363 9.8855 0.0008
v -2.4363 10.0877 -0.2425
v -1.161 9.995 -0.296
v -1.161 10.0208 -0.2337
v -2.4363 10.1822 -0.1088
v -1.161 10.1287 -0.2015
v -1.161 10.1199 -0.1346
v -2.4363 10.1972 0.0543
v -1.161 10.1972 -0.0528
v -1.161 10.1562 0.0008
v -2.4363 10.1287 0.203
v -1.161 10.1822 0.1103
v -1.161 10.1199 0.1361
v -2.4363 9.995 0.2975
v -1.161 10.0877 0.244
v -1.161 10.0208 0.2352
v -2.4363 9.832 0.3125
v -1.161 9.939 0.3125
v -1.161 9.8855 0.2714
v -2.4363 9.6832 0.244
v -1.161 9.776 0.2975
v -1.161 9.7501 0.2352
v -2.4363 9.5887 0.1103
v -1.161 9.6422 0.203
v -1.161 9.6511 0.1361
v -2.4363 9.5737 -0.0528
v -1.161 9.5737 0.0543
v -1.161 9.6148 0.0008
v -2.4363 9.6422 -0.2015
v -1.161 9.5887 -0.1088
v -1.161 9.6511 -0.1346
v -2.4363 9.776 -0.296
v -1.161 9.6832 -0.2425
v -1.161 9.7501 -0.2337
v -2.4363 9.939 -0.311
v -1.161 9.832 -0.311
v -1.161 9.8855 -0.2699
v -2.4363 10.0291 -0.2837
v -2.4363 10.06 -0.2658
v -1.161 10.0291 -0.2837
v -1.161 10.06 -0.2658
v -2.4363 10.1521 -0.1738
v -2.4363 10.1699 -0.1429
v -1.161 10.1521 -0.1738
v -1.161 10.1699 -0.1429
v -2.4363 10.2036 -0.0171
v -2.4363 10.2036 0.0186
v -1.161 10.2036 -0.0171
v -1.161 10.2036 0.0186
v -2.4363 10.1699 0.1444
v -2.4363 10.1521 0.1753
v -1.161 10.1699 0.1444
v -1.161 10.1521 0.1753
v -2.4363 10.06 0.2673
v -2.4363 10.0291 0.2852
v -1.161 10.06 0.2673
v -1.161 10.0291 0.2852
v -2.4363 9.9033 0.3189
v -2.4363 9.8676 0.3189
v -1.161 9.9033 0.3189
v -1.161 9.8676 0.3189
v -2.4363 9.7419 0.2852
v -2.4363 9.711 0.2673
v -1.161 9.7419 0.2852
v -1.161 9.711 0.2673
v -1.161 9.601 0.1444
v -1.161 9.6189 0.1753
v -2.4363 9.601 0.1444
v -2.4363 9.6189 0.1753
v -2.4363 9.5673 0.0186
v -2.4363 9.5673 -0.0171
v -1.161 9.5673 0.0186
v -1.161 9.5673 -0.0171
v -2.4363 9.601 -0.1429
v -2.4363 9.6189 -0.1738
v -1.161 9.601 -0.1429
v -1.161 9.6189 -0.1738
v -2.4363 9.711 -0.2658
v -2.4363 9.7419 -0.2837
v -1.161 9.711 -0.2658
v -1.161 9.7419 -0.2837
v -2.4363 9.8676 -0.3174
v -2.4363 9.9033 -0.3174
v -1.161 9.8676 -0.3174
v -1.161 9.9033 -0.3174
vt 0.65 0.8671
vt 0.65 0.8591
vt 0.35 0.8671
vt 0.65 0.8591
vt 0.35 0.8591
vt 0.35 0.8671
vt 0.4331 0.35
vt 0.4331 0.65
vt 0.4373 0.35
vt 0.4373 0.65
vt 0.4373 0.35
vt 0.4331 0.65
vt 0.4428 0.35
vt 0.4373 0.35
vt 0.4428 0.65
vt 0.4373 0.35
vt 0.4373 0.65
vt 0.4428 0.65
vt 0.4589 0.35
vt 0.4524 0.35
vt 0.4589 0.65
vt 0.4524 0.35
vt 0.4524 0.65
vt 0.4589 0.65
vt 0.4589 0.35
vt 0.4589 0.65
vt 0.4662 0.35
vt 0.4662 0.65
vt 0.4662 0.35
vt 0.4589 0.65
vt 0.4742 0.35
vt 0.4662 0.35
vt 0.4742 0.65
vt 0.4662 0.35
vt 0.4662 0.65
vt 0.4742 0.65
vt 0.4958 0.35
vt 0.4874 0.35
vt 0.4958 0.65
vt 0.4874 0.35
vt 0.4874 0.65
vt 0.4958 0.65
vt 0.4958 0.35
vt 0.4958 0.65
vt 0.5042 0.35
vt 0.5042 0.65
vt 0.5042 0.35
vt 0.4958 0.65
vt 0.5126 0.35
vt 0.5042 0.35
vt 0.5126 0.65
vt 0.5042 0.35
vt 0.5042 0.65
vt 0.5126 0.65
vt 0.5338 0.35
vt 0.5258 0.35
vt 0.5338 0.65
vt 0.5258 0.35
vt 0.5258 0.65
vt 0.5338 0.65
vt 0.5338 0.35
vt 0.5338 0.65
vt 0.5411 0.35
vt 0.5411 0.65
vt 0.5411 0.35
vt 0.5338 0.65
vt 0.5476 0.35
vt 0.5411 0.35
vt 0.5476 0.65
vt 0.5411 0.35
vt 0.5411 0.65
vt 0.5476 0.65
vt 0.5627 0.35
vt 0.5572 0.35
vt 0.5627 0.65
vt 0.5572 0.35
vt 0.5572 0.65
vt 0.5627 0.65
vt 0.5627 0.35
vt 0.5627 0.65
vt 0.5669 0.35
vt 0.5669 0.65
vt 0.5669 0.35
vt 0.5627 0.65
vt 0.0167 0.8591
vt 0.0167 0.8671
vt 0.3167 0.8591
vt 0.0167 0.8671
vt 0.3167 0.8671
vt 0.3167 0.8591
vt 0.0167 0.8375
vt 0.0167 0.8459
vt 0.3167 0.8375
vt 0.0167 0.8459
vt 0.3167 0.8459
vt 0.3167 0.8375
vt 0.0167 0.8375
vt 0.3167 0.8375
vt 0.0167 0.8291
vt 0.3167 0.8291
vt 0.0167 0.8291
vt 0.3167 0.8375
vt 0.0167 0.8207
vt 0.0167 0.8291
vt 0.3167 0.8207
vt 0.0167 0.8291
vt 0.3167 0.8291
vt 0.3167 0.8207
vt 0.0167 0.7996
vt 0.0167 0.8076
vt 0.3167 0.7996
vt 0.0167 0.8076
vt 0.3167 0.8076
vt 0.3167 0.7996
vt 0.5669 0.3167
vt 0.5669 0.0167
vt 0.5627 0.3167
vt 0.5627 0.0167
vt 0.5627 0.3167
vt 0.5669 0.0167
vt 0.5572 0.3167
vt 0.5627 0.3167
vt 0.5572 0.0167
vt 0.5627 0.3167
vt 0.5627 0.0167
vt 0.5572 0.0167
vt 0.5338 0.0167
vt 0.5258 0.0167
vt 0.5338 0.3167
vt 0.5258 0.0167
vt 0.5258 0.3167
vt 0.5338 0.3167
vt 0.5338 0.0167
vt 0.5338 0.3167
vt 0.5411 0.0167
vt 0.5411 0.3167
vt 0.5411 0.0167
vt 0.5338 0.3167
vt 0.5476 0.0167
vt 0.5411 0.0167
vt 0.5476 0.3167
vt 0.5411 0.0167
vt 0.5411 0.3167
vt 0.5476 0.3167
vt 0.5042 0.3167
vt 0.5126 0.3167
vt 0.5042 0.0167
vt 0.5126 0.3167
vt 0.5126 0.0167
vt 0.5042 0.0167
vt 0.5042 0.3167
vt 0.5042 0.0167
vt 0.4958 0.3167
vt 0.4958 0.0167
vt 0.4958 0.3167
vt 0.5042 0.0167
vt 0.4874 0.3167
vt 0.4958 0.3167
vt 0.4874 0.0167
vt 0.4958 0.3167
vt 0.4958 0.0167
vt 0.4874 0.0167
vt 0.4662 0.3167
vt 0.4742 0.3167
vt 0.4662 0.0167
vt 0.4742 0.3167
vt 0.4742 0.0167
vt 0.4662 0.0167
vt 0.4662 0.3167
vt 0.4662 0.0167
vt 0.4589 0.3167
vt 0.4589 0.0167
vt 0.4589 0.3167
vt 0.4662 0.0167
vt 0.4524 0.3167
vt 0.4589 0.3167
vt 0.4524 0.0167
vt 0.4589 0.3167
vt 0.4589 0.0167
vt 0.4524 0.0167
vt 0.4373 0.3167
vt 0.4428 0.3167
vt 0.4373 0.0167
vt 0.4428 0.3167
vt 0.4428 0.0167
vt 0.4373 0.0167
vt 0.4373 0.3167
vt 0.4373 0.0167
vt 0.4331 0.3167
vt 0.4331 0.0167
vt 0.4331 0.3167
vt 0.4373 0.0167
vt 0.65 0.8076
vt 0.65 0.7996
vt 0.35 0.8076
vt 0.65 0.7996
vt 0.35 0.7996
vt 0.35 0.8076
vt 0.65 0.8291
vt 0.65 0.8207
vt 0.35 0.8291
vt 0.65 0.8207
vt 0.35 0.8207
vt 0.35 0.8291
vt 0.65 0.8291
vt 0.35 0.8291
vt 0.65 0.8375
vt 0.35 0.8375
vt 0.65 0.8375
vt 0.35 0.8291
vt 0.65 0.8459
vt 0.65 0.8375
vt 0.35 0.8459
vt 0.65 0.8375
vt 0.35 0.8375
vt 0.35 0.8459
vt 0.3066 0.5517
vt 0.1667 0.5
vt 0.3008 0.5677
vt 0.1667 0.5
vt 0.2814 0.5954
vt 0.3008 0.5677
vt 0.3008 0.5677
vt 0.2814 0.5954
vt 0.2923 0.5823
vt 0.052 0.262
vt 0.0561 0.2305
vt 0.041 0.249
vt 0.0561 0.2305
vt 0.0268 0.2183
vt 0.041 0.249
vt 0.041 0.249
vt 0.0268 0.2183
vt 0.0326 0.2344
vt 0.262 0.6147
vt 0.1667 0.5
vt 0.249 0.6257
vt 0.1667 0.5
vt 0.2183 0.6399
vt 0.249 0.6257
vt 0.249 0.6257
vt 0.2183 0.6399
vt 0.2344 0.6341
vt 0.115 0.3066
vt 0.1029 0.2772
vt 0.0989 0.3008
vt 0.1029 0.2772
vt 0.0713 0.2814
vt 0.0989 0.3008
vt 0.0989 0.3008
vt 0.0713 0.2814
vt 0.0844 0.2924
vt 0.1919 0.647
vt 0.1667 0.5
vt 0.1751 0.65
vt 0.1667 0.5
vt 0.1414 0.647
vt 0.1751 0.65
vt 0.1751 0.65
vt 0.1414 0.647
vt 0.1583 0.65
vt 0.1919 0.3136
vt 0.1667 0.2943
vt 0.1751 0.3167
vt 0.1667 0.2943
vt 0.1414 0.3136
vt 0.1751 0.3167
vt 0.1751 0.3167
vt 0.1414 0.3136
vt 0.1583 0.3167
vt 0.115 0.6399
vt 0.1667 0.5
vt 0.0989 0.6341
vt 0.1667 0.5
vt 0.0713 0.6147
vt 0.0989 0.6341
vt 0.0989 0.6341
vt 0.0713 0.6147
vt 0.0844 0.6257
vt 0.262 0.2814
vt 0.2305 0.2772
vt 0.249 0.2924
vt 0.2305 0.2772
vt 0.2183 0.3066
vt 0.249 0.2924
vt 0.249 0.2924
vt 0.2183 0.3066
vt 0.2344 0.3008
vt 0.052 0.5954
vt 0.1667 0.5
vt 0.041 0.5823
vt 0.1667 0.5
vt 0.0268 0.5517
vt 0.041 0.5823
vt 0.041 0.5823
vt 0.0268 0.5517
vt 0.0326 0.5677
vt 0.3066 0.2183
vt 0.2772 0.2305
vt 0.3008 0.2344
vt 0.2772 0.2305
vt 0.2814 0.262
vt 0.3008 0.2344
vt 0.3008 0.2344
vt 0.2814 0.262
vt 0.2923 0.249
vt 0.0197 0.5252
vt 0.1667 0.5
vt 0.0167 0.5084
vt 0.1667 0.5
vt 0.0197 0.4748
vt 0.0167 0.5084
vt 0.0167 0.5084
vt 0.0197 0.4748
vt 0.0167 0.4916
vt 0.3136 0.1415
vt 0.2943 0.1667
vt 0.3167 0.1583
vt 0.2943 0.1667
vt 0.3136 0.1919
vt 0.3167 0.1583
vt 0.3167 0.1583
vt 0.3136 0.1919
vt 0.3167 0.1751
vt 0.0268 0.4484
vt 0.1667 0.5
vt 0.0326 0.4323
vt 0.1667 0.5
vt 0.052 0.4046
vt 0.0326 0.4323
vt 0.0326 0.4323
vt 0.052 0.4046
vt 0.041 0.4178
vt 0.2814 0.0713
vt 0.2772 0.1029
vt 0.2923 0.0844
vt 0.2772 0.1029
vt 0.3066 0.1151
vt 0.2923 0.0844
vt 0.2923 0.0844
vt 0.3066 0.1151
vt 0.3008 0.099
vt 0.0713 0.3853
vt 0.1667 0.5
vt 0.0844 0.3743
vt 0.1667 0.5
vt 0.115 0.3601
vt 0.0844 0.3743
vt 0.0844 0.3743
vt 0.115 0.3601
vt 0.0989 0.3659
vt 0.2183 0.0268
vt 0.2305 0.0562
vt 0.2344 0.0326
vt 0.2305 0.0562
vt 0.262 0.052
vt 0.2344 0.0326
vt 0.2344 0.0326
vt 0.262 0.052
vt 0.249 0.041
vt 0.1414 0.353
vt 0.1667 0.5
vt 0.1583 0.35
vt 0.1667 0.5
vt 0.1919 0.353
vt 0.1583 0.35
vt 0.1583 0.35
vt 0.1919 0.353
vt 0.1751 0.35
vt 0.1414 0.0197
vt 0.1667 0.0391
vt 0.1583 0.0167
vt 0.1667 0.0391
vt 0.1919 0.0197
vt 0.1583 0.0167
vt 0.1583 0.0167
vt 0.1919 0.0197
vt 0.1751 0.0167
vt 0.2183 0.3601
vt 0.1667 0.5
vt 0.2344 0.3659
vt 0.1667 0.5
vt 0.262 0.3853
vt 0.2344 0.3659
vt 0.2344 0.3659
vt 0.262 0.3853
vt 0.249 0.3743
vt 0.0713 0.052
vt 0.1029 0.0562
vt 0.0844 0.041
vt 0.1029 0.0562
vt 0.115 0.0268
vt 0.0844 0.041
vt 0.0844 0.041
vt 0.115 0.0268
vt 0.0989 0.0326
vt 0.2814 0.4046
vt 0.1667 0.5
vt 0.2923 0.4178
vt 0.1667 0.5
vt 0.3066 0.4484
vt 0.2923 0.4178
vt 0.2923 0.4178
vt 0.3066 0.4484
vt 0.3008 0.4323
vt 0.0268 0.1151
vt 0.0561 0.1029
vt 0.0326 0.099
vt 0.0561 0.1029
vt 0.052 0.0713
vt 0.0326 0.099
vt 0.0326 0.099
vt 0.052 0.0713
vt 0.041 0.0844
vt 0.3136 0.4748
vt 0.1667 0.5
vt 0.3167 0.4916
vt 0.1667 0.5
vt 0.3136 0.5252
vt 0.3167 0.4916
vt 0.3167 0.4916
vt 0.3136 0.5252
vt 0.3167 0.5084
vt 0.0197 0.1919
vt 0.0391 0.1667
vt 0.0167 0.1751
vt 0.0391 0.1667
vt 0.0197 0.1415
vt 0.0167 0.1751
vt 0.0167 0.1751
vt 0.0197 0.1415
vt 0.0167 0.1583
vt 0.4524 0.65
vt 0.4524 0.35
vt 0.4428 0.65
vt 0.4524 0.35
vt 0.4428 0.35
vt 0.4428 0.65
vt 0.262 0.6147
vt 0.2814 0.5954
vt 0.1667 0.5
vt 0.3066 0.5517
vt 0.3136 0.5252
vt 0.1667 0.5
vt 0.65 0.8591
vt 0.65 0.8459
vt 0.35 0.8591
vt 0.65 0.8459
vt 0.35 0.8459
vt 0.35 0.8591
vt 0.0391 0.1667
vt 0.0197 0.1919
vt 0.1667 0.1667
vt 0.0197 0.1919
vt 0.0268 0.2183
vt 0.1667 0.1667
vt 0.0268 0.2183
vt 0.0561 0.2305
vt 0.1667 0.1667
vt 0.0561 0.2305
vt 0.052 0.262
vt 0.1667 0.1667
vt 0.052 0.262
vt 0.0713 0.2814
vt 0.1667 0.1667
vt 0.0713 0.2814
vt 0.1029 0.2772
vt 0.1667 0.1667
vt 0.4874 0.35
vt 0.4742 0.35
vt 0.4874 0.65
vt 0.4742 0.35
vt 0.4742 0.65
vt 0.4874 0.65
vt 0.1919 0.647
vt 0.2183 0.6399
vt 0.1667 0.5
vt 0.1029 0.2772
vt 0.115 0.3066
vt 0.1667 0.1667
vt 0.115 0.3066
vt 0.1414 0.3136
vt 0.1667 0.1667
vt 0.1414 0.3136
vt 0.1667 0.2943
vt 0.1667 0.1667
vt 0.5258 0.65
vt 0.5258 0.35
vt 0.5126 0.65
vt 0.5258 0.35
vt 0.5126 0.35
vt 0.5126 0.65
vt 0.115 0.6399
vt 0.1414 0.647
vt 0.1667 0.5
vt 0.1667 0.2943
vt 0.1919 0.3136
vt 0.1667 0.1667
vt 0.1919 0.3136
vt 0.2183 0.3066
vt 0.1667 0.1667
vt 0.2183 0.3066
vt 0.2305 0.2772
vt 0.1667 0.1667
vt 0.5572 0.65
vt 0.5572 0.35
vt 0.5476 0.65
vt 0.5572 0.35
vt 0.5476 0.35
vt 0.5476 0.65
vt 0.052 0.5954
vt 0.0713 0.6147
vt 0.1667 0.5
vt 0.2305 0.2772
vt 0.262 0.2814
vt 0.1667 0.1667
vt 0.262 0.2814
vt 0.2814 0.262
vt 0.1667 0.1667
vt 0.2814 0.262
vt 0.2772 0.2305
vt 0.1667 0.1667
vt 0.3167 0.8459
vt 0.0167 0.8459
vt 0.3167 0.8591
vt 0.0167 0.8459
vt 0.0167 0.8591
vt 0.3167 0.8591
vt 0.0197 0.5252
vt 0.0268 0.5517
vt 0.1667 0.5
vt 0.2772 0.2305
vt 0.3066 0.2183
vt 0.1667 0.1667
vt 0.3066 0.2183
vt 0.3136 0.1919
vt 0.1667 0.1667
vt 0.3136 0.1919
vt 0.2943 0.1667
vt 0.1667 0.1667
vt 0.3167 0.8076
vt 0.0167 0.8076
vt 0.3167 0.8207
vt 0.0167 0.8076
vt 0.0167 0.8207
vt 0.3167 0.8207
vt 0.0268 0.4484
vt 0.0197 0.4748
vt 0.1667 0.5
vt 0.2943 0.1667
vt 0.3136 0.1415
vt 0.1667 0.1667
vt 0.3136 0.1415
vt 0.3066 0.1151
vt 0.1667 0.1667
vt 0.3066 0.1151
vt 0.2772 0.1029
vt 0.1667 0.1667
vt 0.5476 0.3167
vt 0.5572 0.3167
vt 0.5476 0.0167
vt 0.5572 0.3167
vt 0.5572 0.0167
vt 0.5476 0.0167
vt 0.0713 0.3853
vt 0.052 0.4046
vt 0.1667 0.5
vt 0.2772 0.1029
vt 0.2814 0.0713
vt 0.1667 0.1667
vt 0.2814 0.0713
vt 0.262 0.052
vt 0.1667 0.1667
vt 0.262 0.052
vt 0.2305 0.0562
vt 0.1667 0.1667
vt 0.5126 0.0167
vt 0.5126 0.3167
vt 0.5258 0.0167
vt 0.5126 0.3167
vt 0.5258 0.3167
vt 0.5258 0.0167
vt 0.1414 0.353
vt 0.115 0.3601
vt 0.1667 0.5
vt 0.2305 0.0562
vt 0.2183 0.0268
vt 0.1667 0.1667
vt 0.2183 0.0268
vt 0.1919 0.0197
vt 0.1667 0.1667
vt 0.1919 0.0197
vt 0.1667 0.0391
vt 0.1667 0.1667
vt 0.4742 0.3167
vt 0.4874 0.3167
vt 0.4742 0.0167
vt 0.4874 0.3167
vt 0.4874 0.0167
vt 0.4742 0.0167
vt 0.2183 0.3601
vt 0.1919 0.353
vt 0.1667 0.5
vt 0.1667 0.0391
vt 0.1414 0.0197
vt 0.1667 0.1667
vt 0.1414 0.0197
vt 0.115 0.0268
vt 0.1667 0.1667
vt 0.115 0.0268
vt 0.1029 0.0562
vt 0.1667 0.1667
vt 0.4428 0.0167
vt 0.4428 0.3167
vt 0.4524 0.0167
vt 0.4428 0.3167
vt 0.4524 0.3167
vt 0.4524 0.0167
vt 0.2814 0.4046
vt 0.262 0.3853
vt 0.1667 0.5
vt 0.1029 0.0562
vt 0.0713 0.052
vt 0.1667 0.1667
vt 0.0713 0.052
vt 0.052 0.0713
vt 0.1667 0.1667
vt 0.052 0.0713
vt 0.0561 0.1029
vt 0.1667 0.1667
vt 0.65 0.8207
vt 0.65 0.8076
vt 0.35 0.8207
vt 0.65 0.8076
vt 0.35 0.8076
vt 0.35 0.8207
vt 0.3136 0.4748
vt 0.3066 0.4484
vt 0.1667 0.5
vt 0.0561 0.1029
vt 0.0268 0.1151
vt 0.1667 0.1667
vt 0.0268 0.1151
vt 0.0197 0.1415
vt 0.1667 0.1667
vt 0.0197 0.1415
vt 0.0391 0.1667
vt 0.1667 0.1667
vn 0.0 0.3393 -0.9407
vn 0.0 0.3393 -0.9407
vn 0.0 0.3393 -0.9407
vn 0.0 0.3393 -0.9407
vn 0.0 0.3393 -0.9407
vn 0.0 0.3393 -0.9407
vn 0.0 0.5013 -0.8653
vn 0.0 0.5013 -0.8653
vn 0.0 0.5013 -0.8653
vn 0.0 0.5013 -0.8653
vn 0.0 0.5013 -0.8653
vn 0.0 0.5013 -0.8653
vn 0.0 0.6437 -0.7653
vn 0.0 0.6437 -0.7653
vn 0.0 0.6437 -0.7653
vn 0.0 0.6437 -0.7653
vn 0.0 0.6437 -0.7653
vn 0.0 0.6437 -0.7653
vn 0.0 0.7639 -0.6453
vn 0.0 0.7639 -0.6453
vn 0.0 0.7639 -0.6453
vn 0.0 0.7639 -0.6453
vn 0.0 0.7639 -0.6453
vn 0.0 0.7639 -0.6453
vn 0.0 0.8665 -0.4992
vn 0.0 0.8665 -0.4992
vn 0.0 0.8665 -0.4992
vn 0.0 0.8665 -0.4992
vn 0.0 0.8665 -0.4992
vn 0.0 0.8665 -0.4992
vn 0.0 0.9407 -0.3393
vn 0.0 0.9407 -0.3393
vn 0.0 0.9407 -0.3393
vn 0.0 0.9407 -0.3393
vn 0.0 0.9407 -0.3393
vn 0.0 0.9407 -0.3393
vn 0.0 0.9843 -0.1765
vn 0.0 0.9843 -0.1765
vn 0.0 0.9843 -0.1765
vn 0.0 0.9843 -0.1765
vn 0.0 0.9843 -0.1765
vn 0.0 0.9843 -0.1765
vn 0.0 1.0 0.0
vn 0.0 1.0 0.0
vn 0.0 1.0 0.0
vn 0.0 1.0 0.0
vn 0.0 1.0 0.0
vn 0.0 1.0 0.0
vn 0.0 0.9843 0.1765
vn 0.0 0.9843 0.1765
vn 0.0 0.9843 0.1765
vn 0.0 0.9843 0.1765
vn 0.0 0.9843 0.1765
vn 0.0 0.9843 0.1765
vn 0.0 0.9407 0.3393
vn 0.0 0.9407 0.3393
vn 0.0 0.9407 0.3393
vn 0.0 0.9407 0.3393
vn 0.0 0.9407 0.3393
vn 0.0 0.9407 0.3393
vn 0.0 0.8665 0.4992
vn 0.0 0.8665 0.4992
vn 0.0 0.8665 0.4992
vn 0.0 0.8665 0.4992
vn 0.0 0.8665 0.4992
vn 0.0 0.8665 0.4992
vn 0.0 0.7639 0.6453
vn 0.0 0.7639 0.6453
vn 0.0 0.7639 0.6453
vn 0.0 0.7639 0.6453
vn 0.0 0.7639 0.6453
vn 0.0 0.7639 0.6453
vn 0.0 0.6437 0.7653
vn 0.0 0.6437 0.7653
vn 0.0 0.6437 0.7653
vn 0.0 0.6437 0.7653
vn 0.0 0.6437 0.7653
vn 0.0 0.6437 0.7653
vn 0.0 0.5013 0.8653
vn 0.0 0.5013 0.8653
vn 0.0 0.5013 0.8653
vn 0.0 0.5013 0.8653
vn 0.0 0.5013 0.8653
vn 0.0 0.5013 0.8653
vn 0.0 0.3393 0.9407
vn 0.0 0.3393 0.9407
vn 0.0 0.3393 0.9407
vn 0.0 0.3393 0.9407
vn 0.0 0.3393 0.9407
vn 0.0 0.3393 0.9407
vn 0.0 0.1765 0.9843
vn 0.0 0.1765 0.9843
vn 0.0 0.1765 0.9843
vn 0.0 0.1765 0.9843
vn 0.0 0.1765 0.9843
vn 0.0 0.1765 0.9843
vn 0.0 0.0 1.0
vn 0.0 0.0 1.0
vn 0.0 0.0 1.0
vn 0.0 0.0 1.0
vn 0.0 0.0 1.0
vn 0.0 0.0 1.0
vn 0.0 -0.1769 0.9842
vn 0.0 -0.1769 0.9842
vn 0.0 -0.1769 0.9842
vn 0.0 -0.1769 0.9842
vn 0.0 -0.1769 0.9842
vn 0.0 -0.1769 0.9842
vn 0.0 -0.3393 0.9407
vn 0.0 -0.3393 0.9407
vn 0.0 -0.3393 0.9407
vn 0.0 -0.3393 0.9407
vn 0.0 -0.3393 0.9407
vn 0.0 -0.3393 0.9407
vn 0.0 -0.5013 0.8653
vn 0.0 -0.5013 0.8653
vn 0.0 -0.5013 0.8653
vn 0.0 -0.5013 0.8653
vn 0.0 -0.5013 0.8653
vn 0.0 -0.5013 0.8653
vn 0.0 -0.6424 0.7664
vn 0.0 -0.6424 0.7664
vn 0.0 -0.6424 0.7664
vn 0.0 -0.6424 0.7664
vn 0.0 -0.6424 0.7664
vn 0.0 -0.6424 0.7664
vn 0.0 -0.9407 0.3393
vn 0.0 -0.9407 0.3393
vn 0.0 -0.9407 0.3393
vn 0.0 -0.9407 0.3393
vn 0.0 -0.9407 0.3393
vn 0.0 -0.9407 0.3393
vn 0.0 -0.8653 0.5012
vn 0.0 -0.8653 0.5012
vn 0.0 -0.8653 0.5012
vn 0.0 -0.8653 0.5012
vn 0.0 -0.8653 0.5012
vn 0.0 -0.8653 0.5012
vn 0.0 -0.7653 0.6437
vn 0.0 -0.7653 0.6437
vn 0.0 -0.7653 0.6437
vn 0.0 -0.7653 0.6437
vn 0.0 -0.7653 0.6437
vn 0.0 -0.7653 0.6437
vn 0.0 -0.9843 0.1765
vn 0.0 -0.9843 0.1765
vn 0.0 -0.9843 0.1765
vn 0.0 -0.9843 0.1765
vn 0.0 -0.9843 0.1765
vn 0.0 -0.9843 0.1765
vn 0.0 -1.0 0.0
vn 0.0 -1.0 0.0
vn 0.0 -1.0 0.0
vn 0.0 -1.0 0.0
vn 0.0 -1.0 0.0
vn 0.0 -1.0 0.0
vn 0.0 -0.9843 -0.1765
vn 0.0 -0.9843 -0.1765
vn 0.0 -0.9843 -0.1765
vn 0.0 -0.9843 -0.1765
vn 0.0 -0.9843 -0.1765
vn 0.0 -0.9843 -0.1765
vn 0.0 -0.9407 -0.3393
vn 0.0 -0.9407 -0.3393
vn 0.0 -0.9407 -0.3393
vn 0.0 -0.9407 -0.3393
vn 0.0 -0.9407 -0.3393
vn 0.0 -0.9407 -0.3393
vn 0.0 -0.8653 -0.5012
vn 0.0 -0.8653 -0.5012
vn 0.0 -0.8653 -0.5012
vn 0.0 -0.8653 -0.5012
vn 0.0 -0.8653 -0.5012
vn 0.0 -0.8653 -0.5012
vn 0.0 -0.7653 -0.6437
vn 0.0 -0.7653 -0.6437
vn 0.0 -0.7653 -0.6437
vn 0.0 -0.7653 -0.6437
vn 0.0 -0.7653 -0.6437
vn 0.0 -0.7653 -0.6437
vn 0.0 -0.6424 -0.7664
vn 0.0 -0.6424 -0.7664
vn 0.0 -0.6424 -0.7664
vn 0.0 -0.6424 -0.7664
vn 0.0 -0.6424 -0.7664
vn 0.0 -0.6424 -0.7664
vn 0.0 -0.5013 -0.8653
vn 0.0 -0.5013 -0.8653
vn 0.0 -0.5013 -0.8653
vn 0.0 -0.5013 -0.8653
vn 0.0 -0.5013 -0.8653
vn 0.0 -0.5013 -0.8653
vn 0.0 -0.3393 -0.9407
vn 0.0 -0.3393 -0.9407
vn 0.0 -0.3393 -0.9407
vn 0.0 -0.3393 -0.9407
vn 0.0 -0.3393 -0.9407
vn 0.0 -0.3393 -0.9407
vn 0.0 -0.1769 -0.9842
vn 0.0 -0.1769 -0.9842
vn 0.0 -0.1769 -0.9842
vn 0.0 -0.1769 -0.9842
vn 0.0 -0.1769 -0.9842
vn 0.0 -0.1769 -0.9842
vn 0.0 0.0 -1.0
vn 0.0 0.0 -1.0
vn 0.0 0.0 -1.0
vn 0.0 0.0 -1.0
vn 0.0 0.0 -1.0
vn 0.0 0.0 -1.0
vn 0.0 0.1765 -0.9843
vn 0.0 0.1765 -0.9843
vn 0.0 0.1765 -0.9843
vn 0.0 0.1765 -0.9843
vn 0.0 0.1765 -0.9843
vn 0.0 0.1765 -0.9843
vn -1.0 0.0 0.0
vn -1.0 0.0 0.0
vn -1.0 0.0 0.0
vn -1.0 0.0 0.0
vn -1.0 0.0 0.0
vn -1.0 0.0 0.0
vn -1.0 0.0 0.0
vn -1.0 0.0 0.0
vn -1.0 0.0 0.0
vn 1.0 0.0 0.0
vn 1.0 0.0 0.0
vn 1.0 0.0 0.0
vn 1.0 0.0 0.0
vn 1.0 0.0 0.0
vn 1.0 0.0 0.0
vn 1.0 0.0 0.0
vn 1.0 0.0 0.0
vn 1.0 0.0 0.0
vn -1.0 0.0 0.0
vn -1.0 0.0 0.0
vn -1.0 0.0 0.0
vn -1.0 0.0 0.0
vn -1.0 0.0 0.0
vn -1.0 0.0 0.0
vn -1.0 0.0 0.0
vn -1.0 0.0 0.0
vn -1.0 0.0 0.0
vn 1.0 0.0 0.0
vn 1.0 0.0 0.0
vn 1.0 0.0 0.0
vn 1.0 0.0 0.0
vn 1.0 0.0 0.0
vn 1.0 0.0 0.0
vn 1.0 0.0 0.0
vn 1.0 0.0 0.0
vn 1.0 0.0 0.0
vn -1.0 0.0 0.0
vn -1.0 0.0 0.0
vn -1.0 0.0 0.0
vn -1.0 0.0 0.0
vn -1.0 0.0 0.0
vn -1.0 0.0 0.0
vn -1.0 0.0 0.0
vn -1.0 0.0 0.0
vn -1.0 0.0 0.0
vn 1.0 0.0 0.0
vn 1.0 0.0 0.0
vn 1.0 0.0 0.0
vn 1.0 0.0 0.0
vn 1.0 0.0 0.0
vn 1.0 0.0 0.0
vn 1.0 0.0 0.0
vn 1.0 0.0 0.0
vn 1.0 0.0 0.0
vn -1.0 0.0 0.0
vn -1.0 0.0 0.0
vn -1.0 0.0 0.0
vn -1.0 0.0 0.0
vn -1.0 0.0 0.0
vn -1.0 0.0 0.0
vn -1.0 0.0 0.0
vn -1.0 0.0 0.0
vn -1.0 0.0 0.0
vn 1.0 0.0 0.0
vn 1.0 0.0 0.0
vn 1.0 0.0 0.0
vn 1.0 0.0 0.0
vn 1.0 0.0 0.0
vn 1.0 0.0 0.0
vn 1.0 0.0 0.0
vn 1.0 0.0 0.0
vn 1.0 0.0 0.0
vn -1.0 0.0 0.0
vn -1.0 0.0 0.0
vn -1.0 0.0 0.0
vn -1.0 0.0 0.0
vn -1.0 0.0 0.0
vn -1.0 0.0 0.0
vn -1.0 0.0 0.0
vn -1.0 0.0 0.0
vn -1.0 0.0 0.0
vn 1.0 0.0 0.0
vn 1.0 0.0 0.0
vn 1.0 0.0 0.0
vn 1.0 0.0 0.0
vn 1.0 0.0 0.0
vn 1.0 0.0 0.0
vn 1.0 0.0 0.0
vn 1.0 0.0 0.0
vn 1.0 0.0 0.0
vn -1.0 0.0 0.0
vn -1.0 0.0 0.0
vn -1.0 0.0 0.0
vn -1.0 0.0 0.0
vn -1.0 0.0 0.0
vn -1.0 0.0 0.0
vn -1.0 0.0 0.0
vn -1.0 0.0 0.0
vn -1.0 0.0 0.0
vn 1.0 0.0 0.0
vn 1.0 0.0 0.0
vn 1.0 0.0 0.0
vn 1.0 0.0 0.0
vn 1.0 0.0 0.0
vn 1.0 0.0 0.0
vn 1.0 0.0 0.0
vn 1.0 0.0 0.0
vn 1.0 0.0 0.0
vn -1.0 0.0 0.0
vn -1.0 0.0 0.0
vn -1.0 0.0 0.0
vn -1.0 0.0 0.0
vn -1.0 0.0 0.0
vn -1.0 0.0 0.0
vn -1.0 0.0 0.0
vn -1.0 0.0 0.0
vn -1.0 0.0 0.0
vn 1.0 0.0 0.0
vn 1.0 0.0 0.0
vn 1.0 0.0 0.0
vn 1.0 0.0 0.0
vn 1.0 0.0 0.0
vn 1.0 0.0 0.0
vn 1.0 0.0 0.0
vn 1.0 0.0 0.0
vn 1.0 0.0 0.0
vn -1.0 0.0 0.0
vn -1.0 0.0 0.0
vn -1.0 0.0 0.0
vn -1.0 0.0 0.0
vn -1.0 0.0 0.0
vn -1.0 0.0 0.0
vn -1.0 0.0 0.0
vn -1.0 0.0 0.0
vn -1.0 0.0 0.0
vn 1.0 0.0 0.0
vn 1.0 0.0 0.0
vn 1.0 0.0 0.0
vn 1.0 0.0 0.0
vn 1.0 0.0 0.0
vn 1.0 0.0 0.0
vn 1.0 0.0 0.0
vn 1.0 0.0 0.0
vn 1.0 0.0 0.0
vn -1.0 0.0 0.0
vn -1.0 0.0 0.0
vn -1.0 0.0 0.0
vn -1.0 0.0 0.0
vn -1.0 0.0 0.0
vn -1.0 0.0 0.0
vn -1.0 0.0 0.0
vn -1.0 0.0 0.0
vn -1.0 0.0 0.0
vn 1.0 0.0 0.0
vn 1.0 0.0 0.0
vn 1.0 0.0 0.0
vn 1.0 0.0 0.0
vn 1.0 0.0 0.0
vn 1.0 0.0 0.0
vn 1.0 0.0 0.0
vn 1.0 0.0 0.0
vn 1.0 0.0 0.0
vn -1.0 0.0 0.0
vn -1.0 0.0 0.0
vn -1.0 0.0 0.0
vn -1.0 0.0 0.0
vn -1.0 0.0 0.0
vn -1.0 0.0 0.0
vn -1.0 0.0 0.0
vn -1.0 0.0 0.0
vn -1.0 0.0 0.0
vn 1.0 0.0 0.0
vn 1.0 0.0 0.0
vn 1.0 0.0 0.0
vn 1.0 0.0 0.0
vn 1.0 0.0 0.0
vn 1.0 0.0 0.0
vn 1.0 0.0 0.0
vn 1.0 0.0 0.0
vn 1.0 0.0 0.0
vn -1.0 0.0 0.0
vn -1.0 0.0 0.0
vn -1.0 0.0 0.0
vn -1.0 0.0 0.0
vn -1.0 0.0 0.0
vn -1.0 0.0 0.0
vn -1.0 0.0 0.0
vn -1.0 0.0 0.0
vn -1.0 0.0 0.0
vn 1.0 0.0 0.0
vn 1.0 0.0 0.0
vn 1.0 0.0 0.0
vn 1.0 0.0 0.0
vn 1.0 0.0 0.0
vn 1.0 0.0 0.0
vn 1.0 0.0 0.0
vn 1.0 0.0 0.0
vn 1.0 0.0 0.0
vn -1.0 0.0 0.0
vn -1.0 0.0 0.0
vn -1.0 0.0 0.0
vn -1.0 0.0 0.0
vn -1.0 0.0 0.0
vn -1.0 0.0 0.0
vn -1.0 0.0 0.0
vn -1.0 0.0 0.0
vn -1.0 0.0 0.0
vn 1.0 0.0 0.0
vn 1.0 0.0 0.0
vn 1.0 0.0 0.0
vn 1.0 0.0 0.0
vn 1.0 0.0 0.0
vn 1.0 0.0 0.0
vn 1.0 0.0 0.0
vn 1.0 0.0 0.0
vn 1.0 0.0 0.0
vn 0.0 0.7071 -0.7071
vn 0.0 0.7071 -0.7071
vn 0.0 0.7071 -0.7071
vn 0.0 0.7071 -0.7071
vn 0.0 0.7071 -0.7071
vn 0.0 0.7071 -0.7071
vn -1.0 0.0 0.0
vn -1.0 0.0 0.0
vn -1.0 0.0 0.0
vn -1.0 0.0 0.0
vn -1.0 0.0 0.0
vn -1.0 0.0 0.0
vn 0.0 0.2587 -0.9659
vn 0.0 0.2587 -0.9659
vn 0.0 0.2587 -0.9659
vn 0.0 0.2587 -0.9659
vn 0.0 0.2587 -0.9659
vn 0.0 0.2587 -0.9659
vn 1.0 0.0 0.0
vn 1.0 0.0 0.0
vn 1.0 0.0 0.0
vn 1.0 0.0 0.0
vn 1.0 0.0 0.0
vn 1.0 0.0 0.0
vn 1.0 0.0 0.0
vn 1.0 0.0 0.0
vn 1.0 0.0 0.0
vn 1.0 0.0 0.0
vn 1.0 0.0 0.0
vn 1.0 0.0 0.0
vn 1.0 0.0 0.0
vn 1.0 0.0 0.0
vn 1.0 0.0 0.0
vn 1.0 0.0 0.0
vn 1.0 0.0 0.0
vn 1.0 0.0 0.0
vn 0.0 0.9659 -0.2587
vn 0.0 0.9659 -0.2587
vn 0.0 0.9659 -0.2587
vn 0.0 0.9659 -0.2587
vn 0.0 0.9659 -0.2587
vn 0.0 0.9659 -0.2587
vn -1.0 0.0 0.0
vn -1.0 0.0 0.0
vn -1.0 0.0 0.0
vn 1.0 0.0 0.0
vn 1.0 0.0 0.0
vn 1.0 0.0 0.0
vn 1.0 0.0 0.0
vn 1.0 0.0 0.0
vn 1.0 0.0 0.0
vn 1.0 0.0 0.0
vn 1.0 0.0 0.0
vn 1.0 0.0 0.0
vn 0.0 0.9659 0.2587
vn 0.0 0.9659 0.2587
vn 0.0 0.9659 0.2587
vn 0.0 0.9659 0.2587
vn 0.0 0.9659 0.2587
vn 0.0 0.9659 0.2587
vn -1.0 0.0 0.0
vn -1.0 0.0 0.0
vn -1.0 0.0 0.0
vn 1.0 0.0 0.0
vn 1.0 0.0 0.0
vn 1.0 0.0 0.0
vn 1.0 0.0 0.0
vn 1.0 0.0 0.0
vn 1.0 0.0 0.0
vn 1.0 0.0 0.0
vn 1.0 0.0 0.0
vn 1.0 0.0 0.0
vn 0.0 0.7071 0.7071
vn 0.0 0.7071 0.7071
vn 0.0 0.7071 0.7071
vn 0.0 0.7071 0.7071
vn 0.0 0.7071 0.7071
vn 0.0 0.7071 0.7071
vn -1.0 0.0 0.0
vn -1.0 0.0 0.0
vn -1.0 0.0 0.0
vn 1.0 0.0 0.0
vn 1.0 0.0 0.0
vn 1.0 0.0 0.0
vn 1.0 0.0 0.0
vn 1.0 0.0 0.0
vn 1.0 0.0 0.0
vn 1.0 0.0 0.0
vn 1.0 0.0 0.0
vn 1.0 0.0 0.0
vn 0.0 0.2587 0.9659
vn 0.0 0.2587 0.9659
vn 0.0 0.2587 0.9659
vn 0.0 0.2587 0.9659
vn 0.0 0.2587 0.9659
vn 0.0 0.2587 0.9659
vn -1.0 0.0 0.0
vn -1.0 0.0 0.0
vn -1.0 0.0 0.0
vn 1.0 0.0 0.0
vn 1.0 0.0 0.0
vn 1.0 0.0 0.0
vn 1.0 0.0 0.0
vn 1.0 0.0 0.0
vn 1.0 0.0 0.0
vn 1.0 0.0 0.0
vn 1.0 0.0 0.0
vn 1.0 0.0 0.0
vn 0.0 -0.2587 0.9659
vn 0.0 -0.2587 0.9659
vn 0.0 -0.2587 0.9659
vn 0.0 -0.2587 0.9659
vn 0.0 -0.2587 0.9659
vn 0.0 -0.2587 0.9659
vn -1.0 0.0 0.0
vn -1.0 0.0 0.0
vn -1.0 0.0 0.0
vn 1.0 0.0 0.0
vn 1.0 0.0 0.0
vn 1.0 0.0 0.0
vn 1.0 0.0 0.0
vn 1.0 0.0 0.0
vn 1.0 0.0 0.0
vn 1.0 0.0 0.0
vn 1.0 0.0 0.0
vn 1.0 0.0 0.0
vn 0.0 -0.7071 0.7071
vn 0.0 -0.7071 0.7071
vn 0.0 -0.7071 0.7071
vn 0.0 -0.7071 0.7071
vn 0.0 -0.7071 0.7071
vn 0.0 -0.7071 0.7071
vn -1.0 0.0 0.0
vn -1.0 0.0 0.0
vn -1.0 0.0 0.0
vn 1.0 0.0 0.0
vn 1.0 0.0 0.0
vn 1.0 0.0 0.0
vn 1.0 0.0 0.0
vn 1.0 0.0 0.0
vn 1.0 0.0 0.0
vn 1.0 0.0 0.0
vn 1.0 0.0 0.0
vn 1.0 0.0 0.0
vn 0.0 -0.966 0.2587
vn 0.0 -0.966 0.2587
vn 0.0 -0.966 0.2587
vn 0.0 -0.966 0.2587
vn 0.0 -0.966 0.2587
vn 0.0 -0.966 0.2587
vn -1.0 0.0 0.0
vn -1.0 0.0 0.0
vn -1.0 0.0 0.0
vn 1.0 0.0 0.0
vn 1.0 0.0 0.0
vn 1.0 0.0 0.0
vn 1.0 0.0 0.0
vn 1.0 0.0 0.0
vn 1.0 0.0 0.0
vn 1.0 0.0 0.0
vn 1.0 0.0 0.0
vn 1.0 0.0 0.0
vn 0.0 -0.966 -0.2587
vn 0.0 -0.966 -0.2587
vn 0.0 -0.966 -0.2587
vn 0.0 -0.966 -0.2587
vn 0.0 -0.966 -0.2587
vn 0.0 -0.966 -0.2587
vn -1.0 0.0 0.0
vn -1.0 0.0 0.0
vn -1.0 0.0 0.0
vn 1.0 0.0 0.0
vn 1.0 0.0 0.0
vn 1.0 0.0 0.0
vn 1.0 0.0 0.0
vn 1.0 0.0 0.0
vn 1.0 0.0 0.0
vn 1.0 0.0 0.0
vn 1.0 0.0 0.0
vn 1.0 0.0 0.0
vn 0.0 -0.7071 -0.7071
vn 0.0 -0.7071 -0.7071
vn 0.0 -0.7071 -0.7071
vn 0.0 -0.7071 -0.7071
vn 0.0 -0.7071 -0.7071
vn 0.0 -0.7071 -0.7071
vn -1.0 0.0 0.0
vn -1.0 0.0 0.0
vn -1.0 0.0 0.0
vn 1.0 0.0 0.0
vn 1.0 0.0 0.0
vn 1.0 0.0 0.0
vn 1.0 0.0 0.0
vn 1.0 0.0 0.0
vn 1.0 0.0 0.0
vn 1.0 0.0 0.0
vn 1.0 0.0 0.0
vn 1.0 0.0 0.0
vn 0.0 -0.2587 -0.9659
vn 0.0 -0.2587 -0.9659
vn 0.0 -0.2587 -0.9659
vn 0.0 -0.2587 -0.9659
vn 0.0 -0.2587 -0.9659
vn 0.0 -0.2587 -0.9659
vn -1.0 0.0 0.0
vn -1.0 0.0 0.0
vn -1.0 0.0 0.0
vn 1.0 0.0 0.0
vn 1.0 0.0 0.0
vn 1.0 0.0 0.0
vn 1.0 0.0 0.0
vn 1.0 0.0 0.0
vn 1.0 0.0 0.0
vn 1.0 0.0 0.0
vn 1.0 0.0 0.0
vn 1.0 0.0 0.0
f 65/1/1 28/2/2 63/3/3
f 28/4/4 19/5/5 63/6/6
f 65/7/7 63/8/8 66/9/9
f 64/10/10 66/11/11 63/12/12
f 7/13/13 66/14/14 27/15/15
f 66/16/16 64/17/17 27/18/18
f 69/19/19 31/20/20 67/21/21
f 31/22/22 20/23/23 67/24/24
f 69/25/25 67/26/26 70/27/27
f 68/28/28 70/29/29 67/30/30
f 8/31/31 70/32/32 30/33/33
f 70/34/34 68/35/35 30/36/36
f 73/37/37 34/38/38 71/39/39
f 34/40/40 21/41/41 71/42/42
f 73/43/43 71/44/44 74/45/45
f 72/46/46 74/47/47 71/48/48
f 9/49/49 74/50/50 33/51/51
f 74/52/52 72/53/53 33/54/54
f 77/55/55 37/56/56 75/57/57
f 37/58/58 22/59/59 75/60/60
f 77/61/61 75/62/62 78/63/63
f 76/64/64 78/65/65 75/66/66
f 10/67/67 78/68/68 36/69/69
f 78/70/70 76/71/71 36/72/72
f 81/73/73 40/74/74 79/75/75
f 40/76/76 23/77/77 79/78/78
f 81/79/79 79/80/80 82/81/81
f 80/82/82 82/83/83 79/84/84
f 11/85/85 82/86/86 39/87/87
f 82/88/88 80/89/89 39/90/90
f 85/91/91 43/92/92 83/93/93
f 43/94/94 24/95/95 83/96/96
f 85/97/97 83/98/98 86/99/99
f 84/100/100 86/101/101 83/102/102
f 12/103/103 86/104/104 42/105/105
f 86/106/106 84/107/107 42/108/108
f 89/109/109 46/110/110 87/111/111
f 46/112/112 25/113/113 87/114/114
f 89/115/115 87/116/116 90/117/117
f 88/118/118 90/119/119 87/120/120
f 13/121/121 90/122/122 45/123/123
f 90/124/124 88/125/125 45/126/126
f 93/127/127 48/128/128 91/129/129
f 48/130/130 3/131/131 91/132/132
f 93/133/133 91/134/134 94/135/135
f 92/136/136 94/137/137 91/138/138
f 15/139/139 94/140/140 49/141/141
f 94/142/142 92/143/143 49/144/144
f 97/145/145 52/146/146 95/147/147
f 52/148/148 14/149/149 95/150/150
f 97/151/151 95/152/152 98/153/153
f 96/154/154 98/155/155 95/156/156
f 2/157/157 98/158/158 51/159/159
f 98/160/160 96/161/161 51/162/162
f 101/163/163 55/164/164 99/165/165
f 55/166/166 16/167/167 99/168/168
f 101/169/169 99/170/170 102/171/171
f 100/172/172 102/173/173 99/174/174
f 4/175/175 102/176/176 54/177/177
f 102/178/178 100/179/179 54/180/180
f 105/181/181 58/182/182 103/183/183
f 58/184/184 17/185/185 103/186/186
f 105/187/187 103/188/188 106/189/189
f 104/190/190 106/191/191 103/192/192
f 5/193/193 106/194/194 57/195/195
f 106/196/196 104/197/197 57/198/198
f 109/199/199 61/200/200 107/201/201
f 61/202/202 18/203/203 107/204/204
f 109/205/205 107/206/206 110/207/207
f 108/208/208 110/209/209 107/210/210
f 6/211/211 110/212/212 60/213/213
f 110/214/214 108/215/215 60/216/216
f 19/217/217 26/218/218 63/219/219
f 26/220/220 27/221/221 63/222/222
f 63/223/223 27/224/224 64/225/225
f 7/226/226 29/227/227 66/228/228
f 29/229/229 28/230/230 66/231/231
f 66/232/232 28/233/233 65/234/234
f 20/235/235 26/236/236 67/237/237
f 26/238/238 30/239/239 67/240/240
f 67/241/241 30/242/242 68/243/243
f 8/244/244 32/245/245 70/246/246
f 32/247/247 31/248/248 70/249/249
f 70/250/250 31/251/251 69/252/252
f 21/253/253 26/254/254 71/255/255
f 26/256/256 33/257/257 71/258/258
f 71/259/259 33/260/260 72/261/261
f 9/262/262 35/263/263 74/264/264
f 35/265/265 34/266/266 74/267/267
f 74/268/268 34/269/269 73/270/270
f 22/271/271 26/272/272 75/273/273
f 26/274/274 36/275/275 75/276/276
f 75/277/277 36/278/278 76/279/279
f 10/280/280 38/281/281 78/282/282
f 38/283/283 37/284/284 78/285/285
f 78/286/286 37/287/287 77/288/288
f 23/289/289 26/290/290 79/291/291
f 26/292/292 39/293/293 79/294/294
f 79/295/295 39/296/296 80/297/297
f 11/298/298 41/299/299 82/300/300
f 41/301/301 40/302/302 82/303/303
f 82/304/304 40/305/305 81/306/306
f 24/307/307 26/308/308 83/309/309
f 26/310/310 42/311/311 83/312/312
f 83/313/313 42/314/314 84/315/315
f 12/316/316 44/317/317 86/318/318
f 44/319/319 43/320/320 86/321/321
f 86/322/322 43/323/323 85/324/324
f 25/325/325 26/326/326 87/327/327
f 26/328/328 45/329/329 87/330/330
f 87/331/331 45/332/332 88/333/333
f 13/334/334 47/335/335 90/336/336
f 47/337/337 46/338/338 90/339/339
f 90/340/340 46/341/341 89/342/342
f 15/343/343 26/344/344 94/345/345
f 26/346/346 48/347/347 94/348/348
f 94/349/349 48/350/350 93/351/351
f 3/352/352 50/353/353 91/354/354
f 50/355/355 49/356/356 91/357/357
f 91/358/358 49/359/359 92/360/360
f 14/361/361 26/362/362 95/363/363
f 26/364/364 51/365/365 95/366/366
f 95/367/367 51/368/368 96/369/369
f 2/370/370 53/371/371 98/372/372
f 53/373/373 52/374/374 98/375/375
f 98/376/376 52/377/377 97/378/378
f 16/379/379 26/380/380 99/381/381
f 26/382/382 54/383/383 99/384/384
f 99/385/385 54/386/386 100/387/387
f 4/388/388 56/389/389 102/390/390
f 56/391/391 55/392/392 102/393/393
f 102/394/394 55/395/395 101/396/396
f 17/397/397 26/398/398 103/399/399
f 26/400/400 57/401/401 103/402/402
f 103/403/403 57/404/404 104/405/405
f 5/406/406 59/407/407 106/408/408
f 59/409/409 58/410/410 106/411/411
f 106/412/412 58/413/413 105/414/414
f 18/415/415 26/416/416 107/417/417
f 26/418/418 60/419/419 107/420/420
f 107/421/421 60/422/422 108/423/423
f 6/424/424 62/425/425 110/426/426
f 62/427/427 61/428/428 110/429/429
f 110/430/430 61/431/431 109/432/432
f 20/433/433 31/434/434 27/435/435
f 31/436/436 7/437/437 27/438/438
f 20/439/439 27/440/440 26/441/441
f 19/442/442 60/443/443 26/444/444
f 28/445/445 6/446/446 19/447/447
f 6/448/448 60/449/449 19/450/450
f 62/451/451 6/452/452 1/453/453
f 6/454/454 28/455/455 1/456/456
f 28/457/457 29/458/458 1/459/459
f 29/460/460 7/461/461 1/462/462
f 7/463/463 31/464/464 1/465/465
f 31/466/466 32/467/467 1/468/468
f 34/469/469 8/470/470 21/471/471
f 8/472/472 30/473/473 21/474/474
f 21/475/475 30/476/476 26/477/477
f 32/478/478 8/479/479 1/480/480
f 8/481/481 34/482/482 1/483/483
f 34/484/484 35/485/485 1/486/486
f 22/487/487 37/488/488 33/489/489
f 37/490/490 9/491/491 33/492/492
f 22/493/493 33/494/494 26/495/495
f 35/496/496 9/497/497 1/498/498
f 9/499/499 37/500/500 1/501/501
f 37/502/502 38/503/503 1/504/504
f 23/505/505 40/506/506 36/507/507
f 40/508/508 10/509/509 36/510/510
f 23/511/511 36/512/512 26/513/513
f 38/514/514 10/515/515 1/516/516
f 10/517/517 40/518/518 1/519/519
f 40/520/520 41/521/521 1/522/522
f 24/523/523 43/524/524 39/525/525
f 43/526/526 11/527/527 39/528/528
f 24/529/529 39/530/530 26/531/531
f 41/532/532 11/533/533 1/534/534
f 11/535/535 43/536/536 1/537/537
f 43/538/538 44/539/539 1/540/540
f 25/541/541 46/542/542 42/543/543
f 46/544/544 12/545/545 42/546/546
f 25/547/547 42/548/548 26/549/549
f 44/550/550 12/551/551 1/552/552
f 12/553/553 46/554/554 1/555/555
f 46/556/556 47/557/557 1/558/558
f 49/559/559 13/560/560 15/561/561
f 13/562/562 45/563/563 15/564/564
f 15/565/565 45/566/566 26/567/567
f 47/568/568 13/569/569 1/570/570
f 13/571/571 49/572/572 1/573/573
f 49/574/574 50/575/575 1/576/576
f 14/577/577 52/578/578 48/579/579
f 52/580/580 3/581/581 48/582/582
f 14/583/583 48/584/584 26/585/585
f 50/586/586 3/587/587 1/588/588
f 3/589/589 52/590/590 1/591/591
f 52/592/592 53/593/593 1/594/594
f 55/595/595 2/596/596 16/597/597
f 2/598/598 51/599/599 16/600/600
f 16/601/601 51/602/602 26/603/603
f 53/604/604 2/605/605 1/606/606
f 2/607/607 55/608/608 1/609/609
f 55/610/610 56/611/611 1/612/612
f 17/613/613 58/614/614 54/615/615
f 58/616/616 4/617/617 54/618/618
f 17/619/619 54/620/620 26/621/621
f 56/622/622 4/623/623 1/624/624
f 4/625/625 58/626/626 1/627/627
f 58/628/628 59/629/629 1/630/630
f 61/631/631 5/632/632 18/633/633
f 5/634/634 57/635/635 18/636/636
f 18/637/637 57/638/638 26/639/639
f 59/640/640 5/641/641 1/642/642
f 5/643/643 61/644/644 1/645/645
f 61/646/646 62/647/647 1/648/648
