# Mesh 11
o Mesh11

v 0.5093 4.4386 0.0043
v 0.4797 4.302 0.0043
v 0.4 4.1872 0.0043
v 0.2825 4.1116 0.0043
v 0.145 4.0868 0.0043
v 0.4884 4.4389 -0.0463
v 0.4604 4.3104 -0.0463
v 0.3855 4.2023 -0.0463
v 0.2748 4.1311 -0.0463
v 0.1454 4.1077 -0.0463
v 0.4377 4.4398 -0.0673
v 0.414 4.3306 -0.0673
v 0.3503 4.2387 -0.0673
v 0.2563 4.1783 -0.0673
v 0.1463 4.1584 -0.0673
v 0.3871 4.4407 -0.0463
v 0.3676 4.3508 -0.0463
v 0.3151 4.2752 -0.0463
v 0.2377 4.2254 -0.0463
v 0.1472 4.209 -0.0463
v 0.3661 4.4411 0.0043
v 0.3483 4.3591 0.0043
v 0.3005 4.2902 0.0043
v 0.23 4.2449 0.0043
v 0.1475 4.23 0.0043
v 0.3871 4.4407 0.0549
v 0.3676 4.3508 0.0549
v 0.3151 4.2752 0.0549
v 0.2377 4.2254 0.0549
v 0.1472 4.209 0.0549
v 0.4377 4.4398 0.0759
v 0.414 4.3306 0.0759
v 0.3503 4.2387 0.0759
v 0.2563 4.1783 0.0759
v 0.1463 4.1584 0.0759
v 0.4884 4.4389 0.0549
v 0.4604 4.3104 0.0549
v 0.3855 4.2023 0.0549
v 0.2748 4.1311 0.0549
v 0.1454 4.1077 0.0549
v 0.5093 4.4383 0.0041
v 0.4845 4.5758 0.0041
v 0.4089 4.6934 0.0041
v 0.2941 4.773 0.0041
v 0.1575 4.8026 0.0041
v 0.4884 4.4387 0.0547
v 0.4649 4.5682 0.0547
v 0.3938 4.6788 0.0547
v 0.2857 4.7538 0.0547
v 0.1572 4.7817 0.0547
v 0.4377 4.4396 0.0757
v 0.4178 4.5496 0.0757
v 0.3574 4.6436 0.0757
v 0.2655 4.7073 0.0757
v 0.1563 4.731 0.0757
v 0.3871 4.4405 0.0547
v 0.3707 4.531 0.0547
v 0.3209 4.6084 0.0547
v 0.2453 4.6609 0.0547
v 0.1554 4.6804 0.0547
v 0.3661 4.4408 0.0041
v 0.3512 4.5233 0.0041
v 0.3058 4.5938 0.0041
v 0.237 4.6416 0.0041
v 0.155 4.6594 0.0041
v 0.3871 4.4405 -0.0465
v 0.3707 4.531 -0.0465
v 0.3209 4.6084 -0.0465
v 0.2453 4.6609 -0.0465
v 0.1554 4.6804 -0.0465
v 0.4377 4.4396 -0.0675
v 0.4178 4.5496 -0.0675
v 0.3574 4.6436 -0.0675
v 0.2655 4.7073 -0.0675
v 0.1563 4.731 -0.0675
v 0.4884 4.4387 -0.0465
v 0.4649 4.5682 -0.0465
v 0.3938 4.6788 -0.0465
v 0.2857 4.7538 -0.0465
v 0.1572 4.7817 -0.0465
vt 0.1438 0.1651
vt 0.1667 0.165
vt 0.1667 0.103
vt 0.1438 0.1068
vt 0.1438 0.1651
vt 0.1667 0.103
vt 0.5763 0.8308
vt 0.5639 0.7736
vt 0.5432 0.7825
vt 0.5763 0.8308
vt 0.5432 0.7825
vt 0.5538 0.8312
vt 0.5312 0.8316
vt 0.5538 0.8312
vt 0.5432 0.7825
vt 0.5312 0.8316
vt 0.5432 0.7825
vt 0.5226 0.7915
vt 0.1878 0.4983
vt 0.1878 0.4606
vt 0.1666 0.4641
vt 0.1878 0.4983
vt 0.1666 0.4641
vt 0.1666 0.4985
vt 0.1454 0.4606
vt 0.1454 0.4983
vt 0.1666 0.4985
vt 0.1454 0.4606
vt 0.1666 0.4985
vt 0.1666 0.4641
vt 0.1234 0.7825
vt 0.1129 0.8312
vt 0.1354 0.8316
vt 0.1234 0.7825
vt 0.1354 0.8316
vt 0.1441 0.7915
vt 0.1028 0.7736
vt 0.0903 0.8308
vt 0.1129 0.8312
vt 0.1129 0.8312
vt 0.1234 0.7825
vt 0.1028 0.7736
vt 0.1667 0.165
vt 0.1897 0.1651
vt 0.1897 0.1068
vt 0.1667 0.103
vt 0.1667 0.165
vt 0.1897 0.1068
vt 0.1438 0.1068
vt 0.1667 0.103
vt 0.1667 0.051
vt 0.1438 0.0578
vt 0.1438 0.1068
vt 0.1667 0.051
vt 0.5639 0.7736
vt 0.5305 0.7254
vt 0.5149 0.7416
vt 0.5639 0.7736
vt 0.5149 0.7416
vt 0.5432 0.7825
vt 0.5226 0.7915
vt 0.5432 0.7825
vt 0.5149 0.7416
vt 0.5226 0.7915
vt 0.5149 0.7416
vt 0.4992 0.7579
vt 0.1878 0.4606
vt 0.1878 0.429
vt 0.1666 0.4352
vt 0.1878 0.4606
vt 0.1666 0.4352
vt 0.1666 0.4641
vt 0.1454 0.429
vt 0.1454 0.4606
vt 0.1666 0.4641
vt 0.1454 0.429
vt 0.1666 0.4641
vt 0.1666 0.4352
vt 0.1518 0.7416
vt 0.1234 0.7825
vt 0.1441 0.7915
vt 0.1518 0.7416
vt 0.1441 0.7915
vt 0.1675 0.7579
vt 0.1361 0.7254
vt 0.1028 0.7736
vt 0.1234 0.7825
vt 0.1234 0.7825
vt 0.1518 0.7416
vt 0.1361 0.7254
vt 0.1667 0.103
vt 0.1897 0.1068
vt 0.1897 0.0578
vt 0.1667 0.051
vt 0.1667 0.103
vt 0.1897 0.0578
vt 0.1438 0.0578
vt 0.1667 0.051
vt 0.1667 0.0167
vt 0.1438 0.0255
vt 0.1438 0.0578
vt 0.1667 0.0167
vt 0.5305 0.7254
vt 0.4813 0.6937
vt 0.473 0.7148
vt 0.5305 0.7254
vt 0.473 0.7148
vt 0.5149 0.7416
vt 0.4992 0.7579
vt 0.5149 0.7416
vt 0.473 0.7148
vt 0.4992 0.7579
vt 0.473 0.7148
vt 0.4647 0.7357
vt 0.1878 0.429
vt 0.1878 0.4081
vt 0.1666 0.4163
vt 0.1878 0.429
vt 0.1666 0.4163
vt 0.1666 0.4352
vt 0.1454 0.4081
vt 0.1454 0.429
vt 0.1666 0.4352
vt 0.1454 0.4081
vt 0.1666 0.4352
vt 0.1666 0.4163
vt 0.1936 0.7148
vt 0.1518 0.7416
vt 0.1675 0.7579
vt 0.1936 0.7148
vt 0.1675 0.7579
vt 0.2019 0.7357
vt 0.1854 0.6937
vt 0.1361 0.7254
vt 0.1518 0.7416
vt 0.1518 0.7416
vt 0.1936 0.7148
vt 0.1854 0.6937
vt 0.1667 0.051
vt 0.1897 0.0578
vt 0.1897 0.0255
vt 0.1667 0.0167
vt 0.1667 0.051
vt 0.1897 0.0255
vt 0.4585 0.1236
vt 0.5002 0.1299
vt 0.5002 0.0167
vt 0.4585 0.017
vt 0.4585 0.1236
vt 0.5002 0.0167
vt 0.4813 0.6937
vt 0.4237 0.6833
vt 0.4241 0.7059
vt 0.4813 0.6937
vt 0.4241 0.7059
vt 0.473 0.7148
vt 0.4647 0.7357
vt 0.473 0.7148
vt 0.4241 0.7059
vt 0.4647 0.7357
vt 0.4241 0.7059
vt 0.4245 0.7284
vt 0.4581 0.575
vt 0.4581 0.65
vt 0.5 0.6498
vt 0.4581 0.575
vt 0.5 0.6498
vt 0.5 0.5814
vt 0.5419 0.65
vt 0.5419 0.575
vt 0.5 0.5814
vt 0.5419 0.65
vt 0.5 0.5814
vt 0.5 0.6498
vt 0.2426 0.7059
vt 0.1936 0.7148
vt 0.2019 0.7357
vt 0.2426 0.7059
vt 0.2019 0.7357
vt 0.2422 0.7284
vt 0.243 0.6833
vt 0.1854 0.6937
vt 0.1936 0.7148
vt 0.1936 0.7148
vt 0.2426 0.7059
vt 0.243 0.6833
vt 0.5002 0.1299
vt 0.5418 0.1236
vt 0.5418 0.017
vt 0.5002 0.0167
vt 0.5002 0.1299
vt 0.5418 0.017
vt 0.1454 0.3588
vt 0.1366 0.38
vt 0.1454 0.4012
vt 0.1666 0.35
vt 0.1454 0.3588
vt 0.1454 0.4012
vt 0.1878 0.3588
vt 0.1666 0.35
vt 0.1454 0.4012
vt 0.1966 0.38
vt 0.1878 0.3588
vt 0.1454 0.4012
vt 0.1878 0.4012
vt 0.1966 0.38
vt 0.1454 0.4012
vt 0.1454 0.4012
vt 0.1666 0.41
vt 0.1878 0.4012
vt 0.5 0.4686
vt 0.5419 0.4512
vt 0.5593 0.4093
vt 0.4581 0.4512
vt 0.5 0.4686
vt 0.5593 0.4093
vt 0.4407 0.4093
vt 0.4581 0.4512
vt 0.5593 0.4093
vt 0.4581 0.3673
vt 0.4407 0.4093
vt 0.5593 0.4093
vt 0.5 0.35
vt 0.4581 0.3673
vt 0.5593 0.4093
vt 0.5419 0.3673
vt 0.5 0.35
vt 0.5593 0.4093
vt 0.1896 0.165
vt 0.1666 0.1649
vt 0.1666 0.2272
vt 0.1896 0.2238
vt 0.1896 0.165
vt 0.1666 0.2272
vt 0.0903 0.8307
vt 0.1008 0.8883
vt 0.1218 0.88
vt 0.0903 0.8307
vt 0.1218 0.88
vt 0.1129 0.8311
vt 0.1354 0.8315
vt 0.1129 0.8311
vt 0.1218 0.88
vt 0.1354 0.8315
vt 0.1218 0.88
vt 0.1427 0.8717
vt 0.1455 0.4982
vt 0.1455 0.5362
vt 0.1667 0.5329
vt 0.1455 0.4982
vt 0.1667 0.5329
vt 0.1667 0.4984
vt 0.1879 0.5362
vt 0.1879 0.4982
vt 0.1667 0.4984
vt 0.1879 0.5362
vt 0.1667 0.4984
vt 0.1667 0.5329
vt 0.5449 0.88
vt 0.5538 0.8311
vt 0.5312 0.8315
vt 0.5449 0.88
vt 0.5312 0.8315
vt 0.5239 0.8717
vt 0.5659 0.8883
vt 0.5763 0.8307
vt 0.5538 0.8311
vt 0.5538 0.8311
vt 0.5449 0.88
vt 0.5659 0.8883
vt 0.1666 0.1649
vt 0.1437 0.165
vt 0.1437 0.2238
vt 0.1666 0.2272
vt 0.1666 0.1649
vt 0.1437 0.2238
vt 0.1896 0.2238
vt 0.1666 0.2272
vt 0.1666 0.2806
vt 0.1896 0.2739
vt 0.1896 0.2238
vt 0.1666 0.2806
vt 0.1008 0.8883
vt 0.1324 0.9375
vt 0.1486 0.9219
vt 0.1008 0.8883
vt 0.1486 0.9219
vt 0.1218 0.88
vt 0.1427 0.8717
vt 0.1218 0.88
vt 0.1486 0.9219
vt 0.1427 0.8717
vt 0.1486 0.9219
vt 0.1649 0.9062
vt 0.1455 0.5362
vt 0.1455 0.5686
vt 0.1667 0.5625
vt 0.1455 0.5362
vt 0.1667 0.5625
vt 0.1667 0.5329
vt 0.1879 0.5686
vt 0.1879 0.5362
vt 0.1667 0.5329
vt 0.1879 0.5686
vt 0.1667 0.5329
vt 0.1667 0.5625
vt 0.518 0.9219
vt 0.5449 0.88
vt 0.5239 0.8717
vt 0.518 0.9219
vt 0.5239 0.8717
vt 0.5018 0.9062
vt 0.5342 0.9375
vt 0.5659 0.8883
vt 0.5449 0.88
vt 0.5449 0.88
vt 0.518 0.9219
vt 0.5342 0.9375
vt 0.1666 0.2272
vt 0.1437 0.2238
vt 0.1437 0.2739
vt 0.1666 0.2806
vt 0.1666 0.2272
vt 0.1437 0.2739
vt 0.1896 0.2739
vt 0.1666 0.2806
vt 0.1666 0.3167
vt 0.1896 0.308
vt 0.1896 0.2739
vt 0.1666 0.3167
vt 0.1324 0.9375
vt 0.1806 0.9709
vt 0.1895 0.9502
vt 0.1324 0.9375
vt 0.1895 0.9502
vt 0.1486 0.9219
vt 0.1649 0.9062
vt 0.1486 0.9219
vt 0.1895 0.9502
vt 0.1649 0.9062
vt 0.1895 0.9502
vt 0.1985 0.9296
vt 0.1455 0.5686
vt 0.1455 0.5906
vt 0.1667 0.5825
vt 0.1455 0.5686
vt 0.1667 0.5825
vt 0.1667 0.5625
vt 0.1879 0.5906
vt 0.1879 0.5686
vt 0.1667 0.5625
vt 0.1879 0.5906
vt 0.1667 0.5625
vt 0.1667 0.5825
vt 0.4771 0.9502
vt 0.518 0.9219
vt 0.5018 0.9062
vt 0.4771 0.9502
vt 0.5018 0.9062
vt 0.4681 0.9296
vt 0.4861 0.9709
vt 0.5342 0.9375
vt 0.518 0.9219
vt 0.518 0.9219
vt 0.4771 0.9502
vt 0.4861 0.9709
vt 0.1666 0.2806
vt 0.1437 0.2739
vt 0.1437 0.308
vt 0.1666 0.3167
vt 0.1666 0.2806
vt 0.1437 0.308
vt 0.5418 0.5353
vt 0.4998 0.5283
vt 0.4998 0.6415
vt 0.5418 0.6417
vt 0.5418 0.5353
vt 0.4998 0.6415
vt 0.1806 0.9709
vt 0.2377 0.9833
vt 0.2382 0.9608
vt 0.1806 0.9709
vt 0.2382 0.9608
vt 0.1895 0.9502
vt 0.1985 0.9296
vt 0.1895 0.9502
vt 0.2382 0.9608
vt 0.1985 0.9296
vt 0.2382 0.9608
vt 0.2386 0.9382
vt 0.5417 0.0993
vt 0.5417 0.0252
vt 0.5 0.0249
vt 0.5417 0.0993
vt 0.5 0.0249
vt 0.5 0.0924
vt 0.4583 0.0252
vt 0.4583 0.0993
vt 0.5 0.0924
vt 0.4583 0.0252
vt 0.5 0.0924
vt 0.5 0.0249
vt 0.4285 0.9608
vt 0.4771 0.9502
vt 0.4681 0.9296
vt 0.4285 0.9608
vt 0.4681 0.9296
vt 0.4281 0.9382
vt 0.4289 0.9833
vt 0.4861 0.9709
vt 0.4771 0.9502
vt 0.4771 0.9502
vt 0.4285 0.9608
vt 0.4289 0.9833
vt 0.4998 0.5283
vt 0.4579 0.5353
vt 0.4579 0.6417
vt 0.4998 0.6415
vt 0.4998 0.5283
vt 0.4579 0.6417
vt 0.1879 0.6412
vt 0.1967 0.62
vt 0.1879 0.5988
vt 0.1667 0.65
vt 0.1879 0.6412
vt 0.1879 0.5988
vt 0.1455 0.6412
vt 0.1667 0.65
vt 0.1879 0.5988
vt 0.1367 0.62
vt 0.1455 0.6412
vt 0.1879 0.5988
vt 0.1455 0.5988
vt 0.1367 0.62
vt 0.1879 0.5988
vt 0.1879 0.5988
vt 0.1667 0.59
vt 0.1455 0.5988
vt 0.5 0.1987
vt 0.4583 0.216
vt 0.441 0.2577
vt 0.5417 0.216
vt 0.5 0.1987
vt 0.441 0.2577
vt 0.559 0.2577
vt 0.5417 0.216
vt 0.441 0.2577
vt 0.5417 0.2995
vt 0.559 0.2577
vt 0.441 0.2577
vt 0.5 0.3167
vt 0.5417 0.2995
vt 0.441 0.2577
vt 0.4583 0.2995
vt 0.5 0.3167
vt 0.441 0.2577
vn 0.9059 -0.1963 -0.3753
vn 0.9059 -0.1963 -0.3753
vn 0.9059 -0.1963 -0.3753
vn 0.9047 -0.1971 -0.3778
vn 0.9047 -0.1971 -0.3778
vn 0.9047 -0.1971 -0.3778
vn 0.3807 -0.083 -0.921
vn 0.3807 -0.083 -0.921
vn 0.3807 -0.083 -0.921
vn 0.3801 -0.0825 -0.9213
vn 0.3801 -0.0825 -0.9213
vn 0.3801 -0.0825 -0.9213
vn -0.3808 0.0826 -0.921
vn -0.3808 0.0826 -0.921
vn -0.3808 0.0826 -0.921
vn -0.3808 0.0826 -0.9209
vn -0.3808 0.0826 -0.9209
vn -0.3808 0.0826 -0.9209
vn -0.905 0.1963 -0.3774
vn -0.905 0.1963 -0.3774
vn -0.905 0.1963 -0.3774
vn -0.9051 0.1965 -0.3772
vn -0.9051 0.1965 -0.3772
vn -0.9051 0.1965 -0.3772
vn -0.9051 0.1963 0.3772
vn -0.9051 0.1963 0.3772
vn -0.9051 0.1963 0.3772
vn -0.905 0.1964 0.3774
vn -0.905 0.1964 0.3774
vn -0.905 0.1964 0.3774
vn -0.3808 0.0826 0.921
vn -0.3808 0.0826 0.921
vn -0.3808 0.0826 0.921
vn -0.3808 0.0826 0.9209
vn -0.3808 0.0826 0.9209
vn -0.3808 0.0826 0.9209
vn 0.3801 -0.0828 0.9212
vn 0.3801 -0.0828 0.9212
vn 0.3801 -0.0828 0.9212
vn 0.3808 -0.0827 0.9209
vn 0.3808 -0.0827 0.9209
vn 0.3808 -0.0827 0.9209
vn 0.9057 -0.1973 0.3753
vn 0.9057 -0.1973 0.3753
vn 0.9057 -0.1973 0.3753
vn 0.9049 -0.1961 0.3777
vn 0.9049 -0.1961 0.3777
vn 0.9049 -0.1961 0.3777
vn 0.7606 -0.528 -0.3778
vn 0.7606 -0.528 -0.3778
vn 0.7606 -0.528 -0.3778
vn 0.7617 -0.5278 -0.3758
vn 0.7617 -0.5278 -0.3758
vn 0.7617 -0.5278 -0.3758
vn 0.3201 -0.2218 -0.921
vn 0.3201 -0.2218 -0.921
vn 0.3201 -0.2218 -0.921
vn 0.3202 -0.2219 -0.921
vn 0.3202 -0.2219 -0.921
vn 0.3202 -0.2219 -0.921
vn -0.3202 0.2219 -0.921
vn -0.3202 0.2219 -0.921
vn -0.3202 0.2219 -0.921
vn -0.3195 0.2219 -0.9212
vn -0.3195 0.2219 -0.9212
vn -0.3195 0.2219 -0.9212
vn -0.761 0.5285 -0.3762
vn -0.761 0.5285 -0.3762
vn -0.761 0.5285 -0.3762
vn -0.761 0.528 -0.3769
vn -0.761 0.528 -0.3769
vn -0.761 0.528 -0.3769
vn -0.7608 0.5283 0.3769
vn -0.7608 0.5283 0.3769
vn -0.7608 0.5283 0.3769
vn -0.7613 0.5281 0.3762
vn -0.7613 0.5281 0.3762
vn -0.7613 0.5281 0.3762
vn -0.3202 0.2219 0.921
vn -0.3202 0.2219 0.921
vn -0.3202 0.2219 0.921
vn -0.3195 0.2219 0.9212
vn -0.3195 0.2219 0.9212
vn -0.3195 0.2219 0.9212
vn 0.3202 -0.2219 0.921
vn 0.3202 -0.2219 0.921
vn 0.3202 -0.2219 0.921
vn 0.3201 -0.2219 0.9211
vn 0.3201 -0.2219 0.9211
vn 0.3201 -0.2219 0.9211
vn 0.761 -0.5273 0.3778
vn 0.761 -0.5273 0.3778
vn 0.761 -0.5273 0.3778
vn 0.7612 -0.5285 0.3758
vn 0.7612 -0.5285 0.3758
vn 0.7612 -0.5285 0.3758
vn 0.5013 -0.7792 -0.3762
vn 0.5013 -0.7792 -0.3762
vn 0.5013 -0.7792 -0.3762
vn 0.5011 -0.7792 -0.3765
vn 0.5011 -0.7792 -0.3765
vn 0.5011 -0.7792 -0.3765
vn 0.2105 -0.3273 -0.9212
vn 0.2105 -0.3273 -0.9212
vn 0.2105 -0.3273 -0.9212
vn 0.2106 -0.3277 -0.921
vn 0.2106 -0.3277 -0.921
vn 0.2106 -0.3277 -0.921
vn -0.2103 0.3272 -0.9212
vn -0.2103 0.3272 -0.9212
vn -0.2103 0.3272 -0.9212
vn -0.2107 0.3275 -0.9211
vn -0.2107 0.3275 -0.9211
vn -0.2107 0.3275 -0.9211
vn -0.5013 0.7791 -0.3765
vn -0.5013 0.7791 -0.3765
vn -0.5013 0.7791 -0.3765
vn -0.501 0.7797 -0.3757
vn -0.501 0.7797 -0.3757
vn -0.501 0.7797 -0.3757
vn -0.5014 0.7794 0.3757
vn -0.5014 0.7794 0.3757
vn -0.5014 0.7794 0.3757
vn -0.5008 0.7794 0.3766
vn -0.5008 0.7794 0.3766
vn -0.5008 0.7794 0.3766
vn -0.2103 0.3272 0.9212
vn -0.2103 0.3272 0.9212
vn -0.2103 0.3272 0.9212
vn -0.2107 0.3275 0.9211
vn -0.2107 0.3275 0.9211
vn -0.2107 0.3275 0.9211
vn 0.2107 -0.3276 0.921
vn 0.2107 -0.3276 0.921
vn 0.2107 -0.3276 0.921
vn 0.2104 -0.3274 0.9212
vn 0.2104 -0.3274 0.9212
vn 0.2104 -0.3274 0.9212
vn 0.5012 -0.7793 0.3762
vn 0.5012 -0.7793 0.3762
vn 0.5012 -0.7793 0.3762
vn 0.5013 -0.7791 0.3765
vn 0.5013 -0.7791 0.3765
vn 0.5013 -0.7791 0.3765
vn 0.1644 -0.9118 -0.3764
vn 0.1644 -0.9118 -0.3764
vn 0.1644 -0.9118 -0.3764
vn 0.1649 -0.9121 -0.3754
vn 0.1649 -0.9121 -0.3754
vn 0.1649 -0.9121 -0.3754
vn 0.0692 -0.3828 -0.9212
vn 0.0692 -0.3828 -0.9212
vn 0.0692 -0.3828 -0.9212
vn 0.0692 -0.3827 -0.9213
vn 0.0692 -0.3827 -0.9213
vn 0.0692 -0.3827 -0.9213
vn -0.0693 0.3833 -0.921
vn -0.0693 0.3833 -0.921
vn -0.0693 0.3833 -0.921
vn -0.0695 0.3834 -0.9209
vn -0.0695 0.3834 -0.9209
vn -0.0695 0.3834 -0.9209
vn -0.1651 0.9113 -0.3772
vn -0.1651 0.9113 -0.3772
vn -0.1651 0.9113 -0.3772
vn -0.1647 0.9117 -0.3764
vn -0.1647 0.9117 -0.3764
vn -0.1647 0.9117 -0.3764
vn -0.1652 0.9116 0.3764
vn -0.1652 0.9116 0.3764
vn -0.1652 0.9116 0.3764
vn -0.1646 0.9114 0.3773
vn -0.1646 0.9114 0.3773
vn -0.1646 0.9114 0.3773
vn -0.0693 0.3833 0.921
vn -0.0693 0.3833 0.921
vn -0.0693 0.3833 0.921
vn -0.0695 0.3834 0.9209
vn -0.0695 0.3834 0.9209
vn -0.0695 0.3834 0.9209
vn 0.0692 -0.3828 0.9213
vn 0.0692 -0.3828 0.9213
vn 0.0692 -0.3828 0.9213
vn 0.0693 -0.3828 0.9212
vn 0.0693 -0.3828 0.9212
vn 0.0693 -0.3828 0.9212
vn 0.1649 -0.9117 0.3764
vn 0.1649 -0.9117 0.3764
vn 0.1649 -0.9117 0.3764
vn 0.1645 -0.9121 0.3754
vn 0.1645 -0.9121 0.3754
vn 0.1645 -0.9121 0.3754
vn -0.9998 0.0178 0.0
vn -0.9998 0.0178 0.0
vn -0.9998 0.0178 0.0
vn -0.9998 0.0178 0.0006
vn -0.9998 0.0178 0.0006
vn -0.9998 0.0178 0.0006
vn -0.9998 0.0182 -0.0004
vn -0.9998 0.0182 -0.0004
vn -0.9998 0.0182 -0.0004
vn -0.9998 0.0178 0.0
vn -0.9998 0.0178 0.0
vn -0.9998 0.0178 0.0
vn -0.9998 0.0178 0.0
vn -0.9998 0.0178 0.0
vn -0.9998 0.0178 0.0
vn -0.9999 0.0143 0.0
vn -0.9999 0.0143 0.0
vn -0.9999 0.0143 0.0
vn 0.0175 0.9998 0.0006
vn 0.0175 0.9998 0.0006
vn 0.0175 0.9998 0.0006
vn 0.0184 0.9998 -0.0003
vn 0.0184 0.9998 -0.0003
vn 0.0184 0.9998 -0.0003
vn 0.0178 0.9998 0.0
vn 0.0178 0.9998 0.0
vn 0.0178 0.9998 0.0
vn 0.0177 0.9998 0.0
vn 0.0177 0.9998 0.0
vn 0.0177 0.9998 0.0
vn 0.0161 0.9999 -0.0007
vn 0.0161 0.9999 -0.0007
vn 0.0161 0.9999 -0.0007
vn 0.0184 0.9998 0.0017
vn 0.0184 0.9998 0.0017
vn 0.0184 0.9998 0.0017
vn 0.9121 0.1645 0.3754
vn 0.9121 0.1645 0.3754
vn 0.9121 0.1645 0.3754
vn 0.911 0.1653 0.3777
vn 0.911 0.1653 0.3777
vn 0.911 0.1653 0.3777
vn 0.3832 0.0695 0.921
vn 0.3832 0.0695 0.921
vn 0.3832 0.0695 0.921
vn 0.3828 0.0693 0.9212
vn 0.3828 0.0693 0.9212
vn 0.3828 0.0693 0.9212
vn -0.3834 -0.0694 0.921
vn -0.3834 -0.0694 0.921
vn -0.3834 -0.0694 0.921
vn -0.3832 -0.0694 0.921
vn -0.3832 -0.0694 0.921
vn -0.3832 -0.0694 0.921
vn -0.9116 -0.1652 0.3764
vn -0.9116 -0.1652 0.3764
vn -0.9116 -0.1652 0.3764
vn -0.9114 -0.1646 0.3773
vn -0.9114 -0.1646 0.3773
vn -0.9114 -0.1646 0.3773
vn -0.9113 -0.1651 -0.3772
vn -0.9113 -0.1651 -0.3772
vn -0.9113 -0.1651 -0.3772
vn -0.9117 -0.1647 -0.3764
vn -0.9117 -0.1647 -0.3764
vn -0.9117 -0.1647 -0.3764
vn -0.3834 -0.0694 -0.921
vn -0.3834 -0.0694 -0.921
vn -0.3834 -0.0694 -0.921
vn -0.3832 -0.0694 -0.921
vn -0.3832 -0.0694 -0.921
vn -0.3832 -0.0694 -0.921
vn 0.3828 0.0695 -0.9212
vn 0.3828 0.0695 -0.9212
vn 0.3828 0.0695 -0.9212
vn 0.3833 0.0693 -0.921
vn 0.3833 0.0693 -0.921
vn 0.3833 0.0693 -0.921
vn 0.912 0.1655 -0.3754
vn 0.912 0.1655 -0.3754
vn 0.912 0.1655 -0.3754
vn 0.9112 0.1644 -0.3777
vn 0.9112 0.1644 -0.3777
vn 0.9112 0.1644 -0.3777
vn 0.7791 0.5009 0.377
vn 0.7791 0.5009 0.377
vn 0.7791 0.5009 0.377
vn 0.7791 0.5009 0.377
vn 0.7791 0.5009 0.377
vn 0.7791 0.5009 0.377
vn 0.3277 0.2106 0.921
vn 0.3277 0.2106 0.921
vn 0.3277 0.2106 0.921
vn 0.3276 0.2105 0.9211
vn 0.3276 0.2105 0.9211
vn 0.3276 0.2105 0.9211
vn -0.3276 -0.2105 0.9211
vn -0.3276 -0.2105 0.9211
vn -0.3276 -0.2105 0.9211
vn -0.3271 -0.2105 0.9213
vn -0.3271 -0.2105 0.9213
vn -0.3271 -0.2105 0.9213
vn -0.7789 -0.5012 0.377
vn -0.7789 -0.5012 0.377
vn -0.7789 -0.5012 0.377
vn -0.7789 -0.5016 0.3765
vn -0.7789 -0.5016 0.3765
vn -0.7789 -0.5016 0.3765
vn -0.7791 -0.5013 -0.3765
vn -0.7791 -0.5013 -0.3765
vn -0.7791 -0.5013 -0.3765
vn -0.7787 -0.5015 -0.3771
vn -0.7787 -0.5015 -0.3771
vn -0.7787 -0.5015 -0.3771
vn -0.3276 -0.2105 -0.9211
vn -0.3276 -0.2105 -0.9211
vn -0.3276 -0.2105 -0.9211
vn -0.3271 -0.2105 -0.9213
vn -0.3271 -0.2105 -0.9213
vn -0.3271 -0.2105 -0.9213
vn 0.3275 0.2106 -0.9211
vn 0.3275 0.2106 -0.9211
vn 0.3275 0.2106 -0.9211
vn 0.3277 0.2106 -0.921
vn 0.3277 0.2106 -0.921
vn 0.3277 0.2106 -0.921
vn 0.7791 0.5009 -0.377
vn 0.7791 0.5009 -0.377
vn 0.7791 0.5009 -0.377
vn 0.7791 0.5009 -0.377
vn 0.7791 0.5009 -0.377
vn 0.7791 0.5009 -0.377
vn 0.5277 0.7611 0.3771
vn 0.5277 0.7611 0.3771
vn 0.5277 0.7611 0.3771
vn 0.5281 0.7612 0.3765
vn 0.5281 0.7612 0.3765
vn 0.5281 0.7612 0.3765
vn 0.2218 0.3197 0.9212
vn 0.2218 0.3197 0.9212
vn 0.2218 0.3197 0.9212
vn 0.2219 0.3201 0.9211
vn 0.2219 0.3201 0.9211
vn 0.2219 0.3201 0.9211
vn -0.2216 -0.3198 0.9212
vn -0.2216 -0.3198 0.9212
vn -0.2216 -0.3198 0.9212
vn -0.2223 -0.3201 0.921
vn -0.2223 -0.3201 0.921
vn -0.2223 -0.3201 0.921
vn -0.5283 -0.7608 0.3769
vn -0.5283 -0.7608 0.3769
vn -0.5283 -0.7608 0.3769
vn -0.5284 -0.7606 0.3772
vn -0.5284 -0.7606 0.3772
vn -0.5284 -0.7606 0.3772
vn -0.5283 -0.7607 -0.3771
vn -0.5283 -0.7607 -0.3771
vn -0.5283 -0.7607 -0.3771
vn -0.5285 -0.7607 -0.3768
vn -0.5285 -0.7607 -0.3768
vn -0.5285 -0.7607 -0.3768
vn -0.2216 -0.3198 -0.9212
vn -0.2216 -0.3198 -0.9212
vn -0.2216 -0.3198 -0.9212
vn -0.2223 -0.3201 -0.921
vn -0.2223 -0.3201 -0.921
vn -0.2223 -0.3201 -0.921
vn 0.222 0.3199 -0.9211
vn 0.222 0.3199 -0.9211
vn 0.222 0.3199 -0.9211
vn 0.2216 0.3198 -0.9212
vn 0.2216 0.3198 -0.9212
vn 0.2216 0.3198 -0.9212
vn 0.528 0.761 -0.3771
vn 0.528 0.761 -0.3771
vn 0.528 0.761 -0.3771
vn 0.5279 0.7613 -0.3765
vn 0.5279 0.7613 -0.3765
vn 0.5279 0.7613 -0.3765
vn 0.1962 0.9055 0.3762
vn 0.1962 0.9055 0.3762
vn 0.1962 0.9055 0.3762
vn 0.1967 0.9058 0.3753
vn 0.1967 0.9058 0.3753
vn 0.1967 0.9058 0.3753
vn 0.0825 0.3801 0.9212
vn 0.0825 0.3801 0.9212
vn 0.0825 0.3801 0.9212
vn 0.0825 0.3802 0.9212
vn 0.0825 0.3802 0.9212
vn 0.0825 0.3802 0.9212
vn -0.0827 -0.3808 0.9209
vn -0.0827 -0.3808 0.9209
vn -0.0827 -0.3808 0.9209
vn -0.0826 -0.3808 0.921
vn -0.0826 -0.3808 0.921
vn -0.0826 -0.3808 0.921
vn -0.1963 -0.9051 0.3772
vn -0.1963 -0.9051 0.3772
vn -0.1963 -0.9051 0.3772
vn -0.1964 -0.905 0.3774
vn -0.1964 -0.905 0.3774
vn -0.1964 -0.905 0.3774
vn -0.1963 -0.905 -0.3774
vn -0.1963 -0.905 -0.3774
vn -0.1963 -0.905 -0.3774
vn -0.1965 -0.9051 -0.3772
vn -0.1965 -0.9051 -0.3772
vn -0.1965 -0.9051 -0.3772
vn -0.0827 -0.3808 -0.9209
vn -0.0827 -0.3808 -0.9209
vn -0.0827 -0.3808 -0.9209
vn -0.0826 -0.3808 -0.921
vn -0.0826 -0.3808 -0.921
vn -0.0826 -0.3808 -0.921
vn 0.0825 0.3802 -0.9212
vn 0.0825 0.3802 -0.9212
vn 0.0825 0.3802 -0.9212
vn 0.0825 0.3801 -0.9213
vn 0.0825 0.3801 -0.9213
vn 0.0825 0.3801 -0.9213
vn 0.1966 0.9054 -0.3762
vn 0.1966 0.9054 -0.3762
vn 0.1966 0.9054 -0.3762
vn 0.1963 0.9059 -0.3753
vn 0.1963 0.9059 -0.3753
vn 0.1963 0.9059 -0.3753
vn -0.9998 0.0178 0.0
vn -0.9998 0.0178 0.0
vn -0.9998 0.0178 0.0
vn -0.9998 0.0178 -0.0014
vn -0.9998 0.0178 -0.0014
vn -0.9998 0.0178 -0.0014
vn -0.9999 0.0168 0.001
vn -0.9999 0.0168 0.001
vn -0.9999 0.0168 0.001
vn -0.9998 0.0178 0.0
vn -0.9998 0.0178 0.0
vn -0.9998 0.0178 0.0
vn -0.9998 0.0178 0.0
vn -0.9998 0.0178 0.0
vn -0.9998 0.0178 0.0
vn -0.9998 0.019 0.0
vn -0.9998 0.019 0.0
vn -0.9998 0.019 0.0
vn -0.0185 -0.9998 -0.0018
vn -0.0185 -0.9998 -0.0018
vn -0.0185 -0.9998 -0.0018
vn -0.016 -0.9999 0.0007
vn -0.016 -0.9999 0.0007
vn -0.016 -0.9999 0.0007
vn -0.0178 -0.9998 0.0
vn -0.0178 -0.9998 0.0
vn -0.0178 -0.9998 0.0
vn -0.0178 -0.9998 0.0
vn -0.0178 -0.9998 0.0
vn -0.0178 -0.9998 0.0
vn -0.0184 -0.9998 0.0003
vn -0.0184 -0.9998 0.0003
vn -0.0184 -0.9998 0.0003
vn -0.0175 -0.9998 -0.0007
vn -0.0175 -0.9998 -0.0007
vn -0.0175 -0.9998 -0.0007
f 6/1/1 1/2/2 2/3/3
f 7/4/4 6/5/5 2/6/6
f 6/7/7 7/8/8 12/9/9
f 6/10/10 12/11/11 11/12/12
f 16/13/13 11/14/14 12/15/15
f 16/16/16 12/17/17 17/18/18
f 16/19/19 17/20/20 22/21/21
f 16/22/22 22/23/23 21/24/24
f 27/25/25 26/26/26 21/27/27
f 27/28/28 21/29/29 22/30/30
f 32/31/31 31/32/32 26/33/33
f 32/34/34 26/35/35 27/36/36
f 37/37/37 36/38/38 31/39/39
f 31/40/40 32/41/41 37/42/42
f 1/43/43 36/44/44 37/45/45
f 2/46/46 1/47/47 37/48/48
f 7/49/49 2/50/50 3/51/51
f 8/52/52 7/53/53 3/54/54
f 7/55/55 8/56/56 13/57/57
f 7/58/58 13/59/59 12/60/60
f 17/61/61 12/62/62 13/63/63
f 17/64/64 13/65/65 18/66/66
f 17/67/67 18/68/68 23/69/69
f 17/70/70 23/71/71 22/72/72
f 28/73/73 27/74/74 22/75/75
f 28/76/76 22/77/77 23/78/78
f 33/79/79 32/80/80 27/81/81
f 33/82/82 27/83/83 28/84/84
f 38/85/85 37/86/86 32/87/87
f 32/88/88 33/89/89 38/90/90
f 2/91/91 37/92/92 38/93/93
f 3/94/94 2/95/95 38/96/96
f 8/97/97 3/98/98 4/99/99
f 9/100/100 8/101/101 4/102/102
f 8/103/103 9/104/104 14/105/105
f 8/106/106 14/107/107 13/108/108
f 18/109/109 13/110/110 14/111/111
f 18/112/112 14/113/113 19/114/114
f 18/115/115 19/116/116 24/117/117
f 18/118/118 24/119/119 23/120/120
f 29/121/121 28/122/122 23/123/123
f 29/124/124 23/125/125 24/126/126
f 34/127/127 33/128/128 28/129/129
f 34/130/130 28/131/131 29/132/132
f 39/133/133 38/134/134 33/135/135
f 33/136/136 34/137/137 39/138/138
f 3/139/139 38/140/140 39/141/141
f 4/142/142 3/143/143 39/144/144
f 9/145/145 4/146/146 5/147/147
f 10/148/148 9/149/149 5/150/150
f 9/151/151 10/152/152 15/153/153
f 9/154/154 15/155/155 14/156/156
f 19/157/157 14/158/158 15/159/159
f 19/160/160 15/161/161 20/162/162
f 19/163/163 20/164/164 25/165/165
f 19/166/166 25/167/167 24/168/168
f 30/169/169 29/170/170 24/171/171
f 30/172/172 24/173/173 25/174/174
f 35/175/175 34/176/176 29/177/177
f 35/178/178 29/179/179 30/180/180
f 40/181/181 39/182/182 34/183/183
f 34/184/184 35/185/185 40/186/186
f 4/187/187 39/188/188 40/189/189
f 5/190/190 4/191/191 40/192/192
f 40/193/193 35/194/194 30/195/195
f 5/196/196 40/197/197 30/198/198
f 10/199/199 5/200/200 30/201/201
f 15/202/202 10/203/203 30/204/204
f 20/205/205 15/206/206 30/207/207
f 30/208/208 25/209/209 20/210/210
f 21/211/211 26/212/212 31/213/213
f 16/214/214 21/215/215 31/216/216
f 11/217/217 16/218/218 31/219/219
f 6/220/220 11/221/221 31/222/222
f 1/223/223 6/224/224 31/225/225
f 36/226/226 1/227/227 31/228/228
f 46/229/229 41/230/230 42/231/231
f 47/232/232 46/233/233 42/234/234
f 46/235/235 47/236/236 52/237/237
f 46/238/238 52/239/239 51/240/240
f 56/241/241 51/242/242 52/243/243
f 56/244/244 52/245/245 57/246/246
f 56/247/247 57/248/248 62/249/249
f 56/250/250 62/251/251 61/252/252
f 67/253/253 66/254/254 61/255/255
f 67/256/256 61/257/257 62/258/258
f 72/259/259 71/260/260 66/261/261
f 72/262/262 66/263/263 67/264/264
f 77/265/265 76/266/266 71/267/267
f 71/268/268 72/269/269 77/270/270
f 41/271/271 76/272/272 77/273/273
f 42/274/274 41/275/275 77/276/276
f 47/277/277 42/278/278 43/279/279
f 48/280/280 47/281/281 43/282/282
f 47/283/283 48/284/284 53/285/285
f 47/286/286 53/287/287 52/288/288
f 57/289/289 52/290/290 53/291/291
f 57/292/292 53/293/293 58/294/294
f 57/295/295 58/296/296 63/297/297
f 57/298/298 63/299/299 62/300/300
f 68/301/301 67/302/302 62/303/303
f 68/304/304 62/305/305 63/306/306
f 73/307/307 72/308/308 67/309/309
f 73/310/310 67/311/311 68/312/312
f 78/313/313 77/314/314 72/315/315
f 72/316/316 73/317/317 78/318/318
f 42/319/319 77/320/320 78/321/321
f 43/322/322 42/323/323 78/324/324
f 48/325/325 43/326/326 44/327/327
f 49/328/328 48/329/329 44/330/330
f 48/331/331 49/332/332 54/333/333
f 48/334/334 54/335/335 53/336/336
f 58/337/337 53/338/338 54/339/339
f 58/340/340 54/341/341 59/342/342
f 58/343/343 59/344/344 64/345/345
f 58/346/346 64/347/347 63/348/348
f 69/349/349 68/350/350 63/351/351
f 69/352/352 63/353/353 64/354/354
f 74/355/355 73/356/356 68/357/357
f 74/358/358 68/359/359 69/360/360
f 79/361/361 78/362/362 73/363/363
f 73/364/364 74/365/365 79/366/366
f 43/367/367 78/368/368 79/369/369
f 44/370/370 43/371/371 79/372/372
f 49/373/373 44/374/374 45/375/375
f 50/376/376 49/377/377 45/378/378
f 49/379/379 50/380/380 55/381/381
f 49/382/382 55/383/383 54/384/384
f 59/385/385 54/386/386 55/387/387
f 59/388/388 55/389/389 60/390/390
f 59/391/391 60/392/392 65/393/393
f 59/394/394 65/395/395 64/396/396
f 70/397/397 69/398/398 64/399/399
f 70/400/400 64/401/401 65/402/402
f 75/403/403 74/404/404 69/405/405
f 75/406/406 69/407/407 70/408/408
f 80/409/409 79/410/410 74/411/411
f 74/412/412 75/413/413 80/414/414
f 44/415/415 79/416/416 80/417/417
f 45/418/418 44/419/419 80/420/420
f 80/421/421 75/422/422 70/423/423
f 45/424/424 80/425/425 70/426/426
f 50/427/427 45/428/428 70/429/429
f 55/430/430 50/431/431 70/432/432
f 60/433/433 55/434/434 70/435/435
f 70/436/436 65/437/437 60/438/438
f 61/439/439 66/440/440 71/441/441
f 56/442/442 61/443/443 71/444/444
f 51/445/445 56/446/446 71/447/447
f 46/448/448 51/449/449 71/450/450
f 41/451/451 46/452/452 71/453/453
f 76/454/454 41/455/455 71/456/456
