# Mesh 4
o Mesh4

v 0.495 2.4878 0.001
v 0.4283 2.4878 -0.2485
v 0.2462 2.4878 -0.4312
v -0.0027 2.4878 -0.498
v -0.2515 2.4878 -0.4312
v -0.4337 2.4878 -0.2485
v -0.5003 2.4878 0.001
v -0.4337 2.4878 0.2505
v -0.2515 2.4878 0.4332
v -0.0027 2.4878 0.5
v 0.2462 2.4878 0.4332
v 0.4283 2.4878 0.2505
v -0.0027 2.7413 -0.3975
v 0.1961 2.7413 -0.3441
v -0.2014 2.7413 -0.3441
v -0.3468 2.7413 -0.1983
v -0.4001 2.7413 0.001
v -0.3468 2.7413 0.2003
v -0.2014 2.7413 0.3461
v -0.0027 2.7413 0.3995
v 0.1961 2.7413 0.3461
v 0.3415 2.7413 0.2003
v 0.3948 2.7413 0.001
v 0.3415 2.7413 -0.1983
v -0.0027 2.7413 0.001
v 0.3858 2.7413 0.001
v 0.3337 2.7413 0.196
v 0.3337 2.7413 -0.194
v 0.1915 2.7413 0.3386
v -0.0027 2.7413 0.3908
v -0.1968 2.7413 0.3386
v -0.339 2.7413 0.196
v -0.3911 2.7413 0.001
v -0.339 2.7413 -0.194
v -0.1968 2.7413 -0.3366
v -0.0027 2.7413 -0.3888
v 0.1915 2.7413 -0.3366
v 0.0001 2.3823 -0.0023
v 0.3337 2.3823 -0.194
v 0.3858 2.3823 0.001
v 0.1915 2.3823 -0.3366
v -0.0027 2.3823 -0.3888
v -0.1968 2.3823 -0.3366
v -0.339 2.3823 -0.194
v -0.3911 2.3823 0.001
v -0.339 2.3823 0.196
v -0.1968 2.3823 0.3386
v -0.0027 2.3823 0.3908
v 0.1915 2.3823 0.3386
v 0.3337 2.3823 0.196
v 0.4283 2.6358 -0.2485
v 0.495 2.6358 0.001
v 0.2462 2.6358 -0.4312
v -0.0027 2.6358 -0.498
v -0.2515 2.6358 -0.4312
v -0.4337 2.6358 -0.2485
v -0.5003 2.6358 0.001
v -0.4337 2.6358 0.2505
v -0.2515 2.6358 0.4332
v -0.0027 2.6358 0.5
v 0.2462 2.6358 0.4332
v 0.4283 2.6358 0.2505
v 0.4224 2.4416 -0.2451
v 0.4047 2.4087 -0.2349
v 0.3751 2.3889 -0.2179
v 0.2428 2.4416 -0.4253
v 0.2325 2.4087 -0.4075
v 0.2154 2.3889 -0.378
v -0.0027 2.4416 -0.4912
v -0.0027 2.4087 -0.4707
v -0.0027 2.3889 -0.4366
v -0.2481 2.4416 -0.4253
v -0.2378 2.4087 -0.4075
v -0.2207 2.3889 -0.378
v -0.4277 2.4416 -0.2451
v -0.41 2.4087 -0.2349
v -0.3804 2.3889 -0.2179
v -0.4935 2.4416 0.001
v -0.473 2.4087 0.001
v -0.4389 2.3889 0.001
v -0.4277 2.4416 0.2471
v -0.41 2.4087 0.2369
v -0.3804 2.3889 0.2199
v -0.2481 2.4416 0.4273
v -0.2378 2.4087 0.4095
v -0.2207 2.3889 0.38
v -0.0027 2.4416 0.4932
v -0.0027 2.4087 0.4727
v -0.0027 2.3889 0.4386
v 0.2428 2.4416 0.4273
v 0.2325 2.4087 0.4095
v 0.2154 2.3889 0.38
v 0.4882 2.4416 0.001
v 0.4677 2.4087 0.001
v 0.4336 2.3889 0.001
v 0.4224 2.4416 0.2471
v 0.4047 2.4087 0.2369
v 0.3751 2.3889 0.2199
v 0.3751 2.7347 -0.2179
v 0.4047 2.7149 -0.2349
v 0.4224 2.6819 -0.2451
v 0.2154 2.7347 -0.378
v 0.2325 2.7149 -0.4075
v 0.2428 2.6819 -0.4253
v -0.0027 2.7347 -0.4366
v -0.0027 2.7149 -0.4707
v -0.0027 2.6819 -0.4912
v -0.2207 2.7347 -0.378
v -0.2378 2.7149 -0.4075
v -0.2481 2.6819 -0.4253
v -0.3804 2.7347 -0.2179
v -0.41 2.7149 -0.2349
v -0.4277 2.6819 -0.2451
v -0.4389 2.7347 0.001
v -0.473 2.7149 0.001
v -0.4935 2.6819 0.001
v -0.3804 2.7347 0.2199
v -0.41 2.7149 0.2369
v -0.4277 2.6819 0.2471
v -0.2207 2.7347 0.38
v -0.2378 2.7149 0.4095
v -0.2481 2.6819 0.4273
v -0.0027 2.7347 0.4386
v -0.0027 2.7149 0.4727
v -0.0027 2.6819 0.4932
v 0.2154 2.7347 0.38
v 0.2325 2.7149 0.4095
v 0.2428 2.6819 0.4273
v 0.4336 2.7347 0.001
v 0.4677 2.7149 0.001
v 0.4882 2.6819 0.001
v 0.3751 2.7347 0.2199
v 0.4047 2.7149 0.2369
v 0.4224 2.6819 0.2471
vt 0.3812 0.1667
vt 0.3786 0.1667
vt 0.3948 0.2272
vt 0.3971 0.2258
vt 0.3812 0.1667
vt 0.3948 0.2272
vt 0.3971 0.1075
vt 0.3948 0.1061
vt 0.3786 0.1667
vt 0.3812 0.1667
vt 0.3971 0.1075
vt 0.3786 0.1667
vt 0.4406 0.0642
vt 0.4393 0.0618
vt 0.3948 0.1061
vt 0.3971 0.1075
vt 0.4406 0.0642
vt 0.3948 0.1061
vt 0.5 0.0483
vt 0.5 0.0455
vt 0.4393 0.0618
vt 0.4406 0.0642
vt 0.5 0.0483
vt 0.4393 0.0618
vt 0.5594 0.0642
vt 0.5607 0.0618
vt 0.5 0.0455
vt 0.5 0.0483
vt 0.5594 0.0642
vt 0.5 0.0455
vt 0.6029 0.1075
vt 0.6052 0.1061
vt 0.5607 0.0618
vt 0.5594 0.0642
vt 0.6029 0.1075
vt 0.5607 0.0618
vt 0.6188 0.1667
vt 0.6214 0.1667
vt 0.6052 0.1061
vt 0.6029 0.1075
vt 0.6188 0.1667
vt 0.6052 0.1061
vt 0.6029 0.2258
vt 0.6052 0.2272
vt 0.6214 0.1667
vt 0.6188 0.1667
vt 0.6029 0.2258
vt 0.6214 0.1667
vt 0.5594 0.2692
vt 0.5607 0.2715
vt 0.6052 0.2272
vt 0.6029 0.2258
vt 0.5594 0.2692
vt 0.6052 0.2272
vt 0.5 0.285
vt 0.5 0.2878
vt 0.5607 0.2715
vt 0.5594 0.2692
vt 0.5 0.285
vt 0.5607 0.2715
vt 0.4406 0.2692
vt 0.4393 0.2715
vt 0.5 0.2878
vt 0.5 0.285
vt 0.4406 0.2692
vt 0.5 0.2878
vt 0.3971 0.2258
vt 0.3948 0.2272
vt 0.4393 0.2715
vt 0.4406 0.2692
vt 0.3971 0.2258
vt 0.4393 0.2715
vt 0.3948 0.2272
vt 0.3786 0.1667
vt 0.5 0.1667
vt 0.3786 0.1667
vt 0.3948 0.1061
vt 0.5 0.1667
vt 0.3948 0.1061
vt 0.4393 0.0618
vt 0.5 0.1667
vt 0.4393 0.0618
vt 0.5 0.0455
vt 0.5 0.1667
vt 0.5 0.0455
vt 0.5607 0.0618
vt 0.5 0.1667
vt 0.5607 0.0618
vt 0.6052 0.1061
vt 0.5 0.1667
vt 0.6052 0.1061
vt 0.6214 0.1667
vt 0.5 0.1667
vt 0.6214 0.1667
vt 0.6052 0.2272
vt 0.5 0.1667
vt 0.6052 0.2272
vt 0.5607 0.2715
vt 0.5 0.1667
vt 0.5607 0.2715
vt 0.5 0.2878
vt 0.5 0.1667
vt 0.5 0.2878
vt 0.4393 0.2715
vt 0.5 0.1667
vt 0.4393 0.2715
vt 0.3948 0.2272
vt 0.5 0.1667
vt 0.1667 0.141
vt 0.1667 0.1923
vt 0.2533 0.1923
vt 0.2533 0.141
vt 0.1667 0.141
vt 0.2533 0.1923
vt 0.0801 0.141
vt 0.0801 0.1923
vt 0.1667 0.1923
vt 0.1667 0.141
vt 0.0801 0.141
vt 0.1667 0.1923
vt 0.2533 0.141
vt 0.2533 0.1923
vt 0.3167 0.1923
vt 0.3167 0.141
vt 0.2533 0.141
vt 0.3167 0.1923
vt 0.0167 0.7888
vt 0.0167 0.878
vt 0.1667 0.878
vt 0.1667 0.7888
vt 0.0167 0.7888
vt 0.1667 0.878
vt 0.1667 0.7888
vt 0.1667 0.878
vt 0.3167 0.878
vt 0.3167 0.7888
vt 0.1667 0.7888
vt 0.3167 0.878
vt 0.0167 0.4743
vt 0.0167 0.5257
vt 0.0801 0.5257
vt 0.0801 0.4743
vt 0.0167 0.4743
vt 0.0801 0.5257
vt 0.0801 0.4743
vt 0.0801 0.5257
vt 0.1667 0.5257
vt 0.1667 0.4743
vt 0.0801 0.4743
vt 0.1667 0.5257
vt 0.1667 0.4743
vt 0.1667 0.5257
vt 0.2533 0.5257
vt 0.2533 0.4743
vt 0.1667 0.4743
vt 0.2533 0.5257
vt 0.2533 0.4743
vt 0.2533 0.5257
vt 0.3167 0.5257
vt 0.3167 0.4743
vt 0.2533 0.4743
vt 0.3167 0.5257
vt 0.35 0.7888
vt 0.35 0.878
vt 0.5 0.878
vt 0.5 0.7888
vt 0.35 0.7888
vt 0.5 0.878
vt 0.5 0.7888
vt 0.5 0.878
vt 0.65 0.878
vt 0.65 0.7888
vt 0.5 0.7888
vt 0.65 0.878
vt 0.0167 0.141
vt 0.0167 0.1923
vt 0.0801 0.1923
vt 0.0801 0.141
vt 0.0167 0.141
vt 0.0801 0.1923
vt 0.499 0.1675
vt 0.6029 0.1075
vt 0.5594 0.0642
vt 0.499 0.1675
vt 0.6188 0.1667
vt 0.6029 0.1075
vt 0.499 0.1675
vt 0.6029 0.2258
vt 0.6188 0.1667
vt 0.499 0.1675
vt 0.5594 0.2692
vt 0.6029 0.2258
vt 0.499 0.1675
vt 0.5 0.285
vt 0.5594 0.2692
vt 0.499 0.1675
vt 0.4406 0.2692
vt 0.5 0.285
vt 0.499 0.1675
vt 0.3971 0.2258
vt 0.4406 0.2692
vt 0.499 0.1675
vt 0.3812 0.1667
vt 0.3971 0.2258
vt 0.499 0.1675
vt 0.3971 0.1075
vt 0.3812 0.1667
vt 0.499 0.1675
vt 0.4406 0.0642
vt 0.3971 0.1075
vt 0.499 0.1675
vt 0.5 0.0483
vt 0.4406 0.0642
vt 0.499 0.1675
vt 0.5594 0.0642
vt 0.5 0.0483
vt 0.0801 0.141
vt 0.1667 0.141
vt 0.1667 0.1249
vt 0.0813 0.1249
vt 0.0801 0.141
vt 0.1667 0.1249
vt 0.0813 0.1249
vt 0.1667 0.1249
vt 0.1667 0.1135
vt 0.1667 0.1135
vt 0.0848 0.1135
vt 0.0813 0.1249
vt 0.5 0.31
vt 0.5 0.2996
vt 0.4333 0.2818
vt 0.5 0.31
vt 0.4333 0.2818
vt 0.4281 0.2908
vt 0.5 0.2996
vt 0.5 0.285
vt 0.4406 0.2692
vt 0.4333 0.2818
vt 0.5 0.2996
vt 0.4406 0.2692
vt 0.0167 0.141
vt 0.0801 0.141
vt 0.0813 0.1249
vt 0.0187 0.1249
vt 0.0167 0.141
vt 0.0813 0.1249
vt 0.0187 0.1249
vt 0.0813 0.1249
vt 0.0848 0.1135
vt 0.0848 0.1135
vt 0.0249 0.1135
vt 0.0187 0.1249
vt 0.4281 0.2908
vt 0.4333 0.2818
vt 0.3845 0.2331
vt 0.4281 0.2908
vt 0.3845 0.2331
vt 0.3755 0.2383
vt 0.4333 0.2818
vt 0.4406 0.2692
vt 0.3971 0.2258
vt 0.3845 0.2331
vt 0.4333 0.2818
vt 0.3971 0.2258
vt 0.5 0.7888
vt 0.65 0.7888
vt 0.648 0.7609
vt 0.5 0.7609
vt 0.5 0.7888
vt 0.648 0.7609
vt 0.35 0.1667
vt 0.3701 0.2415
vt 0.3755 0.2383
vt 0.3755 0.2383
vt 0.3562 0.1667
vt 0.35 0.1667
vt 0.3755 0.2383
vt 0.3845 0.2331
vt 0.3666 0.1667
vt 0.3755 0.2383
vt 0.3666 0.1667
vt 0.3562 0.1667
vt 0.3845 0.2331
vt 0.3971 0.2258
vt 0.3812 0.1667
vt 0.3845 0.2331
vt 0.3812 0.1667
vt 0.3666 0.1667
vt 0.35 0.7888
vt 0.5 0.7888
vt 0.5 0.7609
vt 0.352 0.7609
vt 0.35 0.7888
vt 0.5 0.7609
vt 0.3701 0.0919
vt 0.35 0.1667
vt 0.3562 0.1667
vt 0.3562 0.1667
vt 0.3755 0.095
vt 0.3701 0.0919
vt 0.3562 0.1667
vt 0.3666 0.1667
vt 0.3845 0.1002
vt 0.3562 0.1667
vt 0.3845 0.1002
vt 0.3755 0.095
vt 0.3666 0.1667
vt 0.3812 0.1667
vt 0.3971 0.1075
vt 0.3666 0.1667
vt 0.3971 0.1075
vt 0.3845 0.1002
vt 0.2533 0.4743
vt 0.3167 0.4743
vt 0.3146 0.4583
vt 0.2521 0.4583
vt 0.2533 0.4743
vt 0.3146 0.4583
vt 0.2521 0.4583
vt 0.3146 0.4583
vt 0.3084 0.4469
vt 0.3084 0.4469
vt 0.2485 0.4469
vt 0.2521 0.4583
vt 0.3755 0.095
vt 0.3845 0.1002
vt 0.4333 0.0515
vt 0.3755 0.095
vt 0.4333 0.0515
vt 0.4281 0.0425
vt 0.3845 0.1002
vt 0.3971 0.1075
vt 0.4406 0.0642
vt 0.4333 0.0515
vt 0.3845 0.1002
vt 0.4406 0.0642
vt 0.1667 0.4743
vt 0.2533 0.4743
vt 0.2521 0.4583
vt 0.1667 0.4583
vt 0.1667 0.4743
vt 0.2521 0.4583
vt 0.1667 0.4583
vt 0.2521 0.4583
vt 0.2485 0.4469
vt 0.2485 0.4469
vt 0.1667 0.4469
vt 0.1667 0.4583
vt 0.4281 0.0425
vt 0.4333 0.0515
vt 0.5 0.0337
vt 0.4281 0.0425
vt 0.5 0.0337
vt 0.5 0.0233
vt 0.4333 0.0515
vt 0.4406 0.0642
vt 0.5 0.0483
vt 0.5 0.0337
vt 0.4333 0.0515
vt 0.5 0.0483
vt 0.0801 0.4743
vt 0.1667 0.4743
vt 0.1667 0.4583
vt 0.0813 0.4583
vt 0.0801 0.4743
vt 0.1667 0.4583
vt 0.0813 0.4583
vt 0.1667 0.4583
vt 0.1667 0.4469
vt 0.1667 0.4469
vt 0.0848 0.4469
vt 0.0813 0.4583
vt 0.5 0.0233
vt 0.5 0.0337
vt 0.5667 0.0515
vt 0.5 0.0233
vt 0.5667 0.0515
vt 0.5719 0.0425
vt 0.5 0.0337
vt 0.5 0.0483
vt 0.5594 0.0642
vt 0.5667 0.0515
vt 0.5 0.0337
vt 0.5594 0.0642
vt 0.0167 0.4743
vt 0.0801 0.4743
vt 0.0813 0.4583
vt 0.0187 0.4583
vt 0.0167 0.4743
vt 0.0813 0.4583
vt 0.0187 0.4583
vt 0.0813 0.4583
vt 0.0848 0.4469
vt 0.0848 0.4469
vt 0.0249 0.4469
vt 0.0187 0.4583
vt 0.5719 0.0425
vt 0.5667 0.0515
vt 0.6155 0.1002
vt 0.5719 0.0425
vt 0.6155 0.1002
vt 0.6245 0.095
vt 0.5667 0.0515
vt 0.5594 0.0642
vt 0.6029 0.1075
vt 0.6155 0.1002
vt 0.5667 0.0515
vt 0.6029 0.1075
vt 0.1667 0.7888
vt 0.3167 0.7888
vt 0.3146 0.7609
vt 0.1667 0.7609
vt 0.1667 0.7888
vt 0.3146 0.7609
vt 0.65 0.1667
vt 0.6299 0.0919
vt 0.6245 0.095
vt 0.6245 0.095
vt 0.6438 0.1667
vt 0.65 0.1667
vt 0.6245 0.095
vt 0.6155 0.1002
vt 0.6334 0.1667
vt 0.6245 0.095
vt 0.6334 0.1667
vt 0.6438 0.1667
vt 0.6155 0.1002
vt 0.6029 0.1075
vt 0.6188 0.1667
vt 0.6155 0.1002
vt 0.6188 0.1667
vt 0.6334 0.1667
vt 0.0167 0.7888
vt 0.1667 0.7888
vt 0.1667 0.7609
vt 0.0187 0.7609
vt 0.0167 0.7888
vt 0.1667 0.7609
vt 0.6299 0.2415
vt 0.65 0.1667
vt 0.6438 0.1667
vt 0.6438 0.1667
vt 0.6245 0.2383
vt 0.6299 0.2415
vt 0.6438 0.1667
vt 0.6334 0.1667
vt 0.6155 0.2331
vt 0.6438 0.1667
vt 0.6155 0.2331
vt 0.6245 0.2383
vt 0.6334 0.1667
vt 0.6188 0.1667
vt 0.6029 0.2258
vt 0.6334 0.1667
vt 0.6029 0.2258
vt 0.6155 0.2331
vt 0.2533 0.141
vt 0.3167 0.141
vt 0.3146 0.1249
vt 0.2521 0.1249
vt 0.2533 0.141
vt 0.3146 0.1249
vt 0.2521 0.1249
vt 0.3146 0.1249
vt 0.3084 0.1135
vt 0.3084 0.1135
vt 0.2485 0.1135
vt 0.2521 0.1249
vt 0.6245 0.2383
vt 0.6155 0.2331
vt 0.5667 0.2818
vt 0.6245 0.2383
vt 0.5667 0.2818
vt 0.5719 0.2908
vt 0.6155 0.2331
vt 0.6029 0.2258
vt 0.5594 0.2692
vt 0.5667 0.2818
vt 0.6155 0.2331
vt 0.5594 0.2692
vt 0.1667 0.141
vt 0.2533 0.141
vt 0.2521 0.1249
vt 0.1667 0.1249
vt 0.1667 0.141
vt 0.2521 0.1249
vt 0.1667 0.1249
vt 0.2521 0.1249
vt 0.2485 0.1135
vt 0.2485 0.1135
vt 0.1667 0.1135
vt 0.1667 0.1249
vt 0.5719 0.2908
vt 0.5667 0.2818
vt 0.5 0.2996
vt 0.5719 0.2908
vt 0.5 0.2996
vt 0.5 0.31
vt 0.5667 0.2818
vt 0.5594 0.2692
vt 0.5 0.285
vt 0.5 0.2996
vt 0.5667 0.2818
vt 0.5 0.285
vt 0.4406 0.3975
vt 0.5 0.3816
vt 0.5 0.3671
vt 0.4333 0.3849
vt 0.4406 0.3975
vt 0.5 0.3671
vt 0.4333 0.3849
vt 0.5 0.3671
vt 0.5 0.3567
vt 0.4333 0.3849
vt 0.5 0.3567
vt 0.4281 0.3759
vt 0.1667 0.2083
vt 0.0813 0.2083
vt 0.0848 0.2198
vt 0.0848 0.2198
vt 0.1667 0.2198
vt 0.1667 0.2083
vt 0.1667 0.1923
vt 0.0801 0.1923
vt 0.0813 0.2083
vt 0.1667 0.2083
vt 0.1667 0.1923
vt 0.0813 0.2083
vt 0.3971 0.4408
vt 0.4406 0.3975
vt 0.4333 0.3849
vt 0.3845 0.4335
vt 0.3971 0.4408
vt 0.4333 0.3849
vt 0.3845 0.4335
vt 0.4333 0.3849
vt 0.4281 0.3759
vt 0.3845 0.4335
vt 0.4281 0.3759
vt 0.3755 0.4283
vt 0.0813 0.2083
vt 0.0187 0.2083
vt 0.0249 0.2198
vt 0.0249 0.2198
vt 0.0848 0.2198
vt 0.0813 0.2083
vt 0.0801 0.1923
vt 0.0167 0.1923
vt 0.0187 0.2083
vt 0.0813 0.2083
vt 0.0801 0.1923
vt 0.0187 0.2083
vt 0.3812 0.5
vt 0.3971 0.4408
vt 0.3845 0.4335
vt 0.3812 0.5
vt 0.3845 0.4335
vt 0.3666 0.5
vt 0.3666 0.5
vt 0.3845 0.4335
vt 0.3755 0.4283
vt 0.3666 0.5
vt 0.3755 0.4283
vt 0.3562 0.5
vt 0.3701 0.4252
vt 0.35 0.5
vt 0.3562 0.5
vt 0.3562 0.5
vt 0.3755 0.4283
vt 0.3701 0.4252
vt 0.65 0.878
vt 0.5 0.878
vt 0.5 0.9058
vt 0.648 0.9058
vt 0.65 0.878
vt 0.5 0.9058
vt 0.3971 0.5592
vt 0.3812 0.5
vt 0.3666 0.5
vt 0.3971 0.5592
vt 0.3666 0.5
vt 0.3845 0.5665
vt 0.3845 0.5665
vt 0.3666 0.5
vt 0.3562 0.5
vt 0.3845 0.5665
vt 0.3562 0.5
vt 0.3755 0.5717
vt 0.35 0.5
vt 0.3701 0.5748
vt 0.3755 0.5717
vt 0.3755 0.5717
vt 0.3562 0.5
vt 0.35 0.5
vt 0.5 0.878
vt 0.35 0.878
vt 0.352 0.9058
vt 0.5 0.9058
vt 0.5 0.878
vt 0.352 0.9058
vt 0.4406 0.6025
vt 0.3971 0.5592
vt 0.3845 0.5665
vt 0.4333 0.6151
vt 0.4406 0.6025
vt 0.3845 0.5665
vt 0.4333 0.6151
vt 0.3845 0.5665
vt 0.3755 0.5717
vt 0.4333 0.6151
vt 0.3755 0.5717
vt 0.4281 0.6241
vt 0.3146 0.5417
vt 0.2521 0.5417
vt 0.2485 0.5531
vt 0.2485 0.5531
vt 0.3084 0.5531
vt 0.3146 0.5417
vt 0.3167 0.5257
vt 0.2533 0.5257
vt 0.2521 0.5417
vt 0.3146 0.5417
vt 0.3167 0.5257
vt 0.2521 0.5417
vt 0.5 0.6184
vt 0.4406 0.6025
vt 0.4333 0.6151
vt 0.5 0.6329
vt 0.5 0.6184
vt 0.4333 0.6151
vt 0.5 0.6329
vt 0.4333 0.6151
vt 0.4281 0.6241
vt 0.5 0.6329
vt 0.4281 0.6241
vt 0.5 0.6433
vt 0.2521 0.5417
vt 0.1667 0.5417
vt 0.1667 0.5531
vt 0.1667 0.5531
vt 0.2485 0.5531
vt 0.2521 0.5417
vt 0.2533 0.5257
vt 0.1667 0.5257
vt 0.1667 0.5417
vt 0.2521 0.5417
vt 0.2533 0.5257
vt 0.1667 0.5417
vt 0.5594 0.6025
vt 0.5 0.6184
vt 0.5 0.6329
vt 0.5667 0.6151
vt 0.5594 0.6025
vt 0.5 0.6329
vt 0.5667 0.6151
vt 0.5 0.6329
vt 0.5 0.6433
vt 0.5667 0.6151
vt 0.5 0.6433
vt 0.5719 0.6241
vt 0.1667 0.5417
vt 0.0813 0.5417
vt 0.0848 0.5531
vt 0.0848 0.5531
vt 0.1667 0.5531
vt 0.1667 0.5417
vt 0.1667 0.5257
vt 0.0801 0.5257
vt 0.0813 0.5417
vt 0.1667 0.5417
vt 0.1667 0.5257
vt 0.0813 0.5417
vt 0.6029 0.5592
vt 0.5594 0.6025
vt 0.5667 0.6151
vt 0.6155 0.5665
vt 0.6029 0.5592
vt 0.5667 0.6151
vt 0.6155 0.5665
vt 0.5667 0.6151
vt 0.5719 0.6241
vt 0.6155 0.5665
vt 0.5719 0.6241
vt 0.6245 0.5717
vt 0.0813 0.5417
vt 0.0187 0.5417
vt 0.0249 0.5531
vt 0.0249 0.5531
vt 0.0848 0.5531
vt 0.0813 0.5417
vt 0.0801 0.5257
vt 0.0167 0.5257
vt 0.0187 0.5417
vt 0.0813 0.5417
vt 0.0801 0.5257
vt 0.0187 0.5417
vt 0.6188 0.5
vt 0.6029 0.5592
vt 0.6155 0.5665
vt 0.6188 0.5
vt 0.6155 0.5665
vt 0.6334 0.5
vt 0.6334 0.5
vt 0.6155 0.5665
vt 0.6245 0.5717
vt 0.6334 0.5
vt 0.6245 0.5717
vt 0.6438 0.5
vt 0.6299 0.5748
vt 0.65 0.5
vt 0.6438 0.5
vt 0.6438 0.5
vt 0.6245 0.5717
vt 0.6299 0.5748
vt 0.3167 0.878
vt 0.1667 0.878
vt 0.1667 0.9058
vt 0.3146 0.9058
vt 0.3167 0.878
vt 0.1667 0.9058
vt 0.6029 0.4408
vt 0.6188 0.5
vt 0.6334 0.5
vt 0.6029 0.4408
vt 0.6334 0.5
vt 0.6155 0.4335
vt 0.6155 0.4335
vt 0.6334 0.5
vt 0.6438 0.5
vt 0.6155 0.4335
vt 0.6438 0.5
vt 0.6245 0.4283
vt 0.65 0.5
vt 0.6299 0.4252
vt 0.6245 0.4283
vt 0.6245 0.4283
vt 0.6438 0.5
vt 0.65 0.5
vt 0.1667 0.878
vt 0.0167 0.878
vt 0.0187 0.9058
vt 0.1667 0.9058
vt 0.1667 0.878
vt 0.0187 0.9058
vt 0.5594 0.3975
vt 0.6029 0.4408
vt 0.6155 0.4335
vt 0.5667 0.3849
vt 0.5594 0.3975
vt 0.6155 0.4335
vt 0.5667 0.3849
vt 0.6155 0.4335
vt 0.6245 0.4283
vt 0.5667 0.3849
vt 0.6245 0.4283
vt 0.5719 0.3759
vt 0.3146 0.2083
vt 0.2521 0.2083
vt 0.2485 0.2198
vt 0.2485 0.2198
vt 0.3084 0.2198
vt 0.3146 0.2083
vt 0.3167 0.1923
vt 0.2533 0.1923
vt 0.2521 0.2083
vt 0.3146 0.2083
vt 0.3167 0.1923
vt 0.2521 0.2083
vt 0.5 0.3816
vt 0.5594 0.3975
vt 0.5667 0.3849
vt 0.5 0.3671
vt 0.5 0.3816
vt 0.5667 0.3849
vt 0.5 0.3671
vt 0.5667 0.3849
vt 0.5719 0.3759
vt 0.5 0.3671
vt 0.5719 0.3759
vt 0.5 0.3567
vt 0.2521 0.2083
vt 0.1667 0.2083
vt 0.1667 0.2198
vt 0.1667 0.2198
vt 0.2485 0.2198
vt 0.2521 0.2083
vt 0.2533 0.1923
vt 0.1667 0.1923
vt 0.1667 0.2083
vt 0.2521 0.2083
vt 0.2533 0.1923
vt 0.1667 0.2083
vn 0.0 -1.0 0.0
vn 0.0 -1.0 0.0
vn 0.0 -1.0 0.0
vn 0.0 -1.0 0.0
vn 0.0 -1.0 0.0
vn 0.0 -1.0 0.0
vn 0.0 -1.0 0.0
vn 0.0 -1.0 0.0
vn 0.0 -1.0 0.0
vn 0.0 -1.0 0.0
vn 0.0 -1.0 0.0
vn 0.0 -1.0 0.0
vn 0.0 -1.0 0.0
vn 0.0 -1.0 0.0
vn 0.0 -1.0 0.0
vn 0.0 -1.0 0.0
vn 0.0 -1.0 0.0
vn 0.0 -1.0 0.0
vn 0.0 -1.0 0.0
vn 0.0 -1.0 0.0
vn 0.0 -1.0 0.0
vn 0.0 -1.0 0.0
vn 0.0 -1.0 0.0
vn 0.0 -1.0 0.0
vn 0.0 -1.0 0.0
vn 0.0 -1.0 0.0
vn 0.0 -1.0 0.0
vn 0.0 -1.0 0.0
vn 0.0 -1.0 0.0
vn 0.0 -1.0 0.0
vn 0.0 -1.0 0.0
vn 0.0 -1.0 0.0
vn 0.0 -1.0 0.0
vn 0.0 -1.0 0.0
vn 0.0 -1.0 0.0
vn 0.0 -1.0 0.0
vn 0.0 -1.0 0.0
vn 0.0 -1.0 0.0
vn 0.0 -1.0 0.0
vn 0.0 -1.0 0.0
vn 0.0 -1.0 0.0
vn 0.0 -1.0 0.0
vn 0.0 -1.0 0.0
vn 0.0 -1.0 0.0
vn 0.0 -1.0 0.0
vn 0.0 -1.0 0.0
vn 0.0 -1.0 0.0
vn 0.0 -1.0 0.0
vn 0.0 -1.0 0.0
vn 0.0 -1.0 0.0
vn 0.0 -1.0 0.0
vn 0.0 -1.0 0.0
vn 0.0 -1.0 0.0
vn 0.0 -1.0 0.0
vn 0.0 -1.0 0.0
vn 0.0 -1.0 0.0
vn 0.0 -1.0 0.0
vn 0.0 -1.0 0.0
vn 0.0 -1.0 0.0
vn 0.0 -1.0 0.0
vn 0.0 -1.0 0.0
vn 0.0 -1.0 0.0
vn 0.0 -1.0 0.0
vn 0.0 -1.0 0.0
vn 0.0 -1.0 0.0
vn 0.0 -1.0 0.0
vn 0.0 -1.0 0.0
vn 0.0 -1.0 0.0
vn 0.0 -1.0 0.0
vn 0.0 -1.0 0.0
vn 0.0 -1.0 0.0
vn 0.0 -1.0 0.0
vn 0.0 1.0 0.0
vn 0.0 1.0 0.0
vn 0.0 1.0 0.0
vn 0.0 1.0 0.0
vn 0.0 1.0 0.0
vn 0.0 1.0 0.0
vn 0.0 1.0 0.0
vn 0.0 1.0 0.0
vn 0.0 1.0 0.0
vn 0.0 1.0 0.0
vn 0.0 1.0 0.0
vn 0.0 1.0 0.0
vn 0.0 1.0 0.0
vn 0.0 1.0 0.0
vn 0.0 1.0 0.0
vn 0.0 1.0 0.0
vn 0.0 1.0 0.0
vn 0.0 1.0 0.0
vn 0.0 1.0 0.0
vn 0.0 1.0 0.0
vn 0.0 1.0 0.0
vn 0.0 1.0 0.0
vn 0.0 1.0 0.0
vn 0.0 1.0 0.0
vn 0.0 1.0 0.0
vn 0.0 1.0 0.0
vn 0.0 1.0 0.0
vn 0.0 1.0 0.0
vn 0.0 1.0 0.0
vn 0.0 1.0 0.0
vn 0.0 1.0 0.0
vn 0.0 1.0 0.0
vn 0.0 1.0 0.0
vn 0.0 1.0 0.0
vn 0.0 1.0 0.0
vn 0.0 1.0 0.0
vn 0.9661 0.0 0.2583
vn 0.9661 0.0 0.2583
vn 0.9661 0.0 0.2583
vn 0.9661 0.0 0.2583
vn 0.9661 0.0 0.2583
vn 0.9661 0.0 0.2583
vn 0.9661 0.0 -0.2583
vn 0.9661 0.0 -0.2583
vn 0.9661 0.0 -0.2583
vn 0.9661 0.0 -0.2583
vn 0.9661 0.0 -0.2583
vn 0.9661 0.0 -0.2583
vn 0.7083 0.0 0.7059
vn 0.7083 0.0 0.7059
vn 0.7083 0.0 0.7059
vn 0.7083 0.0 0.7059
vn 0.7083 0.0 0.7059
vn 0.7083 0.0 0.7059
vn 0.2592 0.0 0.9658
vn 0.2592 0.0 0.9658
vn 0.2592 0.0 0.9658
vn 0.2592 0.0 0.9658
vn 0.2592 0.0 0.9658
vn 0.2592 0.0 0.9658
vn -0.2593 0.0 0.9658
vn -0.2593 0.0 0.9658
vn -0.2593 0.0 0.9658
vn -0.2593 0.0 0.9658
vn -0.2593 0.0 0.9658
vn -0.2593 0.0 0.9658
vn -0.7081 0.0 0.7061
vn -0.7081 0.0 0.7061
vn -0.7081 0.0 0.7061
vn -0.7081 0.0 0.7061
vn -0.7081 0.0 0.7061
vn -0.7081 0.0 0.7061
vn -0.9662 0.0 0.2579
vn -0.9662 0.0 0.2579
vn -0.9662 0.0 0.2579
vn -0.9662 0.0 0.2579
vn -0.9662 0.0 0.2579
vn -0.9662 0.0 0.2579
vn -0.9662 0.0 -0.2579
vn -0.9662 0.0 -0.2579
vn -0.9662 0.0 -0.2579
vn -0.9662 0.0 -0.2579
vn -0.9662 0.0 -0.2579
vn -0.9662 0.0 -0.2579
vn -0.7081 0.0 -0.7061
vn -0.7081 0.0 -0.7061
vn -0.7081 0.0 -0.7061
vn -0.7081 0.0 -0.7061
vn -0.7081 0.0 -0.7061
vn -0.7081 0.0 -0.7061
vn -0.2593 0.0 -0.9658
vn -0.2593 0.0 -0.9658
vn -0.2593 0.0 -0.9658
vn -0.2593 0.0 -0.9658
vn -0.2593 0.0 -0.9658
vn -0.2593 0.0 -0.9658
vn 0.2592 0.0 -0.9658
vn 0.2592 0.0 -0.9658
vn 0.2592 0.0 -0.9658
vn 0.2592 0.0 -0.9658
vn 0.2592 0.0 -0.9658
vn 0.2592 0.0 -0.9658
vn 0.7083 0.0 -0.7059
vn 0.7083 0.0 -0.7059
vn 0.7083 0.0 -0.7059
vn 0.7083 0.0 -0.7059
vn 0.7083 0.0 -0.7059
vn 0.7083 0.0 -0.7059
vn 0.0 -1.0 0.0
vn 0.0 -1.0 0.0
vn 0.0 -1.0 0.0
vn 0.0 -1.0 0.0
vn 0.0 -1.0 0.0
vn 0.0 -1.0 0.0
vn 0.0 -1.0 0.0
vn 0.0 -1.0 0.0
vn 0.0 -1.0 0.0
vn 0.0 -1.0 0.0
vn 0.0 -1.0 0.0
vn 0.0 -1.0 0.0
vn 0.0 -1.0 0.0
vn 0.0 -1.0 0.0
vn 0.0 -1.0 0.0
vn 0.0 -1.0 0.0
vn 0.0 -1.0 0.0
vn 0.0 -1.0 0.0
vn 0.0 -1.0 0.0
vn 0.0 -1.0 0.0
vn 0.0 -1.0 0.0
vn 0.0 -1.0 0.0
vn 0.0 -1.0 0.0
vn 0.0 -1.0 0.0
vn 0.0 -1.0 0.0
vn 0.0 -1.0 0.0
vn 0.0 -1.0 0.0
vn 0.0 -1.0 0.0
vn 0.0 -1.0 0.0
vn 0.0 -1.0 0.0
vn 0.0 -1.0 0.0
vn 0.0 -1.0 0.0
vn 0.0 -1.0 0.0
vn 0.0 -1.0 0.0
vn 0.0 -1.0 0.0
vn 0.0 -1.0 0.0
vn 0.9565 -0.1408 -0.2557
vn 0.9565 -0.1408 -0.2557
vn 0.9565 -0.1408 -0.2557
vn 0.9564 -0.141 -0.2557
vn 0.9564 -0.141 -0.2557
vn 0.9564 -0.141 -0.2557
vn 0.8277 -0.5157 -0.2213
vn 0.8277 -0.5157 -0.2213
vn 0.8277 -0.5157 -0.2213
vn 0.8285 -0.5144 -0.2213
vn 0.8285 -0.5144 -0.2213
vn 0.8285 -0.5144 -0.2213
vn 0.4977 -0.8571 -0.133
vn 0.4977 -0.8571 -0.133
vn 0.4977 -0.8571 -0.133
vn 0.4973 -0.8574 -0.1328
vn 0.4973 -0.8574 -0.1328
vn 0.4973 -0.8574 -0.1328
vn 0.1367 -0.9899 -0.0365
vn 0.1367 -0.9899 -0.0365
vn 0.1367 -0.9899 -0.0365
vn 0.1367 -0.9899 -0.0365
vn 0.1367 -0.9899 -0.0365
vn 0.1367 -0.9899 -0.0365
vn 0.7012 -0.141 -0.6989
vn 0.7012 -0.141 -0.6989
vn 0.7012 -0.141 -0.6989
vn 0.7012 -0.1409 -0.6989
vn 0.7012 -0.1409 -0.6989
vn 0.7012 -0.1409 -0.6989
vn 0.6074 -0.5144 -0.6053
vn 0.6074 -0.5144 -0.6053
vn 0.6074 -0.5144 -0.6053
vn 0.606 -0.5169 -0.6046
vn 0.606 -0.5169 -0.6046
vn 0.606 -0.5169 -0.6046
vn 0.3646 -0.8572 -0.3637
vn 0.3646 -0.8572 -0.3637
vn 0.3646 -0.8572 -0.3637
vn 0.3647 -0.8571 -0.3639
vn 0.3647 -0.8571 -0.3639
vn 0.3647 -0.8571 -0.3639
vn 0.1002 -0.9899 -0.0999
vn 0.1002 -0.9899 -0.0999
vn 0.1002 -0.9899 -0.0999
vn 0.1002 -0.9899 -0.1
vn 0.1002 -0.9899 -0.1
vn 0.1002 -0.9899 -0.1
vn 0.2566 -0.141 -0.9562
vn 0.2566 -0.141 -0.9562
vn 0.2566 -0.141 -0.9562
vn 0.2567 -0.1407 -0.9562
vn 0.2567 -0.1407 -0.9562
vn 0.2567 -0.1407 -0.9562
vn 0.2219 -0.5168 -0.8268
vn 0.2219 -0.5168 -0.8268
vn 0.2219 -0.5168 -0.8268
vn 0.2223 -0.5156 -0.8275
vn 0.2223 -0.5156 -0.8275
vn 0.2223 -0.5156 -0.8275
vn 0.1337 -0.857 -0.4977
vn 0.1337 -0.857 -0.4977
vn 0.1337 -0.857 -0.4977
vn 0.1337 -0.857 -0.4976
vn 0.1337 -0.857 -0.4976
vn 0.1337 -0.857 -0.4976
vn 0.0367 -0.9899 -0.1366
vn 0.0367 -0.9899 -0.1366
vn 0.0367 -0.9899 -0.1366
vn 0.0367 -0.9899 -0.1367
vn 0.0367 -0.9899 -0.1367
vn 0.0367 -0.9899 -0.1367
vn -0.2567 -0.1407 -0.9562
vn -0.2567 -0.1407 -0.9562
vn -0.2567 -0.1407 -0.9562
vn -0.2568 -0.141 -0.9561
vn -0.2568 -0.141 -0.9561
vn -0.2568 -0.141 -0.9561
vn -0.2222 -0.5156 -0.8275
vn -0.2222 -0.5156 -0.8275
vn -0.2222 -0.5156 -0.8275
vn -0.2222 -0.5169 -0.8267
vn -0.2222 -0.5169 -0.8267
vn -0.2222 -0.5169 -0.8267
vn -0.1338 -0.857 -0.4976
vn -0.1338 -0.857 -0.4976
vn -0.1338 -0.857 -0.4976
vn -0.1338 -0.857 -0.4977
vn -0.1338 -0.857 -0.4977
vn -0.1338 -0.857 -0.4977
vn -0.0368 -0.9899 -0.1367
vn -0.0368 -0.9899 -0.1367
vn -0.0368 -0.9899 -0.1367
vn -0.0367 -0.9899 -0.1366
vn -0.0367 -0.9899 -0.1366
vn -0.0367 -0.9899 -0.1366
vn -0.701 -0.1409 -0.6991
vn -0.701 -0.1409 -0.6991
vn -0.701 -0.1409 -0.6991
vn -0.7011 -0.1425 -0.6987
vn -0.7011 -0.1425 -0.6987
vn -0.7011 -0.1425 -0.6987
vn -0.6064 -0.5168 -0.6043
vn -0.6064 -0.5168 -0.6043
vn -0.6064 -0.5168 -0.6043
vn -0.6071 -0.5144 -0.6057
vn -0.6071 -0.5144 -0.6057
vn -0.6071 -0.5144 -0.6057
vn -0.3647 -0.8571 -0.3638
vn -0.3647 -0.8571 -0.3638
vn -0.3647 -0.8571 -0.3638
vn -0.3645 -0.8572 -0.3637
vn -0.3645 -0.8572 -0.3637
vn -0.3645 -0.8572 -0.3637
vn -0.1002 -0.9899 -0.1
vn -0.1002 -0.9899 -0.1
vn -0.1002 -0.9899 -0.1
vn -0.1001 -0.9899 -0.0999
vn -0.1001 -0.9899 -0.0999
vn -0.1001 -0.9899 -0.0999
vn -0.9562 -0.143 -0.2553
vn -0.9562 -0.143 -0.2553
vn -0.9562 -0.143 -0.2553
vn -0.9564 -0.1408 -0.2557
vn -0.9564 -0.1408 -0.2557
vn -0.9564 -0.1408 -0.2557
vn -0.8285 -0.5144 -0.2215
vn -0.8285 -0.5144 -0.2215
vn -0.8285 -0.5144 -0.2215
vn -0.8277 -0.5158 -0.2211
vn -0.8277 -0.5158 -0.2211
vn -0.8277 -0.5158 -0.2211
vn -0.4972 -0.8574 -0.1329
vn -0.4972 -0.8574 -0.1329
vn -0.4972 -0.8574 -0.1329
vn -0.4977 -0.8571 -0.1329
vn -0.4977 -0.8571 -0.1329
vn -0.4977 -0.8571 -0.1329
vn -0.1367 -0.9899 -0.0365
vn -0.1367 -0.9899 -0.0365
vn -0.1367 -0.9899 -0.0365
vn -0.1367 -0.9899 -0.0365
vn -0.1367 -0.9899 -0.0365
vn -0.1367 -0.9899 -0.0365
vn -0.9565 -0.1408 0.2553
vn -0.9565 -0.1408 0.2553
vn -0.9565 -0.1408 0.2553
vn -0.9561 -0.143 0.2556
vn -0.9561 -0.143 0.2556
vn -0.9561 -0.143 0.2556
vn -0.8277 -0.5157 0.2213
vn -0.8277 -0.5157 0.2213
vn -0.8277 -0.5157 0.2213
vn -0.8285 -0.5144 0.2213
vn -0.8285 -0.5144 0.2213
vn -0.8285 -0.5144 0.2213
vn -0.4977 -0.8571 0.133
vn -0.4977 -0.8571 0.133
vn -0.4977 -0.8571 0.133
vn -0.4973 -0.8574 0.1328
vn -0.4973 -0.8574 0.1328
vn -0.4973 -0.8574 0.1328
vn -0.1367 -0.9899 0.0365
vn -0.1367 -0.9899 0.0365
vn -0.1367 -0.9899 0.0365
vn -0.1367 -0.9899 0.0365
vn -0.1367 -0.9899 0.0365
vn -0.1367 -0.9899 0.0365
vn -0.7009 -0.1425 0.6989
vn -0.7009 -0.1425 0.6989
vn -0.7009 -0.1425 0.6989
vn -0.7012 -0.1409 0.6989
vn -0.7012 -0.1409 0.6989
vn -0.7012 -0.1409 0.6989
vn -0.6074 -0.5144 0.6053
vn -0.6074 -0.5144 0.6053
vn -0.6074 -0.5144 0.6053
vn -0.606 -0.5169 0.6046
vn -0.606 -0.5169 0.6046
vn -0.606 -0.5169 0.6046
vn -0.3646 -0.8572 0.3637
vn -0.3646 -0.8572 0.3637
vn -0.3646 -0.8572 0.3637
vn -0.3647 -0.8571 0.3639
vn -0.3647 -0.8571 0.3639
vn -0.3647 -0.8571 0.3639
vn -0.1002 -0.9899 0.0999
vn -0.1002 -0.9899 0.0999
vn -0.1002 -0.9899 0.0999
vn -0.1002 -0.9899 0.1
vn -0.1002 -0.9899 0.1
vn -0.1002 -0.9899 0.1
vn -0.2567 -0.141 0.9561
vn -0.2567 -0.141 0.9561
vn -0.2567 -0.141 0.9561
vn -0.2568 -0.1407 0.9562
vn -0.2568 -0.1407 0.9562
vn -0.2568 -0.1407 0.9562
vn -0.222 -0.5168 0.8268
vn -0.222 -0.5168 0.8268
vn -0.222 -0.5168 0.8268
vn -0.2224 -0.5156 0.8275
vn -0.2224 -0.5156 0.8275
vn -0.2224 -0.5156 0.8275
vn -0.1338 -0.857 0.4977
vn -0.1338 -0.857 0.4977
vn -0.1338 -0.857 0.4977
vn -0.1338 -0.857 0.4976
vn -0.1338 -0.857 0.4976
vn -0.1338 -0.857 0.4976
vn -0.0367 -0.9899 0.1366
vn -0.0367 -0.9899 0.1366
vn -0.0367 -0.9899 0.1366
vn -0.0367 -0.9899 0.1367
vn -0.0367 -0.9899 0.1367
vn -0.0367 -0.9899 0.1367
vn 0.2566 -0.1407 0.9562
vn 0.2566 -0.1407 0.9562
vn 0.2566 -0.1407 0.9562
vn 0.2567 -0.141 0.9562
vn 0.2567 -0.141 0.9562
vn 0.2567 -0.141 0.9562
vn 0.2221 -0.5156 0.8275
vn 0.2221 -0.5156 0.8275
vn 0.2221 -0.5156 0.8275
vn 0.2222 -0.5169 0.8267
vn 0.2222 -0.5169 0.8267
vn 0.2222 -0.5169 0.8267
vn 0.1337 -0.857 0.4976
vn 0.1337 -0.857 0.4976
vn 0.1337 -0.857 0.4976
vn 0.1337 -0.857 0.4977
vn 0.1337 -0.857 0.4977
vn 0.1337 -0.857 0.4977
vn 0.0367 -0.9899 0.1367
vn 0.0367 -0.9899 0.1367
vn 0.0367 -0.9899 0.1367
vn 0.0367 -0.9899 0.1366
vn 0.0367 -0.9899 0.1366
vn 0.0367 -0.9899 0.1366
vn 0.7012 -0.1409 0.6989
vn 0.7012 -0.1409 0.6989
vn 0.7012 -0.1409 0.6989
vn 0.7012 -0.141 0.6989
vn 0.7012 -0.141 0.6989
vn 0.7012 -0.141 0.6989
vn 0.6064 -0.5168 0.6043
vn 0.6064 -0.5168 0.6043
vn 0.6064 -0.5168 0.6043
vn 0.6071 -0.5144 0.6057
vn 0.6071 -0.5144 0.6057
vn 0.6071 -0.5144 0.6057
vn 0.3647 -0.8571 0.3638
vn 0.3647 -0.8571 0.3638
vn 0.3647 -0.8571 0.3638
vn 0.3645 -0.8572 0.3637
vn 0.3645 -0.8572 0.3637
vn 0.3645 -0.8572 0.3637
vn 0.1002 -0.9899 0.1
vn 0.1002 -0.9899 0.1
vn 0.1002 -0.9899 0.1
vn 0.1001 -0.9899 0.0999
vn 0.1001 -0.9899 0.0999
vn 0.1001 -0.9899 0.0999
vn 0.9564 -0.141 0.2557
vn 0.9564 -0.141 0.2557
vn 0.9564 -0.141 0.2557
vn 0.9564 -0.1408 0.2557
vn 0.9564 -0.1408 0.2557
vn 0.9564 -0.1408 0.2557
vn 0.8285 -0.5144 0.2215
vn 0.8285 -0.5144 0.2215
vn 0.8285 -0.5144 0.2215
vn 0.8277 -0.5158 0.2211
vn 0.8277 -0.5158 0.2211
vn 0.8277 -0.5158 0.2211
vn 0.4972 -0.8574 0.1329
vn 0.4972 -0.8574 0.1329
vn 0.4972 -0.8574 0.1329
vn 0.4977 -0.8571 0.1329
vn 0.4977 -0.8571 0.1329
vn 0.4977 -0.8571 0.1329
vn 0.1367 -0.9899 0.0365
vn 0.1367 -0.9899 0.0365
vn 0.1367 -0.9899 0.0365
vn 0.1367 -0.9899 0.0365
vn 0.1367 -0.9899 0.0365
vn 0.1367 -0.9899 0.0365
vn 0.1367 0.9899 -0.0365
vn 0.1367 0.9899 -0.0365
vn 0.1367 0.9899 -0.0365
vn 0.1367 0.9899 -0.0365
vn 0.1367 0.9899 -0.0365
vn 0.1367 0.9899 -0.0365
vn 0.4977 0.8571 -0.133
vn 0.4977 0.8571 -0.133
vn 0.4977 0.8571 -0.133
vn 0.4973 0.8574 -0.1328
vn 0.4973 0.8574 -0.1328
vn 0.4973 0.8574 -0.1328
vn 0.8291 0.5132 -0.2217
vn 0.8291 0.5132 -0.2217
vn 0.8291 0.5132 -0.2217
vn 0.8284 0.5146 -0.2212
vn 0.8284 0.5146 -0.2212
vn 0.8284 0.5146 -0.2212
vn 0.9564 0.1413 -0.2557
vn 0.9564 0.1413 -0.2557
vn 0.9564 0.1413 -0.2557
vn 0.9564 0.1411 -0.2557
vn 0.9564 0.1411 -0.2557
vn 0.9564 0.1411 -0.2557
vn 0.1002 0.9899 -0.0999
vn 0.1002 0.9899 -0.0999
vn 0.1002 0.9899 -0.0999
vn 0.1002 0.9899 -0.1
vn 0.1002 0.9899 -0.1
vn 0.1002 0.9899 -0.1
vn 0.3646 0.8572 -0.3637
vn 0.3646 0.8572 -0.3637
vn 0.3646 0.8572 -0.3637
vn 0.3647 0.8571 -0.3639
vn 0.3647 0.8571 -0.3639
vn 0.3647 0.8571 -0.3639
vn 0.6069 0.5157 -0.6048
vn 0.6069 0.5157 -0.6048
vn 0.6069 0.5157 -0.6048
vn 0.6076 0.5132 -0.6062
vn 0.6076 0.5132 -0.6062
vn 0.6076 0.5132 -0.6062
vn 0.7012 0.1412 -0.6989
vn 0.7012 0.1412 -0.6989
vn 0.7012 0.1412 -0.6989
vn 0.7012 0.1413 -0.6988
vn 0.7012 0.1413 -0.6988
vn 0.7012 0.1413 -0.6988
vn 0.0367 0.9899 -0.1366
vn 0.0367 0.9899 -0.1366
vn 0.0367 0.9899 -0.1366
vn 0.0367 0.9899 -0.1367
vn 0.0367 0.9899 -0.1367
vn 0.0367 0.9899 -0.1367
vn 0.1337 0.857 -0.4977
vn 0.1337 0.857 -0.4977
vn 0.1337 0.857 -0.4977
vn 0.1337 0.857 -0.4976
vn 0.1337 0.857 -0.4976
vn 0.1337 0.857 -0.4976
vn 0.2223 0.5145 -0.8282
vn 0.2223 0.5145 -0.8282
vn 0.2223 0.5145 -0.8282
vn 0.2223 0.5157 -0.8274
vn 0.2223 0.5157 -0.8274
vn 0.2223 0.5157 -0.8274
vn 0.2566 0.141 -0.9562
vn 0.2566 0.141 -0.9562
vn 0.2566 0.141 -0.9562
vn 0.2567 0.1413 -0.9561
vn 0.2567 0.1413 -0.9561
vn 0.2567 0.1413 -0.9561
vn -0.0368 0.9899 -0.1367
vn -0.0368 0.9899 -0.1367
vn -0.0368 0.9899 -0.1367
vn -0.0367 0.9899 -0.1366
vn -0.0367 0.9899 -0.1366
vn -0.0367 0.9899 -0.1366
vn -0.1338 0.857 -0.4976
vn -0.1338 0.857 -0.4976
vn -0.1338 0.857 -0.4976
vn -0.1338 0.857 -0.4977
vn -0.1338 0.857 -0.4977
vn -0.1338 0.857 -0.4977
vn -0.2222 0.5157 -0.8275
vn -0.2222 0.5157 -0.8275
vn -0.2222 0.5157 -0.8275
vn -0.2226 0.5144 -0.8281
vn -0.2226 0.5144 -0.8281
vn -0.2226 0.5144 -0.8281
vn -0.2567 0.1413 -0.9561
vn -0.2567 0.1413 -0.9561
vn -0.2567 0.1413 -0.9561
vn -0.2568 0.141 -0.9561
vn -0.2568 0.141 -0.9561
vn -0.2568 0.141 -0.9561
vn -0.1002 0.9899 -0.0999
vn -0.1002 0.9899 -0.0999
vn -0.1002 0.9899 -0.0999
vn -0.1001 0.9899 -0.0999
vn -0.1001 0.9899 -0.0999
vn -0.1001 0.9899 -0.0999
vn -0.3647 0.8571 -0.3638
vn -0.3647 0.8571 -0.3638
vn -0.3647 0.8571 -0.3638
vn -0.3645 0.8572 -0.3637
vn -0.3645 0.8572 -0.3637
vn -0.3645 0.8572 -0.3637
vn -0.6079 0.5133 -0.6058
vn -0.6079 0.5133 -0.6058
vn -0.6079 0.5133 -0.6058
vn -0.6065 0.5157 -0.6051
vn -0.6065 0.5157 -0.6051
vn -0.6065 0.5157 -0.6051
vn -0.7008 0.1428 -0.6989
vn -0.7008 0.1428 -0.6989
vn -0.7008 0.1428 -0.6989
vn -0.7012 0.1412 -0.6989
vn -0.7012 0.1412 -0.6989
vn -0.7012 0.1412 -0.6989
vn -0.1367 0.9899 -0.0365
vn -0.1367 0.9899 -0.0365
vn -0.1367 0.9899 -0.0365
vn -0.1367 0.9899 -0.0365
vn -0.1367 0.9899 -0.0365
vn -0.1367 0.9899 -0.0365
vn -0.4972 0.8574 -0.1329
vn -0.4972 0.8574 -0.1329
vn -0.4972 0.8574 -0.1329
vn -0.4977 0.8571 -0.1329
vn -0.4977 0.8571 -0.1329
vn -0.4977 0.8571 -0.1329
vn -0.8283 0.5146 -0.2215
vn -0.8283 0.5146 -0.2215
vn -0.8283 0.5146 -0.2215
vn -0.8292 0.5132 -0.2214
vn -0.8292 0.5132 -0.2214
vn -0.8292 0.5132 -0.2214
vn -0.9565 0.1411 -0.2553
vn -0.9565 0.1411 -0.2553
vn -0.9565 0.1411 -0.2553
vn -0.9561 0.1433 -0.2556
vn -0.9561 0.1433 -0.2556
vn -0.9561 0.1433 -0.2556
vn -0.1367 0.9899 0.0365
vn -0.1367 0.9899 0.0365
vn -0.1367 0.9899 0.0365
vn -0.1367 0.9899 0.0365
vn -0.1367 0.9899 0.0365
vn -0.1367 0.9899 0.0365
vn -0.4977 0.8571 0.133
vn -0.4977 0.8571 0.133
vn -0.4977 0.8571 0.133
vn -0.4973 0.8574 0.1328
vn -0.4973 0.8574 0.1328
vn -0.4973 0.8574 0.1328
vn -0.8291 0.5132 0.2217
vn -0.8291 0.5132 0.2217
vn -0.8291 0.5132 0.2217
vn -0.8284 0.5146 0.2212
vn -0.8284 0.5146 0.2212
vn -0.8284 0.5146 0.2212
vn -0.9562 0.1433 0.2552
vn -0.9562 0.1433 0.2552
vn -0.9562 0.1433 0.2552
vn -0.9564 0.1411 0.2557
vn -0.9564 0.1411 0.2557
vn -0.9564 0.1411 0.2557
vn -0.1002 0.9899 0.0999
vn -0.1002 0.9899 0.0999
vn -0.1002 0.9899 0.0999
vn -0.1002 0.9899 0.1
vn -0.1002 0.9899 0.1
vn -0.1002 0.9899 0.1
vn -0.3646 0.8572 0.3637
vn -0.3646 0.8572 0.3637
vn -0.3646 0.8572 0.3637
vn -0.3647 0.8571 0.3639
vn -0.3647 0.8571 0.3639
vn -0.3647 0.8571 0.3639
vn -0.6069 0.5157 0.6048
vn -0.6069 0.5157 0.6048
vn -0.6069 0.5157 0.6048
vn -0.6076 0.5132 0.6062
vn -0.6076 0.5132 0.6062
vn -0.6076 0.5132 0.6062
vn -0.701 0.1412 0.6991
vn -0.701 0.1412 0.6991
vn -0.701 0.1412 0.6991
vn -0.701 0.1428 0.6987
vn -0.701 0.1428 0.6987
vn -0.701 0.1428 0.6987
vn -0.0367 0.9899 0.1366
vn -0.0367 0.9899 0.1366
vn -0.0367 0.9899 0.1366
vn -0.0367 0.9899 0.1367
vn -0.0367 0.9899 0.1367
vn -0.0367 0.9899 0.1367
vn -0.1338 0.857 0.4977
vn -0.1338 0.857 0.4977
vn -0.1338 0.857 0.4977
vn -0.1338 0.857 0.4976
vn -0.1338 0.857 0.4976
vn -0.1338 0.857 0.4976
vn -0.2224 0.5145 0.8282
vn -0.2224 0.5145 0.8282
vn -0.2224 0.5145 0.8282
vn -0.2224 0.5157 0.8274
vn -0.2224 0.5157 0.8274
vn -0.2224 0.5157 0.8274
vn -0.2567 0.141 0.9561
vn -0.2567 0.141 0.9561
vn -0.2567 0.141 0.9561
vn -0.2568 0.1413 0.9561
vn -0.2568 0.1413 0.9561
vn -0.2568 0.1413 0.9561
vn 0.0367 0.9899 0.1367
vn 0.0367 0.9899 0.1367
vn 0.0367 0.9899 0.1367
vn 0.0367 0.9899 0.1366
vn 0.0367 0.9899 0.1366
vn 0.0367 0.9899 0.1366
vn 0.1337 0.857 0.4976
vn 0.1337 0.857 0.4976
vn 0.1337 0.857 0.4976
vn 0.1337 0.857 0.4977
vn 0.1337 0.857 0.4977
vn 0.1337 0.857 0.4977
vn 0.2221 0.5157 0.8275
vn 0.2221 0.5157 0.8275
vn 0.2221 0.5157 0.8275
vn 0.2225 0.5145 0.8281
vn 0.2225 0.5145 0.8281
vn 0.2225 0.5145 0.8281
vn 0.2566 0.1413 0.9561
vn 0.2566 0.1413 0.9561
vn 0.2566 0.1413 0.9561
vn 0.2567 0.141 0.9562
vn 0.2567 0.141 0.9562
vn 0.2567 0.141 0.9562
vn 0.1002 0.9899 0.0999
vn 0.1002 0.9899 0.0999
vn 0.1002 0.9899 0.0999
vn 0.1001 0.9899 0.0999
vn 0.1001 0.9899 0.0999
vn 0.1001 0.9899 0.0999
vn 0.3647 0.8571 0.3638
vn 0.3647 0.8571 0.3638
vn 0.3647 0.8571 0.3638
vn 0.3645 0.8572 0.3637
vn 0.3645 0.8572 0.3637
vn 0.3645 0.8572 0.3637
vn 0.6079 0.5133 0.6058
vn 0.6079 0.5133 0.6058
vn 0.6079 0.5133 0.6058
vn 0.6065 0.5157 0.6051
vn 0.6065 0.5157 0.6051
vn 0.6065 0.5157 0.6051
vn 0.7012 0.1413 0.6989
vn 0.7012 0.1413 0.6989
vn 0.7012 0.1413 0.6989
vn 0.7012 0.1412 0.6989
vn 0.7012 0.1412 0.6989
vn 0.7012 0.1412 0.6989
vn 0.1367 0.9899 0.0365
vn 0.1367 0.9899 0.0365
vn 0.1367 0.9899 0.0365
vn 0.1367 0.9899 0.0365
vn 0.1367 0.9899 0.0365
vn 0.1367 0.9899 0.0365
vn 0.4972 0.8574 0.1329
vn 0.4972 0.8574 0.1329
vn 0.4972 0.8574 0.1329
vn 0.4977 0.8571 0.1329
vn 0.4977 0.8571 0.1329
vn 0.4977 0.8571 0.1329
vn 0.8283 0.5146 0.2215
vn 0.8283 0.5146 0.2215
vn 0.8283 0.5146 0.2215
vn 0.8292 0.5132 0.2214
vn 0.8292 0.5132 0.2214
vn 0.8292 0.5132 0.2214
vn 0.9564 0.1411 0.2557
vn 0.9564 0.1411 0.2557
vn 0.9564 0.1411 0.2557
vn 0.9564 0.1413 0.2557
vn 0.9564 0.1413 0.2557
vn 0.9564 0.1413 0.2557
f 36/1/1 13/2/2 14/3/3
f 37/4/4 36/5/5 14/6/6
f 35/7/7 15/8/8 13/9/9
f 36/10/10 35/11/11 13/12/12
f 34/13/13 16/14/14 15/15/15
f 35/16/16 34/17/17 15/18/18
f 33/19/19 17/20/20 16/21/21
f 34/22/22 33/23/23 16/24/24
f 32/25/25 18/26/26 17/27/27
f 33/28/28 32/29/29 17/30/30
f 31/31/31 19/32/32 18/33/33
f 32/34/34 31/35/35 18/36/36
f 30/37/37 20/38/38 19/39/39
f 31/40/40 30/41/41 19/42/42
f 29/43/43 21/44/44 20/45/45
f 30/46/46 29/47/47 20/48/48
f 27/49/49 22/50/50 21/51/51
f 29/52/52 27/53/53 21/54/54
f 26/55/55 23/56/56 22/57/57
f 27/58/58 26/59/59 22/60/60
f 28/61/61 24/62/62 23/63/63
f 26/64/64 28/65/65 23/66/66
f 37/67/67 14/68/68 24/69/69
f 28/70/70 37/71/71 24/72/72
f 14/73/73 13/74/74 25/75/75
f 13/76/76 15/77/77 25/78/78
f 15/79/79 16/80/80 25/81/81
f 16/82/82 17/83/83 25/84/84
f 17/85/85 18/86/86 25/87/87
f 18/88/88 19/89/89 25/90/90
f 19/91/91 20/92/92 25/93/93
f 20/94/94 21/95/95 25/96/96
f 21/97/97 22/98/98 25/99/99
f 22/100/100 23/101/101 25/102/102
f 23/103/103 24/104/104 25/105/105
f 24/106/106 14/107/107 25/108/108
f 1/109/109 52/110/110 62/111/111
f 12/112/112 1/113/113 62/114/114
f 2/115/115 51/116/116 52/117/117
f 1/118/118 2/119/119 52/120/120
f 12/121/121 62/122/122 61/123/123
f 11/124/124 12/125/125 61/126/126
f 11/127/127 61/128/128 60/129/129
f 10/130/130 11/131/131 60/132/132
f 10/133/133 60/134/134 59/135/135
f 9/136/136 10/137/137 59/138/138
f 9/139/139 59/140/140 58/141/141
f 8/142/142 9/143/143 58/144/144
f 8/145/145 58/146/146 57/147/147
f 7/148/148 8/149/149 57/150/150
f 7/151/151 57/152/152 56/153/153
f 6/154/154 7/155/155 56/156/156
f 6/157/157 56/158/158 55/159/159
f 5/160/160 6/161/161 55/162/162
f 5/163/163 55/164/164 54/165/165
f 4/166/166 5/167/167 54/168/168
f 4/169/169 54/170/170 53/171/171
f 3/172/172 4/173/173 53/174/174
f 3/175/175 53/176/176 51/177/177
f 2/178/178 3/179/179 51/180/180
f 38/181/181 47/182/182 46/183/183
f 38/184/184 48/185/185 47/186/186
f 38/187/187 49/188/188 48/189/189
f 38/190/190 50/191/191 49/192/192
f 38/193/193 40/194/194 50/195/195
f 38/196/196 39/197/197 40/198/198
f 38/199/199 41/200/200 39/201/201
f 38/202/202 42/203/203 41/204/204
f 38/205/205 43/206/206 42/207/207
f 38/208/208 44/209/209 43/210/210
f 38/211/211 45/212/212 44/213/213
f 38/214/214 46/215/215 45/216/216
f 2/217/217 1/218/218 93/219/219
f 63/220/220 2/221/221 93/222/222
f 63/223/223 93/224/224 94/225/225
f 94/226/226 64/227/227 63/228/228
f 94/229/229 95/230/230 65/231/231
f 94/232/232 65/233/233 64/234/234
f 95/235/235 40/236/236 39/237/237
f 65/238/238 95/239/239 39/240/240
f 3/241/241 2/242/242 63/243/243
f 66/244/244 3/245/245 63/246/246
f 66/247/247 63/248/248 64/249/249
f 64/250/250 67/251/251 66/252/252
f 64/253/253 65/254/254 68/255/255
f 64/256/256 68/257/257 67/258/258
f 65/259/259 39/260/260 41/261/261
f 68/262/262 65/263/263 41/264/264
f 4/265/265 3/266/266 66/267/267
f 69/268/268 4/269/269 66/270/270
f 69/271/271 66/272/272 67/273/273
f 67/274/274 70/275/275 69/276/276
f 67/277/277 68/278/278 71/279/279
f 67/280/280 71/281/281 70/282/282
f 68/283/283 41/284/284 42/285/285
f 68/286/286 42/287/287 71/288/288
f 5/289/289 4/290/290 69/291/291
f 72/292/292 5/293/293 69/294/294
f 72/295/295 69/296/296 70/297/297
f 70/298/298 73/299/299 72/300/300
f 70/301/301 71/302/302 74/303/303
f 70/304/304 74/305/305 73/306/306
f 71/307/307 42/308/308 43/309/309
f 71/310/310 43/311/311 74/312/312
f 6/313/313 5/314/314 72/315/315
f 75/316/316 6/317/317 72/318/318
f 75/319/319 72/320/320 73/321/321
f 73/322/322 76/323/323 75/324/324
f 73/325/325 74/326/326 77/327/327
f 73/328/328 77/329/329 76/330/330
f 74/331/331 43/332/332 44/333/333
f 77/334/334 74/335/335 44/336/336
f 7/337/337 6/338/338 75/339/339
f 78/340/340 7/341/341 75/342/342
f 78/343/343 75/344/344 76/345/345
f 76/346/346 79/347/347 78/348/348
f 76/349/349 77/350/350 80/351/351
f 76/352/352 80/353/353 79/354/354
f 77/355/355 44/356/356 45/357/357
f 80/358/358 77/359/359 45/360/360
f 8/361/361 7/362/362 78/363/363
f 81/364/364 8/365/365 78/366/366
f 81/367/367 78/368/368 79/369/369
f 79/370/370 82/371/371 81/372/372
f 79/373/373 80/374/374 83/375/375
f 79/376/376 83/377/377 82/378/378
f 80/379/379 45/380/380 46/381/381
f 83/382/382 80/383/383 46/384/384
f 9/385/385 8/386/386 81/387/387
f 84/388/388 9/389/389 81/390/390
f 84/391/391 81/392/392 82/393/393
f 82/394/394 85/395/395 84/396/396
f 82/397/397 83/398/398 86/399/399
f 82/400/400 86/401/401 85/402/402
f 83/403/403 46/404/404 47/405/405
f 86/406/406 83/407/407 47/408/408
f 10/409/409 9/410/410 84/411/411
f 87/412/412 10/413/413 84/414/414
f 87/415/415 84/416/416 85/417/417
f 85/418/418 88/419/419 87/420/420
f 85/421/421 86/422/422 89/423/423
f 85/424/424 89/425/425 88/426/426
f 86/427/427 47/428/428 48/429/429
f 86/430/430 48/431/431 89/432/432
f 11/433/433 10/434/434 87/435/435
f 90/436/436 11/437/437 87/438/438
f 90/439/439 87/440/440 88/441/441
f 88/442/442 91/443/443 90/444/444
f 88/445/445 89/446/446 92/447/447
f 88/448/448 92/449/449 91/450/450
f 89/451/451 48/452/452 49/453/453
f 89/454/454 49/455/455 92/456/456
f 12/457/457 11/458/458 90/459/459
f 96/460/460 12/461/461 90/462/462
f 96/463/463 90/464/464 91/465/465
f 91/466/466 97/467/467 96/468/468
f 91/469/469 92/470/470 98/471/471
f 91/472/472 98/473/473 97/474/474
f 92/475/475 49/476/476 50/477/477
f 98/478/478 92/479/479 50/480/480
f 1/481/481 12/482/482 96/483/483
f 93/484/484 1/485/485 96/486/486
f 93/487/487 96/488/488 97/489/489
f 97/490/490 94/491/491 93/492/492
f 97/493/493 98/494/494 95/495/495
f 97/496/496 95/497/497 94/498/498
f 98/499/499 50/500/500 40/501/501
f 95/502/502 98/503/503 40/504/504
f 28/505/505 26/506/506 129/507/507
f 99/508/508 28/509/509 129/510/510
f 99/511/511 129/512/512 130/513/513
f 99/514/514 130/515/515 100/516/516
f 131/517/517 101/518/518 100/519/519
f 100/520/520 130/521/521 131/522/522
f 52/523/523 51/524/524 101/525/525
f 131/526/526 52/527/527 101/528/528
f 37/529/529 28/530/530 99/531/531
f 102/532/532 37/533/533 99/534/534
f 102/535/535 99/536/536 100/537/537
f 102/538/538 100/539/539 103/540/540
f 101/541/541 104/542/542 103/543/543
f 103/544/544 100/545/545 101/546/546
f 51/547/547 53/548/548 104/549/549
f 101/550/550 51/551/551 104/552/552
f 36/553/553 37/554/554 102/555/555
f 36/556/556 102/557/557 105/558/558
f 105/559/559 102/560/560 103/561/561
f 105/562/562 103/563/563 106/564/564
f 104/565/565 107/566/566 106/567/567
f 106/568/568 103/569/569 104/570/570
f 53/571/571 54/572/572 107/573/573
f 104/574/574 53/575/575 107/576/576
f 35/577/577 36/578/578 105/579/579
f 35/580/580 105/581/581 108/582/582
f 108/583/583 105/584/584 106/585/585
f 108/586/586 106/587/587 109/588/588
f 107/589/589 110/590/590 109/591/591
f 109/592/592 106/593/593 107/594/594
f 54/595/595 55/596/596 110/597/597
f 107/598/598 54/599/599 110/600/600
f 34/601/601 35/602/602 108/603/603
f 111/604/604 34/605/605 108/606/606
f 111/607/607 108/608/608 109/609/609
f 111/610/610 109/611/611 112/612/612
f 110/613/613 113/614/614 112/615/615
f 112/616/616 109/617/617 110/618/618
f 55/619/619 56/620/620 113/621/621
f 110/622/622 55/623/623 113/624/624
f 33/625/625 34/626/626 111/627/627
f 114/628/628 33/629/629 111/630/630
f 114/631/631 111/632/632 112/633/633
f 114/634/634 112/635/635 115/636/636
f 113/637/637 116/638/638 115/639/639
f 115/640/640 112/641/641 113/642/642
f 56/643/643 57/644/644 116/645/645
f 113/646/646 56/647/647 116/648/648
f 32/649/649 33/650/650 114/651/651
f 117/652/652 32/653/653 114/654/654
f 117/655/655 114/656/656 115/657/657
f 117/658/658 115/659/659 118/660/660
f 116/661/661 119/662/662 118/663/663
f 118/664/664 115/665/665 116/666/666
f 57/667/667 58/668/668 119/669/669
f 116/670/670 57/671/671 119/672/672
f 31/673/673 32/674/674 117/675/675
f 120/676/676 31/677/677 117/678/678
f 120/679/679 117/680/680 118/681/681
f 120/682/682 118/683/683 121/684/684
f 119/685/685 122/686/686 121/687/687
f 121/688/688 118/689/689 119/690/690
f 58/691/691 59/692/692 122/693/693
f 119/694/694 58/695/695 122/696/696
f 30/697/697 31/698/698 120/699/699
f 30/700/700 120/701/701 123/702/702
f 123/703/703 120/704/704 121/705/705
f 123/706/706 121/707/707 124/708/708
f 122/709/709 125/710/710 124/711/711
f 124/712/712 121/713/713 122/714/714
f 59/715/715 60/716/716 125/717/717
f 122/718/718 59/719/719 125/720/720
f 29/721/721 30/722/722 123/723/723
f 29/724/724 123/725/725 126/726/726
f 126/727/727 123/728/728 124/729/729
f 126/730/730 124/731/731 127/732/732
f 125/733/733 128/734/734 127/735/735
f 127/736/736 124/737/737 125/738/738
f 60/739/739 61/740/740 128/741/741
f 125/742/742 60/743/743 128/744/744
f 27/745/745 29/746/746 126/747/747
f 132/748/748 27/749/749 126/750/750
f 132/751/751 126/752/752 127/753/753
f 132/754/754 127/755/755 133/756/756
f 128/757/757 134/758/758 133/759/759
f 133/760/760 127/761/761 128/762/762
f 61/763/763 62/764/764 134/765/765
f 128/766/766 61/767/767 134/768/768
f 26/769/769 27/770/770 132/771/771
f 129/772/772 26/773/773 132/774/774
f 129/775/775 132/776/776 133/777/777
f 129/778/778 133/779/779 130/780/780
f 134/781/781 131/782/782 130/783/783
f 130/784/784 133/785/785 134/786/786
f 62/787/787 52/788/788 131/789/789
f 134/790/790 62/791/791 131/792/792
