# Mesh 12
o Mesh12

v -0.4091 9.6583 0.0008
v -0.4091 9.2474 0.0008
v -0.4091 9.3025 -0.2047
v -0.4091 9.4529 -0.3551
v -0.4091 9.6583 -0.4101
v -0.4091 9.8637 -0.3551
v -0.4091 10.0141 -0.2047
v -0.4091 10.0691 0.0008
v -0.4091 10.0141 0.2062
v -0.4091 9.8637 0.3566
v -0.4091 9.6583 0.4116
v -0.4091 9.4529 0.3566
v -0.4091 9.3025 0.2062
v 0.4126 9.2474 0.0008
v 0.4126 9.3025 -0.2047
v 0.4126 9.4529 -0.3551
v 0.4126 9.6583 -0.4101
v 0.4126 9.8637 -0.3551
v 0.4126 10.0141 -0.2047
v 0.4126 10.0691 0.0008
v 0.4126 10.0141 0.2062
v 0.4126 9.8637 0.3566
v 0.4126 9.6583 0.4116
v 0.4126 9.4529 0.3566
v 0.4126 9.3025 0.2062
v 0.4126 9.6583 0.0008
vt 0.2417 0.3701
vt 0.1666 0.35
vt 0.1666 0.5
vt 0.425 0.3167
vt 0.5 0.3167
vt 0.5 0.0167
vt 0.5 0.0167
vt 0.425 0.0167
vt 0.425 0.3167
vt 0.2966 0.425
vt 0.2417 0.3701
vt 0.1666 0.5
vt 0.3701 0.3167
vt 0.425 0.3167
vt 0.425 0.0167
vt 0.425 0.0167
vt 0.3701 0.0167
vt 0.3701 0.3167
vt 0.1666 0.5
vt 0.3167 0.5
vt 0.2966 0.425
vt 0.65 0.8333
vt 0.65 0.7583
vt 0.35 0.7583
vt 0.35 0.7583
vt 0.35 0.8333
vt 0.65 0.8333
vt 0.2966 0.575
vt 0.3167 0.5
vt 0.1666 0.5
vt 0.65 0.9083
vt 0.65 0.8333
vt 0.35 0.8333
vt 0.35 0.8333
vt 0.35 0.9083
vt 0.65 0.9083
vt 0.1666 0.5
vt 0.2417 0.6299
vt 0.2966 0.575
vt 0.425 0.35
vt 0.3701 0.35
vt 0.3701 0.65
vt 0.3701 0.65
vt 0.425 0.65
vt 0.425 0.35
vt 0.1666 0.65
vt 0.2417 0.6299
vt 0.1666 0.5
vt 0.5 0.35
vt 0.425 0.35
vt 0.425 0.65
vt 0.425 0.65
vt 0.5 0.65
vt 0.5 0.35
vt 0.1666 0.5
vt 0.0917 0.6299
vt 0.1666 0.65
vt 0.575 0.35
vt 0.5 0.35
vt 0.5 0.65
vt 0.5 0.65
vt 0.575 0.65
vt 0.575 0.35
vt 0.1666 0.5
vt 0.0367 0.575
vt 0.0917 0.6299
vt 0.6299 0.35
vt 0.575 0.35
vt 0.575 0.65
vt 0.575 0.65
vt 0.6299 0.65
vt 0.6299 0.35
vt 0.1666 0.5
vt 0.0167 0.5
vt 0.0367 0.575
vt 0.0167 0.8333
vt 0.0167 0.9083
vt 0.3167 0.9083
vt 0.3167 0.9083
vt 0.3167 0.8333
vt 0.0167 0.8333
vt 0.1666 0.5
vt 0.0367 0.425
vt 0.0167 0.5
vt 0.0167 0.7583
vt 0.0167 0.8333
vt 0.3167 0.8333
vt 0.3167 0.8333
vt 0.3167 0.7583
vt 0.0167 0.7583
vt 0.0917 0.3701
vt 0.0367 0.425
vt 0.1666 0.5
vt 0.575 0.3167
vt 0.6299 0.3167
vt 0.6299 0.0167
vt 0.6299 0.0167
vt 0.575 0.0167
vt 0.575 0.3167
vt 0.1666 0.5
vt 0.1666 0.35
vt 0.0917 0.3701
vt 0.5 0.3167
vt 0.575 0.3167
vt 0.575 0.0167
vt 0.575 0.0167
vt 0.5 0.0167
vt 0.5 0.3167
vt 0.2417 0.0368
vt 0.1667 0.0167
vt 0.1667 0.1667
vt 0.1667 0.0167
vt 0.0917 0.0368
vt 0.1667 0.1667
vt 0.0917 0.0368
vt 0.0367 0.0917
vt 0.1667 0.1667
vt 0.0367 0.0917
vt 0.0167 0.1667
vt 0.1667 0.1667
vt 0.0167 0.1667
vt 0.0367 0.2417
vt 0.1667 0.1667
vt 0.0367 0.2417
vt 0.0917 0.2966
vt 0.1667 0.1667
vt 0.0917 0.2966
vt 0.1667 0.3167
vt 0.1667 0.1667
vt 0.1667 0.3167
vt 0.2417 0.2966
vt 0.1667 0.1667
vt 0.2417 0.2966
vt 0.2966 0.2417
vt 0.1667 0.1667
vt 0.2966 0.2417
vt 0.3167 0.1667
vt 0.1667 0.1667
vt 0.3167 0.1667
vt 0.2966 0.0917
vt 0.1667 0.1667
vt 0.2966 0.0917
vt 0.2417 0.0368
vt 0.1667 0.1667
vn -1.0 0.0 0.0
vn -1.0 0.0 0.0
vn -1.0 0.0 0.0
vn 0.0 -0.9659 -0.259
vn 0.0 -0.9659 -0.259
vn 0.0 -0.9659 -0.259
vn 0.0 -0.9659 -0.259
vn 0.0 -0.9659 -0.259
vn 0.0 -0.9659 -0.259
vn -1.0 0.0 0.0
vn -1.0 0.0 0.0
vn -1.0 0.0 0.0
vn 0.0 -0.7071 -0.7071
vn 0.0 -0.7071 -0.7071
vn 0.0 -0.7071 -0.7071
vn 0.0 -0.7071 -0.7071
vn 0.0 -0.7071 -0.7071
vn 0.0 -0.7071 -0.7071
vn -1.0 0.0 0.0
vn -1.0 0.0 0.0
vn -1.0 0.0 0.0
vn 0.0 -0.2587 -0.966
vn 0.0 -0.2587 -0.966
vn 0.0 -0.2587 -0.966
vn 0.0 -0.2587 -0.966
vn 0.0 -0.2587 -0.966
vn 0.0 -0.2587 -0.966
vn -1.0 0.0 0.0
vn -1.0 0.0 0.0
vn -1.0 0.0 0.0
vn 0.0 0.2587 -0.966
vn 0.0 0.2587 -0.966
vn 0.0 0.2587 -0.966
vn 0.0 0.2587 -0.966
vn 0.0 0.2587 -0.966
vn 0.0 0.2587 -0.966
vn -1.0 0.0 0.0
vn -1.0 0.0 0.0
vn -1.0 0.0 0.0
vn 0.0 0.7071 -0.7071
vn 0.0 0.7071 -0.7071
vn 0.0 0.7071 -0.7071
vn 0.0 0.7071 -0.7071
vn 0.0 0.7071 -0.7071
vn 0.0 0.7071 -0.7071
vn -1.0 0.0 0.0
vn -1.0 0.0 0.0
vn -1.0 0.0 0.0
vn 0.0 0.966 -0.2585
vn 0.0 0.966 -0.2585
vn 0.0 0.966 -0.2585
vn 0.0 0.966 -0.2585
vn 0.0 0.966 -0.2585
vn 0.0 0.966 -0.2585
vn -1.0 0.0 0.0
vn -1.0 0.0 0.0
vn -1.0 0.0 0.0
vn 0.0 0.966 0.2587
vn 0.0 0.966 0.2587
vn 0.0 0.966 0.2587
vn 0.0 0.966 0.2587
vn 0.0 0.966 0.2587
vn 0.0 0.966 0.2587
vn -1.0 0.0 0.0
vn -1.0 0.0 0.0
vn -1.0 0.0 0.0
vn 0.0 0.7071 0.7071
vn 0.0 0.7071 0.7071
vn 0.0 0.7071 0.7071
vn 0.0 0.7071 0.7071
vn 0.0 0.7071 0.7071
vn 0.0 0.7071 0.7071
vn -1.0 0.0 0.0
vn -1.0 0.0 0.0
vn -1.0 0.0 0.0
vn 0.0 0.2587 0.966
vn 0.0 0.2587 0.966
vn 0.0 0.2587 0.966
vn 0.0 0.2587 0.966
vn 0.0 0.2587 0.966
vn 0.0 0.2587 0.966
vn -1.0 0.0 0.0
vn -1.0 0.0 0.0
vn -1.0 0.0 0.0
vn 0.0 -0.2587 0.966
vn 0.0 -0.2587 0.966
vn 0.0 -0.2587 0.966
vn 0.0 -0.2587 0.966
vn 0.0 -0.2587 0.966
vn 0.0 -0.2587 0.966
vn -1.0 0.0 0.0
vn -1.0 0.0 0.0
vn -1.0 0.0 0.0
vn 0.0 -0.7071 0.7071
vn 0.0 -0.7071 0.7071
vn 0.0 -0.7071 0.7071
vn 0.0 -0.7071 0.7071
vn 0.0 -0.7071 0.7071
vn 0.0 -0.7071 0.7071
vn -1.0 0.0 0.0
vn -1.0 0.0 0.0
vn -1.0 0.0 0.0
vn 0.0 -0.9659 0.2591
vn 0.0 -0.9659 0.2591
vn 0.0 -0.9659 0.2591
vn 0.0 -0.9659 0.2591
vn 0.0 -0.9659 0.2591
vn 0.0 -0.9659 0.2591
vn 1.0 0.0 0.0
vn 1.0 0.0 0.0
vn 1.0 0.0 0.0
vn 1.0 0.0 0.0
vn 1.0 0.0 0.0
vn 1.0 0.0 0.0
vn 1.0 0.0 0.0
vn 1.0 0.0 0.0
vn 1.0 0.0 0.0
vn 1.0 0.0 0.0
vn 1.0 0.0 0.0
vn 1.0 0.0 0.0
vn 1.0 0.0 0.0
vn 1.0 0.0 0.0
vn 1.0 0.0 0.0
vn 1.0 0.0 0.0
vn 1.0 0.0 0.0
vn 1.0 0.0 0.0
vn 1.0 0.0 0.0
vn 1.0 0.0 0.0
vn 1.0 0.0 0.0
vn 1.0 0.0 0.0
vn 1.0 0.0 0.0
vn 1.0 0.0 0.0
vn 1.0 0.0 0.0
vn 1.0 0.0 0.0
vn 1.0 0.0 0.0
vn 1.0 0.0 0.0
vn 1.0 0.0 0.0
vn 1.0 0.0 0.0
vn 1.0 0.0 0.0
vn 1.0 0.0 0.0
vn 1.0 0.0 0.0
vn 1.0 0.0 0.0
vn 1.0 0.0 0.0
vn 1.0 0.0 0.0
f 3/1/1 2/2/2 1/3/3
f 15/4/4 14/5/5 2/6/6
f 2/7/7 3/8/8 15/9/9
f 4/10/10 3/11/11 1/12/12
f 16/13/13 15/14/14 3/15/15
f 3/16/16 4/17/17 16/18/18
f 1/19/19 5/20/20 4/21/21
f 17/22/22 16/23/23 4/24/24
f 4/25/25 5/26/26 17/27/27
f 6/28/28 5/29/29 1/30/30
f 18/31/31 17/32/32 5/33/33
f 5/34/34 6/35/35 18/36/36
f 1/37/37 7/38/38 6/39/39
f 19/40/40 18/41/41 6/42/42
f 6/43/43 7/44/44 19/45/45
f 8/46/46 7/47/47 1/48/48
f 20/49/49 19/50/50 7/51/51
f 7/52/52 8/53/53 20/54/54
f 1/55/55 9/56/56 8/57/57
f 21/58/58 20/59/59 8/60/60
f 8/61/61 9/62/62 21/63/63
f 1/64/64 10/65/65 9/66/66
f 22/67/67 21/68/68 9/69/69
f 9/70/70 10/71/71 22/72/72
f 1/73/73 11/74/74 10/75/75
f 23/76/76 22/77/77 10/78/78
f 10/79/79 11/80/80 23/81/81
f 1/82/82 12/83/83 11/84/84
f 24/85/85 23/86/86 11/87/87
f 11/88/88 12/89/89 24/90/90
f 13/91/91 12/92/92 1/93/93
f 25/94/94 24/95/95 12/96/96
f 12/97/97 13/98/98 25/99/99
f 1/100/100 2/101/101 13/102/102
f 14/103/103 25/104/104 13/105/105
f 13/106/106 2/107/107 14/108/108
f 25/109/109 14/110/110 26/111/111
f 14/112/112 15/113/113 26/114/114
f 15/115/115 16/116/116 26/117/117
f 16/118/118 17/119/119 26/120/120
f 17/121/121 18/122/122 26/123/123
f 18/124/124 19/125/125 26/126/126
f 19/127/127 20/128/128 26/129/129
f 20/130/130 21/131/131 26/132/132
f 21/133/133 22/134/134 26/135/135
f 22/136/136 23/137/137 26/138/138
f 23/139/139 24/140/140 26/141/141
f 24/142/142 25/143/143 26/144/144
