# Mesh 1
o Mesh1

v 2.5884 9.6262 0.0008
v 2.5884 9.661 0.1304
v 2.5884 9.661 -0.1289
v 2.5884 9.7559 -0.2238
v 2.5884 9.8855 -0.2585
v 2.5884 10.0151 -0.2238
v 2.5884 10.11 -0.1289
v 2.5884 10.1447 0.0008
v 2.5884 10.11 0.1304
v 2.5884 10.0151 0.2253
v 2.5884 9.8855 0.26
v 2.5884 9.7559 0.2253
v 0.4126 9.2715 0.0008
v 0.4126 9.3234 0.1945
v 0.4126 9.3234 -0.193
v 0.4126 9.4653 -0.3349
v 0.4126 9.6591 -0.3868
v 0.4126 9.8529 -0.3349
v 0.4126 9.9947 -0.193
v 0.4126 10.0467 0.0008
v 0.4126 9.9947 0.1945
v 0.4126 9.8529 0.3364
v 0.4126 9.6591 0.3883
v 0.4126 9.4653 0.3364
v 0.9784 9.6262 0.0008
v 0.9784 9.661 0.1304
v 0.9784 9.661 -0.1289
v 0.9784 9.7559 -0.2238
v 0.9784 9.8855 -0.2585
v 0.9784 10.0151 -0.2238
v 0.9784 10.11 -0.1289
v 0.9784 10.1447 0.0008
v 0.9784 10.11 0.1304
v 0.9784 10.0151 0.2253
v 0.9784 9.8855 0.26
v 0.9784 9.7559 0.2253
v 0.5277 9.5755 -0.2238
v 0.5277 9.7051 -0.2585
v 0.5277 9.4806 -0.1289
v 0.5277 9.4459 0.0008
v 0.5277 9.4806 0.1304
v 0.5277 9.5755 0.2253
v 0.5277 9.7051 0.26
v 0.5277 9.8348 0.2253
v 0.5277 9.9296 0.1304
v 0.5277 9.9644 0.0008
v 0.5277 9.9296 -0.1289
v 0.5277 9.8348 -0.2238
v 0.4198 9.4962 -0.2863
v 0.4414 9.5249 -0.2515
v 0.4773 9.5514 -0.2307
v 0.4198 9.3749 -0.165
v 0.4414 9.4183 -0.1449
v 0.4773 9.4535 -0.1329
v 0.4198 9.3305 0.0008
v 0.4414 9.3793 0.0008
v 0.4773 9.4177 0.0008
v 0.4198 9.3749 0.1665
v 0.4414 9.4183 0.1464
v 0.4773 9.4535 0.1344
v 0.4198 9.4962 0.2878
v 0.4414 9.5249 0.2531
v 0.4773 9.5514 0.2322
v 0.4198 9.662 0.3322
v 0.4414 9.6706 0.2921
v 0.4773 9.685 0.268
v 0.4198 9.8277 0.2878
v 0.4414 9.8163 0.2531
v 0.4773 9.8186 0.2322
v 0.4198 9.949 0.1665
v 0.4414 9.9229 0.1464
v 0.4773 9.9164 0.1344
v 0.4198 9.9934 0.0008
v 0.4414 9.9619 0.0008
v 0.4773 9.9522 0.0008
v 0.4198 9.949 -0.165
v 0.4414 9.9229 -0.1449
v 0.4773 9.9164 -0.1329
v 0.4198 9.662 -0.3307
v 0.4414 9.6706 -0.2906
v 0.4773 9.685 -0.2665
v 0.4198 9.8277 -0.2863
v 0.4414 9.8163 -0.2515
v 0.4773 9.8186 -0.2307
v 2.6847 9.9652 -0.1374
v 2.6847 10.0236 -0.079
v 2.6847 10.045 0.0008
v 2.6847 10.0236 0.0805
v 2.6847 9.9652 0.1389
v 2.6847 9.8855 0.1603
v 2.6847 9.8058 0.1389
v 2.6847 9.7473 0.0805
v 2.6847 9.7259 0.0008
v 2.6847 9.7474 -0.079
v 2.6847 9.8058 -0.1374
v 2.6847 9.8855 -0.1588
v 2.6419 10.1004 -0.1234
v 2.674 10.0716 -0.1067
v 2.6419 10.1336 0.0008
v 2.674 10.1004 0.0008
v 2.6419 10.1004 0.1249
v 2.674 10.0716 0.1082
v 2.6419 10.0096 0.2157
v 2.674 9.9929 0.1869
v 2.6419 9.8855 0.2489
v 2.674 9.8855 0.2157
v 2.6419 9.7614 0.2157
v 2.674 9.7781 0.1869
v 2.6419 9.6706 0.1249
v 2.674 9.6994 0.1082
v 2.6419 9.6373 0.0008
v 2.674 9.6705 0.0008
v 2.6419 9.6706 -0.1234
v 2.674 9.6994 -0.1067
v 2.6419 9.7614 -0.2142
v 2.674 9.7781 -0.1854
v 2.6419 9.8855 -0.2474
v 2.674 9.8855 -0.2142
v 2.6419 10.0096 -0.2142
v 2.674 9.9929 -0.1854
vt 0.5 0.357
vt 0.5 0.4194
vt 0.518 0.4194
vt 0.518 0.357
vt 0.5 0.357
vt 0.518 0.4194
vt 0.482 0.357
vt 0.482 0.4194
vt 0.5 0.4194
vt 0.5 0.357
vt 0.482 0.357
vt 0.5 0.4194
vt 0.4689 0.357
vt 0.4689 0.4194
vt 0.482 0.4194
vt 0.482 0.357
vt 0.4689 0.357
vt 0.482 0.4194
vt 0.0284 0.8227
vt 0.0899 0.8473
vt 0.0899 0.8296
vt 0.0284 0.805
vt 0.0284 0.8227
vt 0.0899 0.8296
vt 0.0284 0.8404
vt 0.0899 0.8649
vt 0.0899 0.8473
vt 0.0284 0.8227
vt 0.0284 0.8404
vt 0.0899 0.8473
vt 0.149 0.6382
vt 0.149 0.5768
vt 0.136 0.5768
vt 0.136 0.6382
vt 0.149 0.6382
vt 0.136 0.5768
vt 0.1667 0.6382
vt 0.1667 0.5768
vt 0.149 0.5768
vt 0.149 0.6382
vt 0.1667 0.6382
vt 0.149 0.5768
vt 0.1843 0.6382
vt 0.1843 0.5768
vt 0.1667 0.5768
vt 0.1667 0.6382
vt 0.1843 0.6382
vt 0.1667 0.5768
vt 0.1973 0.6382
vt 0.1973 0.5768
vt 0.1843 0.5768
vt 0.1843 0.6382
vt 0.1973 0.6382
vt 0.1843 0.5768
vt 0.6382 0.156
vt 0.5768 0.1806
vt 0.5768 0.1983
vt 0.6382 0.1737
vt 0.6382 0.156
vt 0.5768 0.1983
vt 0.6382 0.1383
vt 0.5768 0.1629
vt 0.5768 0.1806
vt 0.6382 0.156
vt 0.6382 0.1383
vt 0.5768 0.1806
vt 0.518 0.357
vt 0.518 0.4194
vt 0.5311 0.4194
vt 0.5311 0.357
vt 0.518 0.357
vt 0.5311 0.4194
vt 0.5 0.4194
vt 0.5 0.6426
vt 0.518 0.6426
vt 0.518 0.4194
vt 0.5 0.4194
vt 0.518 0.6426
vt 0.482 0.4194
vt 0.482 0.6426
vt 0.5 0.6426
vt 0.5 0.4194
vt 0.482 0.4194
vt 0.5 0.6426
vt 0.4689 0.4194
vt 0.4689 0.6426
vt 0.482 0.6426
vt 0.482 0.4194
vt 0.4689 0.4194
vt 0.482 0.6426
vt 0.0899 0.8473
vt 0.3094 0.8473
vt 0.3094 0.8296
vt 0.0899 0.8296
vt 0.0899 0.8473
vt 0.3094 0.8296
vt 0.0899 0.8649
vt 0.3094 0.8649
vt 0.3094 0.8473
vt 0.0899 0.8473
vt 0.0899 0.8649
vt 0.3094 0.8473
vt 0.149 0.5768
vt 0.149 0.3573
vt 0.136 0.3573
vt 0.136 0.5768
vt 0.149 0.5768
vt 0.136 0.3573
vt 0.1667 0.5768
vt 0.1667 0.3573
vt 0.149 0.3573
vt 0.149 0.5768
vt 0.1667 0.5768
vt 0.149 0.3573
vt 0.1843 0.5768
vt 0.1843 0.3573
vt 0.1667 0.3573
vt 0.1667 0.5768
vt 0.1843 0.5768
vt 0.1667 0.3573
vt 0.1973 0.5768
vt 0.1973 0.3573
vt 0.1843 0.3573
vt 0.1843 0.5768
vt 0.1973 0.5768
vt 0.1843 0.3573
vt 0.5768 0.1806
vt 0.3573 0.1806
vt 0.3573 0.1983
vt 0.5768 0.1983
vt 0.5768 0.1806
vt 0.3573 0.1983
vt 0.5768 0.1629
vt 0.3573 0.1629
vt 0.3573 0.1806
vt 0.5768 0.1806
vt 0.5768 0.1629
vt 0.3573 0.1806
vt 0.518 0.4194
vt 0.518 0.6426
vt 0.5311 0.6426
vt 0.5311 0.4194
vt 0.518 0.4194
vt 0.5311 0.6426
vt 0.0499 0.0841
vt 0.0318 0.1515
vt 0.0513 0.1526
vt 0.0499 0.0841
vt 0.0513 0.1526
vt 0.0668 0.0949
vt 0.0789 0.1048
vt 0.0668 0.0949
vt 0.0513 0.1526
vt 0.0789 0.1048
vt 0.0513 0.1526
vt 0.0653 0.1555
vt 0.0861 0.1141
vt 0.0789 0.1048
vt 0.0653 0.1555
vt 0.0737 0.1606
vt 0.0861 0.1141
vt 0.0653 0.1555
vt 0.0284 0.805
vt 0.0216 0.8017
vt 0.0216 0.8199
vt 0.0216 0.8199
vt 0.0284 0.8227
vt 0.0284 0.805
vt 0.0992 0.0347
vt 0.0499 0.0841
vt 0.0668 0.0949
vt 0.0668 0.0949
vt 0.109 0.0526
vt 0.0992 0.0347
vt 0.116 0.0678
vt 0.109 0.0526
vt 0.0668 0.0949
vt 0.0668 0.0949
vt 0.0789 0.1048
vt 0.116 0.0678
vt 0.1202 0.08
vt 0.116 0.0678
vt 0.0789 0.1048
vt 0.0789 0.1048
vt 0.0861 0.1141
vt 0.1202 0.08
vt 0.482 0.357
vt 0.4815 0.35
vt 0.4679 0.35
vt 0.4679 0.35
vt 0.4689 0.357
vt 0.482 0.357
vt 0.1667 0.0167
vt 0.0992 0.0347
vt 0.109 0.0526
vt 0.1667 0.0372
vt 0.1667 0.0167
vt 0.109 0.0526
vt 0.1667 0.0542
vt 0.1667 0.0372
vt 0.109 0.0526
vt 0.1667 0.0542
vt 0.109 0.0526
vt 0.116 0.0678
vt 0.1667 0.0675
vt 0.1667 0.0542
vt 0.116 0.0678
vt 0.1667 0.0675
vt 0.116 0.0678
vt 0.1202 0.08
vt 0.5 0.357
vt 0.5 0.35
vt 0.4815 0.35
vt 0.5 0.357
vt 0.4815 0.35
vt 0.482 0.357
vt 0.2341 0.0347
vt 0.1667 0.0167
vt 0.1667 0.0372
vt 0.2243 0.0526
vt 0.2341 0.0347
vt 0.1667 0.0372
vt 0.2243 0.0526
vt 0.1667 0.0372
vt 0.1667 0.0542
vt 0.1667 0.0542
vt 0.2173 0.0678
vt 0.2243 0.0526
vt 0.2173 0.0678
vt 0.1667 0.0542
vt 0.1667 0.0675
vt 0.1667 0.0675
vt 0.2132 0.08
vt 0.2173 0.0678
vt 0.5 0.35
vt 0.5 0.357
vt 0.518 0.357
vt 0.5185 0.35
vt 0.5 0.35
vt 0.518 0.357
vt 0.2835 0.0841
vt 0.2341 0.0347
vt 0.2243 0.0526
vt 0.2666 0.0949
vt 0.2835 0.0841
vt 0.2243 0.0526
vt 0.2666 0.0949
vt 0.2243 0.0526
vt 0.2173 0.0678
vt 0.2666 0.0949
vt 0.2173 0.0678
vt 0.2545 0.1048
vt 0.2545 0.1048
vt 0.2173 0.0678
vt 0.2132 0.08
vt 0.2472 0.1141
vt 0.2545 0.1048
vt 0.2132 0.08
vt 0.518 0.357
vt 0.5311 0.357
vt 0.5321 0.35
vt 0.5185 0.35
vt 0.518 0.357
vt 0.5321 0.35
vt 0.3015 0.1515
vt 0.2835 0.0841
vt 0.2666 0.0949
vt 0.3015 0.1515
vt 0.2666 0.0949
vt 0.282 0.1526
vt 0.282 0.1526
vt 0.2666 0.0949
vt 0.2545 0.1048
vt 0.2545 0.1048
vt 0.2681 0.1555
vt 0.282 0.1526
vt 0.2681 0.1555
vt 0.2545 0.1048
vt 0.2472 0.1141
vt 0.2681 0.1555
vt 0.2472 0.1141
vt 0.2597 0.1606
vt 0.6382 0.1383
vt 0.6382 0.156
vt 0.6451 0.1533
vt 0.6451 0.1351
vt 0.6382 0.1383
vt 0.6451 0.1533
vt 0.2835 0.219
vt 0.3015 0.1515
vt 0.282 0.1526
vt 0.2666 0.2102
vt 0.2835 0.219
vt 0.282 0.1526
vt 0.2666 0.2102
vt 0.282 0.1526
vt 0.2681 0.1555
vt 0.2681 0.1555
vt 0.2545 0.2062
vt 0.2666 0.2102
vt 0.65 0.1712
vt 0.65 0.1513
vt 0.6451 0.1533
vt 0.6451 0.1533
vt 0.6451 0.1715
vt 0.65 0.1712
vt 0.6382 0.156
vt 0.6382 0.1737
vt 0.6451 0.1715
vt 0.6451 0.1533
vt 0.6382 0.156
vt 0.6451 0.1715
vt 0.2341 0.2683
vt 0.2835 0.219
vt 0.2666 0.2102
vt 0.2243 0.2524
vt 0.2341 0.2683
vt 0.2666 0.2102
vt 0.2243 0.2524
vt 0.2666 0.2102
vt 0.2545 0.2062
vt 0.2545 0.2062
vt 0.2173 0.2433
vt 0.2243 0.2524
vt 0.1865 0.65
vt 0.2011 0.65
vt 0.1982 0.6451
vt 0.1849 0.6451
vt 0.1865 0.65
vt 0.1982 0.6451
vt 0.1849 0.6451
vt 0.1982 0.6451
vt 0.1973 0.6382
vt 0.1849 0.6451
vt 0.1973 0.6382
vt 0.1843 0.6382
vt 0.1667 0.2864
vt 0.2341 0.2683
vt 0.2243 0.2524
vt 0.2243 0.2524
vt 0.1667 0.2679
vt 0.1667 0.2864
vt 0.1667 0.2679
vt 0.2243 0.2524
vt 0.2173 0.2433
vt 0.2173 0.2433
vt 0.1667 0.2569
vt 0.1667 0.2679
vt 0.1667 0.65
vt 0.1865 0.65
vt 0.1849 0.6451
vt 0.1667 0.6451
vt 0.1667 0.65
vt 0.1849 0.6451
vt 0.1667 0.6451
vt 0.1849 0.6451
vt 0.1843 0.6382
vt 0.1667 0.6451
vt 0.1843 0.6382
vt 0.1667 0.6382
vt 0.109 0.2524
vt 0.0992 0.2683
vt 0.1667 0.2864
vt 0.109 0.2524
vt 0.1667 0.2864
vt 0.1667 0.2679
vt 0.116 0.2433
vt 0.109 0.2524
vt 0.1667 0.2679
vt 0.116 0.2433
vt 0.1667 0.2679
vt 0.1667 0.2569
vt 0.1484 0.6451
vt 0.1468 0.65
vt 0.1667 0.65
vt 0.1484 0.6451
vt 0.1667 0.65
vt 0.1667 0.6451
vt 0.149 0.6382
vt 0.1484 0.6451
vt 0.1667 0.6451
vt 0.1667 0.6382
vt 0.149 0.6382
vt 0.1667 0.6451
vt 0.0668 0.2102
vt 0.0499 0.219
vt 0.0992 0.2683
vt 0.0992 0.2683
vt 0.109 0.2524
vt 0.0668 0.2102
vt 0.0789 0.2062
vt 0.0668 0.2102
vt 0.109 0.2524
vt 0.0789 0.2062
vt 0.109 0.2524
vt 0.116 0.2433
vt 0.1351 0.6451
vt 0.1323 0.65
vt 0.1468 0.65
vt 0.1468 0.65
vt 0.1484 0.6451
vt 0.1351 0.6451
vt 0.136 0.6382
vt 0.1351 0.6451
vt 0.1484 0.6451
vt 0.149 0.6382
vt 0.136 0.6382
vt 0.1484 0.6451
vt 0.0513 0.1526
vt 0.0318 0.1515
vt 0.0499 0.219
vt 0.0499 0.219
vt 0.0668 0.2102
vt 0.0513 0.1526
vt 0.0653 0.1555
vt 0.0513 0.1526
vt 0.0668 0.2102
vt 0.0653 0.1555
vt 0.0668 0.2102
vt 0.0789 0.2062
vt 0.0216 0.8199
vt 0.0167 0.818
vt 0.0167 0.8378
vt 0.0216 0.8199
vt 0.0167 0.8378
vt 0.0216 0.8382
vt 0.0284 0.8227
vt 0.0216 0.8199
vt 0.0216 0.8382
vt 0.0284 0.8404
vt 0.0284 0.8227
vt 0.0216 0.8382
vt 0.4036 0.8334
vt 0.4165 0.8816
vt 0.4518 0.9168
vt 0.4165 0.7852
vt 0.4036 0.8334
vt 0.4518 0.9168
vt 0.4518 0.7499
vt 0.4165 0.7852
vt 0.4518 0.9168
vt 0.5 0.7369
vt 0.4518 0.7499
vt 0.4518 0.9168
vt 0.5482 0.7499
vt 0.5 0.7369
vt 0.4518 0.9168
vt 0.5835 0.7852
vt 0.5482 0.7499
vt 0.4518 0.9168
vt 0.5964 0.8334
vt 0.5835 0.7852
vt 0.4518 0.9168
vt 0.5835 0.8816
vt 0.5964 0.8334
vt 0.4518 0.9168
vt 0.5482 0.9168
vt 0.5835 0.8816
vt 0.4518 0.9168
vt 0.4518 0.9168
vt 0.5 0.9298
vt 0.5482 0.9168
vt 0.136 0.3573
vt 0.149 0.3573
vt 0.1497 0.35
vt 0.1497 0.35
vt 0.1374 0.35
vt 0.136 0.3573
vt 0.435 0.9459
vt 0.3875 0.8983
vt 0.3701 0.9083
vt 0.3701 0.9083
vt 0.425 0.9633
vt 0.435 0.9459
vt 0.4518 0.9168
vt 0.4165 0.8816
vt 0.3875 0.8983
vt 0.4518 0.9168
vt 0.3875 0.8983
vt 0.435 0.9459
vt 0.149 0.3573
vt 0.1667 0.3573
vt 0.1667 0.35
vt 0.1497 0.35
vt 0.149 0.3573
vt 0.1667 0.35
vt 0.5 0.9632
vt 0.435 0.9459
vt 0.425 0.9633
vt 0.425 0.9633
vt 0.5 0.9833
vt 0.5 0.9632
vt 0.5 0.9298
vt 0.4518 0.9168
vt 0.435 0.9459
vt 0.5 0.9298
vt 0.435 0.9459
vt 0.5 0.9632
vt 0.1667 0.3573
vt 0.1843 0.3573
vt 0.1836 0.35
vt 0.1836 0.35
vt 0.1667 0.35
vt 0.1667 0.3573
vt 0.565 0.9459
vt 0.5 0.9632
vt 0.5 0.9833
vt 0.5 0.9833
vt 0.575 0.9633
vt 0.565 0.9459
vt 0.5482 0.9168
vt 0.5 0.9298
vt 0.5 0.9632
vt 0.5482 0.9168
vt 0.5 0.9632
vt 0.565 0.9459
vt 0.1843 0.3573
vt 0.1973 0.3573
vt 0.196 0.35
vt 0.196 0.35
vt 0.1836 0.35
vt 0.1843 0.3573
vt 0.6125 0.8983
vt 0.565 0.9459
vt 0.575 0.9633
vt 0.575 0.9633
vt 0.6299 0.9083
vt 0.6125 0.8983
vt 0.5835 0.8816
vt 0.5482 0.9168
vt 0.565 0.9459
vt 0.5835 0.8816
vt 0.565 0.9459
vt 0.6125 0.8983
vt 0.3573 0.1983
vt 0.3573 0.1806
vt 0.35 0.1806
vt 0.35 0.1806
vt 0.35 0.1975
vt 0.3573 0.1983
vt 0.6299 0.8334
vt 0.6125 0.8983
vt 0.6299 0.9083
vt 0.6299 0.9083
vt 0.65 0.8334
vt 0.6299 0.8334
vt 0.5964 0.8334
vt 0.5835 0.8816
vt 0.6125 0.8983
vt 0.5964 0.8334
vt 0.6125 0.8983
vt 0.6299 0.8334
vt 0.3573 0.1806
vt 0.3573 0.1629
vt 0.35 0.1637
vt 0.35 0.1637
vt 0.35 0.1806
vt 0.3573 0.1806
vt 0.6125 0.7684
vt 0.6299 0.8334
vt 0.65 0.8334
vt 0.65 0.8334
vt 0.6299 0.7584
vt 0.6125 0.7684
vt 0.5835 0.7852
vt 0.5964 0.8334
vt 0.6299 0.8334
vt 0.5835 0.7852
vt 0.6299 0.8334
vt 0.6125 0.7684
vt 0.5311 0.6426
vt 0.518 0.6426
vt 0.5172 0.65
vt 0.5172 0.65
vt 0.5298 0.65
vt 0.5311 0.6426
vt 0.565 0.7209
vt 0.6125 0.7684
vt 0.6299 0.7584
vt 0.6299 0.7584
vt 0.575 0.7035
vt 0.565 0.7209
vt 0.5482 0.7499
vt 0.5835 0.7852
vt 0.6125 0.7684
vt 0.5482 0.7499
vt 0.6125 0.7684
vt 0.565 0.7209
vt 0.518 0.6426
vt 0.5 0.6426
vt 0.5 0.65
vt 0.5 0.65
vt 0.5172 0.65
vt 0.518 0.6426
vt 0.5 0.7034
vt 0.565 0.7209
vt 0.575 0.7035
vt 0.575 0.7035
vt 0.5 0.6833
vt 0.5 0.7034
vt 0.5 0.7369
vt 0.5482 0.7499
vt 0.565 0.7209
vt 0.5 0.7369
vt 0.565 0.7209
vt 0.5 0.7034
vt 0.5 0.6426
vt 0.482 0.6426
vt 0.4828 0.65
vt 0.4828 0.65
vt 0.5 0.65
vt 0.5 0.6426
vt 0.435 0.7209
vt 0.5 0.7034
vt 0.5 0.6833
vt 0.5 0.6833
vt 0.425 0.7035
vt 0.435 0.7209
vt 0.4518 0.7499
vt 0.5 0.7369
vt 0.5 0.7034
vt 0.4518 0.7499
vt 0.5 0.7034
vt 0.435 0.7209
vt 0.482 0.6426
vt 0.4689 0.6426
vt 0.4702 0.65
vt 0.4702 0.65
vt 0.4828 0.65
vt 0.482 0.6426
vt 0.3875 0.7684
vt 0.435 0.7209
vt 0.425 0.7035
vt 0.425 0.7035
vt 0.3701 0.7584
vt 0.3875 0.7684
vt 0.4165 0.7852
vt 0.4518 0.7499
vt 0.435 0.7209
vt 0.4165 0.7852
vt 0.435 0.7209
vt 0.3875 0.7684
vt 0.3094 0.8296
vt 0.3094 0.8473
vt 0.3167 0.8473
vt 0.3167 0.8473
vt 0.3167 0.8304
vt 0.3094 0.8296
vt 0.3701 0.8334
vt 0.3875 0.7684
vt 0.3701 0.7584
vt 0.3701 0.7584
vt 0.35 0.8334
vt 0.3701 0.8334
vt 0.4036 0.8334
vt 0.4165 0.7852
vt 0.3875 0.7684
vt 0.4036 0.8334
vt 0.3875 0.7684
vt 0.3701 0.8334
vt 0.3094 0.8473
vt 0.3094 0.8649
vt 0.3167 0.8642
vt 0.3167 0.8642
vt 0.3167 0.8473
vt 0.3094 0.8473
vt 0.3875 0.8983
vt 0.3701 0.8334
vt 0.35 0.8334
vt 0.35 0.8334
vt 0.3701 0.9083
vt 0.3875 0.8983
vt 0.4165 0.8816
vt 0.4036 0.8334
vt 0.3701 0.8334
vt 0.4165 0.8816
vt 0.3701 0.8334
vt 0.3875 0.8983
vn 0.3604 -0.9009 0.2419
vn 0.3604 -0.9009 0.2419
vn 0.3604 -0.9009 0.2419
vn 0.3606 -0.901 0.2412
vn 0.3606 -0.901 0.2412
vn 0.3606 -0.901 0.2412
vn 0.3606 -0.9009 -0.2417
vn 0.3606 -0.9009 -0.2417
vn 0.3606 -0.9009 -0.2417
vn 0.3605 -0.9011 -0.2411
vn 0.3605 -0.9011 -0.2411
vn 0.3605 -0.9011 -0.2411
vn 0.2723 -0.6804 -0.6804
vn 0.2723 -0.6804 -0.6804
vn 0.2723 -0.6804 -0.6804
vn 0.2723 -0.6804 -0.6804
vn 0.2723 -0.6804 -0.6804
vn 0.2723 -0.6804 -0.6804
vn 0.103 -0.2573 -0.9608
vn 0.103 -0.2573 -0.9608
vn 0.103 -0.2573 -0.9608
vn 0.103 -0.2573 -0.9608
vn 0.103 -0.2573 -0.9608
vn 0.103 -0.2573 -0.9608
vn -0.1029 0.2573 -0.9608
vn -0.1029 0.2573 -0.9608
vn -0.1029 0.2573 -0.9608
vn -0.1029 0.2571 -0.9609
vn -0.1029 0.2571 -0.9609
vn -0.1029 0.2571 -0.9609
vn -0.2723 0.6804 -0.6804
vn -0.2723 0.6804 -0.6804
vn -0.2723 0.6804 -0.6804
vn -0.2723 0.6807 -0.68
vn -0.2723 0.6807 -0.68
vn -0.2723 0.6807 -0.68
vn -0.3605 0.9011 -0.2411
vn -0.3605 0.9011 -0.2411
vn -0.3605 0.9011 -0.2411
vn -0.3606 0.9009 -0.2417
vn -0.3606 0.9009 -0.2417
vn -0.3606 0.9009 -0.2417
vn -0.3606 0.901 0.2412
vn -0.3606 0.901 0.2412
vn -0.3606 0.901 0.2412
vn -0.3604 0.9009 0.2419
vn -0.3604 0.9009 0.2419
vn -0.3604 0.9009 0.2419
vn -0.2722 0.6804 0.6804
vn -0.2722 0.6804 0.6804
vn -0.2722 0.6804 0.6804
vn -0.2725 0.6807 0.68
vn -0.2725 0.6807 0.68
vn -0.2725 0.6807 0.68
vn -0.103 0.2573 0.9608
vn -0.103 0.2573 0.9608
vn -0.103 0.2573 0.9608
vn -0.1028 0.2571 0.9609
vn -0.1028 0.2571 0.9609
vn -0.1028 0.2571 0.9609
vn 0.103 -0.2573 0.9608
vn 0.103 -0.2573 0.9608
vn 0.103 -0.2573 0.9608
vn 0.103 -0.2573 0.9608
vn 0.103 -0.2573 0.9608
vn 0.103 -0.2573 0.9608
vn 0.2723 -0.6804 0.6804
vn 0.2723 -0.6804 0.6804
vn 0.2723 -0.6804 0.6804
vn 0.2723 -0.6804 0.6804
vn 0.2723 -0.6804 0.6804
vn 0.2723 -0.6804 0.6804
vn 0.0 -0.9658 0.2593
vn 0.0 -0.9658 0.2593
vn 0.0 -0.9658 0.2593
vn 0.0 -0.9658 0.2593
vn 0.0 -0.9658 0.2593
vn 0.0 -0.9658 0.2593
vn 0.0 -0.9658 -0.2591
vn 0.0 -0.9658 -0.2591
vn 0.0 -0.9658 -0.2591
vn 0.0 -0.9658 -0.2591
vn 0.0 -0.9658 -0.2591
vn 0.0 -0.9658 -0.2591
vn 0.0 -0.7071 -0.7071
vn 0.0 -0.7071 -0.7071
vn 0.0 -0.7071 -0.7071
vn 0.0 -0.7071 -0.7071
vn 0.0 -0.7071 -0.7071
vn 0.0 -0.7071 -0.7071
vn 0.0 -0.2586 -0.966
vn 0.0 -0.2586 -0.966
vn 0.0 -0.2586 -0.966
vn 0.0 -0.2586 -0.966
vn 0.0 -0.2586 -0.966
vn 0.0 -0.2586 -0.966
vn 0.0 0.2586 -0.966
vn 0.0 0.2586 -0.966
vn 0.0 0.2586 -0.966
vn 0.0 0.2586 -0.966
vn 0.0 0.2586 -0.966
vn 0.0 0.2586 -0.966
vn 0.0 0.7071 -0.7071
vn 0.0 0.7071 -0.7071
vn 0.0 0.7071 -0.7071
vn 0.0 0.7071 -0.7071
vn 0.0 0.7071 -0.7071
vn 0.0 0.7071 -0.7071
vn 0.0 0.966 -0.2585
vn 0.0 0.966 -0.2585
vn 0.0 0.966 -0.2585
vn 0.0 0.966 -0.2585
vn 0.0 0.966 -0.2585
vn 0.0 0.966 -0.2585
vn 0.0 0.966 0.2586
vn 0.0 0.966 0.2586
vn 0.0 0.966 0.2586
vn 0.0 0.966 0.2586
vn 0.0 0.966 0.2586
vn 0.0 0.966 0.2586
vn 0.0 0.7071 0.7071
vn 0.0 0.7071 0.7071
vn 0.0 0.7071 0.7071
vn 0.0 0.7071 0.7071
vn 0.0 0.7071 0.7071
vn 0.0 0.7071 0.7071
vn 0.0 0.2586 0.966
vn 0.0 0.2586 0.966
vn 0.0 0.2586 0.966
vn 0.0 0.2586 0.966
vn 0.0 0.2586 0.966
vn 0.0 0.2586 0.966
vn 0.0 -0.2586 0.966
vn 0.0 -0.2586 0.966
vn 0.0 -0.2586 0.966
vn 0.0 -0.2586 0.966
vn 0.0 -0.2586 0.966
vn 0.0 -0.2586 0.966
vn 0.0 -0.7071 0.7071
vn 0.0 -0.7071 0.7071
vn 0.0 -0.7071 0.7071
vn 0.0 -0.7071 0.7071
vn 0.0 -0.7071 0.7071
vn 0.0 -0.7071 0.7071
vn 0.9915 -0.0336 -0.1255
vn 0.9915 -0.0336 -0.1255
vn 0.9915 -0.0336 -0.1255
vn 0.9915 -0.0336 -0.1255
vn 0.9915 -0.0336 -0.1255
vn 0.9915 -0.0336 -0.1255
vn 0.8849 -0.1205 -0.4499
vn 0.8849 -0.1205 -0.4499
vn 0.8849 -0.1205 -0.4499
vn 0.8845 -0.1209 -0.4505
vn 0.8845 -0.1209 -0.4505
vn 0.8845 -0.1209 -0.4505
vn 0.6005 -0.2073 -0.7723
vn 0.6005 -0.2073 -0.7723
vn 0.6005 -0.2073 -0.7723
vn 0.6012 -0.2068 -0.7719
vn 0.6012 -0.2068 -0.7719
vn 0.6012 -0.2068 -0.7719
vn 0.248 -0.2507 -0.9357
vn 0.248 -0.2507 -0.9357
vn 0.248 -0.2507 -0.9357
vn 0.2484 -0.2505 -0.9357
vn 0.2484 -0.2505 -0.9357
vn 0.2484 -0.2505 -0.9357
vn 0.9919 -0.0898 -0.0898
vn 0.9919 -0.0898 -0.0898
vn 0.9919 -0.0898 -0.0898
vn 0.9919 -0.0898 -0.0898
vn 0.9919 -0.0898 -0.0898
vn 0.9919 -0.0898 -0.0898
vn 0.9012 -0.3065 -0.3065
vn 0.9012 -0.3065 -0.3065
vn 0.9012 -0.3065 -0.3065
vn 0.9012 -0.3065 -0.3065
vn 0.9012 -0.3065 -0.3065
vn 0.9012 -0.3065 -0.3065
vn 0.6809 -0.5179 -0.5179
vn 0.6809 -0.5179 -0.5179
vn 0.6809 -0.5179 -0.5179
vn 0.6816 -0.5171 -0.5176
vn 0.6816 -0.5171 -0.5176
vn 0.6816 -0.5171 -0.5176
vn 0.3998 -0.6478 -0.6485
vn 0.3998 -0.6478 -0.6485
vn 0.3998 -0.6478 -0.6485
vn 0.3988 -0.6484 -0.6484
vn 0.3988 -0.6484 -0.6484
vn 0.3988 -0.6484 -0.6484
vn 0.9921 -0.1211 -0.0324
vn 0.9921 -0.1211 -0.0324
vn 0.9921 -0.1211 -0.0324
vn 0.9921 -0.1211 -0.0324
vn 0.9921 -0.1211 -0.0324
vn 0.9921 -0.1211 -0.0324
vn 0.9091 -0.4024 -0.1078
vn 0.9091 -0.4024 -0.1078
vn 0.9091 -0.4024 -0.1078
vn 0.909 -0.4025 -0.1077
vn 0.909 -0.4025 -0.1077
vn 0.909 -0.4025 -0.1077
vn 0.7186 -0.6718 -0.1798
vn 0.7186 -0.6718 -0.1798
vn 0.7186 -0.6718 -0.1798
vn 0.7187 -0.6717 -0.1798
vn 0.7187 -0.6717 -0.1798
vn 0.7187 -0.6717 -0.1798
vn 0.4755 -0.8498 -0.2275
vn 0.4755 -0.8498 -0.2275
vn 0.4755 -0.8498 -0.2275
vn 0.4751 -0.85 -0.2274
vn 0.4751 -0.85 -0.2274
vn 0.4751 -0.85 -0.2274
vn 0.9921 -0.1211 0.0324
vn 0.9921 -0.1211 0.0324
vn 0.9921 -0.1211 0.0324
vn 0.9921 -0.1211 0.0324
vn 0.9921 -0.1211 0.0324
vn 0.9921 -0.1211 0.0324
vn 0.9091 -0.4024 0.1078
vn 0.9091 -0.4024 0.1078
vn 0.9091 -0.4024 0.1078
vn 0.909 -0.4025 0.1078
vn 0.909 -0.4025 0.1078
vn 0.909 -0.4025 0.1078
vn 0.7186 -0.6718 0.1799
vn 0.7186 -0.6718 0.1799
vn 0.7186 -0.6718 0.1799
vn 0.7187 -0.6716 0.18
vn 0.7187 -0.6716 0.18
vn 0.7187 -0.6716 0.18
vn 0.4755 -0.8498 0.2275
vn 0.4755 -0.8498 0.2275
vn 0.4755 -0.8498 0.2275
vn 0.4751 -0.85 0.2278
vn 0.4751 -0.85 0.2278
vn 0.4751 -0.85 0.2278
vn 0.9919 -0.0898 0.0898
vn 0.9919 -0.0898 0.0898
vn 0.9919 -0.0898 0.0898
vn 0.9919 -0.0898 0.0898
vn 0.9919 -0.0898 0.0898
vn 0.9919 -0.0898 0.0898
vn 0.9012 -0.3065 0.3065
vn 0.9012 -0.3065 0.3065
vn 0.9012 -0.3065 0.3065
vn 0.9009 -0.3071 0.3068
vn 0.9009 -0.3071 0.3068
vn 0.9009 -0.3071 0.3068
vn 0.681 -0.5181 0.5176
vn 0.681 -0.5181 0.5176
vn 0.681 -0.5181 0.5176
vn 0.6824 -0.5166 0.5171
vn 0.6824 -0.5166 0.5171
vn 0.6824 -0.5166 0.5171
vn 0.3988 -0.6484 0.6484
vn 0.3988 -0.6484 0.6484
vn 0.3988 -0.6484 0.6484
vn 0.3998 -0.6478 0.6485
vn 0.3998 -0.6478 0.6485
vn 0.3998 -0.6478 0.6485
vn 0.9915 -0.0336 0.1255
vn 0.9915 -0.0336 0.1255
vn 0.9915 -0.0336 0.1255
vn 0.9915 -0.0336 0.1255
vn 0.9915 -0.0336 0.1255
vn 0.9915 -0.0336 0.1255
vn 0.8845 -0.1207 0.4507
vn 0.8845 -0.1207 0.4507
vn 0.8845 -0.1207 0.4507
vn 0.8845 -0.1206 0.4506
vn 0.8845 -0.1206 0.4506
vn 0.8845 -0.1206 0.4506
vn 0.6017 -0.2065 0.7716
vn 0.6017 -0.2065 0.7716
vn 0.6017 -0.2065 0.7716
vn 0.6012 -0.2068 0.7719
vn 0.6012 -0.2068 0.7719
vn 0.6012 -0.2068 0.7719
vn 0.2484 -0.2505 0.9357
vn 0.2484 -0.2505 0.9357
vn 0.2484 -0.2505 0.9357
vn 0.248 -0.2507 0.9357
vn 0.248 -0.2507 0.9357
vn 0.248 -0.2507 0.9357
vn 0.991 0.0345 0.129
vn 0.991 0.0345 0.129
vn 0.991 0.0345 0.129
vn 0.9911 0.0345 0.1289
vn 0.9911 0.0345 0.1289
vn 0.9911 0.0345 0.1289
vn 0.8606 0.1318 0.4919
vn 0.8606 0.1318 0.4919
vn 0.8606 0.1318 0.4919
vn 0.8604 0.1318 0.4923
vn 0.8604 0.1318 0.4923
vn 0.8604 0.1318 0.4923
vn 0.4784 0.2271 0.8483
vn 0.4784 0.2271 0.8483
vn 0.4784 0.2271 0.8483
vn 0.4791 0.2272 0.8479
vn 0.4791 0.2272 0.8479
vn 0.4791 0.2272 0.8479
vn 0.0491 0.2581 0.9649
vn 0.0491 0.2581 0.9649
vn 0.0491 0.2581 0.9649
vn 0.05 0.2585 0.9647
vn 0.05 0.2585 0.9647
vn 0.05 0.2585 0.9647
vn 0.9906 0.0967 0.0966
vn 0.9906 0.0967 0.0966
vn 0.9906 0.0967 0.0966
vn 0.9906 0.0968 0.0968
vn 0.9906 0.0968 0.0968
vn 0.9906 0.0968 0.0968
vn 0.8336 0.3906 0.3906
vn 0.8336 0.3906 0.3906
vn 0.8336 0.3906 0.3906
vn 0.8342 0.3902 0.3898
vn 0.8342 0.3902 0.3898
vn 0.8342 0.3902 0.3898
vn 0.3438 0.6643 0.6637
vn 0.3438 0.6643 0.6637
vn 0.3438 0.6643 0.6637
vn 0.3424 0.6644 0.6644
vn 0.3424 0.6644 0.6644
vn 0.3424 0.6644 0.6644
vn -0.1294 0.7012 0.7012
vn -0.1294 0.7012 0.7012
vn -0.1294 0.7012 0.7012
vn -0.1281 0.7016 0.7009
vn -0.1281 0.7016 0.7009
vn -0.1281 0.7016 0.7009
vn 0.9903 0.134 0.036
vn 0.9903 0.134 0.036
vn 0.9903 0.134 0.036
vn 0.9904 0.1338 0.0358
vn 0.9904 0.1338 0.0358
vn 0.9904 0.1338 0.0358
vn 0.8153 0.5593 0.1499
vn 0.8153 0.5593 0.1499
vn 0.8153 0.5593 0.1499
vn 0.8154 0.5592 0.1498
vn 0.8154 0.5592 0.1498
vn 0.8154 0.5592 0.1498
vn 0.2529 0.9346 0.2503
vn 0.2529 0.9346 0.2503
vn 0.2529 0.9346 0.2503
vn 0.2525 0.9346 0.2504
vn 0.2525 0.9346 0.2504
vn 0.2525 0.9346 0.2504
vn -0.2264 0.9408 0.2521
vn -0.2264 0.9408 0.2521
vn -0.2264 0.9408 0.2521
vn -0.2276 0.9404 0.2525
vn -0.2276 0.9404 0.2525
vn -0.2276 0.9404 0.2525
vn 0.9903 0.134 -0.036
vn 0.9903 0.134 -0.036
vn 0.9903 0.134 -0.036
vn 0.9904 0.1338 -0.0358
vn 0.9904 0.1338 -0.0358
vn 0.9904 0.1338 -0.0358
vn 0.8153 0.5594 -0.1498
vn 0.8153 0.5594 -0.1498
vn 0.8153 0.5594 -0.1498
vn 0.8154 0.5592 -0.1497
vn 0.8154 0.5592 -0.1497
vn 0.8154 0.5592 -0.1497
vn 0.2528 0.9346 -0.2502
vn 0.2528 0.9346 -0.2502
vn 0.2528 0.9346 -0.2502
vn 0.2525 0.9347 -0.2503
vn 0.2525 0.9347 -0.2503
vn 0.2525 0.9347 -0.2503
vn -0.2264 0.9409 -0.2519
vn -0.2264 0.9409 -0.2519
vn -0.2264 0.9409 -0.2519
vn -0.2276 0.9405 -0.2523
vn -0.2276 0.9405 -0.2523
vn -0.2276 0.9405 -0.2523
vn 0.9906 0.0967 -0.0966
vn 0.9906 0.0967 -0.0966
vn 0.9906 0.0967 -0.0966
vn 0.9906 0.0968 -0.0968
vn 0.9906 0.0968 -0.0968
vn 0.9906 0.0968 -0.0968
vn 0.8342 0.39 -0.39
vn 0.8342 0.39 -0.39
vn 0.8342 0.39 -0.39
vn 0.8341 0.39 -0.39
vn 0.8341 0.39 -0.39
vn 0.8341 0.39 -0.39
vn 0.3424 0.6644 -0.6644
vn 0.3424 0.6644 -0.6644
vn 0.3424 0.6644 -0.6644
vn 0.3424 0.6644 -0.6644
vn 0.3424 0.6644 -0.6644
vn 0.3424 0.6644 -0.6644
vn -0.1294 0.7012 -0.7012
vn -0.1294 0.7012 -0.7012
vn -0.1294 0.7012 -0.7012
vn -0.1281 0.7016 -0.7009
vn -0.1281 0.7016 -0.7009
vn -0.1281 0.7016 -0.7009
vn 0.991 0.0345 -0.129
vn 0.991 0.0345 -0.129
vn 0.991 0.0345 -0.129
vn 0.9911 0.0345 -0.1289
vn 0.9911 0.0345 -0.1289
vn 0.9911 0.0345 -0.1289
vn 0.8606 0.1318 -0.4919
vn 0.8606 0.1318 -0.4919
vn 0.8606 0.1318 -0.4919
vn 0.861 0.1318 -0.4912
vn 0.861 0.1318 -0.4912
vn 0.861 0.1318 -0.4912
vn 0.4781 0.2276 -0.8483
vn 0.4781 0.2276 -0.8483
vn 0.4781 0.2276 -0.8483
vn 0.4772 0.2275 -0.8488
vn 0.4772 0.2275 -0.8488
vn 0.4772 0.2275 -0.8488
vn 0.05 0.2585 -0.9647
vn 0.05 0.2585 -0.9647
vn 0.05 0.2585 -0.9647
vn 0.0491 0.2581 -0.9649
vn 0.0491 0.2581 -0.9649
vn 0.0491 0.2581 -0.9649
vn 1.0 0.0 0.0
vn 1.0 0.0 0.0
vn 1.0 0.0 0.0
vn 1.0 0.0 0.0
vn 1.0 0.0 0.0
vn 1.0 0.0 0.0
vn 1.0 0.0 0.0
vn 1.0 0.0 0.0
vn 1.0 0.0 0.0
vn 1.0 0.0 0.0
vn 1.0 0.0 0.0
vn 1.0 0.0 0.0
vn 1.0 0.0 0.0
vn 1.0 0.0 0.0
vn 1.0 0.0 0.0
vn 1.0 0.0 0.0
vn 1.0 0.0 0.0
vn 1.0 0.0 0.0
vn 1.0 0.0 0.0
vn 1.0 0.0 0.0
vn 1.0 0.0 0.0
vn 1.0 0.0 0.0
vn 1.0 0.0 0.0
vn 1.0 0.0 0.0
vn 1.0 0.0 0.0
vn 1.0 0.0 0.0
vn 1.0 0.0 0.0
vn 1.0 0.0 0.0
vn 1.0 0.0 0.0
vn 1.0 0.0 0.0
vn 0.1961 0.6934 -0.6934
vn 0.1961 0.6934 -0.6934
vn 0.1961 0.6934 -0.6934
vn 0.1961 0.6934 -0.6934
vn 0.1961 0.6934 -0.6934
vn 0.1961 0.6934 -0.6934
vn 0.7071 0.5 -0.5
vn 0.7071 0.5 -0.5
vn 0.7071 0.5 -0.5
vn 0.7071 0.5 -0.5
vn 0.7071 0.5 -0.5
vn 0.7071 0.5 -0.5
vn 0.9806 0.1387 -0.1387
vn 0.9806 0.1387 -0.1387
vn 0.9806 0.1387 -0.1387
vn 0.9806 0.1387 -0.1387
vn 0.9806 0.1387 -0.1387
vn 0.9806 0.1387 -0.1387
vn 0.1961 0.9473 -0.2534
vn 0.1961 0.9473 -0.2534
vn 0.1961 0.9473 -0.2534
vn 0.1961 0.9473 -0.2534
vn 0.1961 0.9473 -0.2534
vn 0.1961 0.9473 -0.2534
vn 0.7071 0.6831 -0.1828
vn 0.7071 0.6831 -0.1828
vn 0.7071 0.6831 -0.1828
vn 0.7071 0.6831 -0.1828
vn 0.7071 0.6831 -0.1828
vn 0.7071 0.6831 -0.1828
vn 0.9806 0.1895 -0.0507
vn 0.9806 0.1895 -0.0507
vn 0.9806 0.1895 -0.0507
vn 0.9806 0.1895 -0.0507
vn 0.9806 0.1895 -0.0507
vn 0.9806 0.1895 -0.0507
vn 0.1961 0.9472 0.2536
vn 0.1961 0.9472 0.2536
vn 0.1961 0.9472 0.2536
vn 0.1961 0.9472 0.2536
vn 0.1961 0.9472 0.2536
vn 0.1961 0.9472 0.2536
vn 0.7071 0.683 0.1829
vn 0.7071 0.683 0.1829
vn 0.7071 0.683 0.1829
vn 0.7071 0.683 0.1829
vn 0.7071 0.683 0.1829
vn 0.7071 0.683 0.1829
vn 0.9806 0.1894 0.0507
vn 0.9806 0.1894 0.0507
vn 0.9806 0.1894 0.0507
vn 0.9806 0.1894 0.0507
vn 0.9806 0.1894 0.0507
vn 0.9806 0.1894 0.0507
vn 0.1961 0.6934 0.6934
vn 0.1961 0.6934 0.6934
vn 0.1961 0.6934 0.6934
vn 0.1961 0.6934 0.6934
vn 0.1961 0.6934 0.6934
vn 0.1961 0.6934 0.6934
vn 0.7071 0.5 0.5
vn 0.7071 0.5 0.5
vn 0.7071 0.5 0.5
vn 0.7071 0.5 0.5
vn 0.7071 0.5 0.5
vn 0.7071 0.5 0.5
vn 0.9806 0.1387 0.1387
vn 0.9806 0.1387 0.1387
vn 0.9806 0.1387 0.1387
vn 0.9806 0.1387 0.1387
vn 0.9806 0.1387 0.1387
vn 0.9806 0.1387 0.1387
vn 0.1961 0.2536 0.9472
vn 0.1961 0.2536 0.9472
vn 0.1961 0.2536 0.9472
vn 0.1961 0.2536 0.9472
vn 0.1961 0.2536 0.9472
vn 0.1961 0.2536 0.9472
vn 0.7071 0.1829 0.683
vn 0.7071 0.1829 0.683
vn 0.7071 0.1829 0.683
vn 0.7071 0.1829 0.683
vn 0.7071 0.1829 0.683
vn 0.7071 0.1829 0.683
vn 0.9806 0.0507 0.1894
vn 0.9806 0.0507 0.1894
vn 0.9806 0.0507 0.1894
vn 0.9806 0.0507 0.1894
vn 0.9806 0.0507 0.1894
vn 0.9806 0.0507 0.1894
vn 0.1961 -0.2536 0.9472
vn 0.1961 -0.2536 0.9472
vn 0.1961 -0.2536 0.9472
vn 0.1961 -0.2536 0.9472
vn 0.1961 -0.2536 0.9472
vn 0.1961 -0.2536 0.9472
vn 0.7071 -0.1829 0.683
vn 0.7071 -0.1829 0.683
vn 0.7071 -0.1829 0.683
vn 0.7071 -0.1829 0.683
vn 0.7071 -0.1829 0.683
vn 0.7071 -0.1829 0.683
vn 0.9806 -0.0507 0.1894
vn 0.9806 -0.0507 0.1894
vn 0.9806 -0.0507 0.1894
vn 0.9806 -0.0507 0.1894
vn 0.9806 -0.0507 0.1894
vn 0.9806 -0.0507 0.1894
vn 0.1961 -0.6934 0.6934
vn 0.1961 -0.6934 0.6934
vn 0.1961 -0.6934 0.6934
vn 0.1961 -0.6934 0.6934
vn 0.1961 -0.6934 0.6934
vn 0.1961 -0.6934 0.6934
vn 0.7071 -0.5 0.5
vn 0.7071 -0.5 0.5
vn 0.7071 -0.5 0.5
vn 0.7071 -0.5 0.5
vn 0.7071 -0.5 0.5
vn 0.7071 -0.5 0.5
vn 0.9806 -0.1387 0.1387
vn 0.9806 -0.1387 0.1387
vn 0.9806 -0.1387 0.1387
vn 0.9806 -0.1387 0.1387
vn 0.9806 -0.1387 0.1387
vn 0.9806 -0.1387 0.1387
vn 0.1961 -0.947 0.2543
vn 0.1961 -0.947 0.2543
vn 0.1961 -0.947 0.2543
vn 0.1961 -0.947 0.2543
vn 0.1961 -0.947 0.2543
vn 0.1961 -0.947 0.2543
vn 0.7071 -0.6829 0.1834
vn 0.7071 -0.6829 0.1834
vn 0.7071 -0.6829 0.1834
vn 0.7071 -0.6829 0.1834
vn 0.7071 -0.6829 0.1834
vn 0.7071 -0.6829 0.1834
vn 0.9806 -0.1894 0.0509
vn 0.9806 -0.1894 0.0509
vn 0.9806 -0.1894 0.0509
vn 0.9806 -0.1894 0.0509
vn 0.9806 -0.1894 0.0509
vn 0.9806 -0.1894 0.0509
vn 0.1961 -0.9471 -0.2541
vn 0.1961 -0.9471 -0.2541
vn 0.1961 -0.9471 -0.2541
vn 0.1961 -0.9471 -0.2541
vn 0.1961 -0.9471 -0.2541
vn 0.1961 -0.9471 -0.2541
vn 0.7071 -0.683 -0.1832
vn 0.7071 -0.683 -0.1832
vn 0.7071 -0.683 -0.1832
vn 0.7071 -0.683 -0.1832
vn 0.7071 -0.683 -0.1832
vn 0.7071 -0.683 -0.1832
vn 0.9806 -0.1894 -0.0508
vn 0.9806 -0.1894 -0.0508
vn 0.9806 -0.1894 -0.0508
vn 0.9806 -0.1894 -0.0508
vn 0.9806 -0.1894 -0.0508
vn 0.9806 -0.1894 -0.0508
vn 0.1961 -0.6934 -0.6934
vn 0.1961 -0.6934 -0.6934
vn 0.1961 -0.6934 -0.6934
vn 0.1961 -0.6934 -0.6934
vn 0.1961 -0.6934 -0.6934
vn 0.1961 -0.6934 -0.6934
vn 0.7071 -0.5 -0.5
vn 0.7071 -0.5 -0.5
vn 0.7071 -0.5 -0.5
vn 0.7071 -0.5 -0.5
vn 0.7071 -0.5 -0.5
vn 0.7071 -0.5 -0.5
vn 0.9806 -0.1387 -0.1387
vn 0.9806 -0.1387 -0.1387
vn 0.9806 -0.1387 -0.1387
vn 0.9806 -0.1387 -0.1387
vn 0.9806 -0.1387 -0.1387
vn 0.9806 -0.1387 -0.1387
vn 0.1961 -0.2536 -0.9472
vn 0.1961 -0.2536 -0.9472
vn 0.1961 -0.2536 -0.9472
vn 0.1961 -0.2536 -0.9472
vn 0.1961 -0.2536 -0.9472
vn 0.1961 -0.2536 -0.9472
vn 0.7071 -0.1829 -0.683
vn 0.7071 -0.1829 -0.683
vn 0.7071 -0.1829 -0.683
vn 0.7071 -0.1829 -0.683
vn 0.7071 -0.1829 -0.683
vn 0.7071 -0.1829 -0.683
vn 0.9806 -0.0507 -0.1894
vn 0.9806 -0.0507 -0.1894
vn 0.9806 -0.0507 -0.1894
vn 0.9806 -0.0507 -0.1894
vn 0.9806 -0.0507 -0.1894
vn 0.9806 -0.0507 -0.1894
vn 0.1961 0.2536 -0.9472
vn 0.1961 0.2536 -0.9472
vn 0.1961 0.2536 -0.9472
vn 0.1961 0.2536 -0.9472
vn 0.1961 0.2536 -0.9472
vn 0.1961 0.2536 -0.9472
vn 0.7071 0.1829 -0.683
vn 0.7071 0.1829 -0.683
vn 0.7071 0.1829 -0.683
vn 0.7071 0.1829 -0.683
vn 0.7071 0.1829 -0.683
vn 0.7071 0.1829 -0.683
vn 0.9806 0.0507 -0.1894
vn 0.9806 0.0507 -0.1894
vn 0.9806 0.0507 -0.1894
vn 0.9806 0.0507 -0.1894
vn 0.9806 0.0507 -0.1894
vn 0.9806 0.0507 -0.1894
f 40/1/1 25/2/2 26/3/3
f 41/4/4 40/5/5 26/6/6
f 39/7/7 27/8/8 25/9/9
f 40/10/10 39/11/11 25/12/12
f 37/13/13 28/14/14 27/15/15
f 39/16/16 37/17/17 27/18/18
f 38/19/19 29/20/20 28/21/21
f 37/22/22 38/23/23 28/24/24
f 48/25/25 30/26/26 29/27/27
f 38/28/28 48/29/29 29/30/30
f 47/31/31 31/32/32 30/33/33
f 48/34/34 47/35/35 30/36/36
f 46/37/37 32/38/38 31/39/39
f 47/40/40 46/41/41 31/42/42
f 45/43/43 33/44/44 32/45/45
f 46/46/46 45/47/47 32/48/48
f 44/49/49 34/50/50 33/51/51
f 45/52/52 44/53/53 33/54/54
f 43/55/55 35/56/56 34/57/57
f 44/58/58 43/59/59 34/60/60
f 42/61/61 36/62/62 35/63/63
f 43/64/64 42/65/65 35/66/66
f 41/67/67 26/68/68 36/69/69
f 42/70/70 41/71/71 36/72/72
f 25/73/73 1/74/74 2/75/75
f 26/76/76 25/77/77 2/78/78
f 27/79/79 3/80/80 1/81/81
f 25/82/82 27/83/83 1/84/84
f 28/85/85 4/86/86 3/87/87
f 27/88/88 28/89/89 3/90/90
f 29/91/91 5/92/92 4/93/93
f 28/94/94 29/95/95 4/96/96
f 30/97/97 6/98/98 5/99/99
f 29/100/100 30/101/101 5/102/102
f 31/103/103 7/104/104 6/105/105
f 30/106/106 31/107/107 6/108/108
f 32/109/109 8/110/110 7/111/111
f 31/112/112 32/113/113 7/114/114
f 33/115/115 9/116/116 8/117/117
f 32/118/118 33/119/119 8/120/120
f 34/121/121 10/122/122 9/123/123
f 33/124/124 34/125/125 9/126/126
f 35/127/127 11/128/128 10/129/129
f 34/130/130 35/131/131 10/132/132
f 36/133/133 12/134/134 11/135/135
f 35/136/136 36/137/137 11/138/138
f 26/139/139 2/140/140 12/141/141
f 36/142/142 26/143/143 12/144/144
f 16/145/145 17/146/146 79/147/147
f 16/148/148 79/149/149 49/150/150
f 50/151/151 49/152/152 79/153/153
f 50/154/154 79/155/155 80/156/156
f 51/157/157 50/158/158 80/159/159
f 81/160/160 51/161/161 80/162/162
f 37/163/163 51/164/164 81/165/165
f 81/166/166 38/167/167 37/168/168
f 15/169/169 16/170/170 49/171/171
f 49/172/172 52/173/173 15/174/174
f 53/175/175 52/176/176 49/177/177
f 49/178/178 50/179/179 53/180/180
f 54/181/181 53/182/182 50/183/183
f 50/184/184 51/185/185 54/186/186
f 39/187/187 54/188/188 51/189/189
f 51/190/190 37/191/191 39/192/192
f 13/193/193 15/194/194 52/195/195
f 55/196/196 13/197/197 52/198/198
f 56/199/199 55/200/200 52/201/201
f 56/202/202 52/203/203 53/204/204
f 57/205/205 56/206/206 53/207/207
f 57/208/208 53/209/209 54/210/210
f 40/211/211 57/212/212 54/213/213
f 40/214/214 54/215/215 39/216/216
f 14/217/217 13/218/218 55/219/219
f 58/220/220 14/221/221 55/222/222
f 58/223/223 55/224/224 56/225/225
f 56/226/226 59/227/227 58/228/228
f 59/229/229 56/230/230 57/231/231
f 57/232/232 60/233/233 59/234/234
f 57/235/235 40/236/236 41/237/237
f 60/238/238 57/239/239 41/240/240
f 24/241/241 14/242/242 58/243/243
f 61/244/244 24/245/245 58/246/246
f 61/247/247 58/248/248 59/249/249
f 61/250/250 59/251/251 62/252/252
f 62/253/253 59/254/254 60/255/255
f 63/256/256 62/257/257 60/258/258
f 41/259/259 42/260/260 63/261/261
f 60/262/262 41/263/263 63/264/264
f 23/265/265 24/266/266 61/267/267
f 23/268/268 61/269/269 64/270/270
f 64/271/271 61/272/272 62/273/273
f 62/274/274 65/275/275 64/276/276
f 65/277/277 62/278/278 63/279/279
f 65/280/280 63/281/281 66/282/282
f 42/283/283 43/284/284 66/285/285
f 63/286/286 42/287/287 66/288/288
f 22/289/289 23/290/290 64/291/291
f 67/292/292 22/293/293 64/294/294
f 67/295/295 64/296/296 65/297/297
f 65/298/298 68/299/299 67/300/300
f 68/301/301 65/302/302 66/303/303
f 66/304/304 69/305/305 68/306/306
f 43/307/307 44/308/308 69/309/309
f 66/310/310 43/311/311 69/312/312
f 21/313/313 22/314/314 67/315/315
f 70/316/316 21/317/317 67/318/318
f 70/319/319 67/320/320 68/321/321
f 68/322/322 71/323/323 70/324/324
f 71/325/325 68/326/326 69/327/327
f 72/328/328 71/329/329 69/330/330
f 72/331/331 69/332/332 44/333/333
f 72/334/334 44/335/335 45/336/336
f 20/337/337 21/338/338 70/339/339
f 70/340/340 73/341/341 20/342/342
f 73/343/343 70/344/344 71/345/345
f 71/346/346 74/347/347 73/348/348
f 74/349/349 71/350/350 72/351/351
f 75/352/352 74/353/353 72/354/354
f 75/355/355 72/356/356 45/357/357
f 75/358/358 45/359/359 46/360/360
f 76/361/361 19/362/362 20/363/363
f 76/364/364 20/365/365 73/366/366
f 77/367/367 76/368/368 73/369/369
f 77/370/370 73/371/371 74/372/372
f 78/373/373 77/374/374 74/375/375
f 78/376/376 74/377/377 75/378/378
f 47/379/379 78/380/380 75/381/381
f 46/382/382 47/383/383 75/384/384
f 82/385/385 18/386/386 19/387/387
f 19/388/388 76/389/389 82/390/390
f 83/391/391 82/392/392 76/393/393
f 83/394/394 76/395/395 77/396/396
f 84/397/397 83/398/398 77/399/399
f 77/400/400 78/401/401 84/402/402
f 48/403/403 84/404/404 78/405/405
f 47/406/406 48/407/407 78/408/408
f 79/409/409 17/410/410 18/411/411
f 18/412/412 82/413/413 79/414/414
f 80/415/415 79/416/416 82/417/417
f 80/418/418 82/419/419 83/420/420
f 81/421/421 80/422/422 83/423/423
f 81/424/424 83/425/425 84/426/426
f 38/427/427 81/428/428 84/429/429
f 48/430/430 38/431/431 84/432/432
f 96/433/433 85/434/434 86/435/435
f 95/436/436 96/437/437 86/438/438
f 94/439/439 95/440/440 86/441/441
f 93/442/442 94/443/443 86/444/444
f 92/445/445 93/446/446 86/447/447
f 91/448/448 92/449/449 86/450/450
f 90/451/451 91/452/452 86/453/453
f 89/454/454 90/455/455 86/456/456
f 88/457/457 89/458/458 86/459/459
f 86/460/460 87/461/461 88/462/462
f 6/463/463 7/464/464 97/465/465
f 97/466/466 119/467/467 6/468/468
f 98/469/469 120/470/470 119/471/471
f 119/472/472 97/473/473 98/474/474
f 86/475/475 85/476/476 120/477/477
f 86/478/478 120/479/479 98/480/480
f 7/481/481 8/482/482 99/483/483
f 97/484/484 7/485/485 99/486/486
f 100/487/487 98/488/488 97/489/489
f 97/490/490 99/491/491 100/492/492
f 87/493/493 86/494/494 98/495/495
f 87/496/496 98/497/497 100/498/498
f 8/499/499 9/500/500 101/501/501
f 101/502/502 99/503/503 8/504/504
f 102/505/505 100/506/506 99/507/507
f 99/508/508 101/509/509 102/510/510
f 88/511/511 87/512/512 100/513/513
f 88/514/514 100/515/515 102/516/516
f 9/517/517 10/518/518 103/519/519
f 103/520/520 101/521/521 9/522/522
f 104/523/523 102/524/524 101/525/525
f 101/526/526 103/527/527 104/528/528
f 89/529/529 88/530/530 102/531/531
f 89/532/532 102/533/533 104/534/534
f 10/535/535 11/536/536 105/537/537
f 105/538/538 103/539/539 10/540/540
f 106/541/541 104/542/542 103/543/543
f 103/544/544 105/545/545 106/546/546
f 90/547/547 89/548/548 104/549/549
f 90/550/550 104/551/551 106/552/552
f 11/553/553 12/554/554 107/555/555
f 107/556/556 105/557/557 11/558/558
f 108/559/559 106/560/560 105/561/561
f 105/562/562 107/563/563 108/564/564
f 91/565/565 90/566/566 106/567/567
f 91/568/568 106/569/569 108/570/570
f 12/571/571 2/572/572 109/573/573
f 109/574/574 107/575/575 12/576/576
f 110/577/577 108/578/578 107/579/579
f 107/580/580 109/581/581 110/582/582
f 92/583/583 91/584/584 108/585/585
f 92/586/586 108/587/587 110/588/588
f 2/589/589 1/590/590 111/591/591
f 111/592/592 109/593/593 2/594/594
f 112/595/595 110/596/596 109/597/597
f 109/598/598 111/599/599 112/600/600
f 93/601/601 92/602/602 110/603/603
f 93/604/604 110/605/605 112/606/606
f 1/607/607 3/608/608 113/609/609
f 113/610/610 111/611/611 1/612/612
f 114/613/613 112/614/614 111/615/615
f 111/616/616 113/617/617 114/618/618
f 94/619/619 93/620/620 112/621/621
f 94/622/622 112/623/623 114/624/624
f 3/625/625 4/626/626 115/627/627
f 115/628/628 113/629/629 3/630/630
f 116/631/631 114/632/632 113/633/633
f 113/634/634 115/635/635 116/636/636
f 95/637/637 94/638/638 114/639/639
f 95/640/640 114/641/641 116/642/642
f 4/643/643 5/644/644 117/645/645
f 117/646/646 115/647/647 4/648/648
f 118/649/649 116/650/650 115/651/651
f 115/652/652 117/653/653 118/654/654
f 96/655/655 95/656/656 116/657/657
f 96/658/658 116/659/659 118/660/660
f 5/661/661 6/662/662 119/663/663
f 119/664/664 117/665/665 5/666/666
f 120/667/667 118/668/668 117/669/669
f 117/670/670 119/671/671 120/672/672
f 85/673/673 96/674/674 118/675/675
f 85/676/676 118/677/677 120/678/678
