# Mesh 0
o Mesh0

v 1.161 9.8854 0.0008
v 1.161 9.5737 -0.0528
v 1.161 9.5887 0.1103
v 1.161 9.6422 -0.2015
v 1.161 9.776 -0.296
v 1.161 9.939 -0.311
v 1.161 10.0877 -0.2425
v 1.161 10.1822 -0.1088
v 1.161 10.1972 0.0543
v 1.161 10.1287 0.203
v 1.161 9.995 0.2975
v 1.161 9.832 0.3125
v 1.161 9.6832 0.244
v 2.4363 9.5737 0.0543
v 2.4363 9.6422 0.203
v 2.4363 9.5887 -0.1088
v 2.4363 9.6832 -0.2425
v 2.4363 9.832 -0.311
v 2.4363 9.995 -0.296
v 2.4363 10.1287 -0.2015
v 2.4363 10.1972 -0.0528
v 2.4363 10.1822 0.1103
v 2.4363 10.0877 0.244
v 2.4363 9.939 0.3125
v 2.4363 9.776 0.2975
v 2.4363 9.8855 0.0008
v 2.4363 10.0877 -0.2425
v 1.161 9.995 -0.296
v 1.161 10.0208 -0.2337
v 2.4363 10.1822 -0.1088
v 1.161 10.1287 -0.2015
v 1.161 10.1199 -0.1346
v 2.4363 10.1972 0.0543
v 1.161 10.1972 -0.0528
v 1.161 10.1562 0.0008
v 2.4363 10.1287 0.203
v 1.161 10.1822 0.1103
v 1.161 10.1199 0.1361
v 2.4363 9.995 0.2975
v 1.161 10.0877 0.244
v 1.161 10.0208 0.2352
v 2.4363 9.832 0.3125
v 1.161 9.939 0.3125
v 1.161 9.8855 0.2714
v 2.4363 9.6832 0.244
v 1.161 9.776 0.2975
v 1.161 9.7501 0.2352
v 2.4363 9.5887 0.1103
v 1.161 9.6422 0.203
v 1.161 9.6511 0.1361
v 2.4363 9.5737 -0.0528
v 1.161 9.5737 0.0543
v 1.161 9.6148 0.0008
v 2.4363 9.6422 -0.2015
v 1.161 9.5887 -0.1088
v 1.161 9.6511 -0.1346
v 2.4363 9.776 -0.296
v 1.161 9.6832 -0.2425
v 1.161 9.7501 -0.2337
v 2.4363 9.939 -0.311
v 1.161 9.832 -0.311
v 1.161 9.8855 -0.2699
v 2.4363 10.0291 -0.2837
v 2.4363 10.06 -0.2658
v 1.161 10.0291 -0.2837
v 1.161 10.06 -0.2658
v 2.4363 10.1521 -0.1738
v 2.4363 10.1699 -0.1429
v 1.161 10.1521 -0.1738
v 1.161 10.1699 -0.1429
v 2.4363 10.2036 -0.0171
v 2.4363 10.2036 0.0186
v 1.161 10.2036 -0.0171
v 1.161 10.2036 0.0186
v 2.4363 10.1699 0.1444
v 2.4363 10.1521 0.1753
v 1.161 10.1699 0.1444
v 1.161 10.1521 0.1753
v 2.4363 10.06 0.2673
v 2.4363 10.0291 0.2852
v 1.161 10.06 0.2673
v 1.161 10.0291 0.2852
v 2.4363 9.9033 0.3189
v 2.4363 9.8676 0.3189
v 1.161 9.9033 0.3189
v 1.161 9.8676 0.3189
v 2.4363 9.7419 0.2852
v 2.4363 9.711 0.2673
v 1.161 9.7419 0.2852
v 1.161 9.711 0.2673
v 1.161 9.601 0.1444
v 1.161 9.6189 0.1753
v 2.4363 9.601 0.1444
v 2.4363 9.6189 0.1753
v 2.4363 9.5673 0.0186
v 2.4363 9.5673 -0.0171
v 1.161 9.5673 0.0186
v 1.161 9.5673 -0.0171
v 2.4363 9.601 -0.1429
v 2.4363 9.6189 -0.1738
v 1.161 9.601 -0.1429
v 1.161 9.6189 -0.1738
v 2.4363 9.711 -0.2658
v 2.4363 9.7419 -0.2837
v 1.161 9.711 -0.2658
v 1.161 9.7419 -0.2837
v 2.4363 9.8676 -0.3174
v 2.4363 9.9033 -0.3174
v 1.161 9.8676 -0.3174
v 1.161 9.9033 -0.3174
vt 0.35 0.8591
vt 0.35 0.8671
vt 0.65 0.8671
vt 0.65 0.8591
vt 0.35 0.8591
vt 0.65 0.8671
vt 0.4331 0.35
vt 0.4331 0.65
vt 0.4373 0.65
vt 0.4373 0.65
vt 0.4373 0.35
vt 0.4331 0.35
vt 0.4373 0.65
vt 0.4428 0.65
vt 0.4428 0.35
vt 0.4373 0.35
vt 0.4373 0.65
vt 0.4428 0.35
vt 0.4524 0.65
vt 0.4589 0.65
vt 0.4589 0.35
vt 0.4524 0.35
vt 0.4524 0.65
vt 0.4589 0.35
vt 0.4589 0.35
vt 0.4589 0.65
vt 0.4662 0.65
vt 0.4662 0.65
vt 0.4662 0.35
vt 0.4589 0.35
vt 0.4662 0.65
vt 0.4742 0.65
vt 0.4742 0.35
vt 0.4662 0.35
vt 0.4662 0.65
vt 0.4742 0.35
vt 0.4874 0.65
vt 0.4958 0.65
vt 0.4958 0.35
vt 0.4874 0.35
vt 0.4874 0.65
vt 0.4958 0.35
vt 0.4958 0.35
vt 0.4958 0.65
vt 0.5042 0.65
vt 0.5042 0.65
vt 0.5042 0.35
vt 0.4958 0.35
vt 0.5042 0.65
vt 0.5126 0.65
vt 0.5126 0.35
vt 0.5042 0.35
vt 0.5042 0.65
vt 0.5126 0.35
vt 0.5258 0.65
vt 0.5338 0.65
vt 0.5338 0.35
vt 0.5258 0.35
vt 0.5258 0.65
vt 0.5338 0.35
vt 0.5338 0.35
vt 0.5338 0.65
vt 0.5411 0.65
vt 0.5411 0.65
vt 0.5411 0.35
vt 0.5338 0.35
vt 0.5411 0.65
vt 0.5476 0.65
vt 0.5476 0.35
vt 0.5411 0.35
vt 0.5411 0.65
vt 0.5476 0.35
vt 0.5572 0.65
vt 0.5627 0.65
vt 0.5627 0.35
vt 0.5572 0.35
vt 0.5572 0.65
vt 0.5627 0.35
vt 0.5627 0.35
vt 0.5627 0.65
vt 0.5669 0.65
vt 0.5669 0.65
vt 0.5669 0.35
vt 0.5627 0.35
vt 0.3167 0.8671
vt 0.3167 0.8591
vt 0.0167 0.8591
vt 0.0167 0.8671
vt 0.3167 0.8671
vt 0.0167 0.8591
vt 0.3167 0.8459
vt 0.3167 0.8375
vt 0.0167 0.8375
vt 0.0167 0.8459
vt 0.3167 0.8459
vt 0.0167 0.8375
vt 0.0167 0.8375
vt 0.3167 0.8375
vt 0.3167 0.8291
vt 0.3167 0.8291
vt 0.0167 0.8291
vt 0.0167 0.8375
vt 0.3167 0.8291
vt 0.3167 0.8207
vt 0.0167 0.8207
vt 0.0167 0.8291
vt 0.3167 0.8291
vt 0.0167 0.8207
vt 0.3167 0.8076
vt 0.3167 0.7996
vt 0.0167 0.7996
vt 0.0167 0.8076
vt 0.3167 0.8076
vt 0.0167 0.7996
vt 0.5669 0.3167
vt 0.5669 0.0167
vt 0.5627 0.0167
vt 0.5627 0.0167
vt 0.5627 0.3167
vt 0.5669 0.3167
vt 0.5627 0.0167
vt 0.5572 0.0167
vt 0.5572 0.3167
vt 0.5627 0.3167
vt 0.5627 0.0167
vt 0.5572 0.3167
vt 0.5258 0.3167
vt 0.5338 0.3167
vt 0.5338 0.0167
vt 0.5258 0.0167
vt 0.5258 0.3167
vt 0.5338 0.0167
vt 0.5338 0.0167
vt 0.5338 0.3167
vt 0.5411 0.3167
vt 0.5411 0.3167
vt 0.5411 0.0167
vt 0.5338 0.0167
vt 0.5411 0.3167
vt 0.5476 0.3167
vt 0.5476 0.0167
vt 0.5411 0.0167
vt 0.5411 0.3167
vt 0.5476 0.0167
vt 0.5126 0.0167
vt 0.5042 0.0167
vt 0.5042 0.3167
vt 0.5126 0.3167
vt 0.5126 0.0167
vt 0.5042 0.3167
vt 0.5042 0.3167
vt 0.5042 0.0167
vt 0.4958 0.0167
vt 0.4958 0.0167
vt 0.4958 0.3167
vt 0.5042 0.3167
vt 0.4958 0.0167
vt 0.4874 0.0167
vt 0.4874 0.3167
vt 0.4958 0.3167
vt 0.4958 0.0167
vt 0.4874 0.3167
vt 0.4742 0.0167
vt 0.4662 0.0167
vt 0.4662 0.3167
vt 0.4742 0.3167
vt 0.4742 0.0167
vt 0.4662 0.3167
vt 0.4662 0.3167
vt 0.4662 0.0167
vt 0.4589 0.0167
vt 0.4589 0.0167
vt 0.4589 0.3167
vt 0.4662 0.3167
vt 0.4589 0.0167
vt 0.4524 0.0167
vt 0.4524 0.3167
vt 0.4589 0.3167
vt 0.4589 0.0167
vt 0.4524 0.3167
vt 0.4428 0.0167
vt 0.4373 0.0167
vt 0.4373 0.3167
vt 0.4428 0.3167
vt 0.4428 0.0167
vt 0.4373 0.3167
vt 0.4373 0.3167
vt 0.4373 0.0167
vt 0.4331 0.0167
vt 0.4331 0.0167
vt 0.4331 0.3167
vt 0.4373 0.3167
vt 0.35 0.7996
vt 0.35 0.8076
vt 0.65 0.8076
vt 0.65 0.7996
vt 0.35 0.7996
vt 0.65 0.8076
vt 0.35 0.8207
vt 0.35 0.8291
vt 0.65 0.8291
vt 0.65 0.8207
vt 0.35 0.8207
vt 0.65 0.8291
vt 0.65 0.8291
vt 0.35 0.8291
vt 0.35 0.8375
vt 0.35 0.8375
vt 0.65 0.8375
vt 0.65 0.8291
vt 0.35 0.8375
vt 0.35 0.8459
vt 0.65 0.8459
vt 0.65 0.8375
vt 0.35 0.8375
vt 0.65 0.8459
vt 0.1667 0.1667
vt 0.0268 0.2183
vt 0.0326 0.2344
vt 0.052 0.262
vt 0.1667 0.1667
vt 0.0326 0.2344
vt 0.052 0.262
vt 0.0326 0.2344
vt 0.041 0.249
vt 0.2772 0.5638
vt 0.2814 0.5954
vt 0.2923 0.5823
vt 0.3066 0.5517
vt 0.2772 0.5638
vt 0.2923 0.5823
vt 0.3066 0.5517
vt 0.2923 0.5823
vt 0.3008 0.5677
vt 0.1667 0.1667
vt 0.0713 0.2814
vt 0.0844 0.2924
vt 0.115 0.3066
vt 0.1667 0.1667
vt 0.0844 0.2924
vt 0.115 0.3066
vt 0.0844 0.2924
vt 0.0989 0.3008
vt 0.2305 0.6105
vt 0.2183 0.6399
vt 0.2344 0.6341
vt 0.262 0.6147
vt 0.2305 0.6105
vt 0.2344 0.6341
vt 0.262 0.6147
vt 0.2344 0.6341
vt 0.249 0.6257
vt 0.1667 0.1667
vt 0.1414 0.3136
vt 0.1583 0.3167
vt 0.1919 0.3136
vt 0.1667 0.1667
vt 0.1583 0.3167
vt 0.1919 0.3136
vt 0.1583 0.3167
vt 0.1751 0.3167
vt 0.1666 0.6277
vt 0.1414 0.647
vt 0.1583 0.65
vt 0.1919 0.647
vt 0.1666 0.6277
vt 0.1583 0.65
vt 0.1919 0.647
vt 0.1583 0.65
vt 0.1751 0.65
vt 0.1667 0.1667
vt 0.2183 0.3066
vt 0.2344 0.3008
vt 0.262 0.2814
vt 0.1667 0.1667
vt 0.2344 0.3008
vt 0.262 0.2814
vt 0.2344 0.3008
vt 0.249 0.2924
vt 0.1029 0.6105
vt 0.0713 0.6147
vt 0.0844 0.6257
vt 0.115 0.6399
vt 0.1029 0.6105
vt 0.0844 0.6257
vt 0.115 0.6399
vt 0.0844 0.6257
vt 0.0989 0.6341
vt 0.1667 0.1667
vt 0.2814 0.262
vt 0.2923 0.249
vt 0.3066 0.2183
vt 0.1667 0.1667
vt 0.2923 0.249
vt 0.3066 0.2183
vt 0.2923 0.249
vt 0.3008 0.2344
vt 0.0561 0.5638
vt 0.0268 0.5517
vt 0.0326 0.5677
vt 0.052 0.5954
vt 0.0561 0.5638
vt 0.0326 0.5677
vt 0.052 0.5954
vt 0.0326 0.5677
vt 0.041 0.5823
vt 0.1667 0.1667
vt 0.3136 0.1919
vt 0.3167 0.1751
vt 0.3136 0.1415
vt 0.1667 0.1667
vt 0.3167 0.1751
vt 0.3136 0.1415
vt 0.3167 0.1751
vt 0.3167 0.1583
vt 0.0391 0.5
vt 0.0197 0.4748
vt 0.0167 0.4916
vt 0.0197 0.5252
vt 0.0391 0.5
vt 0.0167 0.4916
vt 0.0197 0.5252
vt 0.0167 0.4916
vt 0.0167 0.5084
vt 0.1667 0.1667
vt 0.3066 0.1151
vt 0.3008 0.099
vt 0.2814 0.0713
vt 0.1667 0.1667
vt 0.3008 0.099
vt 0.2814 0.0713
vt 0.3008 0.099
vt 0.2923 0.0844
vt 0.0561 0.4362
vt 0.052 0.4046
vt 0.041 0.4178
vt 0.0268 0.4484
vt 0.0561 0.4362
vt 0.041 0.4178
vt 0.0268 0.4484
vt 0.041 0.4178
vt 0.0326 0.4323
vt 0.1667 0.1667
vt 0.262 0.052
vt 0.249 0.041
vt 0.2183 0.0268
vt 0.1667 0.1667
vt 0.249 0.041
vt 0.2183 0.0268
vt 0.249 0.041
vt 0.2344 0.0326
vt 0.1029 0.3895
vt 0.115 0.3601
vt 0.0989 0.3659
vt 0.0713 0.3853
vt 0.1029 0.3895
vt 0.0989 0.3659
vt 0.0713 0.3853
vt 0.0989 0.3659
vt 0.0844 0.3743
vt 0.1667 0.1667
vt 0.1919 0.0197
vt 0.1751 0.0167
vt 0.1414 0.0197
vt 0.1667 0.1667
vt 0.1751 0.0167
vt 0.1414 0.0197
vt 0.1751 0.0167
vt 0.1583 0.0167
vt 0.1666 0.3724
vt 0.1919 0.353
vt 0.1751 0.35
vt 0.1414 0.353
vt 0.1666 0.3724
vt 0.1751 0.35
vt 0.1414 0.353
vt 0.1751 0.35
vt 0.1583 0.35
vt 0.1667 0.1667
vt 0.115 0.0268
vt 0.0989 0.0326
vt 0.0713 0.052
vt 0.1667 0.1667
vt 0.0989 0.0326
vt 0.0713 0.052
vt 0.0989 0.0326
vt 0.0844 0.041
vt 0.2305 0.3895
vt 0.262 0.3853
vt 0.249 0.3743
vt 0.2183 0.3601
vt 0.2305 0.3895
vt 0.249 0.3743
vt 0.2183 0.3601
vt 0.249 0.3743
vt 0.2344 0.3659
vt 0.1667 0.1667
vt 0.052 0.0713
vt 0.041 0.0844
vt 0.0268 0.1151
vt 0.1667 0.1667
vt 0.041 0.0844
vt 0.0268 0.1151
vt 0.041 0.0844
vt 0.0326 0.099
vt 0.2772 0.4362
vt 0.3066 0.4484
vt 0.3008 0.4323
vt 0.2814 0.4046
vt 0.2772 0.4362
vt 0.3008 0.4323
vt 0.2814 0.4046
vt 0.3008 0.4323
vt 0.2923 0.4178
vt 0.1667 0.1667
vt 0.0197 0.1415
vt 0.0167 0.1583
vt 0.0197 0.1919
vt 0.1667 0.1667
vt 0.0167 0.1583
vt 0.0197 0.1919
vt 0.0167 0.1583
vt 0.0167 0.1751
vt 0.2943 0.5
vt 0.3136 0.5252
vt 0.3167 0.5084
vt 0.3136 0.4748
vt 0.2943 0.5
vt 0.3167 0.5084
vt 0.3136 0.4748
vt 0.3167 0.5084
vt 0.3167 0.4916
vt 0.4524 0.65
vt 0.4524 0.35
vt 0.4428 0.35
vt 0.4428 0.65
vt 0.4524 0.65
vt 0.4428 0.35
vt 0.052 0.262
vt 0.0713 0.2814
vt 0.1667 0.1667
vt 0.0197 0.1919
vt 0.0268 0.2183
vt 0.1667 0.1667
vt 0.35 0.8459
vt 0.35 0.8591
vt 0.65 0.8591
vt 0.65 0.8459
vt 0.35 0.8459
vt 0.65 0.8591
vt 0.3136 0.5252
vt 0.2943 0.5
vt 0.1667 0.5
vt 0.3066 0.5517
vt 0.3136 0.5252
vt 0.1667 0.5
vt 0.2772 0.5638
vt 0.3066 0.5517
vt 0.1667 0.5
vt 0.2814 0.5954
vt 0.2772 0.5638
vt 0.1667 0.5
vt 0.262 0.6147
vt 0.2814 0.5954
vt 0.1667 0.5
vt 0.2305 0.6105
vt 0.262 0.6147
vt 0.1667 0.5
vt 0.4742 0.65
vt 0.4874 0.65
vt 0.4874 0.35
vt 0.4742 0.35
vt 0.4742 0.65
vt 0.4874 0.35
vt 0.115 0.3066
vt 0.1414 0.3136
vt 0.1667 0.1667
vt 0.2183 0.6399
vt 0.2305 0.6105
vt 0.1667 0.5
vt 0.1919 0.647
vt 0.2183 0.6399
vt 0.1667 0.5
vt 0.1666 0.6277
vt 0.1919 0.647
vt 0.1667 0.5
vt 0.5258 0.65
vt 0.5258 0.35
vt 0.5126 0.35
vt 0.5126 0.65
vt 0.5258 0.65
vt 0.5126 0.35
vt 0.1919 0.3136
vt 0.2183 0.3066
vt 0.1667 0.1667
vt 0.1414 0.647
vt 0.1666 0.6277
vt 0.1667 0.5
vt 0.115 0.6399
vt 0.1414 0.647
vt 0.1667 0.5
vt 0.1029 0.6105
vt 0.115 0.6399
vt 0.1667 0.5
vt 0.5572 0.65
vt 0.5572 0.35
vt 0.5476 0.35
vt 0.5476 0.65
vt 0.5572 0.65
vt 0.5476 0.35
vt 0.262 0.2814
vt 0.2814 0.262
vt 0.1667 0.1667
vt 0.0713 0.6147
vt 0.1029 0.6105
vt 0.1667 0.5
vt 0.052 0.5954
vt 0.0713 0.6147
vt 0.1667 0.5
vt 0.0561 0.5638
vt 0.052 0.5954
vt 0.1667 0.5
vt 0.3167 0.8459
vt 0.0167 0.8459
vt 0.0167 0.8591
vt 0.3167 0.8591
vt 0.3167 0.8459
vt 0.0167 0.8591
vt 0.3066 0.2183
vt 0.3136 0.1919
vt 0.1667 0.1667
vt 0.0268 0.5517
vt 0.0561 0.5638
vt 0.1667 0.5
vt 0.0197 0.5252
vt 0.0268 0.5517
vt 0.1667 0.5
vt 0.0391 0.5
vt 0.0197 0.5252
vt 0.1667 0.5
vt 0.3167 0.8076
vt 0.0167 0.8076
vt 0.0167 0.8207
vt 0.3167 0.8207
vt 0.3167 0.8076
vt 0.0167 0.8207
vt 0.3136 0.1415
vt 0.3066 0.1151
vt 0.1667 0.1667
vt 0.0197 0.4748
vt 0.0391 0.5
vt 0.1667 0.5
vt 0.0268 0.4484
vt 0.0197 0.4748
vt 0.1667 0.5
vt 0.0561 0.4362
vt 0.0268 0.4484
vt 0.1667 0.5
vt 0.5572 0.0167
vt 0.5476 0.0167
vt 0.5476 0.3167
vt 0.5572 0.3167
vt 0.5572 0.0167
vt 0.5476 0.3167
vt 0.2814 0.0713
vt 0.262 0.052
vt 0.1667 0.1667
vt 0.052 0.4046
vt 0.0561 0.4362
vt 0.1667 0.5
vt 0.0713 0.3853
vt 0.052 0.4046
vt 0.1667 0.5
vt 0.1029 0.3895
vt 0.0713 0.3853
vt 0.1667 0.5
vt 0.5126 0.0167
vt 0.5126 0.3167
vt 0.5258 0.3167
vt 0.5258 0.0167
vt 0.5126 0.0167
vt 0.5258 0.3167
vt 0.2183 0.0268
vt 0.1919 0.0197
vt 0.1667 0.1667
vt 0.115 0.3601
vt 0.1029 0.3895
vt 0.1667 0.5
vt 0.1414 0.353
vt 0.115 0.3601
vt 0.1667 0.5
vt 0.1666 0.3724
vt 0.1414 0.353
vt 0.1667 0.5
vt 0.4874 0.0167
vt 0.4742 0.0167
vt 0.4742 0.3167
vt 0.4874 0.3167
vt 0.4874 0.0167
vt 0.4742 0.3167
vt 0.1414 0.0197
vt 0.115 0.0268
vt 0.1667 0.1667
vt 0.1919 0.353
vt 0.1666 0.3724
vt 0.1667 0.5
vt 0.2183 0.3601
vt 0.1919 0.353
vt 0.1667 0.5
vt 0.2305 0.3895
vt 0.2183 0.3601
vt 0.1667 0.5
vt 0.4428 0.0167
vt 0.4428 0.3167
vt 0.4524 0.3167
vt 0.4524 0.0167
vt 0.4428 0.0167
vt 0.4524 0.3167
vt 0.0713 0.052
vt 0.052 0.0713
vt 0.1667 0.1667
vt 0.262 0.3853
vt 0.2305 0.3895
vt 0.1667 0.5
vt 0.2814 0.4046
vt 0.262 0.3853
vt 0.1667 0.5
vt 0.2772 0.4362
vt 0.2814 0.4046
vt 0.1667 0.5
vt 0.35 0.8076
vt 0.35 0.8207
vt 0.65 0.8207
vt 0.65 0.8076
vt 0.35 0.8076
vt 0.65 0.8207
vt 0.0268 0.1151
vt 0.0197 0.1415
vt 0.1667 0.1667
vt 0.3066 0.4484
vt 0.2772 0.4362
vt 0.1667 0.5
vt 0.3136 0.4748
vt 0.3066 0.4484
vt 0.1667 0.5
vt 0.2943 0.5
vt 0.3136 0.4748
vt 0.1667 0.5
vn 0.0 0.3393 -0.9407
vn 0.0 0.3393 -0.9407
vn 0.0 0.3393 -0.9407
vn 0.0 0.3393 -0.9407
vn 0.0 0.3393 -0.9407
vn 0.0 0.3393 -0.9407
vn 0.0 0.5013 -0.8653
vn 0.0 0.5013 -0.8653
vn 0.0 0.5013 -0.8653
vn 0.0 0.5013 -0.8653
vn 0.0 0.5013 -0.8653
vn 0.0 0.5013 -0.8653
vn 0.0 0.6437 -0.7653
vn 0.0 0.6437 -0.7653
vn 0.0 0.6437 -0.7653
vn 0.0 0.6437 -0.7653
vn 0.0 0.6437 -0.7653
vn 0.0 0.6437 -0.7653
vn 0.0 0.7639 -0.6453
vn 0.0 0.7639 -0.6453
vn 0.0 0.7639 -0.6453
vn 0.0 0.7639 -0.6453
vn 0.0 0.7639 -0.6453
vn 0.0 0.7639 -0.6453
vn 0.0 0.8665 -0.4992
vn 0.0 0.8665 -0.4992
vn 0.0 0.8665 -0.4992
vn 0.0 0.8665 -0.4992
vn 0.0 0.8665 -0.4992
vn 0.0 0.8665 -0.4992
vn 0.0 0.9407 -0.3393
vn 0.0 0.9407 -0.3393
vn 0.0 0.9407 -0.3393
vn 0.0 0.9407 -0.3393
vn 0.0 0.9407 -0.3393
vn 0.0 0.9407 -0.3393
vn 0.0 0.9843 -0.1765
vn 0.0 0.9843 -0.1765
vn 0.0 0.9843 -0.1765
vn 0.0 0.9843 -0.1765
vn 0.0 0.9843 -0.1765
vn 0.0 0.9843 -0.1765
vn 0.0 1.0 0.0
vn 0.0 1.0 0.0
vn 0.0 1.0 0.0
vn 0.0 1.0 0.0
vn 0.0 1.0 0.0
vn 0.0 1.0 0.0
vn 0.0 0.9843 0.1765
vn 0.0 0.9843 0.1765
vn 0.0 0.9843 0.1765
vn 0.0 0.9843 0.1765
vn 0.0 0.9843 0.1765
vn 0.0 0.9843 0.1765
vn 0.0 0.9407 0.3393
vn 0.0 0.9407 0.3393
vn 0.0 0.9407 0.3393
vn 0.0 0.9407 0.3393
vn 0.0 0.9407 0.3393
vn 0.0 0.9407 0.3393
vn 0.0 0.8665 0.4992
vn 0.0 0.8665 0.4992
vn 0.0 0.8665 0.4992
vn 0.0 0.8665 0.4992
vn 0.0 0.8665 0.4992
vn 0.0 0.8665 0.4992
vn 0.0 0.7639 0.6453
vn 0.0 0.7639 0.6453
vn 0.0 0.7639 0.6453
vn 0.0 0.7639 0.6453
vn 0.0 0.7639 0.6453
vn 0.0 0.7639 0.6453
vn 0.0 0.6437 0.7653
vn 0.0 0.6437 0.7653
vn 0.0 0.6437 0.7653
vn 0.0 0.6437 0.7653
vn 0.0 0.6437 0.7653
vn 0.0 0.6437 0.7653
vn 0.0 0.5013 0.8653
vn 0.0 0.5013 0.8653
vn 0.0 0.5013 0.8653
vn 0.0 0.5013 0.8653
vn 0.0 0.5013 0.8653
vn 0.0 0.5013 0.8653
vn 0.0 0.3393 0.9407
vn 0.0 0.3393 0.9407
vn 0.0 0.3393 0.9407
vn 0.0 0.3393 0.9407
vn 0.0 0.3393 0.9407
vn 0.0 0.3393 0.9407
vn 0.0 0.1765 0.9843
vn 0.0 0.1765 0.9843
vn 0.0 0.1765 0.9843
vn 0.0 0.1765 0.9843
vn 0.0 0.1765 0.9843
vn 0.0 0.1765 0.9843
vn 0.0 0.0 1.0
vn 0.0 0.0 1.0
vn 0.0 0.0 1.0
vn 0.0 0.0 1.0
vn 0.0 0.0 1.0
vn 0.0 0.0 1.0
vn 0.0 -0.1769 0.9842
vn 0.0 -0.1769 0.9842
vn 0.0 -0.1769 0.9842
vn 0.0 -0.1769 0.9842
vn 0.0 -0.1769 0.9842
vn 0.0 -0.1769 0.9842
vn 0.0 -0.3393 0.9407
vn 0.0 -0.3393 0.9407
vn 0.0 -0.3393 0.9407
vn 0.0 -0.3393 0.9407
vn 0.0 -0.3393 0.9407
vn 0.0 -0.3393 0.9407
vn 0.0 -0.5013 0.8653
vn 0.0 -0.5013 0.8653
vn 0.0 -0.5013 0.8653
vn 0.0 -0.5013 0.8653
vn 0.0 -0.5013 0.8653
vn 0.0 -0.5013 0.8653
vn 0.0 -0.6424 0.7664
vn 0.0 -0.6424 0.7664
vn 0.0 -0.6424 0.7664
vn 0.0 -0.6424 0.7664
vn 0.0 -0.6424 0.7664
vn 0.0 -0.6424 0.7664
vn 0.0 -0.9407 0.3393
vn 0.0 -0.9407 0.3393
vn 0.0 -0.9407 0.3393
vn 0.0 -0.9407 0.3393
vn 0.0 -0.9407 0.3393
vn 0.0 -0.9407 0.3393
vn 0.0 -0.8653 0.5012
vn 0.0 -0.8653 0.5012
vn 0.0 -0.8653 0.5012
vn 0.0 -0.8653 0.5012
vn 0.0 -0.8653 0.5012
vn 0.0 -0.8653 0.5012
vn 0.0 -0.7653 0.6437
vn 0.0 -0.7653 0.6437
vn 0.0 -0.7653 0.6437
vn 0.0 -0.7653 0.6437
vn 0.0 -0.7653 0.6437
vn 0.0 -0.7653 0.6437
vn 0.0 -0.9843 0.1765
vn 0.0 -0.9843 0.1765
vn 0.0 -0.9843 0.1765
vn 0.0 -0.9843 0.1765
vn 0.0 -0.9843 0.1765
vn 0.0 -0.9843 0.1765
vn 0.0 -1.0 0.0
vn 0.0 -1.0 0.0
vn 0.0 -1.0 0.0
vn 0.0 -1.0 0.0
vn 0.0 -1.0 0.0
vn 0.0 -1.0 0.0
vn 0.0 -0.9843 -0.1765
vn 0.0 -0.9843 -0.1765
vn 0.0 -0.9843 -0.1765
vn 0.0 -0.9843 -0.1765
vn 0.0 -0.9843 -0.1765
vn 0.0 -0.9843 -0.1765
vn 0.0 -0.9407 -0.3393
vn 0.0 -0.9407 -0.3393
vn 0.0 -0.9407 -0.3393
vn 0.0 -0.9407 -0.3393
vn 0.0 -0.9407 -0.3393
vn 0.0 -0.9407 -0.3393
vn 0.0 -0.8653 -0.5012
vn 0.0 -0.8653 -0.5012
vn 0.0 -0.8653 -0.5012
vn 0.0 -0.8653 -0.5012
vn 0.0 -0.8653 -0.5012
vn 0.0 -0.8653 -0.5012
vn 0.0 -0.7653 -0.6437
vn 0.0 -0.7653 -0.6437
vn 0.0 -0.7653 -0.6437
vn 0.0 -0.7653 -0.6437
vn 0.0 -0.7653 -0.6437
vn 0.0 -0.7653 -0.6437
vn 0.0 -0.6424 -0.7664
vn 0.0 -0.6424 -0.7664
vn 0.0 -0.6424 -0.7664
vn 0.0 -0.6424 -0.7664
vn 0.0 -0.6424 -0.7664
vn 0.0 -0.6424 -0.7664
vn 0.0 -0.5013 -0.8653
vn 0.0 -0.5013 -0.8653
vn 0.0 -0.5013 -0.8653
vn 0.0 -0.5013 -0.8653
vn 0.0 -0.5013 -0.8653
vn 0.0 -0.5013 -0.8653
vn 0.0 -0.3393 -0.9407
vn 0.0 -0.3393 -0.9407
vn 0.0 -0.3393 -0.9407
vn 0.0 -0.3393 -0.9407
vn 0.0 -0.3393 -0.9407
vn 0.0 -0.3393 -0.9407
vn 0.0 -0.1769 -0.9842
vn 0.0 -0.1769 -0.9842
vn 0.0 -0.1769 -0.9842
vn 0.0 -0.1769 -0.9842
vn 0.0 -0.1769 -0.9842
vn 0.0 -0.1769 -0.9842
vn 0.0 0.0 -1.0
vn 0.0 0.0 -1.0
vn 0.0 0.0 -1.0
vn 0.0 0.0 -1.0
vn 0.0 0.0 -1.0
vn 0.0 0.0 -1.0
vn 0.0 0.1765 -0.9843
vn 0.0 0.1765 -0.9843
vn 0.0 0.1765 -0.9843
vn 0.0 0.1765 -0.9843
vn 0.0 0.1765 -0.9843
vn 0.0 0.1765 -0.9843
vn 1.0 0.0 0.0
vn 1.0 0.0 0.0
vn 1.0 0.0 0.0
vn 1.0 0.0 0.0
vn 1.0 0.0 0.0
vn 1.0 0.0 0.0
vn 1.0 0.0 0.0
vn 1.0 0.0 0.0
vn 1.0 0.0 0.0
vn -1.0 0.0 0.0
vn -1.0 0.0 0.0
vn -1.0 0.0 0.0
vn -1.0 0.0 0.0
vn -1.0 0.0 0.0
vn -1.0 0.0 0.0
vn -1.0 0.0 0.0
vn -1.0 0.0 0.0
vn -1.0 0.0 0.0
vn 1.0 0.0 0.0
vn 1.0 0.0 0.0
vn 1.0 0.0 0.0
vn 1.0 0.0 0.0
vn 1.0 0.0 0.0
vn 1.0 0.0 0.0
vn 1.0 0.0 0.0
vn 1.0 0.0 0.0
vn 1.0 0.0 0.0
vn -1.0 0.0 0.0
vn -1.0 0.0 0.0
vn -1.0 0.0 0.0
vn -1.0 0.0 0.0
vn -1.0 0.0 0.0
vn -1.0 0.0 0.0
vn -1.0 0.0 0.0
vn -1.0 0.0 0.0
vn -1.0 0.0 0.0
vn 1.0 0.0 0.0
vn 1.0 0.0 0.0
vn 1.0 0.0 0.0
vn 1.0 0.0 0.0
vn 1.0 0.0 0.0
vn 1.0 0.0 0.0
vn 1.0 0.0 0.0
vn 1.0 0.0 0.0
vn 1.0 0.0 0.0
vn -1.0 0.0 0.0
vn -1.0 0.0 0.0
vn -1.0 0.0 0.0
vn -1.0 0.0 0.0
vn -1.0 0.0 0.0
vn -1.0 0.0 0.0
vn -1.0 0.0 0.0
vn -1.0 0.0 0.0
vn -1.0 0.0 0.0
vn 1.0 0.0 0.0
vn 1.0 0.0 0.0
vn 1.0 0.0 0.0
vn 1.0 0.0 0.0
vn 1.0 0.0 0.0
vn 1.0 0.0 0.0
vn 1.0 0.0 0.0
vn 1.0 0.0 0.0
vn 1.0 0.0 0.0
vn -1.0 0.0 0.0
vn -1.0 0.0 0.0
vn -1.0 0.0 0.0
vn -1.0 0.0 0.0
vn -1.0 0.0 0.0
vn -1.0 0.0 0.0
vn -1.0 0.0 0.0
vn -1.0 0.0 0.0
vn -1.0 0.0 0.0
vn 1.0 0.0 0.0
vn 1.0 0.0 0.0
vn 1.0 0.0 0.0
vn 1.0 0.0 0.0
vn 1.0 0.0 0.0
vn 1.0 0.0 0.0
vn 1.0 0.0 0.0
vn 1.0 0.0 0.0
vn 1.0 0.0 0.0
vn -1.0 0.0 0.0
vn -1.0 0.0 0.0
vn -1.0 0.0 0.0
vn -1.0 0.0 0.0
vn -1.0 0.0 0.0
vn -1.0 0.0 0.0
vn -1.0 0.0 0.0
vn -1.0 0.0 0.0
vn -1.0 0.0 0.0
vn 1.0 0.0 0.0
vn 1.0 0.0 0.0
vn 1.0 0.0 0.0
vn 1.0 0.0 0.0
vn 1.0 0.0 0.0
vn 1.0 0.0 0.0
vn 1.0 0.0 0.0
vn 1.0 0.0 0.0
vn 1.0 0.0 0.0
vn -1.0 0.0 0.0
vn -1.0 0.0 0.0
vn -1.0 0.0 0.0
vn -1.0 0.0 0.0
vn -1.0 0.0 0.0
vn -1.0 0.0 0.0
vn -1.0 0.0 0.0
vn -1.0 0.0 0.0
vn -1.0 0.0 0.0
vn 1.0 0.0 0.0
vn 1.0 0.0 0.0
vn 1.0 0.0 0.0
vn 1.0 0.0 0.0
vn 1.0 0.0 0.0
vn 1.0 0.0 0.0
vn 1.0 0.0 0.0
vn 1.0 0.0 0.0
vn 1.0 0.0 0.0
vn -1.0 0.0 0.0
vn -1.0 0.0 0.0
vn -1.0 0.0 0.0
vn -1.0 0.0 0.0
vn -1.0 0.0 0.0
vn -1.0 0.0 0.0
vn -1.0 0.0 0.0
vn -1.0 0.0 0.0
vn -1.0 0.0 0.0
vn 1.0 0.0 0.0
vn 1.0 0.0 0.0
vn 1.0 0.0 0.0
vn 1.0 0.0 0.0
vn 1.0 0.0 0.0
vn 1.0 0.0 0.0
vn 1.0 0.0 0.0
vn 1.0 0.0 0.0
vn 1.0 0.0 0.0
vn -1.0 0.0 0.0
vn -1.0 0.0 0.0
vn -1.0 0.0 0.0
vn -1.0 0.0 0.0
vn -1.0 0.0 0.0
vn -1.0 0.0 0.0
vn -1.0 0.0 0.0
vn -1.0 0.0 0.0
vn -1.0 0.0 0.0
vn 1.0 0.0 0.0
vn 1.0 0.0 0.0
vn 1.0 0.0 0.0
vn 1.0 0.0 0.0
vn 1.0 0.0 0.0
vn 1.0 0.0 0.0
vn 1.0 0.0 0.0
vn 1.0 0.0 0.0
vn 1.0 0.0 0.0
vn -1.0 0.0 0.0
vn -1.0 0.0 0.0
vn -1.0 0.0 0.0
vn -1.0 0.0 0.0
vn -1.0 0.0 0.0
vn -1.0 0.0 0.0
vn -1.0 0.0 0.0
vn -1.0 0.0 0.0
vn -1.0 0.0 0.0
vn 1.0 0.0 0.0
vn 1.0 0.0 0.0
vn 1.0 0.0 0.0
vn 1.0 0.0 0.0
vn 1.0 0.0 0.0
vn 1.0 0.0 0.0
vn 1.0 0.0 0.0
vn 1.0 0.0 0.0
vn 1.0 0.0 0.0
vn -1.0 0.0 0.0
vn -1.0 0.0 0.0
vn -1.0 0.0 0.0
vn -1.0 0.0 0.0
vn -1.0 0.0 0.0
vn -1.0 0.0 0.0
vn -1.0 0.0 0.0
vn -1.0 0.0 0.0
vn -1.0 0.0 0.0
vn 1.0 0.0 0.0
vn 1.0 0.0 0.0
vn 1.0 0.0 0.0
vn 1.0 0.0 0.0
vn 1.0 0.0 0.0
vn 1.0 0.0 0.0
vn 1.0 0.0 0.0
vn 1.0 0.0 0.0
vn 1.0 0.0 0.0
vn -1.0 0.0 0.0
vn -1.0 0.0 0.0
vn -1.0 0.0 0.0
vn -1.0 0.0 0.0
vn -1.0 0.0 0.0
vn -1.0 0.0 0.0
vn -1.0 0.0 0.0
vn -1.0 0.0 0.0
vn -1.0 0.0 0.0
vn 1.0 0.0 0.0
vn 1.0 0.0 0.0
vn 1.0 0.0 0.0
vn 1.0 0.0 0.0
vn 1.0 0.0 0.0
vn 1.0 0.0 0.0
vn 1.0 0.0 0.0
vn 1.0 0.0 0.0
vn 1.0 0.0 0.0
vn -1.0 0.0 0.0
vn -1.0 0.0 0.0
vn -1.0 0.0 0.0
vn -1.0 0.0 0.0
vn -1.0 0.0 0.0
vn -1.0 0.0 0.0
vn -1.0 0.0 0.0
vn -1.0 0.0 0.0
vn -1.0 0.0 0.0
vn 0.0 0.7071 -0.7071
vn 0.0 0.7071 -0.7071
vn 0.0 0.7071 -0.7071
vn 0.0 0.7071 -0.7071
vn 0.0 0.7071 -0.7071
vn 0.0 0.7071 -0.7071
vn 1.0 0.0 0.0
vn 1.0 0.0 0.0
vn 1.0 0.0 0.0
vn 1.0 0.0 0.0
vn 1.0 0.0 0.0
vn 1.0 0.0 0.0
vn 0.0 0.2587 -0.9659
vn 0.0 0.2587 -0.9659
vn 0.0 0.2587 -0.9659
vn 0.0 0.2587 -0.9659
vn 0.0 0.2587 -0.9659
vn 0.0 0.2587 -0.9659
vn -1.0 0.0 0.0
vn -1.0 0.0 0.0
vn -1.0 0.0 0.0
vn -1.0 0.0 0.0
vn -1.0 0.0 0.0
vn -1.0 0.0 0.0
vn -1.0 0.0 0.0
vn -1.0 0.0 0.0
vn -1.0 0.0 0.0
vn -1.0 0.0 0.0
vn -1.0 0.0 0.0
vn -1.0 0.0 0.0
vn -1.0 0.0 0.0
vn -1.0 0.0 0.0
vn -1.0 0.0 0.0
vn -1.0 0.0 0.0
vn -1.0 0.0 0.0
vn -1.0 0.0 0.0
vn 0.0 0.9659 -0.2587
vn 0.0 0.9659 -0.2587
vn 0.0 0.9659 -0.2587
vn 0.0 0.9659 -0.2587
vn 0.0 0.9659 -0.2587
vn 0.0 0.9659 -0.2587
vn 1.0 0.0 0.0
vn 1.0 0.0 0.0
vn 1.0 0.0 0.0
vn -1.0 0.0 0.0
vn -1.0 0.0 0.0
vn -1.0 0.0 0.0
vn -1.0 0.0 0.0
vn -1.0 0.0 0.0
vn -1.0 0.0 0.0
vn -1.0 0.0 0.0
vn -1.0 0.0 0.0
vn -1.0 0.0 0.0
vn 0.0 0.9659 0.2587
vn 0.0 0.9659 0.2587
vn 0.0 0.9659 0.2587
vn 0.0 0.9659 0.2587
vn 0.0 0.9659 0.2587
vn 0.0 0.9659 0.2587
vn 1.0 0.0 0.0
vn 1.0 0.0 0.0
vn 1.0 0.0 0.0
vn -1.0 0.0 0.0
vn -1.0 0.0 0.0
vn -1.0 0.0 0.0
vn -1.0 0.0 0.0
vn -1.0 0.0 0.0
vn -1.0 0.0 0.0
vn -1.0 0.0 0.0
vn -1.0 0.0 0.0
vn -1.0 0.0 0.0
vn 0.0 0.7071 0.7071
vn 0.0 0.7071 0.7071
vn 0.0 0.7071 0.7071
vn 0.0 0.7071 0.7071
vn 0.0 0.7071 0.7071
vn 0.0 0.7071 0.7071
vn 1.0 0.0 0.0
vn 1.0 0.0 0.0
vn 1.0 0.0 0.0
vn -1.0 0.0 0.0
vn -1.0 0.0 0.0
vn -1.0 0.0 0.0
vn -1.0 0.0 0.0
vn -1.0 0.0 0.0
vn -1.0 0.0 0.0
vn -1.0 0.0 0.0
vn -1.0 0.0 0.0
vn -1.0 0.0 0.0
vn 0.0 0.2587 0.9659
vn 0.0 0.2587 0.9659
vn 0.0 0.2587 0.9659
vn 0.0 0.2587 0.9659
vn 0.0 0.2587 0.9659
vn 0.0 0.2587 0.9659
vn 1.0 0.0 0.0
vn 1.0 0.0 0.0
vn 1.0 0.0 0.0
vn -1.0 0.0 0.0
vn -1.0 0.0 0.0
vn -1.0 0.0 0.0
vn -1.0 0.0 0.0
vn -1.0 0.0 0.0
vn -1.0 0.0 0.0
vn -1.0 0.0 0.0
vn -1.0 0.0 0.0
vn -1.0 0.0 0.0
vn 0.0 -0.2587 0.9659
vn 0.0 -0.2587 0.9659
vn 0.0 -0.2587 0.9659
vn 0.0 -0.2587 0.9659
vn 0.0 -0.2587 0.9659
vn 0.0 -0.2587 0.9659
vn 1.0 0.0 0.0
vn 1.0 0.0 0.0
vn 1.0 0.0 0.0
vn -1.0 0.0 0.0
vn -1.0 0.0 0.0
vn -1.0 0.0 0.0
vn -1.0 0.0 0.0
vn -1.0 0.0 0.0
vn -1.0 0.0 0.0
vn -1.0 0.0 0.0
vn -1.0 0.0 0.0
vn -1.0 0.0 0.0
vn 0.0 -0.7071 0.7071
vn 0.0 -0.7071 0.7071
vn 0.0 -0.7071 0.7071
vn 0.0 -0.7071 0.7071
vn 0.0 -0.7071 0.7071
vn 0.0 -0.7071 0.7071
vn 1.0 0.0 0.0
vn 1.0 0.0 0.0
vn 1.0 0.0 0.0
vn -1.0 0.0 0.0
vn -1.0 0.0 0.0
vn -1.0 0.0 0.0
vn -1.0 0.0 0.0
vn -1.0 0.0 0.0
vn -1.0 0.0 0.0
vn -1.0 0.0 0.0
vn -1.0 0.0 0.0
vn -1.0 0.0 0.0
vn 0.0 -0.966 0.2587
vn 0.0 -0.966 0.2587
vn 0.0 -0.966 0.2587
vn 0.0 -0.966 0.2587
vn 0.0 -0.966 0.2587
vn 0.0 -0.966 0.2587
vn 1.0 0.0 0.0
vn 1.0 0.0 0.0
vn 1.0 0.0 0.0
vn -1.0 0.0 0.0
vn -1.0 0.0 0.0
vn -1.0 0.0 0.0
vn -1.0 0.0 0.0
vn -1.0 0.0 0.0
vn -1.0 0.0 0.0
vn -1.0 0.0 0.0
vn -1.0 0.0 0.0
vn -1.0 0.0 0.0
vn 0.0 -0.966 -0.2587
vn 0.0 -0.966 -0.2587
vn 0.0 -0.966 -0.2587
vn 0.0 -0.966 -0.2587
vn 0.0 -0.966 -0.2587
vn 0.0 -0.966 -0.2587
vn 1.0 0.0 0.0
vn 1.0 0.0 0.0
vn 1.0 0.0 0.0
vn -1.0 0.0 0.0
vn -1.0 0.0 0.0
vn -1.0 0.0 0.0
vn -1.0 0.0 0.0
vn -1.0 0.0 0.0
vn -1.0 0.0 0.0
vn -1.0 0.0 0.0
vn -1.0 0.0 0.0
vn -1.0 0.0 0.0
vn 0.0 -0.7071 -0.7071
vn 0.0 -0.7071 -0.7071
vn 0.0 -0.7071 -0.7071
vn 0.0 -0.7071 -0.7071
vn 0.0 -0.7071 -0.7071
vn 0.0 -0.7071 -0.7071
vn 1.0 0.0 0.0
vn 1.0 0.0 0.0
vn 1.0 0.0 0.0
vn -1.0 0.0 0.0
vn -1.0 0.0 0.0
vn -1.0 0.0 0.0
vn -1.0 0.0 0.0
vn -1.0 0.0 0.0
vn -1.0 0.0 0.0
vn -1.0 0.0 0.0
vn -1.0 0.0 0.0
vn -1.0 0.0 0.0
vn 0.0 -0.2587 -0.9659
vn 0.0 -0.2587 -0.9659
vn 0.0 -0.2587 -0.9659
vn 0.0 -0.2587 -0.9659
vn 0.0 -0.2587 -0.9659
vn 0.0 -0.2587 -0.9659
vn 1.0 0.0 0.0
vn 1.0 0.0 0.0
vn 1.0 0.0 0.0
vn -1.0 0.0 0.0
vn -1.0 0.0 0.0
vn -1.0 0.0 0.0
vn -1.0 0.0 0.0
vn -1.0 0.0 0.0
vn -1.0 0.0 0.0
vn -1.0 0.0 0.0
vn -1.0 0.0 0.0
vn -1.0 0.0 0.0
f 28/1/1 65/2/2 63/3/3
f 19/4/4 28/5/5 63/6/6
f 63/7/7 65/8/8 66/9/9
f 66/10/10 64/11/11 63/12/12
f 66/13/13 7/14/14 27/15/15
f 64/16/16 66/17/17 27/18/18
f 31/19/19 69/20/20 67/21/21
f 20/22/22 31/23/23 67/24/24
f 67/25/25 69/26/26 70/27/27
f 70/28/28 68/29/29 67/30/30
f 70/31/31 8/32/32 30/33/33
f 68/34/34 70/35/35 30/36/36
f 34/37/37 73/38/38 71/39/39
f 21/40/40 34/41/41 71/42/42
f 71/43/43 73/44/44 74/45/45
f 74/46/46 72/47/47 71/48/48
f 74/49/49 9/50/50 33/51/51
f 72/52/52 74/53/53 33/54/54
f 37/55/55 77/56/56 75/57/57
f 22/58/58 37/59/59 75/60/60
f 75/61/61 77/62/62 78/63/63
f 78/64/64 76/65/65 75/66/66
f 78/67/67 10/68/68 36/69/69
f 76/70/70 78/71/71 36/72/72
f 40/73/73 81/74/74 79/75/75
f 23/76/76 40/77/77 79/78/78
f 79/79/79 81/80/80 82/81/81
f 82/82/82 80/83/83 79/84/84
f 82/85/85 11/86/86 39/87/87
f 80/88/88 82/89/89 39/90/90
f 43/91/91 85/92/92 83/93/93
f 24/94/94 43/95/95 83/96/96
f 83/97/97 85/98/98 86/99/99
f 86/100/100 84/101/101 83/102/102
f 86/103/103 12/104/104 42/105/105
f 84/106/106 86/107/107 42/108/108
f 46/109/109 89/110/110 87/111/111
f 25/112/112 46/113/113 87/114/114
f 87/115/115 89/116/116 90/117/117
f 90/118/118 88/119/119 87/120/120
f 90/121/121 13/122/122 45/123/123
f 88/124/124 90/125/125 45/126/126
f 48/127/127 93/128/128 91/129/129
f 3/130/130 48/131/131 91/132/132
f 91/133/133 93/134/134 94/135/135
f 94/136/136 92/137/137 91/138/138
f 94/139/139 15/140/140 49/141/141
f 92/142/142 94/143/143 49/144/144
f 52/145/145 97/146/146 95/147/147
f 14/148/148 52/149/149 95/150/150
f 95/151/151 97/152/152 98/153/153
f 98/154/154 96/155/155 95/156/156
f 98/157/157 2/158/158 51/159/159
f 96/160/160 98/161/161 51/162/162
f 55/163/163 101/164/164 99/165/165
f 16/166/166 55/167/167 99/168/168
f 99/169/169 101/170/170 102/171/171
f 102/172/172 100/173/173 99/174/174
f 102/175/175 4/176/176 54/177/177
f 100/178/178 102/179/179 54/180/180
f 58/181/181 105/182/182 103/183/183
f 17/184/184 58/185/185 103/186/186
f 103/187/187 105/188/188 106/189/189
f 106/190/190 104/191/191 103/192/192
f 106/193/193 5/194/194 57/195/195
f 104/196/196 106/197/197 57/198/198
f 61/199/199 109/200/200 107/201/201
f 18/202/202 61/203/203 107/204/204
f 107/205/205 109/206/206 110/207/207
f 110/208/208 108/209/209 107/210/210
f 110/211/211 6/212/212 60/213/213
f 108/214/214 110/215/215 60/216/216
f 26/217/217 19/218/218 63/219/219
f 27/220/220 26/221/221 63/222/222
f 27/223/223 63/224/224 64/225/225
f 29/226/226 7/227/227 66/228/228
f 28/229/229 29/230/230 66/231/231
f 28/232/232 66/233/233 65/234/234
f 26/235/235 20/236/236 67/237/237
f 30/238/238 26/239/239 67/240/240
f 30/241/241 67/242/242 68/243/243
f 32/244/244 8/245/245 70/246/246
f 31/247/247 32/248/248 70/249/249
f 31/250/250 70/251/251 69/252/252
f 26/253/253 21/254/254 71/255/255
f 33/256/256 26/257/257 71/258/258
f 33/259/259 71/260/260 72/261/261
f 35/262/262 9/263/263 74/264/264
f 34/265/265 35/266/266 74/267/267
f 34/268/268 74/269/269 73/270/270
f 26/271/271 22/272/272 75/273/273
f 36/274/274 26/275/275 75/276/276
f 36/277/277 75/278/278 76/279/279
f 38/280/280 10/281/281 78/282/282
f 37/283/283 38/284/284 78/285/285
f 37/286/286 78/287/287 77/288/288
f 26/289/289 23/290/290 79/291/291
f 39/292/292 26/293/293 79/294/294
f 39/295/295 79/296/296 80/297/297
f 41/298/298 11/299/299 82/300/300
f 40/301/301 41/302/302 82/303/303
f 40/304/304 82/305/305 81/306/306
f 26/307/307 24/308/308 83/309/309
f 42/310/310 26/311/311 83/312/312
f 42/313/313 83/314/314 84/315/315
f 44/316/316 12/317/317 86/318/318
f 43/319/319 44/320/320 86/321/321
f 43/322/322 86/323/323 85/324/324
f 26/325/325 25/326/326 87/327/327
f 45/328/328 26/329/329 87/330/330
f 45/331/331 87/332/332 88/333/333
f 47/334/334 13/335/335 90/336/336
f 46/337/337 47/338/338 90/339/339
f 46/340/340 90/341/341 89/342/342
f 26/343/343 15/344/344 94/345/345
f 48/346/346 26/347/347 94/348/348
f 48/349/349 94/350/350 93/351/351
f 50/352/352 3/353/353 91/354/354
f 49/355/355 50/356/356 91/357/357
f 49/358/358 91/359/359 92/360/360
f 26/361/361 14/362/362 95/363/363
f 51/364/364 26/365/365 95/366/366
f 51/367/367 95/368/368 96/369/369
f 53/370/370 2/371/371 98/372/372
f 52/373/373 53/374/374 98/375/375
f 52/376/376 98/377/377 97/378/378
f 26/379/379 16/380/380 99/381/381
f 54/382/382 26/383/383 99/384/384
f 54/385/385 99/386/386 100/387/387
f 56/388/388 4/389/389 102/390/390
f 55/391/391 56/392/392 102/393/393
f 55/394/394 102/395/395 101/396/396
f 26/397/397 17/398/398 103/399/399
f 57/400/400 26/401/401 103/402/402
f 57/403/403 103/404/404 104/405/405
f 59/406/406 5/407/407 106/408/408
f 58/409/409 59/410/410 106/411/411
f 58/412/412 106/413/413 105/414/414
f 26/415/415 18/416/416 107/417/417
f 60/418/418 26/419/419 107/420/420
f 60/421/421 107/422/422 108/423/423
f 62/424/424 6/425/425 110/426/426
f 61/427/427 62/428/428 110/429/429
f 61/430/430 110/431/431 109/432/432
f 31/433/433 20/434/434 27/435/435
f 7/436/436 31/437/437 27/438/438
f 27/439/439 20/440/440 26/441/441
f 60/442/442 19/443/443 26/444/444
f 6/445/445 28/446/446 19/447/447
f 60/448/448 6/449/449 19/450/450
f 6/451/451 62/452/452 1/453/453
f 28/454/454 6/455/455 1/456/456
f 29/457/457 28/458/458 1/459/459
f 7/460/460 29/461/461 1/462/462
f 31/463/463 7/464/464 1/465/465
f 32/466/466 31/467/467 1/468/468
f 8/469/469 34/470/470 21/471/471
f 30/472/472 8/473/473 21/474/474
f 30/475/475 21/476/476 26/477/477
f 8/478/478 32/479/479 1/480/480
f 34/481/481 8/482/482 1/483/483
f 35/484/484 34/485/485 1/486/486
f 37/487/487 22/488/488 33/489/489
f 9/490/490 37/491/491 33/492/492
f 33/493/493 22/494/494 26/495/495
f 9/496/496 35/497/497 1/498/498
f 37/499/499 9/500/500 1/501/501
f 38/502/502 37/503/503 1/504/504
f 40/505/505 23/506/506 36/507/507
f 10/508/508 40/509/509 36/510/510
f 36/511/511 23/512/512 26/513/513
f 10/514/514 38/515/515 1/516/516
f 40/517/517 10/518/518 1/519/519
f 41/520/520 40/521/521 1/522/522
f 43/523/523 24/524/524 39/525/525
f 11/526/526 43/527/527 39/528/528
f 39/529/529 24/530/530 26/531/531
f 11/532/532 41/533/533 1/534/534
f 43/535/535 11/536/536 1/537/537
f 44/538/538 43/539/539 1/540/540
f 46/541/541 25/542/542 42/543/543
f 12/544/544 46/545/545 42/546/546
f 42/547/547 25/548/548 26/549/549
f 12/550/550 44/551/551 1/552/552
f 46/553/553 12/554/554 1/555/555
f 47/556/556 46/557/557 1/558/558
f 13/559/559 49/560/560 15/561/561
f 45/562/562 13/563/563 15/564/564
f 45/565/565 15/566/566 26/567/567
f 13/568/568 47/569/569 1/570/570
f 49/571/571 13/572/572 1/573/573
f 50/574/574 49/575/575 1/576/576
f 52/577/577 14/578/578 48/579/579
f 3/580/580 52/581/581 48/582/582
f 48/583/583 14/584/584 26/585/585
f 3/586/586 50/587/587 1/588/588
f 52/589/589 3/590/590 1/591/591
f 53/592/592 52/593/593 1/594/594
f 2/595/595 55/596/596 16/597/597
f 51/598/598 2/599/599 16/600/600
f 51/601/601 16/602/602 26/603/603
f 2/604/604 53/605/605 1/606/606
f 55/607/607 2/608/608 1/609/609
f 56/610/610 55/611/611 1/612/612
f 58/613/613 17/614/614 54/615/615
f 4/616/616 58/617/617 54/618/618
f 54/619/619 17/620/620 26/621/621
f 4/622/622 56/623/623 1/624/624
f 58/625/625 4/626/626 1/627/627
f 59/628/628 58/629/629 1/630/630
f 5/631/631 61/632/632 18/633/633
f 57/634/634 5/635/635 18/636/636
f 57/637/637 18/638/638 26/639/639
f 5/640/640 59/641/641 1/642/642
f 61/643/643 5/644/644 1/645/645
f 62/646/646 61/647/647 1/648/648
