# Mesh 3
o Mesh3

v -0.0027 9.6586 -0.4147
v 0.2045 9.6586 -0.359
v -0.2098 9.6586 -0.359
v -0.3615 9.6586 -0.2069
v -0.417 9.6586 0.001
v -0.3615 9.6586 0.2089
v -0.2098 9.6586 0.361
v -0.0027 9.6586 0.4167
v 0.2045 9.6586 0.361
v 0.3562 9.6586 0.2089
v 0.4117 9.6586 0.001
v 0.3562 9.6586 -0.2069
v 0.3094 5.3775 -0.1798
v 0.3577 5.3775 0.001
v 0.3094 5.3775 0.1818
v 0.1775 5.3775 0.3141
v -0.0027 5.3775 0.3625
v -0.1828 5.3775 0.3141
v -0.3147 5.3775 0.1818
v -0.363 5.3775 0.001
v -0.3147 5.3775 -0.1798
v -0.1828 5.3775 -0.3121
v -0.0027 5.3775 -0.3605
v 0.1775 5.3775 -0.3121
v -0.0027 9.6586 0.001
v -0.0027 9.6586 0.001
v -0.0027 9.6586 -0.4147
v 0.2045 9.6586 -0.359
v 0.3562 9.6586 -0.2069
v 0.4117 9.6586 0.001
v 0.3562 9.6586 0.2089
v 0.2045 9.6586 0.361
v -0.0027 9.6586 0.4167
vt 0.1667 0.3167
vt 0.1667 0.0167
vt 0.154 0.0167
vt 0.154 0.0167
vt 0.1521 0.3167
vt 0.1667 0.3167
vt 0.1812 0.3167
vt 0.1793 0.0167
vt 0.1667 0.0167
vt 0.1667 0.0167
vt 0.1667 0.3167
vt 0.1812 0.3167
vt 0.1919 0.3167
vt 0.1886 0.0167
vt 0.1793 0.0167
vt 0.1793 0.0167
vt 0.1812 0.3167
vt 0.1919 0.3167
vt 0.5 0.3167
vt 0.5 0.0167
vt 0.4874 0.0167
vt 0.4874 0.0167
vt 0.4855 0.3167
vt 0.5 0.3167
vt 0.5145 0.3167
vt 0.5126 0.0167
vt 0.5 0.0167
vt 0.5 0.0167
vt 0.5 0.3167
vt 0.5145 0.3167
vt 0.1521 0.65
vt 0.154 0.35
vt 0.1447 0.35
vt 0.1447 0.35
vt 0.1414 0.65
vt 0.1521 0.65
vt 0.1667 0.65
vt 0.1667 0.35
vt 0.154 0.35
vt 0.154 0.35
vt 0.1521 0.65
vt 0.1667 0.65
vt 0.1812 0.65
vt 0.1793 0.35
vt 0.1667 0.35
vt 0.1667 0.35
vt 0.1667 0.65
vt 0.1812 0.65
vt 0.1919 0.65
vt 0.1886 0.35
vt 0.1793 0.35
vt 0.1793 0.35
vt 0.1812 0.65
vt 0.1919 0.65
vt 0.1667 0.9833
vt 0.1667 0.6833
vt 0.154 0.6833
vt 0.154 0.6833
vt 0.1522 0.9833
vt 0.1667 0.9833
vt 0.1812 0.9833
vt 0.1793 0.6833
vt 0.1667 0.6833
vt 0.1667 0.6833
vt 0.1667 0.9833
vt 0.1812 0.9833
vt 0.1521 0.3167
vt 0.154 0.0167
vt 0.1447 0.0167
vt 0.1447 0.0167
vt 0.1414 0.3167
vt 0.1521 0.3167
vt 0.35 0.5
vt 0.3701 0.5747
vt 0.5 0.5
vt 0.3701 0.5747
vt 0.425 0.6295
vt 0.5 0.5
vt 0.425 0.6295
vt 0.5 0.6495
vt 0.5 0.5
vt 0.5 0.6495
vt 0.575 0.6295
vt 0.5 0.5
vt 0.575 0.6295
vt 0.6299 0.5747
vt 0.5 0.5
vt 0.6299 0.5747
vt 0.65 0.5
vt 0.5 0.5
vt 0.5 0.3505
vt 0.425 0.3705
vt 0.5 0.5
vt 0.425 0.3705
vt 0.3701 0.4253
vt 0.5 0.5
vt 0.3701 0.4253
vt 0.35 0.5
vt 0.5 0.5
vt 0.65 0.5
vt 0.6299 0.4253
vt 0.5 0.5
vt 0.6299 0.4253
vt 0.575 0.3705
vt 0.5 0.5
vt 0.575 0.3705
vt 0.5 0.3505
vt 0.5 0.5
vn 0.966 -0.0122 -0.2581
vn 0.966 -0.0122 -0.2581
vn 0.966 -0.0122 -0.2581
vn 0.9661 -0.0122 -0.2579
vn 0.9661 -0.0122 -0.2579
vn 0.9661 -0.0122 -0.2579
vn 0.966 -0.0122 0.2581
vn 0.966 -0.0122 0.2581
vn 0.966 -0.0122 0.2581
vn 0.9661 -0.0122 0.2579
vn 0.9661 -0.0122 0.2579
vn 0.9661 -0.0122 0.2579
vn 0.7081 -0.0122 0.706
vn 0.7081 -0.0122 0.706
vn 0.7081 -0.0122 0.706
vn 0.708 -0.0122 0.7061
vn 0.708 -0.0122 0.7061
vn 0.708 -0.0122 0.7061
vn 0.2594 -0.0122 0.9657
vn 0.2594 -0.0122 0.9657
vn 0.2594 -0.0122 0.9657
vn 0.2596 -0.0122 0.9656
vn 0.2596 -0.0122 0.9656
vn 0.2596 -0.0122 0.9656
vn -0.2595 -0.0122 0.9657
vn -0.2595 -0.0122 0.9657
vn -0.2595 -0.0122 0.9657
vn -0.2597 -0.0122 0.9656
vn -0.2597 -0.0122 0.9656
vn -0.2597 -0.0122 0.9656
vn -0.7081 -0.0122 0.706
vn -0.7081 -0.0122 0.706
vn -0.7081 -0.0122 0.706
vn -0.708 -0.0122 0.7061
vn -0.708 -0.0122 0.7061
vn -0.708 -0.0122 0.7061
vn -0.966 -0.0122 0.2581
vn -0.966 -0.0122 0.2581
vn -0.966 -0.0122 0.2581
vn -0.9661 -0.0122 0.2579
vn -0.9661 -0.0122 0.2579
vn -0.9661 -0.0122 0.2579
vn -0.966 -0.0122 -0.2581
vn -0.966 -0.0122 -0.2581
vn -0.966 -0.0122 -0.2581
vn -0.9661 -0.0122 -0.2579
vn -0.9661 -0.0122 -0.2579
vn -0.9661 -0.0122 -0.2579
vn -0.7081 -0.0122 -0.706
vn -0.7081 -0.0122 -0.706
vn -0.7081 -0.0122 -0.706
vn -0.708 -0.0122 -0.7061
vn -0.708 -0.0122 -0.7061
vn -0.708 -0.0122 -0.7061
vn -0.2595 -0.0122 -0.9657
vn -0.2595 -0.0122 -0.9657
vn -0.2595 -0.0122 -0.9657
vn -0.2597 -0.0122 -0.9656
vn -0.2597 -0.0122 -0.9656
vn -0.2597 -0.0122 -0.9656
vn 0.2594 -0.0122 -0.9657
vn 0.2594 -0.0122 -0.9657
vn 0.2594 -0.0122 -0.9657
vn 0.2596 -0.0122 -0.9656
vn 0.2596 -0.0122 -0.9656
vn 0.2596 -0.0122 -0.9656
vn 0.7081 -0.0122 -0.706
vn 0.7081 -0.0122 -0.706
vn 0.7081 -0.0122 -0.706
vn 0.708 -0.0122 -0.7061
vn 0.708 -0.0122 -0.7061
vn 0.708 -0.0122 -0.7061
vn 0.0 1.0 0.0
vn 0.0 1.0 0.0
vn 0.0 1.0 0.0
vn 0.0 1.0 0.0
vn 0.0 1.0 0.0
vn 0.0 1.0 0.0
vn 0.0 1.0 0.0
vn 0.0 1.0 0.0
vn 0.0 1.0 0.0
vn 0.0 1.0 0.0
vn 0.0 1.0 0.0
vn 0.0 1.0 0.0
vn 0.0 1.0 0.0
vn 0.0 1.0 0.0
vn 0.0 1.0 0.0
vn 0.0 1.0 0.0
vn 0.0 1.0 0.0
vn 0.0 1.0 0.0
vn 0.0 1.0 0.0
vn 0.0 1.0 0.0
vn 0.0 1.0 0.0
vn 0.0 1.0 0.0
vn 0.0 1.0 0.0
vn 0.0 1.0 0.0
vn 0.0 1.0 0.0
vn 0.0 1.0 0.0
vn 0.0 1.0 0.0
vn 0.0 1.0 0.0
vn 0.0 1.0 0.0
vn 0.0 1.0 0.0
vn 0.0 1.0 0.0
vn 0.0 1.0 0.0
vn 0.0 1.0 0.0
vn 0.0 1.0 0.0
vn 0.0 1.0 0.0
vn 0.0 1.0 0.0
f 11/1/1 14/2/2 13/3/3
f 13/4/4 12/5/5 11/6/6
f 10/7/7 15/8/8 14/9/9
f 14/10/10 11/11/11 10/12/12
f 9/13/13 16/14/14 15/15/15
f 15/16/16 10/17/17 9/18/18
f 8/19/19 17/20/20 16/21/21
f 16/22/22 9/23/23 8/24/24
f 7/25/25 18/26/26 17/27/27
f 17/28/28 8/29/29 7/30/30
f 6/31/31 19/32/32 18/33/33
f 18/34/34 7/35/35 6/36/36
f 5/37/37 20/38/38 19/39/39
f 19/40/40 6/41/41 5/42/42
f 4/43/43 21/44/44 20/45/45
f 20/46/46 5/47/47 4/48/48
f 3/49/49 22/50/50 21/51/51
f 21/52/52 4/53/53 3/54/54
f 1/55/55 23/56/56 22/57/57
f 22/58/58 3/59/59 1/60/60
f 2/61/61 24/62/62 23/63/63
f 23/64/64 1/65/65 2/66/66
f 12/67/67 13/68/68 24/69/69
f 24/70/70 2/71/71 12/72/72
f 1/73/73 3/74/74 25/75/75
f 3/76/76 4/77/77 25/78/78
f 4/79/79 5/80/80 25/81/81
f 5/82/82 6/83/83 25/84/84
f 6/85/85 7/86/86 25/87/87
f 7/88/88 8/89/89 25/90/90
f 30/91/91 29/92/92 26/93/93
f 29/94/94 28/95/95 26/96/96
f 28/97/97 27/98/98 26/99/99
f 33/100/100 32/101/101 26/102/102
f 32/103/103 31/104/104 26/105/105
f 31/106/106 30/107/107 26/108/108
