# Mesh 8
o Mesh8

v -1.3719 5.3358 -0.1743
v 0.1544 5.3358 -0.4728
v -1.0735 5.5654 -0.4728
v 0.4529 5.5654 -0.1743
v -1.3719 5.5654 0.1694
v 0.1544 5.5654 0.4679
v -1.0735 5.3358 0.4679
v 0.4529 5.3358 0.1694
v 0.4529 5.3358 -0.1743
v 0.1544 5.5654 -0.4728
v 0.4529 5.5654 0.1694
v 0.1544 5.3358 0.4679
v -1.3719 5.3358 0.1694
v -1.0735 5.5654 0.4679
v -1.3719 5.5654 -0.1743
v -1.0735 5.3358 -0.4728
v 0.2619 5.3358 -0.4608
v 0.3455 5.3358 -0.425
v 0.4052 5.3358 -0.3653
v 0.441 5.3358 -0.2817
v 0.2619 5.5654 -0.4608
v 0.3455 5.5654 -0.425
v 0.4052 5.5654 -0.3653
v 0.441 5.5654 -0.2817
v 0.2619 5.5654 0.4559
v 0.3455 5.5654 0.4201
v 0.4052 5.5654 0.3604
v 0.441 5.5654 0.2769
v 0.2619 5.3358 0.4559
v 0.3455 5.3358 0.4201
v 0.4052 5.3358 0.3604
v 0.441 5.3358 0.2769
v -1.1809 5.3358 0.4559
v -1.2645 5.3358 0.4201
v -1.3242 5.3358 0.3604
v -1.36 5.3358 0.2769
v -1.1809 5.5654 0.4559
v -1.2645 5.5654 0.4201
v -1.3242 5.5654 0.3604
v -1.36 5.5654 0.2769
v -1.1809 5.5654 -0.4608
v -1.2645 5.5654 -0.425
v -1.3242 5.5654 -0.3653
v -1.36 5.5654 -0.2817
v -1.1809 5.3358 -0.4608
v -1.2645 5.3358 -0.425
v -1.3242 5.3358 -0.3653
v -1.36 5.3358 -0.2817
vt 0.6344 0.8547
vt 0.6344 0.8119
vt 0.6144 0.8119
vt 0.6144 0.8547
vt 0.6344 0.8547
vt 0.6144 0.8119
vt 0.65 0.8119
vt 0.6344 0.8119
vt 0.6344 0.8547
vt 0.65 0.8547
vt 0.65 0.8119
vt 0.6344 0.8547
vt 0.0379 0.1259
vt 0.0167 0.1259
vt 0.0167 0.2074
vt 0.0379 0.2074
vt 0.0379 0.1259
vt 0.0167 0.2074
vt 0.0675 0.1259
vt 0.0379 0.1259
vt 0.0379 0.2074
vt 0.0675 0.2074
vt 0.0675 0.1259
vt 0.0379 0.2074
vt 0.1057 0.1259
vt 0.0675 0.1259
vt 0.0675 0.2074
vt 0.1057 0.2074
vt 0.1057 0.1259
vt 0.0675 0.2074
vt 0.0322 0.8119
vt 0.0322 0.8547
vt 0.0523 0.8547
vt 0.0523 0.8119
vt 0.0322 0.8119
vt 0.0523 0.8547
vt 0.0167 0.8547
vt 0.0322 0.8547
vt 0.0322 0.8119
vt 0.0167 0.8119
vt 0.0167 0.8547
vt 0.0322 0.8119
vt 0.2955 0.1259
vt 0.2955 0.2074
vt 0.3167 0.2074
vt 0.3167 0.1259
vt 0.2955 0.1259
vt 0.3167 0.2074
vt 0.2658 0.2074
vt 0.2955 0.2074
vt 0.2955 0.1259
vt 0.2658 0.1259
vt 0.2658 0.2074
vt 0.2955 0.1259
vt 0.2277 0.2074
vt 0.2658 0.2074
vt 0.2658 0.1259
vt 0.2277 0.1259
vt 0.2277 0.2074
vt 0.2658 0.1259
vt 0.3011 0.8119
vt 0.2811 0.8119
vt 0.2811 0.8547
vt 0.3011 0.8547
vt 0.3011 0.8119
vt 0.2811 0.8547
vt 0.3167 0.8119
vt 0.3011 0.8119
vt 0.3011 0.8547
vt 0.3167 0.8547
vt 0.3167 0.8119
vt 0.3011 0.8547
vt 0.0379 0.5408
vt 0.0379 0.4592
vt 0.0167 0.4592
vt 0.0167 0.5408
vt 0.0379 0.5408
vt 0.0167 0.4592
vt 0.0675 0.4592
vt 0.0379 0.4592
vt 0.0379 0.5408
vt 0.0675 0.5408
vt 0.0675 0.4592
vt 0.0379 0.5408
vt 0.1057 0.4592
vt 0.0675 0.4592
vt 0.0675 0.5408
vt 0.1057 0.5408
vt 0.1057 0.4592
vt 0.0675 0.5408
vt 0.3656 0.8547
vt 0.3856 0.8547
vt 0.3856 0.8119
vt 0.3656 0.8119
vt 0.3656 0.8547
vt 0.3856 0.8119
vt 0.35 0.8547
vt 0.3656 0.8547
vt 0.3656 0.8119
vt 0.35 0.8119
vt 0.35 0.8547
vt 0.3656 0.8119
vt 0.2955 0.5408
vt 0.3167 0.5408
vt 0.3167 0.4592
vt 0.2955 0.4592
vt 0.2955 0.5408
vt 0.3167 0.4592
vt 0.2658 0.5408
vt 0.2955 0.5408
vt 0.2955 0.4592
vt 0.2658 0.4592
vt 0.2658 0.5408
vt 0.2955 0.4592
vt 0.2277 0.5408
vt 0.2658 0.5408
vt 0.2658 0.4592
vt 0.2277 0.4592
vt 0.2277 0.5408
vt 0.2658 0.4592
vt 0.2277 0.2074
vt 0.2277 0.1259
vt 0.1057 0.1259
vt 0.1057 0.2074
vt 0.2277 0.2074
vt 0.1057 0.1259
vt 0.4403 0.0245
vt 0.4305 0.0343
vt 0.4246 0.0481
vt 0.4541 0.0186
vt 0.4403 0.0245
vt 0.4246 0.0481
vt 0.5597 0.0245
vt 0.5459 0.0186
vt 0.5283 0.0167
vt 0.5754 0.0481
vt 0.5695 0.0343
vt 0.5597 0.0245
vt 0.5773 0.0657
vt 0.5754 0.0481
vt 0.5597 0.0245
vt 0.5773 0.2676
vt 0.5773 0.0657
vt 0.5597 0.0245
vt 0.5754 0.2853
vt 0.5773 0.2676
vt 0.5597 0.0245
vt 0.5695 0.299
vt 0.5754 0.2853
vt 0.5597 0.0245
vt 0.5597 0.3088
vt 0.5695 0.299
vt 0.5597 0.0245
vt 0.5283 0.3167
vt 0.5459 0.3147
vt 0.5597 0.3088
vt 0.4403 0.3088
vt 0.4541 0.3147
vt 0.4717 0.3167
vt 0.4246 0.2853
vt 0.4305 0.299
vt 0.4403 0.3088
vt 0.4227 0.2676
vt 0.4246 0.2853
vt 0.4403 0.3088
vt 0.4227 0.0657
vt 0.4227 0.2676
vt 0.4403 0.3088
vt 0.4246 0.0481
vt 0.4227 0.0657
vt 0.4403 0.3088
vt 0.4717 0.0167
vt 0.4541 0.0186
vt 0.4246 0.0481
vt 0.5283 0.0167
vt 0.4717 0.0167
vt 0.4246 0.0481
vt 0.5597 0.0245
vt 0.5283 0.0167
vt 0.4246 0.0481
vt 0.5283 0.3167
vt 0.5597 0.3088
vt 0.5597 0.0245
vt 0.4717 0.3167
vt 0.5283 0.3167
vt 0.5597 0.0245
vt 0.4403 0.3088
vt 0.4717 0.3167
vt 0.5597 0.0245
vt 0.4246 0.0481
vt 0.4403 0.3088
vt 0.5597 0.0245
vt 0.3856 0.8119
vt 0.3856 0.8547
vt 0.6144 0.8547
vt 0.6144 0.8119
vt 0.3856 0.8119
vt 0.6144 0.8547
vt 0.5597 0.6422
vt 0.5695 0.6323
vt 0.5754 0.6186
vt 0.5459 0.648
vt 0.5597 0.6422
vt 0.5754 0.6186
vt 0.4403 0.6422
vt 0.4541 0.648
vt 0.4717 0.65
vt 0.4246 0.6186
vt 0.4305 0.6323
vt 0.4403 0.6422
vt 0.4227 0.6009
vt 0.4246 0.6186
vt 0.4403 0.6422
vt 0.4227 0.3991
vt 0.4227 0.6009
vt 0.4403 0.6422
vt 0.4246 0.3814
vt 0.4227 0.3991
vt 0.4403 0.6422
vt 0.4305 0.3677
vt 0.4246 0.3814
vt 0.4403 0.6422
vt 0.4403 0.3578
vt 0.4305 0.3677
vt 0.4403 0.6422
vt 0.4717 0.35
vt 0.4541 0.352
vt 0.4403 0.3578
vt 0.5597 0.3578
vt 0.5459 0.352
vt 0.5283 0.35
vt 0.5754 0.3814
vt 0.5695 0.3677
vt 0.5597 0.3578
vt 0.5773 0.3991
vt 0.5754 0.3814
vt 0.5597 0.3578
vt 0.5773 0.6009
vt 0.5773 0.3991
vt 0.5597 0.3578
vt 0.5754 0.6186
vt 0.5773 0.6009
vt 0.5597 0.3578
vt 0.5283 0.65
vt 0.5459 0.648
vt 0.5754 0.6186
vt 0.4717 0.65
vt 0.5283 0.65
vt 0.5754 0.6186
vt 0.4403 0.6422
vt 0.4717 0.65
vt 0.5754 0.6186
vt 0.4717 0.35
vt 0.4403 0.3578
vt 0.4403 0.6422
vt 0.5283 0.35
vt 0.4717 0.35
vt 0.4403 0.6422
vt 0.5597 0.3578
vt 0.5283 0.35
vt 0.4403 0.6422
vt 0.5754 0.6186
vt 0.5597 0.3578
vt 0.4403 0.6422
vt 0.2811 0.8547
vt 0.2811 0.8119
vt 0.0523 0.8119
vt 0.0523 0.8547
vt 0.2811 0.8547
vt 0.0523 0.8119
vt 0.2277 0.5408
vt 0.2277 0.4592
vt 0.1057 0.4592
vt 0.1057 0.5408
vt 0.2277 0.5408
vt 0.1057 0.4592
vn 0.1109 0.0 -0.9938
vn 0.1109 0.0 -0.9938
vn 0.1109 0.0 -0.9938
vn 0.1109 0.0 -0.9938
vn 0.1109 0.0 -0.9938
vn 0.1109 0.0 -0.9938
vn 0.3937 0.0 -0.9193
vn 0.3937 0.0 -0.9193
vn 0.3937 0.0 -0.9193
vn 0.3937 0.0 -0.9193
vn 0.3937 0.0 -0.9193
vn 0.3937 0.0 -0.9193
vn 0.7071 0.0 -0.7071
vn 0.7071 0.0 -0.7071
vn 0.7071 0.0 -0.7071
vn 0.7071 0.0 -0.7071
vn 0.7071 0.0 -0.7071
vn 0.7071 0.0 -0.7071
vn 0.9193 0.0 -0.3937
vn 0.9193 0.0 -0.3937
vn 0.9193 0.0 -0.3937
vn 0.9193 0.0 -0.3937
vn 0.9193 0.0 -0.3937
vn 0.9193 0.0 -0.3937
vn 0.9939 0.0 -0.1101
vn 0.9939 0.0 -0.1101
vn 0.9939 0.0 -0.1101
vn 0.9939 0.0 -0.1101
vn 0.9939 0.0 -0.1101
vn 0.9939 0.0 -0.1101
vn 0.1109 0.0 0.9938
vn 0.1109 0.0 0.9938
vn 0.1109 0.0 0.9938
vn 0.1109 0.0 0.9938
vn 0.1109 0.0 0.9938
vn 0.1109 0.0 0.9938
vn 0.3937 0.0 0.9193
vn 0.3937 0.0 0.9193
vn 0.3937 0.0 0.9193
vn 0.3937 0.0 0.9193
vn 0.3937 0.0 0.9193
vn 0.3937 0.0 0.9193
vn 0.7071 0.0 0.7071
vn 0.7071 0.0 0.7071
vn 0.7071 0.0 0.7071
vn 0.7071 0.0 0.7071
vn 0.7071 0.0 0.7071
vn 0.7071 0.0 0.7071
vn 0.9191 0.0 0.3941
vn 0.9191 0.0 0.3941
vn 0.9191 0.0 0.3941
vn 0.9191 0.0 0.3941
vn 0.9191 0.0 0.3941
vn 0.9191 0.0 0.3941
vn 0.9939 0.0 0.11
vn 0.9939 0.0 0.11
vn 0.9939 0.0 0.11
vn 0.9939 0.0 0.11
vn 0.9939 0.0 0.11
vn 0.9939 0.0 0.11
vn -0.111 0.0 0.9938
vn -0.111 0.0 0.9938
vn -0.111 0.0 0.9938
vn -0.111 0.0 0.9938
vn -0.111 0.0 0.9938
vn -0.111 0.0 0.9938
vn -0.3937 0.0 0.9193
vn -0.3937 0.0 0.9193
vn -0.3937 0.0 0.9193
vn -0.3937 0.0 0.9193
vn -0.3937 0.0 0.9193
vn -0.3937 0.0 0.9193
vn -0.7071 0.0 0.7071
vn -0.7071 0.0 0.7071
vn -0.7071 0.0 0.7071
vn -0.7071 0.0 0.7071
vn -0.7071 0.0 0.7071
vn -0.7071 0.0 0.7071
vn -0.9191 0.0 0.3941
vn -0.9191 0.0 0.3941
vn -0.9191 0.0 0.3941
vn -0.9191 0.0 0.3941
vn -0.9191 0.0 0.3941
vn -0.9191 0.0 0.3941
vn -0.9939 0.0 0.11
vn -0.9939 0.0 0.11
vn -0.9939 0.0 0.11
vn -0.9939 0.0 0.11
vn -0.9939 0.0 0.11
vn -0.9939 0.0 0.11
vn -0.111 0.0 -0.9938
vn -0.111 0.0 -0.9938
vn -0.111 0.0 -0.9938
vn -0.111 0.0 -0.9938
vn -0.111 0.0 -0.9938
vn -0.111 0.0 -0.9938
vn -0.3937 0.0 -0.9193
vn -0.3937 0.0 -0.9193
vn -0.3937 0.0 -0.9193
vn -0.3937 0.0 -0.9193
vn -0.3937 0.0 -0.9193
vn -0.3937 0.0 -0.9193
vn -0.7071 0.0 -0.7071
vn -0.7071 0.0 -0.7071
vn -0.7071 0.0 -0.7071
vn -0.7071 0.0 -0.7071
vn -0.7071 0.0 -0.7071
vn -0.7071 0.0 -0.7071
vn -0.9193 0.0 -0.3937
vn -0.9193 0.0 -0.3937
vn -0.9193 0.0 -0.3937
vn -0.9193 0.0 -0.3937
vn -0.9193 0.0 -0.3937
vn -0.9193 0.0 -0.3937
vn -0.9939 0.0 -0.1101
vn -0.9939 0.0 -0.1101
vn -0.9939 0.0 -0.1101
vn -0.9939 0.0 -0.1101
vn -0.9939 0.0 -0.1101
vn -0.9939 0.0 -0.1101
vn 1.0 0.0 0.0
vn 1.0 0.0 0.0
vn 1.0 0.0 0.0
vn 1.0 0.0 0.0
vn 1.0 0.0 0.0
vn 1.0 0.0 0.0
vn 0.0 -1.0 0.0
vn 0.0 -1.0 0.0
vn 0.0 -1.0 0.0
vn 0.0 -1.0 0.0
vn 0.0 -1.0 0.0
vn 0.0 -1.0 0.0
vn 0.0 -1.0 0.0
vn 0.0 -1.0 0.0
vn 0.0 -1.0 0.0
vn 0.0 -1.0 0.0
vn 0.0 -1.0 0.0
vn 0.0 -1.0 0.0
vn 0.0 -1.0 0.0
vn 0.0 -1.0 0.0
vn 0.0 -1.0 0.0
vn 0.0 -1.0 0.0
vn 0.0 -1.0 0.0
vn 0.0 -1.0 0.0
vn 0.0 -1.0 0.0
vn 0.0 -1.0 0.0
vn 0.0 -1.0 0.0
vn 0.0 -1.0 0.0
vn 0.0 -1.0 0.0
vn 0.0 -1.0 0.0
vn 0.0 -1.0 0.0
vn 0.0 -1.0 0.0
vn 0.0 -1.0 0.0
vn 0.0 -1.0 0.0
vn 0.0 -1.0 0.0
vn 0.0 -1.0 0.0
vn 0.0 -1.0 0.0
vn 0.0 -1.0 0.0
vn 0.0 -1.0 0.0
vn 0.0 -1.0 0.0
vn 0.0 -1.0 0.0
vn 0.0 -1.0 0.0
vn 0.0 -1.0 0.0
vn 0.0 -1.0 0.0
vn 0.0 -1.0 0.0
vn 0.0 -1.0 0.0
vn 0.0 -1.0 0.0
vn 0.0 -1.0 0.0
vn 0.0 -1.0 0.0
vn 0.0 -1.0 0.0
vn 0.0 -1.0 0.0
vn 0.0 -1.0 0.0
vn 0.0 -1.0 0.0
vn 0.0 -1.0 0.0
vn 0.0 -1.0 0.0
vn 0.0 -1.0 0.0
vn 0.0 -1.0 0.0
vn 0.0 -1.0 0.0
vn 0.0 -1.0 0.0
vn 0.0 -1.0 0.0
vn 0.0 -1.0 0.0
vn 0.0 -1.0 0.0
vn 0.0 -1.0 0.0
vn 0.0 -1.0 0.0
vn 0.0 -1.0 0.0
vn 0.0 -1.0 0.0
vn 0.0 -1.0 0.0
vn 0.0 -1.0 0.0
vn 0.0 -1.0 0.0
vn 0.0 -1.0 0.0
vn 0.0 -1.0 0.0
vn 0.0 -1.0 0.0
vn 0.0 0.0 -1.0
vn 0.0 0.0 -1.0
vn 0.0 0.0 -1.0
vn 0.0 0.0 -1.0
vn 0.0 0.0 -1.0
vn 0.0 0.0 -1.0
vn 0.0 1.0 0.0
vn 0.0 1.0 0.0
vn 0.0 1.0 0.0
vn 0.0 1.0 0.0
vn 0.0 1.0 0.0
vn 0.0 1.0 0.0
vn 0.0 1.0 0.0
vn 0.0 1.0 0.0
vn 0.0 1.0 0.0
vn 0.0 1.0 0.0
vn 0.0 1.0 0.0
vn 0.0 1.0 0.0
vn 0.0 1.0 0.0
vn 0.0 1.0 0.0
vn 0.0 1.0 0.0
vn 0.0 1.0 0.0
vn 0.0 1.0 0.0
vn 0.0 1.0 0.0
vn 0.0 1.0 0.0
vn 0.0 1.0 0.0
vn 0.0 1.0 0.0
vn 0.0 1.0 0.0
vn 0.0 1.0 0.0
vn 0.0 1.0 0.0
vn 0.0 1.0 0.0
vn 0.0 1.0 0.0
vn 0.0 1.0 0.0
vn 0.0 1.0 0.0
vn 0.0 1.0 0.0
vn 0.0 1.0 0.0
vn 0.0 1.0 0.0
vn 0.0 1.0 0.0
vn 0.0 1.0 0.0
vn 0.0 1.0 0.0
vn 0.0 1.0 0.0
vn 0.0 1.0 0.0
vn 0.0 1.0 0.0
vn 0.0 1.0 0.0
vn 0.0 1.0 0.0
vn 0.0 1.0 0.0
vn 0.0 1.0 0.0
vn 0.0 1.0 0.0
vn 0.0 1.0 0.0
vn 0.0 1.0 0.0
vn 0.0 1.0 0.0
vn 0.0 1.0 0.0
vn 0.0 1.0 0.0
vn 0.0 1.0 0.0
vn 0.0 1.0 0.0
vn 0.0 1.0 0.0
vn 0.0 1.0 0.0
vn 0.0 1.0 0.0
vn 0.0 1.0 0.0
vn 0.0 1.0 0.0
vn 0.0 1.0 0.0
vn 0.0 1.0 0.0
vn 0.0 1.0 0.0
vn 0.0 1.0 0.0
vn 0.0 1.0 0.0
vn 0.0 1.0 0.0
vn 0.0 1.0 0.0
vn 0.0 1.0 0.0
vn 0.0 1.0 0.0
vn 0.0 1.0 0.0
vn 0.0 1.0 0.0
vn 0.0 1.0 0.0
vn 0.0 0.0 1.0
vn 0.0 0.0 1.0
vn 0.0 0.0 1.0
vn 0.0 0.0 1.0
vn 0.0 0.0 1.0
vn 0.0 0.0 1.0
vn -1.0 0.0 0.0
vn -1.0 0.0 0.0
vn -1.0 0.0 0.0
vn -1.0 0.0 0.0
vn -1.0 0.0 0.0
vn -1.0 0.0 0.0
f 21/1/1 17/2/2 2/3/3
f 10/4/4 21/5/5 2/6/6
f 18/7/7 17/8/8 21/9/9
f 22/10/10 18/11/11 21/12/12
f 19/13/13 18/14/14 22/15/15
f 23/16/16 19/17/17 22/18/18
f 20/19/19 19/20/20 23/21/21
f 24/22/22 20/23/23 23/24/24
f 9/25/25 20/26/26 24/27/27
f 4/28/28 9/29/29 24/30/30
f 29/31/31 25/32/32 6/33/33
f 12/34/34 29/35/35 6/36/36
f 26/37/37 25/38/38 29/39/39
f 30/40/40 26/41/41 29/42/42
f 31/43/43 27/44/44 26/45/45
f 30/46/46 31/47/47 26/48/48
f 28/49/49 27/50/50 31/51/51
f 32/52/52 28/53/53 31/54/54
f 11/55/55 28/56/56 32/57/57
f 8/58/58 11/59/59 32/60/60
f 33/61/61 7/62/62 14/63/63
f 37/64/64 33/65/65 14/66/66
f 34/67/67 33/68/68 37/69/69
f 38/70/70 34/71/71 37/72/72
f 39/73/73 35/74/74 34/75/75
f 38/76/76 39/77/77 34/78/78
f 36/79/79 35/80/80 39/81/81
f 40/82/82 36/83/83 39/84/84
f 13/85/85 36/86/86 40/87/87
f 5/88/88 13/89/89 40/90/90
f 41/91/91 3/92/92 16/93/93
f 45/94/94 41/95/95 16/96/96
f 42/97/97 41/98/98 45/99/99
f 46/100/100 42/101/101 45/102/102
f 43/103/103 42/104/104 46/105/105
f 47/106/106 43/107/107 46/108/108
f 44/109/109 43/110/110 47/111/111
f 48/112/112 44/113/113 47/114/114
f 15/115/115 44/116/116 48/117/117
f 1/118/118 15/119/119 48/120/120
f 11/121/121 8/122/122 9/123/123
f 4/124/124 11/125/125 9/126/126
f 47/127/127 46/128/128 45/129/129
f 48/130/130 47/131/131 45/132/132
f 35/133/133 36/134/134 13/135/135
f 33/136/136 34/137/137 35/138/138
f 7/139/139 33/140/140 35/141/141
f 12/142/142 7/143/143 35/144/144
f 29/145/145 12/146/146 35/147/147
f 30/148/148 29/149/149 35/150/150
f 31/151/151 30/152/152 35/153/153
f 8/154/154 32/155/155 31/156/156
f 19/157/157 20/158/158 9/159/159
f 17/160/160 18/161/161 19/162/162
f 2/163/163 17/164/164 19/165/165
f 16/166/166 2/167/167 19/168/168
f 45/169/169 16/170/170 19/171/171
f 1/172/172 48/173/173 45/174/174
f 13/175/175 1/176/176 45/177/177
f 35/178/178 13/179/179 45/180/180
f 8/181/181 31/182/182 35/183/183
f 9/184/184 8/185/185 35/186/186
f 19/187/187 9/188/188 35/189/189
f 45/190/190 19/191/191 35/192/192
f 16/193/193 3/194/194 10/195/195
f 2/196/196 16/197/197 10/198/198
f 39/199/199 38/200/200 37/201/201
f 40/202/202 39/203/203 37/204/204
f 43/205/205 44/206/206 15/207/207
f 41/208/208 42/209/209 43/210/210
f 3/211/211 41/212/212 43/213/213
f 10/214/214 3/215/215 43/216/216
f 21/217/217 10/218/218 43/219/219
f 22/220/220 21/221/221 43/222/222
f 23/223/223 22/224/224 43/225/225
f 4/226/226 24/227/227 23/228/228
f 27/229/229 28/230/230 11/231/231
f 25/232/232 26/233/233 27/234/234
f 6/235/235 25/236/236 27/237/237
f 14/238/238 6/239/239 27/240/240
f 37/241/241 14/242/242 27/243/243
f 5/244/244 40/245/245 37/246/246
f 15/247/247 5/248/248 37/249/249
f 43/250/250 15/251/251 37/252/252
f 4/253/253 23/254/254 43/255/255
f 11/256/256 4/257/257 43/258/258
f 27/259/259 11/260/260 43/261/261
f 37/262/262 27/263/263 43/264/264
f 14/265/265 7/266/266 12/267/267
f 6/268/268 14/269/269 12/270/270
f 15/271/271 1/272/272 13/273/273
f 5/274/274 15/275/275 13/276/276
