# Mesh 10
o Mesh10

v -0.0027 2.7355 0.001
v 0.2031 5.3775 -0.1181
v 0.2349 5.3775 0.001
v 0.2031 5.3775 0.1201
v 0.1161 5.3775 0.2073
v -0.0027 5.3775 0.2392
v -0.1214 5.3775 0.2073
v -0.2084 5.3775 0.1201
v -0.2402 5.3775 0.001
v -0.2084 5.3775 -0.1181
v -0.1214 5.3775 -0.2053
v -0.0027 5.3775 -0.2372
v 0.1161 5.3775 -0.2053
v 0.1866 1.8667 -0.1086
v 0.2159 1.8667 0.001
v 0.1866 1.8667 0.1106
v 0.1066 1.8667 0.1908
v -0.0027 1.8667 0.2201
v -0.1119 1.8667 0.1908
v -0.1919 1.8667 0.1106
v -0.2212 1.8667 0.001
v -0.1919 1.8667 -0.1086
v -0.1119 1.8667 -0.1888
v -0.0027 1.8667 -0.2181
v 0.1066 1.8667 -0.1888
v 0.2132 1.8676 -0.1239
v 0.1219 1.8676 -0.2154
v 0.2465 1.8676 0.001
v 0.2132 1.8676 0.1259
v 0.1219 1.8676 0.2174
v -0.0027 1.8676 0.2509
v -0.1273 1.8676 0.2174
v -0.2185 1.8676 0.1259
v -0.2519 1.8676 0.001
v -0.2185 1.8676 -0.1239
v -0.1273 1.8676 -0.2154
v -0.0027 1.8676 -0.2489
v 0.155 1.5128 -0.0906
v 0.0883 1.5128 -0.1575
v 0.1795 1.5128 0.001
v 0.155 1.5128 0.0926
v 0.0883 1.5128 0.1594
v -0.0027 1.5128 0.1839
v -0.0936 1.5128 0.1594
v -0.1603 1.5128 0.0926
v -0.1848 1.5128 0.001
v -0.1603 1.5128 -0.0906
v -0.0936 1.5128 -0.1575
v -0.0027 1.5128 -0.1819
v 0.143 1.6211 -0.252
v -0.0027 1.6211 -0.2911
v 0.2496 1.6211 -0.145
v 0.2886 1.6211 0.001
v 0.2496 1.6211 0.147
v 0.143 1.6211 0.254
v -0.0027 1.6211 0.2931
v -0.1483 1.6211 0.254
v -0.2549 1.6211 0.147
v -0.294 1.6211 0.001
v -0.2549 1.6211 -0.145
v -0.1483 1.6211 -0.252
v 0.1122 1.5206 -0.1988
v 0.1293 1.5413 -0.2283
v 0.1396 1.5748 -0.2461
v 0.1964 1.5206 -0.1144
v 0.226 1.5413 -0.1314
v 0.2437 1.5748 -0.1416
v 0.2272 1.5206 0.001
v 0.2613 1.5413 0.001
v 0.2818 1.5748 0.001
v 0.1964 1.5206 0.1164
v 0.226 1.5413 0.1334
v 0.2437 1.5748 0.1436
v 0.1122 1.5206 0.2008
v 0.1293 1.5413 0.2303
v 0.1396 1.5748 0.2481
v -0.0027 1.5206 0.2317
v -0.0027 1.5413 0.2658
v -0.0027 1.5748 0.2863
v -0.1175 1.5206 0.2008
v -0.1346 1.5413 0.2303
v -0.1449 1.5748 0.2481
v -0.2017 1.5206 0.1164
v -0.2313 1.5413 0.1334
v -0.249 1.5748 0.1436
v -0.2326 1.5206 0.001
v -0.2667 1.5413 0.001
v -0.2871 1.5748 0.001
v -0.2017 1.5206 -0.1144
v -0.2313 1.5413 -0.1314
v -0.249 1.5748 -0.1416
v -0.0027 1.5206 -0.2297
v -0.0027 1.5413 -0.2638
v -0.0027 1.5748 -0.2843
v -0.1175 1.5206 -0.1988
v -0.1346 1.5413 -0.2283
v -0.1449 1.5748 -0.2461
v 0.0883 2.7397 -0.1575
v -0.0027 2.7397 -0.1819
v -0.0936 2.7397 -0.1575
v -0.1603 2.7397 -0.0906
v -0.1848 2.7397 0.001
v -0.1603 2.7397 0.0926
v -0.0936 2.7397 0.1594
v -0.0027 2.7397 0.1839
v 0.0883 2.7397 0.1594
v 0.155 2.7397 0.0926
v 0.1795 2.7397 0.001
v 0.155 2.7397 -0.0906
vt 0.4518 0.2496
vt 0.5 0.2625
vt 0.5 0.1667
vt 0.1667 0.3167
vt 0.1667 0.0441
vt 0.1582 0.0441
vt 0.1582 0.0441
vt 0.1574 0.3167
vt 0.1667 0.3167
vt 0.5 0.2625
vt 0.5482 0.2496
vt 0.5 0.1667
vt 0.1759 0.3167
vt 0.1752 0.0441
vt 0.1667 0.0441
vt 0.1667 0.0441
vt 0.1667 0.3167
vt 0.1759 0.3167
vt 0.5482 0.2496
vt 0.5833 0.2145
vt 0.5 0.1667
vt 0.1827 0.3167
vt 0.1814 0.0441
vt 0.1752 0.0441
vt 0.1752 0.0441
vt 0.1759 0.3167
vt 0.1827 0.3167
vt 0.5833 0.2145
vt 0.5962 0.1667
vt 0.5 0.1667
vt 0.1667 0.9833
vt 0.1667 0.7108
vt 0.1582 0.7108
vt 0.1582 0.7108
vt 0.1574 0.9833
vt 0.1667 0.9833
vt 0.5962 0.1667
vt 0.5833 0.1189
vt 0.5 0.1667
vt 0.1759 0.9833
vt 0.1751 0.7108
vt 0.1667 0.7108
vt 0.1667 0.7108
vt 0.1667 0.9833
vt 0.1759 0.9833
vt 0.5833 0.1189
vt 0.5482 0.0838
vt 0.5 0.1667
vt 0.1574 0.65
vt 0.1582 0.3775
vt 0.1519 0.3775
vt 0.1519 0.3775
vt 0.1507 0.65
vt 0.1574 0.65
vt 0.5482 0.0838
vt 0.5 0.0709
vt 0.5 0.1667
vt 0.1667 0.65
vt 0.1667 0.3775
vt 0.1582 0.3775
vt 0.1582 0.3775
vt 0.1574 0.65
vt 0.1667 0.65
vt 0.5 0.0709
vt 0.4518 0.0838
vt 0.5 0.1667
vt 0.1759 0.65
vt 0.1752 0.3775
vt 0.1667 0.3775
vt 0.1667 0.3775
vt 0.1667 0.65
vt 0.1759 0.65
vt 0.4518 0.0838
vt 0.4167 0.1189
vt 0.5 0.1667
vt 0.1827 0.65
vt 0.1814 0.3775
vt 0.1752 0.3775
vt 0.1752 0.3775
vt 0.1759 0.65
vt 0.1827 0.65
vt 0.4167 0.1189
vt 0.4038 0.1667
vt 0.5 0.1667
vt 0.5 0.9833
vt 0.5 0.7108
vt 0.4915 0.7108
vt 0.4915 0.7108
vt 0.4908 0.9833
vt 0.5 0.9833
vt 0.4038 0.1667
vt 0.4167 0.2145
vt 0.5 0.1667
vt 0.5092 0.9833
vt 0.5085 0.7108
vt 0.5 0.7108
vt 0.5 0.7108
vt 0.5 0.9833
vt 0.5092 0.9833
vt 0.1574 0.3167
vt 0.1582 0.0441
vt 0.1519 0.0441
vt 0.1519 0.0441
vt 0.1507 0.3167
vt 0.1574 0.3167
vt 0.4167 0.2145
vt 0.4518 0.2496
vt 0.5 0.1667
vt 0.4342 0.3864
vt 0.425 0.3704
vt 0.3701 0.4252
vt 0.3861 0.4344
vt 0.4342 0.3864
vt 0.3701 0.4252
vt 0.5 0.3688
vt 0.5 0.3504
vt 0.425 0.3704
vt 0.4342 0.3864
vt 0.5 0.3688
vt 0.425 0.3704
vt 0.5658 0.3864
vt 0.575 0.3704
vt 0.5 0.3504
vt 0.5 0.3688
vt 0.5658 0.3864
vt 0.5 0.3504
vt 0.6139 0.4344
vt 0.6299 0.4252
vt 0.575 0.3704
vt 0.5658 0.3864
vt 0.6139 0.4344
vt 0.575 0.3704
vt 0.6315 0.5
vt 0.65 0.5
vt 0.6299 0.4252
vt 0.6139 0.4344
vt 0.6315 0.5
vt 0.6299 0.4252
vt 0.6139 0.5655
vt 0.6299 0.5748
vt 0.65 0.5
vt 0.6315 0.5
vt 0.6139 0.5655
vt 0.65 0.5
vt 0.5658 0.6136
vt 0.575 0.6295
vt 0.6299 0.5748
vt 0.6139 0.5655
vt 0.5658 0.6136
vt 0.6299 0.5748
vt 0.5 0.6312
vt 0.5 0.6496
vt 0.575 0.6295
vt 0.5658 0.6136
vt 0.5 0.6312
vt 0.575 0.6295
vt 0.4342 0.6136
vt 0.425 0.6295
vt 0.5 0.6496
vt 0.5 0.6312
vt 0.4342 0.6136
vt 0.5 0.6496
vt 0.3861 0.5655
vt 0.3701 0.5748
vt 0.425 0.6295
vt 0.4342 0.6136
vt 0.3861 0.5655
vt 0.425 0.6295
vt 0.3685 0.5
vt 0.35 0.5
vt 0.3701 0.5748
vt 0.3861 0.5655
vt 0.3685 0.5
vt 0.3701 0.5748
vt 0.3861 0.4344
vt 0.3701 0.4252
vt 0.35 0.5
vt 0.3685 0.5
vt 0.3861 0.4344
vt 0.35 0.5
vt 0.157 0.0442
vt 0.1553 0.0251
vt 0.147 0.0251
vt 0.1499 0.0442
vt 0.157 0.0442
vt 0.147 0.0251
vt 0.1667 0.0442
vt 0.1667 0.0251
vt 0.1553 0.0251
vt 0.157 0.0442
vt 0.1667 0.0442
vt 0.1553 0.0251
vt 0.1764 0.0442
vt 0.178 0.0251
vt 0.1667 0.0251
vt 0.1667 0.0442
vt 0.1764 0.0442
vt 0.1667 0.0251
vt 0.1835 0.0442
vt 0.1863 0.0251
vt 0.178 0.0251
vt 0.1764 0.0442
vt 0.1835 0.0442
vt 0.178 0.0251
vt 0.1667 0.7109
vt 0.1667 0.6917
vt 0.1554 0.6917
vt 0.157 0.7109
vt 0.1667 0.7109
vt 0.1554 0.6917
vt 0.1763 0.7109
vt 0.178 0.6917
vt 0.1667 0.6917
vt 0.1667 0.7109
vt 0.1763 0.7109
vt 0.1667 0.6917
vt 0.157 0.3775
vt 0.1553 0.3584
vt 0.147 0.3584
vt 0.1499 0.3775
vt 0.157 0.3775
vt 0.147 0.3584
vt 0.1667 0.3775
vt 0.1667 0.3584
vt 0.1553 0.3584
vt 0.157 0.3775
vt 0.1667 0.3775
vt 0.1553 0.3584
vt 0.1764 0.3775
vt 0.178 0.3584
vt 0.1667 0.3584
vt 0.1667 0.3775
vt 0.1764 0.3775
vt 0.1667 0.3584
vt 0.1835 0.3775
vt 0.1863 0.3584
vt 0.178 0.3584
vt 0.1764 0.3775
vt 0.1835 0.3775
vt 0.178 0.3584
vt 0.5 0.7109
vt 0.5 0.6917
vt 0.4887 0.6917
vt 0.4903 0.7109
vt 0.5 0.7109
vt 0.4887 0.6917
vt 0.5097 0.7109
vt 0.5113 0.6917
vt 0.5 0.6917
vt 0.5 0.7109
vt 0.5097 0.7109
vt 0.5 0.6917
vt 0.4167 0.2145
vt 0.4038 0.1667
vt 0.3787 0.1667
vt 0.4167 0.2145
vt 0.3787 0.1667
vt 0.395 0.2271
vt 0.3794 0.2361
vt 0.395 0.2271
vt 0.3787 0.1667
vt 0.3608 0.1667
vt 0.3794 0.2361
vt 0.3787 0.1667
vt 0.3608 0.1667
vt 0.35 0.1667
vt 0.3701 0.2415
vt 0.3608 0.1667
vt 0.3701 0.2415
vt 0.3794 0.2361
vt 0.5 0.6917
vt 0.5113 0.6917
vt 0.511 0.6881
vt 0.5 0.6881
vt 0.5 0.6917
vt 0.511 0.6881
vt 0.4518 0.2496
vt 0.4167 0.2145
vt 0.395 0.2271
vt 0.4518 0.2496
vt 0.395 0.2271
vt 0.4393 0.2713
vt 0.4304 0.2869
vt 0.4393 0.2713
vt 0.395 0.2271
vt 0.3794 0.2361
vt 0.4304 0.2869
vt 0.395 0.2271
vt 0.1489 0.0189
vt 0.1475 0.0215
vt 0.1556 0.0215
vt 0.1489 0.0189
vt 0.1556 0.0215
vt 0.1564 0.0189
vt 0.147 0.0251
vt 0.1553 0.0251
vt 0.1556 0.0215
vt 0.1475 0.0215
vt 0.147 0.0251
vt 0.1556 0.0215
vt 0.5 0.2625
vt 0.4518 0.2496
vt 0.4393 0.2713
vt 0.5 0.2625
vt 0.4393 0.2713
vt 0.5 0.2875
vt 0.1667 0.0189
vt 0.1667 0.0173
vt 0.1577 0.0173
vt 0.1564 0.0189
vt 0.1667 0.0189
vt 0.1577 0.0173
vt 0.1564 0.0189
vt 0.1556 0.0215
vt 0.1667 0.0215
vt 0.1564 0.0189
vt 0.1667 0.0215
vt 0.1667 0.0189
vt 0.1553 0.0251
vt 0.1667 0.0251
vt 0.1667 0.0215
vt 0.1556 0.0215
vt 0.1553 0.0251
vt 0.1667 0.0215
vt 0.5482 0.2496
vt 0.5 0.2625
vt 0.5 0.2875
vt 0.5482 0.2496
vt 0.5 0.2875
vt 0.5607 0.2713
vt 0.1769 0.0189
vt 0.1756 0.0173
vt 0.1667 0.0173
vt 0.1667 0.0189
vt 0.1769 0.0189
vt 0.1667 0.0173
vt 0.1667 0.0189
vt 0.1667 0.0215
vt 0.1777 0.0215
vt 0.1667 0.0189
vt 0.1777 0.0215
vt 0.1769 0.0189
vt 0.1667 0.0251
vt 0.178 0.0251
vt 0.1777 0.0215
vt 0.1667 0.0215
vt 0.1667 0.0251
vt 0.1777 0.0215
vt 0.5833 0.2145
vt 0.5482 0.2496
vt 0.5607 0.2713
vt 0.5833 0.2145
vt 0.5607 0.2713
vt 0.605 0.2271
vt 0.6206 0.2361
vt 0.605 0.2271
vt 0.5607 0.2713
vt 0.5696 0.2869
vt 0.6206 0.2361
vt 0.5607 0.2713
vt 0.1769 0.0189
vt 0.1777 0.0215
vt 0.1858 0.0215
vt 0.1769 0.0189
vt 0.1858 0.0215
vt 0.1845 0.0189
vt 0.178 0.0251
vt 0.1863 0.0251
vt 0.1858 0.0215
vt 0.1777 0.0215
vt 0.178 0.0251
vt 0.1858 0.0215
vt 0.5962 0.1667
vt 0.5833 0.2145
vt 0.605 0.2271
vt 0.5962 0.1667
vt 0.605 0.2271
vt 0.6213 0.1667
vt 0.6392 0.1667
vt 0.6213 0.1667
vt 0.605 0.2271
vt 0.6206 0.2361
vt 0.6392 0.1667
vt 0.605 0.2271
vt 0.6206 0.2361
vt 0.6299 0.2415
vt 0.65 0.1667
vt 0.6206 0.2361
vt 0.65 0.1667
vt 0.6392 0.1667
vt 0.1554 0.6917
vt 0.1667 0.6917
vt 0.1667 0.6881
vt 0.1556 0.6881
vt 0.1554 0.6917
vt 0.1667 0.6881
vt 0.5833 0.1189
vt 0.5962 0.1667
vt 0.6213 0.1667
vt 0.5833 0.1189
vt 0.6213 0.1667
vt 0.605 0.1063
vt 0.6206 0.0973
vt 0.605 0.1063
vt 0.6213 0.1667
vt 0.6392 0.1667
vt 0.6206 0.0973
vt 0.6213 0.1667
vt 0.6392 0.1667
vt 0.65 0.1667
vt 0.6299 0.0919
vt 0.6392 0.1667
vt 0.6299 0.0919
vt 0.6206 0.0973
vt 0.1667 0.6917
vt 0.178 0.6917
vt 0.1777 0.6881
vt 0.1667 0.6881
vt 0.1667 0.6917
vt 0.1777 0.6881
vt 0.5482 0.0838
vt 0.5833 0.1189
vt 0.605 0.1063
vt 0.5482 0.0838
vt 0.605 0.1063
vt 0.5607 0.062
vt 0.5696 0.0465
vt 0.5607 0.062
vt 0.605 0.1063
vt 0.6206 0.0973
vt 0.5696 0.0465
vt 0.605 0.1063
vt 0.1489 0.3522
vt 0.1475 0.3548
vt 0.1556 0.3548
vt 0.1489 0.3522
vt 0.1556 0.3548
vt 0.1564 0.3522
vt 0.147 0.3584
vt 0.1553 0.3584
vt 0.1556 0.3548
vt 0.1475 0.3548
vt 0.147 0.3584
vt 0.1556 0.3548
vt 0.5 0.0709
vt 0.5482 0.0838
vt 0.5607 0.062
vt 0.5 0.0709
vt 0.5607 0.062
vt 0.5 0.0458
vt 0.1667 0.3522
vt 0.1667 0.3506
vt 0.1577 0.3506
vt 0.1564 0.3522
vt 0.1667 0.3522
vt 0.1577 0.3506
vt 0.1564 0.3522
vt 0.1556 0.3548
vt 0.1667 0.3548
vt 0.1564 0.3522
vt 0.1667 0.3548
vt 0.1667 0.3522
vt 0.1553 0.3584
vt 0.1667 0.3584
vt 0.1667 0.3548
vt 0.1556 0.3548
vt 0.1553 0.3584
vt 0.1667 0.3548
vt 0.4518 0.0838
vt 0.5 0.0709
vt 0.5 0.0458
vt 0.4518 0.0838
vt 0.5 0.0458
vt 0.4393 0.062
vt 0.1769 0.3522
vt 0.1756 0.3506
vt 0.1667 0.3506
vt 0.1667 0.3522
vt 0.1769 0.3522
vt 0.1667 0.3506
vt 0.1667 0.3522
vt 0.1667 0.3548
vt 0.1777 0.3548
vt 0.1667 0.3522
vt 0.1777 0.3548
vt 0.1769 0.3522
vt 0.1667 0.3584
vt 0.178 0.3584
vt 0.1777 0.3548
vt 0.1667 0.3548
vt 0.1667 0.3584
vt 0.1777 0.3548
vt 0.4167 0.1189
vt 0.4518 0.0838
vt 0.4393 0.062
vt 0.4167 0.1189
vt 0.4393 0.062
vt 0.395 0.1063
vt 0.3794 0.0973
vt 0.395 0.1063
vt 0.4393 0.062
vt 0.4304 0.0465
vt 0.3794 0.0973
vt 0.4393 0.062
vt 0.1769 0.3522
vt 0.1777 0.3548
vt 0.1858 0.3548
vt 0.1769 0.3522
vt 0.1858 0.3548
vt 0.1845 0.3522
vt 0.178 0.3584
vt 0.1863 0.3584
vt 0.1858 0.3548
vt 0.1777 0.3548
vt 0.178 0.3584
vt 0.1858 0.3548
vt 0.4038 0.1667
vt 0.4167 0.1189
vt 0.395 0.1063
vt 0.4038 0.1667
vt 0.395 0.1063
vt 0.3787 0.1667
vt 0.3608 0.1667
vt 0.3787 0.1667
vt 0.395 0.1063
vt 0.3794 0.0973
vt 0.3608 0.1667
vt 0.395 0.1063
vt 0.3794 0.0973
vt 0.3701 0.0919
vt 0.35 0.1667
vt 0.3794 0.0973
vt 0.35 0.1667
vt 0.3608 0.1667
vt 0.4887 0.6917
vt 0.5 0.6917
vt 0.5 0.6881
vt 0.489 0.6881
vt 0.4887 0.6917
vt 0.5 0.6881
vt 0.1596 0.6833
vt 0.1596 0.7786
vt 0.1667 0.7786
vt 0.1667 0.6833
vt 0.1596 0.6833
vt 0.1667 0.7786
vt 0.1667 0.6833
vt 0.1667 0.7786
vt 0.1737 0.7786
vt 0.1737 0.6833
vt 0.1667 0.6833
vt 0.1737 0.7786
vt 0.1544 0.0167
vt 0.1544 0.1119
vt 0.1596 0.1119
vt 0.1596 0.0167
vt 0.1544 0.0167
vt 0.1596 0.1119
vt 0.1596 0.0167
vt 0.1596 0.1119
vt 0.1667 0.1119
vt 0.1667 0.0167
vt 0.1596 0.0167
vt 0.1667 0.1119
vt 0.1667 0.0167
vt 0.1667 0.1119
vt 0.1738 0.1119
vt 0.1738 0.0167
vt 0.1667 0.0167
vt 0.1738 0.1119
vt 0.1738 0.0167
vt 0.1738 0.1119
vt 0.179 0.1119
vt 0.179 0.0167
vt 0.1738 0.0167
vt 0.179 0.1119
vt 0.4929 0.6833
vt 0.4929 0.7786
vt 0.5 0.7786
vt 0.5 0.6833
vt 0.4929 0.6833
vt 0.5 0.7786
vt 0.5 0.6833
vt 0.5 0.7786
vt 0.5071 0.7786
vt 0.5071 0.6833
vt 0.5 0.6833
vt 0.5071 0.7786
vt 0.1544 0.35
vt 0.1544 0.4452
vt 0.1596 0.4452
vt 0.1596 0.35
vt 0.1544 0.35
vt 0.1596 0.4452
vt 0.1596 0.35
vt 0.1596 0.4452
vt 0.1667 0.4452
vt 0.1667 0.35
vt 0.1596 0.35
vt 0.1667 0.4452
vt 0.1667 0.35
vt 0.1667 0.4452
vt 0.1738 0.4452
vt 0.1738 0.35
vt 0.1667 0.35
vt 0.1738 0.4452
vt 0.1738 0.35
vt 0.1738 0.4452
vt 0.179 0.4452
vt 0.179 0.35
vt 0.1738 0.35
vt 0.179 0.4452
vn 0.023 -0.9997 -0.0062
vn 0.023 -0.9997 -0.0062
vn 0.023 -0.9997 -0.0062
vn 0.9661 -0.0052 -0.2583
vn 0.9661 -0.0052 -0.2583
vn 0.9661 -0.0052 -0.2583
vn 0.9661 -0.0052 -0.258
vn 0.9661 -0.0052 -0.258
vn 0.9661 -0.0052 -0.258
vn 0.023 -0.9997 0.0062
vn 0.023 -0.9997 0.0062
vn 0.023 -0.9997 0.0062
vn 0.9661 -0.0052 0.2583
vn 0.9661 -0.0052 0.2583
vn 0.9661 -0.0052 0.2583
vn 0.9661 -0.0052 0.258
vn 0.9661 -0.0052 0.258
vn 0.9661 -0.0052 0.258
vn 0.0169 -0.9997 0.0168
vn 0.0169 -0.9997 0.0168
vn 0.0169 -0.9997 0.0168
vn 0.708 -0.0052 0.7062
vn 0.708 -0.0052 0.7062
vn 0.708 -0.0052 0.7062
vn 0.7079 -0.0052 0.7063
vn 0.7079 -0.0052 0.7063
vn 0.7079 -0.0052 0.7063
vn 0.0062 -0.9997 0.023
vn 0.0062 -0.9997 0.023
vn 0.0062 -0.9997 0.023
vn 0.2589 -0.0053 0.9659
vn 0.2589 -0.0053 0.9659
vn 0.2589 -0.0053 0.9659
vn 0.2593 -0.0052 0.9658
vn 0.2593 -0.0052 0.9658
vn 0.2593 -0.0052 0.9658
vn -0.0062 -0.9997 0.023
vn -0.0062 -0.9997 0.023
vn -0.0062 -0.9997 0.023
vn -0.2591 -0.0052 0.9658
vn -0.2591 -0.0052 0.9658
vn -0.2591 -0.0052 0.9658
vn -0.2595 -0.0053 0.9657
vn -0.2595 -0.0053 0.9657
vn -0.2595 -0.0053 0.9657
vn -0.0169 -0.9997 0.0168
vn -0.0169 -0.9997 0.0168
vn -0.0169 -0.9997 0.0168
vn -0.708 -0.0052 0.7062
vn -0.708 -0.0052 0.7062
vn -0.708 -0.0052 0.7062
vn -0.7079 -0.0052 0.7063
vn -0.7079 -0.0052 0.7063
vn -0.7079 -0.0052 0.7063
vn -0.0231 -0.9997 0.0062
vn -0.0231 -0.9997 0.0062
vn -0.0231 -0.9997 0.0062
vn -0.9661 -0.0052 0.2583
vn -0.9661 -0.0052 0.2583
vn -0.9661 -0.0052 0.2583
vn -0.9661 -0.0052 0.258
vn -0.9661 -0.0052 0.258
vn -0.9661 -0.0052 0.258
vn -0.0231 -0.9997 -0.0062
vn -0.0231 -0.9997 -0.0062
vn -0.0231 -0.9997 -0.0062
vn -0.9661 -0.0052 -0.2583
vn -0.9661 -0.0052 -0.2583
vn -0.9661 -0.0052 -0.2583
vn -0.9661 -0.0052 -0.258
vn -0.9661 -0.0052 -0.258
vn -0.9661 -0.0052 -0.258
vn -0.0169 -0.9997 -0.0168
vn -0.0169 -0.9997 -0.0168
vn -0.0169 -0.9997 -0.0168
vn -0.708 -0.0052 -0.7062
vn -0.708 -0.0052 -0.7062
vn -0.708 -0.0052 -0.7062
vn -0.7079 -0.0052 -0.7063
vn -0.7079 -0.0052 -0.7063
vn -0.7079 -0.0052 -0.7063
vn -0.0062 -0.9997 -0.023
vn -0.0062 -0.9997 -0.023
vn -0.0062 -0.9997 -0.023
vn -0.2591 -0.0053 -0.9658
vn -0.2591 -0.0053 -0.9658
vn -0.2591 -0.0053 -0.9658
vn -0.2595 -0.0052 -0.9657
vn -0.2595 -0.0052 -0.9657
vn -0.2595 -0.0052 -0.9657
vn 0.0062 -0.9997 -0.023
vn 0.0062 -0.9997 -0.023
vn 0.0062 -0.9997 -0.023
vn 0.2589 -0.0052 -0.9659
vn 0.2589 -0.0052 -0.9659
vn 0.2589 -0.0052 -0.9659
vn 0.2593 -0.0053 -0.9658
vn 0.2593 -0.0053 -0.9658
vn 0.2593 -0.0053 -0.9658
vn 0.708 -0.0052 -0.7062
vn 0.708 -0.0052 -0.7062
vn 0.708 -0.0052 -0.7062
vn 0.7079 -0.0052 -0.7063
vn 0.7079 -0.0052 -0.7063
vn 0.7079 -0.0052 -0.7063
vn 0.0169 -0.9997 -0.0168
vn 0.0169 -0.9997 -0.0168
vn 0.0169 -0.9997 -0.0168
vn -0.0215 0.9995 0.0214
vn -0.0215 0.9995 0.0214
vn -0.0215 0.9995 0.0214
vn -0.0215 0.9995 0.0215
vn -0.0215 0.9995 0.0215
vn -0.0215 0.9995 0.0215
vn -0.0294 0.9995 0.0078
vn -0.0294 0.9995 0.0078
vn -0.0294 0.9995 0.0078
vn -0.0293 0.9995 0.0078
vn -0.0293 0.9995 0.0078
vn -0.0293 0.9995 0.0078
vn -0.0293 0.9995 -0.0078
vn -0.0293 0.9995 -0.0078
vn -0.0293 0.9995 -0.0078
vn -0.0294 0.9995 -0.0079
vn -0.0294 0.9995 -0.0079
vn -0.0294 0.9995 -0.0079
vn -0.0215 0.9995 -0.0215
vn -0.0215 0.9995 -0.0215
vn -0.0215 0.9995 -0.0215
vn -0.0215 0.9995 -0.0214
vn -0.0215 0.9995 -0.0214
vn -0.0215 0.9995 -0.0214
vn -0.0079 0.9995 -0.0292
vn -0.0079 0.9995 -0.0292
vn -0.0079 0.9995 -0.0292
vn -0.0079 0.9995 -0.0293
vn -0.0079 0.9995 -0.0293
vn -0.0079 0.9995 -0.0293
vn 0.0079 0.9995 -0.0293
vn 0.0079 0.9995 -0.0293
vn 0.0079 0.9995 -0.0293
vn 0.0078 0.9995 -0.0292
vn 0.0078 0.9995 -0.0292
vn 0.0078 0.9995 -0.0292
vn 0.0215 0.9995 -0.0214
vn 0.0215 0.9995 -0.0214
vn 0.0215 0.9995 -0.0214
vn 0.0215 0.9995 -0.0214
vn 0.0215 0.9995 -0.0214
vn 0.0215 0.9995 -0.0214
vn 0.0293 0.9995 -0.0078
vn 0.0293 0.9995 -0.0078
vn 0.0293 0.9995 -0.0078
vn 0.0293 0.9995 -0.0078
vn 0.0293 0.9995 -0.0078
vn 0.0293 0.9995 -0.0078
vn 0.0293 0.9995 0.0078
vn 0.0293 0.9995 0.0078
vn 0.0293 0.9995 0.0078
vn 0.0293 0.9995 0.0078
vn 0.0293 0.9995 0.0078
vn 0.0293 0.9995 0.0078
vn 0.0215 0.9995 0.0214
vn 0.0215 0.9995 0.0214
vn 0.0215 0.9995 0.0214
vn 0.0215 0.9995 0.0214
vn 0.0215 0.9995 0.0214
vn 0.0215 0.9995 0.0214
vn 0.0079 0.9995 0.0292
vn 0.0079 0.9995 0.0292
vn 0.0079 0.9995 0.0292
vn 0.0079 0.9995 0.0293
vn 0.0079 0.9995 0.0293
vn 0.0079 0.9995 0.0293
vn -0.0079 0.9995 0.0293
vn -0.0079 0.9995 0.0293
vn -0.0079 0.9995 0.0293
vn -0.0078 0.9995 0.0292
vn -0.0078 0.9995 0.0292
vn -0.0078 0.9995 0.0292
vn 0.699 0.1628 -0.6964
vn 0.699 0.1628 -0.6964
vn 0.699 0.1628 -0.6964
vn 0.6984 0.1632 -0.6969
vn 0.6984 0.1632 -0.6969
vn 0.6984 0.1632 -0.6969
vn 0.9532 0.1628 -0.2546
vn 0.9532 0.1628 -0.2546
vn 0.9532 0.1628 -0.2546
vn 0.9534 0.1625 -0.2542
vn 0.9534 0.1625 -0.2542
vn 0.9534 0.1625 -0.2542
vn 0.9533 0.1626 0.2546
vn 0.9533 0.1626 0.2546
vn 0.9533 0.1626 0.2546
vn 0.9534 0.1628 0.2542
vn 0.9534 0.1628 0.2542
vn 0.9534 0.1628 0.2542
vn 0.6989 0.1632 0.6963
vn 0.6989 0.1632 0.6963
vn 0.6989 0.1632 0.6963
vn 0.6984 0.1628 0.6969
vn 0.6984 0.1628 0.6969
vn 0.6984 0.1628 0.6969
vn 0.2557 0.1631 0.9529
vn 0.2557 0.1631 0.9529
vn 0.2557 0.1631 0.9529
vn 0.2562 0.1634 0.9527
vn 0.2562 0.1634 0.9527
vn 0.2562 0.1634 0.9527
vn -0.2559 0.1633 0.9528
vn -0.2559 0.1633 0.9528
vn -0.2559 0.1633 0.9528
vn -0.2562 0.1631 0.9528
vn -0.2562 0.1631 0.9528
vn -0.2562 0.1631 0.9528
vn -0.699 0.1628 0.6964
vn -0.699 0.1628 0.6964
vn -0.699 0.1628 0.6964
vn -0.6988 0.1629 0.6965
vn -0.6988 0.1629 0.6965
vn -0.6988 0.1629 0.6965
vn -0.9531 0.1628 0.2552
vn -0.9531 0.1628 0.2552
vn -0.9531 0.1628 0.2552
vn -0.9532 0.1626 0.2549
vn -0.9532 0.1626 0.2549
vn -0.9532 0.1626 0.2549
vn -0.9531 0.1626 -0.2552
vn -0.9531 0.1626 -0.2552
vn -0.9531 0.1626 -0.2552
vn -0.9532 0.1628 -0.2549
vn -0.9532 0.1628 -0.2549
vn -0.9532 0.1628 -0.2549
vn -0.699 0.1629 -0.6963
vn -0.699 0.1629 -0.6963
vn -0.699 0.1629 -0.6963
vn -0.6988 0.1628 -0.6965
vn -0.6988 0.1628 -0.6965
vn -0.6988 0.1628 -0.6965
vn -0.2559 0.1631 -0.9528
vn -0.2559 0.1631 -0.9528
vn -0.2559 0.1631 -0.9528
vn -0.2562 0.1633 -0.9527
vn -0.2562 0.1633 -0.9527
vn -0.2562 0.1633 -0.9527
vn 0.2557 0.1634 -0.9529
vn 0.2557 0.1634 -0.9529
vn 0.2557 0.1634 -0.9529
vn 0.2562 0.1631 -0.9528
vn 0.2562 0.1631 -0.9528
vn 0.2562 0.1631 -0.9528
vn 0.0431 -0.986 -0.1609
vn 0.0431 -0.986 -0.1609
vn 0.0431 -0.986 -0.1609
vn 0.0433 -0.986 -0.1611
vn 0.0433 -0.986 -0.1611
vn 0.0433 -0.986 -0.1611
vn 0.1382 -0.8466 -0.5139
vn 0.1382 -0.8466 -0.5139
vn 0.1382 -0.8466 -0.5139
vn 0.1382 -0.8466 -0.5139
vn 0.1382 -0.8466 -0.5139
vn 0.1382 -0.8466 -0.5139
vn 0.2232 -0.5088 -0.8314
vn 0.2232 -0.5088 -0.8314
vn 0.2232 -0.5088 -0.8314
vn 0.2234 -0.51 -0.8306
vn 0.2234 -0.51 -0.8306
vn 0.2234 -0.51 -0.8306
vn 0.2566 -0.1407 -0.9562
vn 0.2566 -0.1407 -0.9562
vn 0.2566 -0.1407 -0.9562
vn 0.2567 -0.1404 -0.9562
vn 0.2567 -0.1404 -0.9562
vn 0.2567 -0.1404 -0.9562
vn 0.1182 -0.986 -0.1178
vn 0.1182 -0.986 -0.1178
vn 0.1182 -0.986 -0.1178
vn 0.1181 -0.986 -0.1178
vn 0.1181 -0.986 -0.1178
vn 0.1181 -0.986 -0.1178
vn 0.3765 -0.8469 -0.3756
vn 0.3765 -0.8469 -0.3756
vn 0.3765 -0.8469 -0.3756
vn 0.3766 -0.8467 -0.3758
vn 0.3766 -0.8467 -0.3758
vn 0.3766 -0.8467 -0.3758
vn 0.6094 -0.5099 -0.6071
vn 0.6094 -0.5099 -0.6071
vn 0.6094 -0.5099 -0.6071
vn 0.6099 -0.5076 -0.6086
vn 0.6099 -0.5076 -0.6086
vn 0.6099 -0.5076 -0.6086
vn 0.7014 -0.1407 -0.6988
vn 0.7014 -0.1407 -0.6988
vn 0.7014 -0.1407 -0.6988
vn 0.7014 -0.1405 -0.6987
vn 0.7014 -0.1405 -0.6987
vn 0.7014 -0.1405 -0.6987
vn 0.161 -0.986 -0.0431
vn 0.161 -0.986 -0.0431
vn 0.161 -0.986 -0.0431
vn 0.1612 -0.986 -0.043
vn 0.1612 -0.986 -0.043
vn 0.1612 -0.986 -0.043
vn 0.514 -0.8467 -0.1372
vn 0.514 -0.8467 -0.1372
vn 0.514 -0.8467 -0.1372
vn 0.5137 -0.847 -0.137
vn 0.5137 -0.847 -0.137
vn 0.5137 -0.847 -0.137
vn 0.8324 -0.5075 -0.2224
vn 0.8324 -0.5075 -0.2224
vn 0.8324 -0.5075 -0.2224
vn 0.8317 -0.509 -0.2218
vn 0.8317 -0.509 -0.2218
vn 0.8317 -0.509 -0.2218
vn 0.9565 -0.1405 -0.2555
vn 0.9565 -0.1405 -0.2555
vn 0.9565 -0.1405 -0.2555
vn 0.9565 -0.1407 -0.2556
vn 0.9565 -0.1407 -0.2556
vn 0.9565 -0.1407 -0.2556
vn 0.1612 -0.986 0.0431
vn 0.1612 -0.986 0.0431
vn 0.1612 -0.986 0.0431
vn 0.1611 -0.986 0.043
vn 0.1611 -0.986 0.043
vn 0.1611 -0.986 0.043
vn 0.5136 -0.847 0.1371
vn 0.5136 -0.847 0.1371
vn 0.5136 -0.847 0.1371
vn 0.514 -0.8468 0.137
vn 0.514 -0.8468 0.137
vn 0.514 -0.8468 0.137
vn 0.8316 -0.5089 0.2222
vn 0.8316 -0.5089 0.2222
vn 0.8316 -0.5089 0.2222
vn 0.8326 -0.5075 0.222
vn 0.8326 -0.5075 0.222
vn 0.8326 -0.5075 0.222
vn 0.9565 -0.1407 0.2555
vn 0.9565 -0.1407 0.2555
vn 0.9565 -0.1407 0.2555
vn 0.9565 -0.1405 0.2556
vn 0.9565 -0.1405 0.2556
vn 0.9565 -0.1405 0.2556
vn 0.118 -0.986 0.1178
vn 0.118 -0.986 0.1178
vn 0.118 -0.986 0.1178
vn 0.118 -0.986 0.1177
vn 0.118 -0.986 0.1177
vn 0.118 -0.986 0.1177
vn 0.3767 -0.8467 0.3758
vn 0.3767 -0.8467 0.3758
vn 0.3767 -0.8467 0.3758
vn 0.3765 -0.8468 0.3757
vn 0.3765 -0.8468 0.3757
vn 0.3765 -0.8468 0.3757
vn 0.6104 -0.5076 0.6081
vn 0.6104 -0.5076 0.6081
vn 0.6104 -0.5076 0.6081
vn 0.6088 -0.51 0.6076
vn 0.6088 -0.51 0.6076
vn 0.6088 -0.51 0.6076
vn 0.7014 -0.1406 0.6988
vn 0.7014 -0.1406 0.6988
vn 0.7014 -0.1406 0.6988
vn 0.7014 -0.1407 0.6987
vn 0.7014 -0.1407 0.6987
vn 0.7014 -0.1407 0.6987
vn 0.0433 -0.986 0.1608
vn 0.0433 -0.986 0.1608
vn 0.0433 -0.986 0.1608
vn 0.0433 -0.986 0.1609
vn 0.0433 -0.986 0.1609
vn 0.0433 -0.986 0.1609
vn 0.1382 -0.8466 0.5139
vn 0.1382 -0.8466 0.5139
vn 0.1382 -0.8466 0.5139
vn 0.1382 -0.8466 0.5139
vn 0.1382 -0.8466 0.5139
vn 0.1382 -0.8466 0.5139
vn 0.223 -0.51 0.8308
vn 0.223 -0.51 0.8308
vn 0.223 -0.51 0.8308
vn 0.2236 -0.5087 0.8314
vn 0.2236 -0.5087 0.8314
vn 0.2236 -0.5087 0.8314
vn 0.2566 -0.1404 0.9563
vn 0.2566 -0.1404 0.9563
vn 0.2566 -0.1404 0.9563
vn 0.2567 -0.1407 0.9562
vn 0.2567 -0.1407 0.9562
vn 0.2567 -0.1407 0.9562
vn -0.0434 -0.986 0.1609
vn -0.0434 -0.986 0.1609
vn -0.0434 -0.986 0.1609
vn -0.0433 -0.986 0.1608
vn -0.0433 -0.986 0.1608
vn -0.0433 -0.986 0.1608
vn -0.1383 -0.8466 0.5139
vn -0.1383 -0.8466 0.5139
vn -0.1383 -0.8466 0.5139
vn -0.1383 -0.8466 0.5139
vn -0.1383 -0.8466 0.5139
vn -0.1383 -0.8466 0.5139
vn -0.2233 -0.5088 0.8314
vn -0.2233 -0.5088 0.8314
vn -0.2233 -0.5088 0.8314
vn -0.2235 -0.5101 0.8306
vn -0.2235 -0.5101 0.8306
vn -0.2235 -0.5101 0.8306
vn -0.2568 -0.1407 0.9562
vn -0.2568 -0.1407 0.9562
vn -0.2568 -0.1407 0.9562
vn -0.2569 -0.1404 0.9562
vn -0.2569 -0.1404 0.9562
vn -0.2569 -0.1404 0.9562
vn -0.1179 -0.986 0.1177
vn -0.1179 -0.986 0.1177
vn -0.1179 -0.986 0.1177
vn -0.1181 -0.986 0.1178
vn -0.1181 -0.986 0.1178
vn -0.1181 -0.986 0.1178
vn -0.3765 -0.8469 0.3756
vn -0.3765 -0.8469 0.3756
vn -0.3765 -0.8469 0.3756
vn -0.3766 -0.8467 0.3758
vn -0.3766 -0.8467 0.3758
vn -0.3766 -0.8467 0.3758
vn -0.6094 -0.5099 0.6071
vn -0.6094 -0.5099 0.6071
vn -0.6094 -0.5099 0.6071
vn -0.6099 -0.5076 0.6086
vn -0.6099 -0.5076 0.6086
vn -0.6099 -0.5076 0.6086
vn -0.7014 -0.1407 0.6988
vn -0.7014 -0.1407 0.6988
vn -0.7014 -0.1407 0.6988
vn -0.7014 -0.1405 0.6987
vn -0.7014 -0.1405 0.6987
vn -0.7014 -0.1405 0.6987
vn -0.161 -0.986 0.0431
vn -0.161 -0.986 0.0431
vn -0.161 -0.986 0.0431
vn -0.1609 -0.986 0.0431
vn -0.1609 -0.986 0.0431
vn -0.1609 -0.986 0.0431
vn -0.514 -0.8467 0.1376
vn -0.514 -0.8467 0.1376
vn -0.514 -0.8467 0.1376
vn -0.5135 -0.847 0.1373
vn -0.5135 -0.847 0.1373
vn -0.5135 -0.847 0.1373
vn -0.8324 -0.5075 0.2224
vn -0.8324 -0.5075 0.2224
vn -0.8324 -0.5075 0.2224
vn -0.8327 -0.5071 0.2226
vn -0.8327 -0.5071 0.2226
vn -0.8327 -0.5071 0.2226
vn -0.9561 -0.1425 0.2561
vn -0.9561 -0.1425 0.2561
vn -0.9561 -0.1425 0.2561
vn -0.9565 -0.1407 0.2556
vn -0.9565 -0.1407 0.2556
vn -0.9565 -0.1407 0.2556
vn -0.1609 -0.986 -0.043
vn -0.1609 -0.986 -0.043
vn -0.1609 -0.986 -0.043
vn -0.161 -0.986 -0.0431
vn -0.161 -0.986 -0.0431
vn -0.161 -0.986 -0.0431
vn -0.5134 -0.8471 -0.1375
vn -0.5134 -0.8471 -0.1375
vn -0.5134 -0.8471 -0.1375
vn -0.514 -0.8467 -0.1374
vn -0.514 -0.8467 -0.1374
vn -0.514 -0.8467 -0.1374
vn -0.8327 -0.5071 -0.2225
vn -0.8327 -0.5071 -0.2225
vn -0.8327 -0.5071 -0.2225
vn -0.8324 -0.5076 -0.2226
vn -0.8324 -0.5076 -0.2226
vn -0.8324 -0.5076 -0.2226
vn -0.9564 -0.1407 -0.2561
vn -0.9564 -0.1407 -0.2561
vn -0.9564 -0.1407 -0.2561
vn -0.9563 -0.1425 -0.2555
vn -0.9563 -0.1425 -0.2555
vn -0.9563 -0.1425 -0.2555
vn -0.1181 -0.986 -0.1177
vn -0.1181 -0.986 -0.1177
vn -0.1181 -0.986 -0.1177
vn -0.1181 -0.986 -0.1179
vn -0.1181 -0.986 -0.1179
vn -0.1181 -0.986 -0.1179
vn -0.3767 -0.8467 -0.3758
vn -0.3767 -0.8467 -0.3758
vn -0.3767 -0.8467 -0.3758
vn -0.3765 -0.8468 -0.3757
vn -0.3765 -0.8468 -0.3757
vn -0.3765 -0.8468 -0.3757
vn -0.6104 -0.5076 -0.6081
vn -0.6104 -0.5076 -0.6081
vn -0.6104 -0.5076 -0.6081
vn -0.6088 -0.51 -0.6076
vn -0.6088 -0.51 -0.6076
vn -0.6088 -0.51 -0.6076
vn -0.7014 -0.1406 -0.6988
vn -0.7014 -0.1406 -0.6988
vn -0.7014 -0.1406 -0.6988
vn -0.7014 -0.1407 -0.6987
vn -0.7014 -0.1407 -0.6987
vn -0.7014 -0.1407 -0.6987
vn -0.0433 -0.986 -0.1612
vn -0.0433 -0.986 -0.1612
vn -0.0433 -0.986 -0.1612
vn -0.0433 -0.986 -0.1609
vn -0.0433 -0.986 -0.1609
vn -0.0433 -0.986 -0.1609
vn -0.1383 -0.8466 -0.5139
vn -0.1383 -0.8466 -0.5139
vn -0.1383 -0.8466 -0.5139
vn -0.1383 -0.8466 -0.5139
vn -0.1383 -0.8466 -0.5139
vn -0.1383 -0.8466 -0.5139
vn -0.2232 -0.51 -0.8307
vn -0.2232 -0.51 -0.8307
vn -0.2232 -0.51 -0.8307
vn -0.2238 -0.5087 -0.8313
vn -0.2238 -0.5087 -0.8313
vn -0.2238 -0.5087 -0.8313
vn -0.2568 -0.1404 -0.9562
vn -0.2568 -0.1404 -0.9562
vn -0.2568 -0.1404 -0.9562
vn -0.2569 -0.1407 -0.9562
vn -0.2569 -0.1407 -0.9562
vn -0.2569 -0.1407 -0.9562
vn -0.259 0.0 0.9659
vn -0.259 0.0 0.9659
vn -0.259 0.0 0.9659
vn -0.259 0.0 0.9659
vn -0.259 0.0 0.9659
vn -0.259 0.0 0.9659
vn 0.2592 0.0 0.9658
vn 0.2592 0.0 0.9658
vn 0.2592 0.0 0.9658
vn 0.2592 0.0 0.9658
vn 0.2592 0.0 0.9658
vn 0.2592 0.0 0.9658
vn 0.7082 0.0 0.706
vn 0.7082 0.0 0.706
vn 0.7082 0.0 0.706
vn 0.7082 0.0 0.706
vn 0.7082 0.0 0.706
vn 0.7082 0.0 0.706
vn 0.966 0.0 0.2584
vn 0.966 0.0 0.2584
vn 0.966 0.0 0.2584
vn 0.966 0.0 0.2584
vn 0.966 0.0 0.2584
vn 0.966 0.0 0.2584
vn 0.966 0.0 -0.2584
vn 0.966 0.0 -0.2584
vn 0.966 0.0 -0.2584
vn 0.966 0.0 -0.2584
vn 0.966 0.0 -0.2584
vn 0.966 0.0 -0.2584
vn 0.7076 0.0 -0.7066
vn 0.7076 0.0 -0.7066
vn 0.7076 0.0 -0.7066
vn 0.7076 0.0 -0.7066
vn 0.7076 0.0 -0.7066
vn 0.7076 0.0 -0.7066
vn 0.2602 0.0 -0.9655
vn 0.2602 0.0 -0.9655
vn 0.2602 0.0 -0.9655
vn 0.2602 0.0 -0.9655
vn 0.2602 0.0 -0.9655
vn 0.2602 0.0 -0.9655
vn -0.26 0.0 -0.9656
vn -0.26 0.0 -0.9656
vn -0.26 0.0 -0.9656
vn -0.26 0.0 -0.9656
vn -0.26 0.0 -0.9656
vn -0.26 0.0 -0.9656
vn -0.7076 0.0 -0.7066
vn -0.7076 0.0 -0.7066
vn -0.7076 0.0 -0.7066
vn -0.7076 0.0 -0.7066
vn -0.7076 0.0 -0.7066
vn -0.7076 0.0 -0.7066
vn -0.966 0.0 -0.2584
vn -0.966 0.0 -0.2584
vn -0.966 0.0 -0.2584
vn -0.966 0.0 -0.2584
vn -0.966 0.0 -0.2584
vn -0.966 0.0 -0.2584
vn -0.966 0.0 0.2584
vn -0.966 0.0 0.2584
vn -0.966 0.0 0.2584
vn -0.966 0.0 0.2584
vn -0.966 0.0 0.2584
vn -0.966 0.0 0.2584
vn -0.7082 0.0 0.706
vn -0.7082 0.0 0.706
vn -0.7082 0.0 0.706
vn -0.7082 0.0 0.706
vn -0.7082 0.0 0.706
vn -0.7082 0.0 0.706
f 109/1/1 108/2/2 1/3/3
f 3/4/4 15/5/5 14/6/6
f 14/7/7 2/8/8 3/9/9
f 108/10/10 107/11/11 1/12/12
f 4/13/13 16/14/14 15/15/15
f 15/16/16 3/17/17 4/18/18
f 107/19/19 106/20/20 1/21/21
f 5/22/22 17/23/23 16/24/24
f 16/25/25 4/26/26 5/27/27
f 106/28/28 105/29/29 1/30/30
f 6/31/31 18/32/32 17/33/33
f 17/34/34 5/35/35 6/36/36
f 105/37/37 104/38/38 1/39/39
f 7/40/40 19/41/41 18/42/42
f 18/43/43 6/44/44 7/45/45
f 104/46/46 103/47/47 1/48/48
f 8/49/49 20/50/50 19/51/51
f 19/52/52 7/53/53 8/54/54
f 103/55/55 102/56/56 1/57/57
f 9/58/58 21/59/59 20/60/60
f 20/61/61 8/62/62 9/63/63
f 102/64/64 101/65/65 1/66/66
f 10/67/67 22/68/68 21/69/69
f 21/70/70 9/71/71 10/72/72
f 101/73/73 100/74/74 1/75/75
f 11/76/76 23/77/77 22/78/78
f 22/79/79 10/80/80 11/81/81
f 100/82/82 99/83/83 1/84/84
f 12/85/85 24/86/86 23/87/87
f 23/88/88 11/89/89 12/90/90
f 99/91/91 98/92/92 1/93/93
f 13/94/94 25/95/95 24/96/96
f 24/97/97 12/98/98 13/99/99
f 2/100/100 14/101/101 25/102/102
f 25/103/103 13/104/104 2/105/105
f 98/106/106 109/107/107 1/108/108
f 14/109/109 26/110/110 27/111/111
f 25/112/112 14/113/113 27/114/114
f 15/115/115 28/116/116 26/117/117
f 14/118/118 15/119/119 26/120/120
f 16/121/121 29/122/122 28/123/123
f 15/124/124 16/125/125 28/126/126
f 17/127/127 30/128/128 29/129/129
f 16/130/130 17/131/131 29/132/132
f 18/133/133 31/134/134 30/135/135
f 17/136/136 18/137/137 30/138/138
f 19/139/139 32/140/140 31/141/141
f 18/142/142 19/143/143 31/144/144
f 20/145/145 33/146/146 32/147/147
f 19/148/148 20/149/149 32/150/150
f 21/151/151 34/152/152 33/153/153
f 20/154/154 21/155/155 33/156/156
f 22/157/157 35/158/158 34/159/159
f 21/160/160 22/161/161 34/162/162
f 23/163/163 36/164/164 35/165/165
f 22/166/166 23/167/167 35/168/168
f 24/169/169 37/170/170 36/171/171
f 23/172/172 24/173/173 36/174/174
f 25/175/175 27/176/176 37/177/177
f 24/178/178 25/179/179 37/180/180
f 26/181/181 52/182/182 50/183/183
f 27/184/184 26/185/185 50/186/186
f 28/187/187 53/188/188 52/189/189
f 26/190/190 28/191/191 52/192/192
f 29/193/193 54/194/194 53/195/195
f 28/196/196 29/197/197 53/198/198
f 30/199/199 55/200/200 54/201/201
f 29/202/202 30/203/203 54/204/204
f 31/205/205 56/206/206 55/207/207
f 30/208/208 31/209/209 55/210/210
f 32/211/211 57/212/212 56/213/213
f 31/214/214 32/215/215 56/216/216
f 33/217/217 58/218/218 57/219/219
f 32/220/220 33/221/221 57/222/222
f 34/223/223 59/224/224 58/225/225
f 33/226/226 34/227/227 58/228/228
f 35/229/229 60/230/230 59/231/231
f 34/232/232 35/233/233 59/234/234
f 36/235/235 61/236/236 60/237/237
f 35/238/238 36/239/239 60/240/240
f 37/241/241 51/242/242 61/243/243
f 36/244/244 37/245/245 61/246/246
f 27/247/247 50/248/248 51/249/249
f 37/250/250 27/251/251 51/252/252
f 39/253/253 49/254/254 92/255/255
f 39/256/256 92/257/257 62/258/258
f 63/259/259 62/260/260 92/261/261
f 93/262/262 63/263/263 92/264/264
f 93/265/265 94/266/266 64/267/267
f 93/268/268 64/269/269 63/270/270
f 51/271/271 50/272/272 64/273/273
f 94/274/274 51/275/275 64/276/276
f 38/277/277 39/278/278 62/279/279
f 38/280/280 62/281/281 65/282/282
f 66/283/283 65/284/284 62/285/285
f 63/286/286 66/287/287 62/288/288
f 63/289/289 64/290/290 67/291/291
f 63/292/292 67/293/293 66/294/294
f 50/295/295 52/296/296 67/297/297
f 64/298/298 50/299/299 67/300/300
f 40/301/301 38/302/302 65/303/303
f 40/304/304 65/305/305 68/306/306
f 69/307/307 68/308/308 65/309/309
f 66/310/310 69/311/311 65/312/312
f 66/313/313 67/314/314 70/315/315
f 66/316/316 70/317/317 69/318/318
f 52/319/319 53/320/320 70/321/321
f 67/322/322 52/323/323 70/324/324
f 41/325/325 40/326/326 68/327/327
f 41/328/328 68/329/329 71/330/330
f 72/331/331 71/332/332 68/333/333
f 69/334/334 72/335/335 68/336/336
f 69/337/337 70/338/338 73/339/339
f 69/340/340 73/341/341 72/342/342
f 53/343/343 54/344/344 73/345/345
f 70/346/346 53/347/347 73/348/348
f 42/349/349 41/350/350 71/351/351
f 42/352/352 71/353/353 74/354/354
f 75/355/355 74/356/356 71/357/357
f 72/358/358 75/359/359 71/360/360
f 72/361/361 73/362/362 76/363/363
f 72/364/364 76/365/365 75/366/366
f 54/367/367 55/368/368 76/369/369
f 73/370/370 54/371/371 76/372/372
f 43/373/373 42/374/374 74/375/375
f 43/376/376 74/377/377 77/378/378
f 78/379/379 77/380/380 74/381/381
f 75/382/382 78/383/383 74/384/384
f 75/385/385 76/386/386 79/387/387
f 75/388/388 79/389/389 78/390/390
f 55/391/391 56/392/392 79/393/393
f 76/394/394 55/395/395 79/396/396
f 44/397/397 43/398/398 77/399/399
f 44/400/400 77/401/401 80/402/402
f 81/403/403 80/404/404 77/405/405
f 78/406/406 81/407/407 77/408/408
f 78/409/409 79/410/410 82/411/411
f 78/412/412 82/413/413 81/414/414
f 56/415/415 57/416/416 82/417/417
f 79/418/418 56/419/419 82/420/420
f 45/421/421 44/422/422 80/423/423
f 45/424/424 80/425/425 83/426/426
f 84/427/427 83/428/428 80/429/429
f 81/430/430 84/431/431 80/432/432
f 81/433/433 82/434/434 85/435/435
f 81/436/436 85/437/437 84/438/438
f 57/439/439 58/440/440 85/441/441
f 82/442/442 57/443/443 85/444/444
f 46/445/445 45/446/446 83/447/447
f 46/448/448 83/449/449 86/450/450
f 87/451/451 86/452/452 83/453/453
f 84/454/454 87/455/455 83/456/456
f 84/457/457 85/458/458 88/459/459
f 84/460/460 88/461/461 87/462/462
f 58/463/463 59/464/464 88/465/465
f 85/466/466 58/467/467 88/468/468
f 47/469/469 46/470/470 86/471/471
f 47/472/472 86/473/473 89/474/474
f 90/475/475 89/476/476 86/477/477
f 87/478/478 90/479/479 86/480/480
f 87/481/481 88/482/482 91/483/483
f 87/484/484 91/485/485 90/486/486
f 59/487/487 60/488/488 91/489/489
f 88/490/490 59/491/491 91/492/492
f 48/493/493 47/494/494 89/495/495
f 48/496/496 89/497/497 95/498/498
f 96/499/499 95/500/500 89/501/501
f 90/502/502 96/503/503 89/504/504
f 90/505/505 91/506/506 97/507/507
f 90/508/508 97/509/509 96/510/510
f 60/511/511 61/512/512 97/513/513
f 91/514/514 60/515/515 97/516/516
f 49/517/517 48/518/518 95/519/519
f 49/520/520 95/521/521 92/522/522
f 93/523/523 92/524/524 95/525/525
f 96/526/526 93/527/527 95/528/528
f 96/529/529 97/530/530 94/531/531
f 96/532/532 94/533/533 93/534/534
f 61/535/535 51/536/536 94/537/537
f 97/538/538 61/539/539 94/540/540
f 39/541/541 98/542/542 99/543/543
f 49/544/544 39/545/545 99/546/546
f 49/547/547 99/548/548 100/549/549
f 48/550/550 49/551/551 100/552/552
f 48/553/553 100/554/554 101/555/555
f 47/556/556 48/557/557 101/558/558
f 47/559/559 101/560/560 102/561/561
f 46/562/562 47/563/563 102/564/564
f 46/565/565 102/566/566 103/567/567
f 45/568/568 46/569/569 103/570/570
f 45/571/571 103/572/572 104/573/573
f 44/574/574 45/575/575 104/576/576
f 44/577/577 104/578/578 105/579/579
f 43/580/580 44/581/581 105/582/582
f 43/583/583 105/584/584 106/585/585
f 42/586/586 43/587/587 106/588/588
f 42/589/589 106/590/590 107/591/591
f 41/592/592 42/593/593 107/594/594
f 41/595/595 107/596/596 108/597/597
f 40/598/598 41/599/599 108/600/600
f 40/601/601 108/602/602 109/603/603
f 38/604/604 40/605/605 109/606/606
f 38/607/607 109/608/608 98/609/609
f 39/610/610 38/611/611 98/612/612
